<svg width="18" height="19" viewBox="0 0 18 19" fill="none" xmlns="http://www.w3.org/2000/svg">
<path fill-rule="evenodd" clip-rule="evenodd" d="M2.25 8.8252C2.25 5.99695 2.25 4.58245 3.129 3.7042C4.008 2.82595 5.42175 2.8252 8.25 2.8252H9.75C12.5782 2.8252 13.9927 2.8252 14.871 3.7042C15.7492 4.5832 15.75 5.99695 15.75 8.8252V10.3252C15.75 13.1534 15.75 14.5679 14.871 15.4462C13.992 16.3244 12.5782 16.3252 9.75 16.3252H8.25C5.42175 16.3252 4.00725 16.3252 3.129 15.4462C2.25075 14.5672 2.25 13.1534 2.25 10.3252V8.8252ZM13.5 6.2002C13.5 6.49856 13.3815 6.78471 13.1705 6.99569C12.9595 7.20667 12.6734 7.3252 12.375 7.3252C12.0766 7.3252 11.7905 7.20667 11.5795 6.99569C11.3685 6.78471 11.25 6.49856 11.25 6.2002C11.25 5.90183 11.3685 5.61568 11.5795 5.4047C11.7905 5.19372 12.0766 5.0752 12.375 5.0752C12.6734 5.0752 12.9595 5.19372 13.1705 5.4047C13.3815 5.61568 13.5 5.90183 13.5 6.2002ZM10.5 10.3252C10.5 10.723 10.342 11.1046 10.0607 11.3859C9.77936 11.6672 9.39782 11.8252 9 11.8252C8.60218 11.8252 8.22064 11.6672 7.93934 11.3859C7.65804 11.1046 7.5 10.723 7.5 10.3252C7.5 9.92737 7.65804 9.54584 7.93934 9.26454C8.22064 8.98323 8.60218 8.8252 9 8.8252C9.39782 8.8252 9.77936 8.98323 10.0607 9.26454C10.342 9.54584 10.5 9.92737 10.5 10.3252ZM12 10.3252C12 11.1208 11.6839 11.8839 11.1213 12.4465C10.5587 13.0091 9.79565 13.3252 9 13.3252C8.20435 13.3252 7.44129 13.0091 6.87868 12.4465C6.31607 11.8839 6 11.1208 6 10.3252C6 9.52955 6.31607 8.76648 6.87868 8.20387C7.44129 7.64127 8.20435 7.3252 9 7.3252C9.79565 7.3252 10.5587 7.64127 11.1213 8.20387C11.6839 8.76648 12 9.52955 12 10.3252Z" fill="white"/>
</svg>
