<svg width="16" height="14" viewBox="0 0 16 14" fill="none" xmlns="http://www.w3.org/2000/svg">
<path d="M15.845 2.0752C15.2675 2.3377 14.645 2.5102 14 2.5927C14.66 2.1952 15.17 1.5652 15.41 0.807695C14.7875 1.1827 14.0975 1.4452 13.37 1.5952C12.7775 0.950195 11.945 0.575195 11 0.575195C9.23753 0.575195 7.79753 2.0152 7.79753 3.7927C7.79753 4.0477 7.82753 4.2952 7.88003 4.5277C5.21003 4.3927 2.83253 3.1102 1.25003 1.1677C0.972529 1.6402 0.815029 2.1952 0.815029 2.7802C0.815029 3.8977 1.37753 4.8877 2.24753 5.4502C1.71503 5.4502 1.22003 5.3002 0.785029 5.0752V5.0977C0.785029 6.6577 1.89503 7.9627 3.36503 8.2552C2.89316 8.3849 2.39756 8.40287 1.91753 8.3077C2.12123 8.94706 2.52018 9.5065 3.05829 9.90739C3.5964 10.3083 4.24661 10.5305 4.91753 10.5427C3.78028 11.4431 2.37054 11.9297 0.920029 11.9227C0.665029 11.9227 0.410029 11.9077 0.155029 11.8777C1.58003 12.7927 3.27503 13.3252 5.09003 13.3252C11 13.3252 14.2475 8.4202 14.2475 4.1677C14.2475 4.0252 14.2475 3.89019 14.24 3.74769C14.87 3.29769 15.41 2.7277 15.845 2.0752Z" fill="white"/>
</svg>
