<svg width="460" height="180" viewBox="0 0 460 180" fill="none" xmlns="http://www.w3.org/2000/svg">
<rect width="460" height="180" fill="#B91C1C"/>
<rect x="171" y="31" width="118" height="119" rx="16" fill="#B91C1C"/>
<path d="M206.326 48.6818C206.662 49.183 207.192 49.4159 207.512 49.2021C207.831 48.9882 207.818 48.4086 207.483 47.9075C207.147 47.4063 206.616 47.1733 206.297 47.3872C205.977 47.601 205.991 48.1806 206.326 48.6818Z" fill="white"/>
<path d="M204.49 49.3922C204.948 49.8493 205.551 49.9867 205.839 49.699C206.127 49.4113 205.99 48.8074 205.532 48.3503C205.075 47.8931 204.471 47.7557 204.184 48.0435C203.896 48.3312 204.033 48.935 204.49 49.3922Z" fill="white"/>
<path d="M253.111 49.9325C252.79 50.4199 252.789 50.9865 253.11 51.1981C253.431 51.4097 253.952 51.1861 254.273 50.6987C254.595 50.2113 254.595 49.6447 254.274 49.4331C253.953 49.2215 253.433 49.4451 253.111 49.9325Z" fill="white"/>
<path d="M198.916 50.7814C199.154 51.3095 199.63 51.6099 199.981 51.4523C200.332 51.2948 200.423 50.7389 200.186 50.2108C199.949 49.6827 199.472 49.3823 199.122 49.5399C198.771 49.6975 198.679 50.2533 198.916 50.7814Z" fill="white"/>
<path d="M208.223 51.8735C208.186 51.9376 208.165 51.9881 208.159 52.0249C208.105 52.3123 208.061 52.6025 208.028 52.8956C207.952 53.5625 207.495 53.9615 206.852 53.5683C206.01 53.0558 205.072 51.4658 205.629 50.4495C206.185 49.4361 208.031 49.3721 208.916 49.806C209.592 50.1379 209.502 50.7378 208.98 51.1601C208.751 51.3464 208.53 51.5386 208.316 51.7367C208.289 51.7638 208.258 51.8095 208.223 51.8735Z" fill="white"/>
<path d="M197.043 51.2638C197.429 51.7542 197.998 51.9501 198.314 51.7015C198.63 51.4528 198.573 50.8537 198.187 50.3634C197.801 49.873 197.232 49.677 196.916 49.9256C196.6 50.1743 196.657 50.7734 197.043 51.2638Z" fill="white"/>
<path d="M256.098 51.3951C256.555 50.9446 256.696 50.3463 256.412 50.0589C256.129 49.7714 255.529 49.9037 255.072 50.3543C254.615 50.8048 254.474 51.4031 254.758 51.6905C255.041 51.978 255.641 51.8457 256.098 51.3951Z" fill="white"/>
<path d="M203.783 51.4747C204.394 51.609 204.961 51.3919 205.049 50.9898C205.137 50.5877 204.714 50.1528 204.103 50.0185C203.492 49.8841 202.925 50.1012 202.836 50.5033C202.748 50.9054 203.172 51.3403 203.783 51.4747Z" fill="white"/>
<path d="M267.808 53.7387C267.068 55.7477 267.509 57.7589 268.792 58.2309C270.075 58.703 271.714 57.4571 272.454 55.4481C273.193 53.4391 272.752 51.4279 271.469 50.9558C270.186 50.4838 268.547 51.7297 267.808 53.7387Z" fill="white"/>
<path d="M213.735 52.2991C213.898 52.9046 214.345 53.3106 214.734 53.2059C215.122 53.1012 215.304 52.5253 215.141 51.9198C214.977 51.3142 214.53 50.9082 214.142 51.0129C213.754 51.1177 213.571 51.6935 213.735 52.2991Z" fill="white"/>
<path d="M215.656 52.624C215.687 53.2118 216.028 53.6718 216.418 53.6513C216.809 53.6309 217.1 53.1378 217.069 52.5499C217.038 51.9621 216.697 51.5022 216.307 51.5226C215.916 51.5431 215.625 52.0362 215.656 52.624Z" fill="white"/>
<path d="M254.991 52.4443C255.08 52.6093 255.121 52.7908 255.113 52.9889C255.078 54.0818 254.613 54.9661 253.716 55.6417C253.608 55.7226 253.479 55.7693 253.346 55.7755C253.212 55.7818 253.08 55.7473 252.967 55.6767C252.417 55.3301 252.574 54.2672 252.364 53.8829C252.155 53.5014 251.173 53.0617 251.179 52.4123C251.18 52.2788 251.221 52.1485 251.298 52.0388C251.375 51.9291 251.484 51.845 251.61 51.7978C252.662 51.4057 253.658 51.4891 254.598 52.0483C254.769 52.1492 254.9 52.2812 254.991 52.4443Z" fill="white"/>
<path d="M196.047 53.2253C196.618 53.457 197.206 53.3357 197.361 52.9542C197.516 52.5727 197.179 52.0756 196.608 51.8439C196.037 51.6121 195.449 51.7335 195.294 52.115C195.139 52.4964 195.476 52.9935 196.047 53.2253Z" fill="white"/>
<path d="M261.324 55.1494C261.044 57.1646 261.861 58.943 263.148 59.1216C264.435 59.3002 265.705 57.8114 265.985 55.7962C266.265 53.781 265.448 52.0026 264.161 51.824C262.873 51.6454 261.603 53.1343 261.324 55.1494Z" fill="white"/>
<path d="M200.364 54.1945C200.201 54.4158 200.154 54.8235 200.125 55.0157C200.052 55.5224 199.717 56.0786 199.15 55.9038C198.369 55.6592 197.958 54.5876 197.763 53.8042C197.639 53.3111 197.718 52.8704 197.999 52.4822C198.281 52.0939 198.675 51.8813 199.182 51.8444C199.988 51.7862 201.133 51.8415 201.61 52.5055C201.954 52.9918 201.529 53.4839 201.069 53.7111C200.897 53.7984 200.524 53.9702 200.364 54.1945Z" fill="white"/>
<path d="M204.495 53.3499C205.105 53.3605 205.604 53.0576 205.611 52.6732C205.618 52.2889 205.129 51.9687 204.52 51.9581C203.91 51.9475 203.411 52.2504 203.404 52.6347C203.397 53.019 203.886 53.3392 204.495 53.3499Z" fill="white"/>
<path d="M256.773 53.4694C257.384 53.3461 257.815 52.924 257.735 52.5267C257.655 52.1294 257.094 51.9074 256.483 52.0307C255.871 52.154 255.44 52.5761 255.52 52.9734C255.6 53.3707 256.161 53.5928 256.773 53.4694Z" fill="white"/>
<path d="M212.09 53.7508C212.553 54.1784 213.153 54.2816 213.43 53.9814C213.707 53.6812 213.556 53.0912 213.093 52.6637C212.63 52.2361 212.03 52.1329 211.753 52.4331C211.476 52.7333 211.627 53.3233 212.09 53.7508Z" fill="white"/>
<path d="M244.332 54.2337C244.122 54.8076 244.25 55.3818 244.617 55.5161C244.984 55.6504 245.451 55.294 245.661 54.7201C245.871 54.1462 245.744 53.572 245.377 53.4377C245.01 53.3034 244.542 53.6598 244.332 54.2337Z" fill="white"/>
<path d="M246.357 54.1794C246.02 54.7221 246.021 55.3317 246.359 55.541C246.697 55.7503 247.243 55.4801 247.58 54.9375C247.916 54.3948 247.915 53.7852 247.577 53.5759C247.24 53.3666 246.693 53.6368 246.357 54.1794Z" fill="white"/>
<path d="M215.684 56.3465C215.122 56.6755 214.712 58.1607 213.806 57.3598C213.037 56.6784 213.279 54.2993 214.176 53.7751C215.07 53.248 217.265 54.1944 217.484 55.202C217.743 56.3785 216.246 56.0174 215.684 56.3465Z" fill="white"/>
<path d="M196.483 55.165C197.081 55.2565 197.612 55.0278 197.669 54.6542C197.726 54.2806 197.288 53.9036 196.69 53.8121C196.092 53.7206 195.562 53.9493 195.504 54.3229C195.447 54.6965 195.885 55.0736 196.483 55.165Z" fill="white"/>
<path d="M256.123 55.3766C256.715 55.3673 257.19 55.0391 257.184 54.6435C257.177 54.2479 256.693 53.9348 256.101 53.9441C255.509 53.9534 255.034 54.2816 255.041 54.6772C255.047 55.0728 255.532 55.3859 256.123 55.3766Z" fill="white"/>
<path d="M211.7 55.712C212.203 56.0387 212.782 56.04 212.993 55.715C213.204 55.3899 212.967 54.8615 212.464 54.5348C211.961 54.2081 211.382 54.2067 211.171 54.5318C210.96 54.8569 211.197 55.3852 211.7 55.712Z" fill="white"/>
<path d="M248.745 56.7889C249.301 56.5066 249.605 55.9871 249.423 55.6285C249.241 55.2699 248.643 55.2081 248.086 55.4905C247.53 55.7728 247.226 56.2923 247.408 56.6509C247.59 57.0095 248.188 57.0713 248.745 56.7889Z" fill="white"/>
<path d="M246.729 56.23C247.036 56.5542 247.166 57.0055 247.12 57.5841C247.059 58.3237 246.848 58.9314 246.485 59.407C246.275 59.6827 246.069 59.8283 245.867 59.8438C245.693 59.8554 245.522 59.8119 245.379 59.7201C245.237 59.6283 245.132 59.4935 245.081 59.3371C244.984 59.0323 244.85 58.7139 244.679 58.382C244.658 58.3393 244.627 58.2965 244.586 58.2538C244.545 58.2111 244.505 58.1772 244.464 58.1519C244.142 57.9617 243.831 57.8093 243.532 57.6947C243.379 57.6352 243.251 57.523 243.168 57.3758C243.084 57.2287 243.051 57.055 243.072 56.8823C243.099 56.6823 243.256 56.4853 243.544 56.2911C244.039 55.9553 244.657 55.7796 245.399 55.764C245.981 55.7504 246.425 55.9058 246.729 56.23Z" fill="white"/>
<path d="M277.365 60.8039C279.055 59.4978 279.744 57.5581 278.904 56.4713C278.064 55.3846 276.013 55.5625 274.323 56.8686C272.634 58.1747 271.945 60.1144 272.784 61.2011C273.624 62.2879 275.675 62.11 277.365 60.8039Z" fill="white"/>
<path d="M187.736 60.811C188.353 63.0998 190.038 64.6356 191.499 64.2413C192.961 63.8471 193.644 61.6721 193.027 59.3833C192.409 57.0946 190.724 55.5588 189.263 55.953C187.802 56.3473 187.118 58.5223 187.736 60.811Z" fill="white"/>
<path d="M207.697 59.2869C208.002 60.2866 208.765 60.9396 209.4 60.7454C210.035 60.5512 210.302 59.5833 209.997 58.5836C209.691 57.5839 208.928 56.9309 208.293 57.1251C207.658 57.3193 207.391 58.2872 207.697 59.2869Z" fill="white"/>
<path d="M248.557 58.7741C249.13 58.6185 249.513 58.1916 249.412 57.8207C249.311 57.4498 248.765 57.2752 248.192 57.4308C247.62 57.5864 247.237 58.0132 247.338 58.3842C247.439 58.7551 247.985 58.9297 248.557 58.7741Z" fill="white"/>
<path d="M194.805 61.8669C194.924 64.1203 196.182 65.886 197.616 65.8109C199.05 65.7357 200.117 63.8481 199.999 61.5948C199.881 59.3414 198.623 57.5757 197.189 57.6508C195.754 57.726 194.687 59.6136 194.805 61.8669Z" fill="white"/>
<path d="M210.876 59.669C210.973 60.6581 211.556 61.4105 212.179 61.3495C212.802 61.2884 213.228 60.4371 213.131 59.4479C213.034 58.4587 212.45 57.7063 211.828 57.7674C211.205 57.8284 210.779 58.6798 210.876 59.669Z" fill="white"/>
<path d="M218.867 60.0533C218.533 61.1821 218.843 62.2693 219.56 62.4817C220.277 62.6941 221.13 61.9513 221.464 60.8225C221.799 59.6937 221.488 58.6064 220.771 58.394C220.054 58.1816 219.202 58.9245 218.867 60.0533Z" fill="white"/>
<path d="M234.795 61.1209C235.39 62.2033 236.434 62.7723 237.126 62.3919C237.818 62.0115 237.896 60.8256 237.301 59.7432C236.706 58.6609 235.663 58.0918 234.971 58.4722C234.279 58.8527 234.2 60.0385 234.795 61.1209Z" fill="white"/>
<path d="M238.521 60.7799C238.863 61.9079 239.723 62.6457 240.44 62.4278C241.157 62.2099 241.46 61.1189 241.118 59.991C240.775 58.863 239.916 58.1252 239.199 58.3431C238.482 58.561 238.178 59.652 238.521 60.7799Z" fill="white"/>
<path d="M222.685 59.8015C222.093 60.8874 222.176 62.0747 222.871 62.4535C223.566 62.8323 224.609 62.2591 225.201 61.1732C225.793 60.0874 225.71 58.9 225.015 58.5213C224.32 58.1425 223.277 58.7157 222.685 59.8015Z" fill="white"/>
<path d="M270.521 60.0389C271.323 60.633 271.865 61.4484 272.146 62.485C272.913 65.3097 272.722 68.0412 271.572 70.6796C271.254 71.4134 270.772 71.9696 270.125 72.3482C269.147 72.9218 267.833 72.3919 267.079 71.7017C266.383 71.0698 266.106 69.937 265.71 69.2323C265.487 68.8324 265.113 68.4383 264.589 68.05C264.065 67.6617 263.579 67.419 263.13 67.322C262.341 67.1502 261.179 67.2171 260.37 66.7366C259.49 66.2154 258.599 65.1146 258.861 64.011C259.036 63.283 259.427 62.6588 260.035 62.1385C262.223 60.269 264.78 59.2886 267.705 59.1973C268.779 59.1643 269.717 59.4449 270.521 60.0389Z" fill="white"/>
<path d="M205.159 61.7735C205.944 62.4514 206.936 62.5893 207.374 62.0816C207.812 61.5739 207.531 60.6129 206.746 59.9351C205.96 59.2572 204.968 59.1193 204.53 59.627C204.092 60.1347 204.373 61.0957 205.159 61.7735Z" fill="white"/>
<path d="M252.636 60.0349C252.362 60.5632 252.42 61.1367 252.765 61.3158C253.111 61.4949 253.613 61.2119 253.887 60.6835C254.161 60.1552 254.103 59.5818 253.757 59.4026C253.412 59.2235 252.909 59.5066 252.636 60.0349Z" fill="white"/>
<path d="M254.652 60.2328C254.26 60.7328 254.196 61.3367 254.508 61.5818C254.821 61.827 255.392 61.6204 255.784 61.1205C256.176 60.6206 256.24 60.0166 255.928 59.7715C255.615 59.5264 255.044 59.7329 254.652 60.2328Z" fill="white"/>
<path d="M181.79 66.1524C183.523 67.7743 185.766 68.1944 186.799 67.0905C187.832 65.9867 187.264 63.777 185.531 62.155C183.797 60.533 181.555 60.113 180.522 61.2168C179.489 62.3207 180.057 64.5304 181.79 66.1524Z" fill="white"/>
<path d="M211.179 65.6446C210.489 66.1018 210.332 67.0104 209.901 67.3744C209.258 67.916 208.658 67.9112 208.101 67.3598C206.951 66.2241 207.117 62.5375 208.523 61.6114C209.927 60.6854 213.381 61.99 213.972 63.4926C214.257 64.2226 214.024 64.7759 213.273 65.1525C212.769 65.4058 211.872 65.1904 211.179 65.6446Z" fill="white"/>
<path d="M256.74 63.0718C257.32 62.8503 257.673 62.3651 257.529 61.988C257.385 61.6108 256.798 61.4847 256.218 61.7061C255.638 61.9276 255.285 62.4128 255.429 62.79C255.573 63.1671 256.16 63.2933 256.74 63.0718Z" fill="white"/>
<path d="M232.445 64.601C233.521 65.1948 234.703 65.1135 235.087 64.4193C235.47 63.7252 234.908 62.6811 233.833 62.0873C232.757 61.4934 231.574 61.5748 231.191 62.2689C230.808 62.963 231.369 64.0072 232.445 64.601Z" fill="white"/>
<path d="M227.557 64.6352C228.625 64.0184 229.171 62.9652 228.777 62.2827C228.383 61.6002 227.198 61.5469 226.13 62.1637C225.061 62.7805 224.515 63.8337 224.909 64.5162C225.303 65.1987 226.488 65.252 227.557 64.6352Z" fill="white"/>
<path d="M252.676 64.5846C252.536 63.9411 252.102 63.7984 251.462 63.4286C251.292 63.3303 251.167 63.1704 251.111 62.9818C251.056 62.7933 251.075 62.5905 251.165 62.4152C251.494 61.7803 252.49 61.6988 253.18 61.7017C253.751 61.7056 254.2 61.8259 254.528 62.0628C255.763 62.9481 254.825 65.1641 253.756 65.7C253.674 65.7413 253.583 65.7624 253.489 65.7617C253.396 65.761 253.302 65.7386 253.215 65.696C253.127 65.6535 253.048 65.5917 252.983 65.515C252.918 65.4382 252.868 65.3484 252.836 65.2515C252.801 65.1467 252.748 64.9244 252.676 64.5846Z" fill="white"/>
<path d="M204.687 64.9857C205.553 65.4737 206.51 65.4171 206.824 64.8595C207.138 64.3018 206.691 63.4542 205.825 62.9663C204.959 62.4784 204.002 62.5349 203.688 63.0926C203.374 63.6502 203.821 64.4978 204.687 64.9857Z" fill="white"/>
<path d="M277.934 67.4182C279.759 66.5316 280.775 64.8559 280.201 63.6754C279.628 62.4948 277.683 62.2565 275.858 63.1431C274.032 64.0296 273.016 65.7053 273.59 66.8859C274.163 68.0664 276.108 68.3047 277.934 67.4182Z" fill="white"/>
<path d="M240.323 67.6161C239.624 68.3208 239.691 69.4682 238.995 70.2224C238.314 70.962 237.262 70.7145 236.738 69.9487C235.849 68.6479 235.439 67.2016 235.509 65.6097C235.546 64.7963 235.813 64.1391 236.31 63.6382C236.807 63.1374 237.462 62.8656 238.276 62.8229C239.866 62.7374 241.315 63.1335 242.623 64.011C243.395 64.5293 243.651 65.5777 242.918 66.2649C242.169 66.9667 241.022 66.9114 240.323 67.6161Z" fill="white"/>
<path d="M223.692 63.6266C224.214 64.1469 224.473 64.9263 224.467 65.965C224.461 67.3453 223.963 69.7652 222.676 70.5136C221.846 70.9941 220.865 70.3971 220.55 69.6167C220.373 69.174 220.148 68.2305 219.627 67.7093C219.103 67.1909 218.159 66.9696 217.714 66.792C216.933 66.4833 216.333 65.5019 216.811 64.672C217.554 63.382 219.971 62.8724 221.354 62.8607C222.393 62.8529 223.172 63.1082 223.692 63.6266Z" fill="white"/>
<path d="M256.345 65.0394C256.926 64.9493 257.35 64.5658 257.291 64.1828C257.231 63.7998 256.712 63.5623 256.13 63.6523C255.548 63.7424 255.125 64.1259 255.184 64.5089C255.243 64.8919 255.763 65.1295 256.345 65.0394Z" fill="white"/>
<path d="M246.834 74.7128C246.839 74.7338 246.847 74.7535 246.86 74.7705C246.873 74.7876 246.89 74.8014 246.909 74.811C246.928 74.8205 246.949 74.8256 246.971 74.8257C246.992 74.8259 247.013 74.8211 247.032 74.8118C248.172 74.276 249.453 73.5897 250.876 72.753C251.428 72.4268 251.998 72.4103 252.586 72.7034C252.759 72.7908 252.793 72.9151 252.688 73.0762C252.257 73.7343 251.805 74.1857 251.045 74.5642C250.005 75.0807 249.145 75.499 248.465 75.8193C248.232 75.9281 247.746 75.9717 247.006 75.9504C245.839 75.9154 245.186 75.2748 245.253 74.1216C245.344 72.6151 245.496 71.4299 245.708 70.566C245.911 69.7351 246.225 68.5227 246.648 66.9288C246.802 66.3552 247.222 65.1438 247.924 65.1729C248.06 65.1795 248.19 65.2325 248.292 65.323C248.394 65.4136 248.463 65.5363 248.486 65.6708C248.579 66.23 248.532 66.7862 248.346 67.3394C247.49 69.8749 247.057 71.1591 247.047 71.1921C246.698 72.4695 246.627 73.6431 246.834 74.7128Z" fill="white"/>
<path d="M195.061 75.4524C194.306 75.9067 193.81 76.3697 193.573 76.8415C192.743 78.4926 191.864 79.9545 189.834 79.9807C187.938 80.0069 187.085 77.9422 186.75 76.3726C186.072 73.1956 186.287 67.9219 189.386 66.0523C192.481 64.1828 197.248 66.4454 199.744 68.5247C200.978 69.5526 202.408 71.2678 201.503 72.9335C200.533 74.7186 198.829 74.8147 196.983 74.7827C196.457 74.7729 195.816 74.9962 195.061 75.4524Z" fill="white"/>
<path d="M232.707 68.4207C233.835 68.759 234.924 68.4501 235.14 67.7307C235.356 67.0113 234.617 66.1538 233.489 65.8155C232.361 65.4772 231.272 65.7862 231.056 66.5056C230.841 67.225 231.58 68.0824 232.707 68.4207Z" fill="white"/>
<path d="M227.294 68.4752C228.412 68.129 229.138 67.2642 228.915 66.5437C228.692 65.8231 227.604 65.5197 226.486 65.8659C225.367 66.2121 224.642 67.0769 224.865 67.7974C225.088 68.518 226.175 68.8214 227.294 68.4752Z" fill="white"/>
<path d="M180.503 73.364C182.438 74.5219 184.606 74.4582 185.346 73.2217C186.086 71.9853 185.118 70.0442 183.183 68.8862C181.248 67.7283 179.08 67.792 178.34 69.0285C177.6 70.265 178.569 72.206 180.503 73.364Z" fill="white"/>
<path d="M213.104 71.891C213.09 71.1902 213.047 70.5369 212.973 69.9312C212.944 69.6943 212.94 69.5429 212.961 69.4769C213.086 69.0906 213.238 69.0799 213.419 69.4449C213.911 70.4379 214.187 71.4251 214.793 72.1647C215.588 73.1344 216.467 74.4798 216.083 75.8106C215.789 76.8386 214.546 77.3744 213.686 76.8182C212.565 76.096 212.318 74.8526 212.74 73.6266C212.765 73.5528 212.856 73.2674 213.011 72.7704C213.079 72.553 213.11 72.2599 213.104 71.891Z" fill="white"/>
<path d="M261.616 74.3488C262.043 73.5023 262.429 72.719 262.775 71.9987C263.018 71.4901 263.416 71.0203 263.969 70.5893C264.023 70.5468 264.086 70.5161 264.153 70.4993C264.22 70.4825 264.29 70.4799 264.357 70.4917C264.425 70.5035 264.49 70.5294 264.547 70.5678C264.604 70.6062 264.652 70.6562 264.688 70.7145C264.943 71.1241 265.008 71.5978 264.883 72.1356C264.633 73.2101 263.605 74.7157 263.151 75.7378C262.594 76.9861 262.165 77.882 261.866 78.4256C261.634 78.8469 261.328 79.0915 260.949 79.1595C260.85 79.1769 260.759 79.1575 260.675 79.1012C259.892 78.5712 260.081 77.6219 260.376 76.7978C260.376 76.7958 260.789 75.9795 261.616 74.3488Z" fill="white"/>
<path d="M208.919 72.8636C209.077 73.347 209.787 73.7431 210.198 74.0284C210.6 74.308 210.87 74.5371 211.007 74.7157C211.546 75.4117 212.143 77.1618 211.275 77.8316C210.143 78.711 208.695 77.8636 208.107 76.7629C207.897 76.3707 207.808 75.7097 207.839 74.7798C207.868 73.9256 207.803 72.8986 207.644 71.6988C207.595 71.3396 207.632 71.031 207.755 70.7728C207.774 70.7327 207.804 70.6991 207.842 70.6761C207.88 70.6531 207.924 70.6417 207.969 70.6433C208.013 70.6448 208.057 70.6592 208.094 70.6848C208.131 70.7103 208.16 70.746 208.177 70.7873C208.402 71.3426 208.65 72.0347 208.919 72.8636Z" fill="white"/>
<path d="M241.555 74.1653C241.296 73.9576 240.525 73.4926 239.24 72.7704C238.927 72.5957 238.648 72.2162 238.404 71.6318C238.363 71.5347 238.38 71.4503 238.453 71.3785C238.89 70.9358 239.379 70.9164 239.921 71.3202C240.618 71.8386 241.693 72.5365 243.145 73.414C244.018 73.944 244.648 74.6545 245.035 75.5456C245.063 75.6105 245.073 75.6815 245.066 75.7517C245.058 75.822 245.032 75.889 244.991 75.9463C244.949 76.0035 244.894 76.049 244.829 76.0784C244.765 76.1077 244.694 76.1198 244.624 76.1135C244.242 76.0785 243.891 75.9446 243.573 75.7116C242.8 75.1428 242.127 74.6273 241.555 74.1653Z" fill="white"/>
<path d="M274.811 73.2333C274.601 74.4587 275.065 75.5604 275.846 75.694C276.628 75.8276 277.431 74.9425 277.641 73.717C277.85 72.4916 277.386 71.3899 276.605 71.2563C275.823 71.1227 275.02 72.0078 274.811 73.2333Z" fill="white"/>
<path d="M230.961 73.1325C230.8 73.9909 231.113 74.7698 231.66 74.8722C232.207 74.9745 232.781 74.3616 232.941 73.5032C233.102 72.6448 232.789 71.866 232.242 71.7636C231.695 71.6613 231.121 72.2742 230.961 73.1325Z" fill="white"/>
<path d="M228.106 73.9507C228.431 74.7696 229.116 75.2661 229.635 75.0598C230.153 74.8534 230.309 74.0223 229.983 73.2034C229.657 72.3846 228.973 71.888 228.454 72.0944C227.936 72.3007 227.78 73.1318 228.106 73.9507Z" fill="white"/>
<path d="M271.259 74.7359C271.318 75.923 271.977 76.8554 272.732 76.8185C273.487 76.7816 274.052 75.7893 273.994 74.6022C273.935 73.4151 273.276 72.4827 272.521 72.5196C271.766 72.5566 271.201 73.5488 271.259 74.7359Z" fill="white"/>
<path d="M216.84 78.3266C217.172 77.8607 217.755 77.2783 217.982 76.6435C218.403 75.467 218.684 74.2662 218.823 73.0412C218.826 73.022 218.832 73.0035 218.842 72.987C218.852 72.9705 218.866 72.9564 218.882 72.9456C218.898 72.9348 218.916 72.9276 218.935 72.9245C218.954 72.9214 218.974 72.9225 218.992 72.9277C219.054 72.9451 219.104 72.9917 219.141 73.0675C219.919 74.704 220.307 76.3901 220.303 78.1257C220.301 78.8071 220.191 79.3099 219.974 79.6341C219.088 80.9591 217.219 80.6242 216.628 79.1478C216.538 78.9284 216.609 78.6547 216.84 78.3266Z" fill="white"/>
<path d="M278.888 74.3144C278.054 75.2315 277.853 76.4076 278.439 76.9412C279.025 77.4749 280.177 77.164 281.012 76.2468C281.846 75.3297 282.048 74.1536 281.461 73.62C280.875 73.0864 279.723 73.3973 278.888 74.3144Z" fill="white"/>
<path d="M233.177 74.6112C232.841 75.3699 232.959 76.1582 233.442 76.3719C233.924 76.5856 234.587 76.1438 234.924 75.3851C235.26 74.6264 235.142 73.8381 234.659 73.6243C234.177 73.4106 233.513 73.8524 233.177 74.6112Z" fill="white"/>
<path d="M253.206 74.1095L253.177 74.1383C252.882 74.4306 252.881 74.9063 253.173 75.2008L257.269 79.3251C257.561 79.6195 258.037 79.6212 258.331 79.3288L258.36 79.3001C258.655 79.0077 258.656 78.532 258.364 78.2376L254.268 74.1132C253.976 73.8188 253.5 73.8172 253.206 74.1095Z" fill="white"/>
<path d="M226.508 76.1639C226.963 76.8618 227.694 77.1911 228.142 76.8995C228.589 76.608 228.583 75.8058 228.128 75.1079C227.673 74.41 226.941 74.0807 226.494 74.3722C226.047 74.6638 226.053 75.466 226.508 76.1639Z" fill="white"/>
<path d="M230.681 75.1525C232.12 75.0273 234.339 77.5287 233.914 78.9614C233.716 79.6283 232.979 79.7856 232.338 79.538C231.954 79.3895 231.598 79.1857 231.039 79.2352C230.477 79.2818 230.166 79.5468 229.81 79.7593C229.222 80.1146 228.471 80.0855 228.159 79.4623C227.492 78.1257 229.243 75.2777 230.681 75.1525Z" fill="white"/>
<path d="M277.009 76.5648C279.051 77.5491 279.528 81.7891 278.285 83.4344C277.723 84.1769 276.421 83.8391 275.981 83.2917C275.591 82.8083 275.195 82.0628 274.514 81.7337C273.832 81.4047 273.002 81.5561 272.382 81.5532C271.68 81.5503 270.606 80.7407 270.836 79.838C271.351 77.8432 274.968 75.5776 277.009 76.5648Z" fill="white"/>
<path d="M206.491 78.5741C206.785 79.2264 207.53 79.6341 208.343 80.1962C209.231 80.8106 210.547 82.3511 209.208 83.2858C208.829 83.5508 208.04 83.6032 207.562 83.4052C206.083 82.7908 206.001 81.4017 205.859 79.9079C205.808 79.3759 205.7 78.844 205.533 78.3121C205.321 77.6345 205.168 77.123 205.073 76.7774C205.064 76.7451 205.065 76.7112 205.075 76.6793C205.085 76.6475 205.103 76.619 205.128 76.597C205.153 76.575 205.184 76.5603 205.217 76.5546C205.25 76.549 205.283 76.5525 205.314 76.5648C205.499 76.6425 205.67 76.8444 205.83 77.1705C206.043 77.6054 206.264 78.0733 206.491 78.5741Z" fill="white"/>
<path d="M261.013 80.7698C260.918 80.3641 261.027 80.0496 261.339 79.8263C261.493 79.7157 261.773 79.6128 262.181 79.5176C263.965 79.0964 265.74 78.2829 267.504 77.0773C267.883 76.8211 268.324 76.6842 268.829 76.6667C268.911 76.664 268.993 76.6807 269.068 76.7156C269.143 76.7505 269.209 76.8026 269.26 76.8677C270.119 77.9568 267.562 78.9818 266.901 79.2031C265.063 79.8205 263.466 80.5194 262.111 81.2998C261.948 81.3949 261.708 81.3852 261.392 81.2707C261.202 81.2008 261.075 81.0339 261.013 80.7698Z" fill="white"/>
<path d="M180.734 78.2427C180.848 78.761 181.214 79.121 181.552 79.0468C181.889 78.9725 182.071 78.4921 181.957 77.9738C181.843 77.4554 181.477 77.0954 181.139 77.1697C180.801 77.2439 180.62 77.7243 180.734 78.2427Z" fill="white"/>
<path d="M244.281 78.2241C243.687 79.0365 243.451 79.8753 243.754 80.0976C244.058 80.3199 244.786 79.8414 245.381 79.029C245.975 78.2166 246.211 77.3778 245.908 77.1555C245.604 76.9332 244.876 77.4117 244.281 78.2241Z" fill="white"/>
<path d="M282.022 79.9632C282.992 79.2842 283.426 78.2319 282.993 77.6127C282.559 76.9935 281.422 77.042 280.452 77.7209C279.483 78.3998 279.048 79.4522 279.482 80.0714C279.915 80.6906 281.053 80.6421 282.022 79.9632Z" fill="white"/>
<path d="M182.374 78.5424C182.354 79.0486 182.607 79.4693 182.938 79.482C183.269 79.4947 183.553 79.0947 183.572 78.5884C183.592 78.0822 183.339 77.6615 183.008 77.6488C182.677 77.6361 182.393 78.0361 182.374 78.5424Z" fill="white"/>
<path d="M179.292 79.3978C179.678 79.7883 180.187 79.9108 180.429 79.6714C180.672 79.432 180.557 78.9214 180.172 78.5309C179.787 78.1404 179.278 78.0179 179.035 78.2573C178.792 78.4967 178.907 79.0073 179.292 79.3978Z" fill="white"/>
<path d="M197.109 79.9928C197.257 80.5143 197.654 80.8587 197.996 80.7619C198.338 80.6651 198.495 80.1639 198.348 79.6424C198.2 79.1209 197.803 78.7765 197.461 78.8733C197.119 78.9701 196.962 79.4713 197.109 79.9928Z" fill="white"/>
<path d="M198.752 80.2513C198.782 80.7506 199.083 81.1384 199.423 81.1176C199.763 81.0968 200.015 80.6752 199.984 80.1759C199.953 79.6767 199.653 79.2888 199.313 79.3097C198.972 79.3305 198.721 79.7521 198.752 80.2513Z" fill="white"/>
<path d="M182.254 81.7162C181.817 81.9521 181.671 82.6539 181.191 82.7384C180.861 82.7986 180.624 82.6568 180.48 82.3132C180.168 81.5638 180.212 80.7747 180.614 79.9457C180.696 79.7788 180.845 79.6361 181.063 79.5176C181.282 79.3992 181.484 79.3516 181.668 79.3749C182.583 79.4914 183.268 79.8855 183.724 80.5572C183.934 80.864 183.924 81.1397 183.695 81.3843C183.36 81.7395 182.693 81.4775 182.254 81.7162Z" fill="white"/>
<path d="M260.093 81.6697L259.816 81.8094C259.728 81.854 259.631 81.8777 259.533 81.8787C259.435 81.8797 259.337 81.858 259.248 81.8153L258.736 81.5706C258.654 81.5314 258.582 81.4752 258.523 81.4058C258.465 81.3364 258.422 81.2554 258.397 81.1681C258.372 81.0808 258.366 80.9893 258.379 80.8996C258.393 80.8098 258.425 80.7239 258.474 80.6475L258.995 79.8321C259.061 79.7281 259.156 79.6453 259.268 79.5938C259.38 79.5423 259.505 79.5243 259.627 79.5418C259.749 79.5593 259.863 79.6117 259.956 79.6926C260.049 79.7736 260.117 79.8797 260.151 79.9981L260.419 80.9183C260.461 81.062 260.451 81.2157 260.392 81.3529C260.332 81.4901 260.226 81.6022 260.093 81.6697Z" fill="white"/>
<path d="M178.88 81.0608C179.305 81.3367 179.795 81.3363 179.974 81.0598C180.154 80.7833 179.955 80.3354 179.53 80.0595C179.105 79.7836 178.615 79.7841 178.436 80.0606C178.256 80.3371 178.455 80.7849 178.88 81.0608Z" fill="white"/>
<path d="M195.708 81.2102C196.1 81.5854 196.617 81.6806 196.864 81.4229C197.111 81.1652 196.995 80.6522 196.603 80.277C196.212 79.9019 195.695 79.8067 195.448 80.0644C195.2 80.3221 195.317 80.8351 195.708 81.2102Z" fill="white"/>
<path d="M217.111 83.5479C217.385 83.8663 217.61 84.2235 217.787 84.6196C218.09 85.3068 217.105 86.0319 216.546 86.2591C215.03 86.8725 213.474 87.057 211.878 86.8124C211.449 86.7464 211.054 86.5901 210.693 86.3435C210.642 86.3086 210.605 86.2567 210.588 86.197C210.572 86.1373 210.577 86.0736 210.603 86.0174C210.927 85.3243 211.186 84.5924 211.38 83.8217C211.753 82.3511 212.312 81.2969 213.82 80.9912C214.851 80.7815 215.687 81.8327 216.299 82.5986C216.347 82.6607 216.618 82.9772 217.111 83.5479Z" fill="white"/>
<path d="M198.797 83.4285C198.553 83.5712 198.331 83.909 198.014 84.2905C197.958 84.3575 197.886 84.4102 197.806 84.4443C197.725 84.4784 197.638 84.4929 197.55 84.4867C197.463 84.4804 197.379 84.4536 197.304 84.4083C197.229 84.3631 197.166 84.3008 197.12 84.2264C196.599 83.3907 196.633 81.7687 197.527 81.2474C198.419 80.7261 199.848 81.4949 200.32 82.3598C200.362 82.4365 200.385 82.5221 200.388 82.6095C200.39 82.6969 200.372 82.7837 200.335 82.8627C200.297 82.9417 200.241 83.0107 200.172 83.064C200.103 83.1173 200.022 83.1534 199.936 83.1694C199.447 83.2596 199.045 83.2829 198.797 83.4285Z" fill="white"/>
<path d="M248.496 82.5843C248.06 83.5325 248.205 84.5306 248.82 84.8136C249.435 85.0965 250.287 84.5571 250.723 83.6089C251.16 82.6606 251.015 81.6625 250.399 81.3796C249.784 81.0966 248.932 81.636 248.496 82.5843Z" fill="white"/>
<path d="M195.41 82.8899C195.849 83.1564 196.344 83.143 196.516 82.8599C196.688 82.5768 196.472 82.1313 196.034 81.8647C195.595 81.5982 195.1 81.6116 194.928 81.8947C194.756 82.1778 194.972 82.6233 195.41 82.8899Z" fill="white"/>
<path d="M225.143 87.3125C225.864 89.7944 227.744 91.4299 229.343 90.9655C230.941 90.5011 231.652 88.1126 230.931 85.6308C230.21 83.1489 228.33 81.5134 226.731 81.9778C225.133 82.4422 224.422 84.8306 225.143 87.3125Z" fill="white"/>
<path d="M233.769 85.6645C233.067 88.1618 233.788 90.549 235.38 90.9964C236.971 91.4438 238.831 89.782 239.533 87.2846C240.235 84.7872 239.513 82.4 237.922 81.9526C236.33 81.5052 234.471 83.1671 233.769 85.6645Z" fill="white"/>
<path d="M251.904 82.8215C251.241 83.689 251.161 84.7423 251.725 85.174C252.29 85.6058 253.286 85.2525 253.949 84.385C254.612 83.5175 254.692 82.4642 254.127 82.0325C253.563 81.6007 252.567 81.954 251.904 82.8215Z" fill="white"/>
<path d="M260.984 83.1024C260.696 83.7139 260.413 84.008 260.576 84.8409C260.579 84.8517 260.577 84.863 260.573 84.8726C260.568 84.8822 260.56 84.8895 260.55 84.8933L260.469 84.9224C260.395 84.9496 260.343 84.9263 260.314 84.8525L259.572 82.8927C259.555 82.8467 259.547 82.7976 259.55 82.7486C259.553 82.6996 259.566 82.6519 259.589 82.6085C259.611 82.5651 259.643 82.527 259.681 82.4967C259.719 82.4664 259.763 82.4445 259.811 82.4326C260.146 82.3453 260.477 82.388 260.804 82.5607C260.897 82.6103 260.968 82.6941 261.002 82.7948C261.035 82.8956 261.029 83.0057 260.984 83.1024Z" fill="white"/>
<path d="M271.012 84.9588C270.7 86.1406 271.081 87.2661 271.863 87.4727C272.645 87.6794 273.532 86.8889 273.845 85.7072C274.157 84.5254 273.776 83.3999 272.994 83.1933C272.212 82.9866 271.324 83.7771 271.012 84.9588Z" fill="white"/>
<path d="M267.347 86.1898C267.309 87.3632 267.897 88.335 268.662 88.3604C269.428 88.3858 270.079 87.4551 270.118 86.2817C270.157 85.1083 269.568 84.1365 268.803 84.1111C268.038 84.0857 267.386 85.0164 267.347 86.1898Z" fill="white"/>
<path d="M193.338 85.5003C193.45 85.8816 193.712 86.1405 193.923 86.0787C194.135 86.0169 194.216 85.6576 194.104 85.2764C193.993 84.8951 193.731 84.6361 193.519 84.698C193.308 84.7598 193.227 85.119 193.338 85.5003Z" fill="white"/>
<path d="M182.839 85.9688C182.962 86.4753 183.332 86.8202 183.667 86.7393C184.001 86.6584 184.173 86.1822 184.05 85.6757C183.928 85.1692 183.557 84.8243 183.223 84.9052C182.888 84.9861 182.717 85.4623 182.839 85.9688Z" fill="white"/>
<path d="M189.63 86.4571C189.389 86.6279 189.232 86.7153 189.158 86.7192C189.042 86.7269 188.99 86.6735 189.004 86.559C189.081 85.8795 189.148 85.466 189.202 85.3185C189.433 84.6797 189.6 84.7011 189.703 85.3825C189.726 85.532 189.882 85.831 190.172 86.2794C190.182 86.2966 190.188 86.3162 190.188 86.3364C190.188 86.3565 190.183 86.3764 190.173 86.3937C190.163 86.4111 190.148 86.4254 190.13 86.435C190.113 86.4446 190.093 86.4492 190.073 86.4483L189.72 86.4309C189.688 86.429 189.656 86.4382 189.63 86.4571Z" fill="white"/>
<path d="M255.543 87.7077C256.592 87.3464 257.26 86.521 257.033 85.864C256.807 85.2071 255.773 84.9675 254.724 85.3287C253.675 85.69 253.008 86.5155 253.234 87.1724C253.46 87.8293 254.494 88.069 255.543 87.7077Z" fill="white"/>
<path d="M184.499 86.2582C184.519 86.7645 184.797 87.1648 185.12 87.1524C185.443 87.14 185.689 86.7195 185.669 86.2133C185.65 85.707 185.372 85.3067 185.049 85.3191C184.726 85.3315 184.48 85.752 184.499 86.2582Z" fill="white"/>
<path d="M252.318 86.3697C253.366 87.7675 252.449 90.1612 251.491 91.5124C250.766 92.5404 249.519 92.7791 248.882 91.4542C248.657 90.9882 248.742 90.0127 248.279 89.3953C247.816 88.778 246.858 88.5858 246.473 88.2393C245.381 87.255 245.961 86.1251 247.149 85.7174C248.716 85.1816 251.269 84.9719 252.318 86.3697Z" fill="white"/>
<path d="M276.964 88.5096C277.879 87.6681 278.182 86.509 277.641 85.9206C277.1 85.3322 275.919 85.5374 275.004 86.3789C274.089 87.2204 273.786 88.3796 274.327 88.9679C274.868 89.5563 276.049 89.3511 276.964 88.5096Z" fill="white"/>
<path d="M181.458 87.2355C181.866 87.6042 182.383 87.6981 182.611 87.4451C182.84 87.1921 182.694 86.6881 182.286 86.3193C181.878 85.9506 181.362 85.8567 181.133 86.1097C180.905 86.3627 181.05 86.8667 181.458 87.2355Z" fill="white"/>
<path d="M184.516 89.4623C184.257 89.6079 184.045 89.9078 183.934 90.0651C183.744 90.333 183.558 90.4563 183.378 90.4349C182.997 90.3922 182.765 90.2476 182.682 90.001C182.398 89.1527 182.473 88.3441 182.906 87.5753C182.993 87.4161 183.109 87.2967 183.253 87.2171C183.394 87.1356 183.556 87.0987 183.739 87.1065C184.62 87.1375 185.35 87.4938 185.929 88.1752C186.096 88.3751 186.099 88.6489 185.938 88.9964C185.862 89.1614 185.66 89.2555 185.332 89.2788C185.14 89.2934 184.773 89.3196 184.516 89.4623Z" fill="white"/>
<path d="M194.618 90.0971L194.263 90.8397C193.945 91.5095 193.726 91.4823 193.608 90.7582C193.581 90.5893 193.536 90.266 193.474 89.7885C193.392 89.1478 193.521 88.5654 193.861 88.0412C194.234 87.4685 194.826 87.353 195.638 87.6947C195.919 87.8131 196.201 88.1761 196.482 88.7838C196.936 89.7622 197.025 90.8125 196.747 91.9346C196.739 91.9673 196.723 91.9973 196.7 92.0216C196.676 92.0458 196.647 92.0634 196.615 92.0726C196.582 92.0818 196.548 92.0822 196.516 92.0739C196.483 92.0655 196.453 92.0486 196.43 92.0249C196.127 91.7201 195.945 91.3348 195.885 90.8688C195.833 90.467 195.761 90.2156 195.67 90.1146C195.326 89.7399 195.033 89.6545 194.79 89.8583C194.724 89.9127 194.667 89.9923 194.618 90.0971Z" fill="white"/>
<path d="M181.111 88.9182C181.539 89.1873 182.029 89.1771 182.206 88.8954C182.384 88.6137 182.181 88.1672 181.754 87.8981C181.326 87.629 180.836 87.6392 180.659 87.9209C180.481 88.2026 180.684 88.6491 181.111 88.9182Z" fill="white"/>
<path d="M198.997 88.4489C199.364 88.7228 199.745 88.8341 199.847 88.6974C199.949 88.5607 199.733 88.2278 199.366 87.9539C198.998 87.68 198.618 87.5687 198.516 87.7054C198.414 87.8421 198.629 88.175 198.997 88.4489Z" fill="white"/>
<path d="M219.85 93.35C221.012 95.5172 223.082 96.6691 224.474 95.9227C225.866 95.1764 226.052 92.8146 224.89 90.6474C223.728 88.4802 221.658 87.3284 220.266 88.0747C218.874 88.821 218.688 91.1829 219.85 93.35Z" fill="white"/>
<path d="M239.777 90.6579C238.624 92.8354 238.823 95.2009 240.221 95.9414C241.62 96.682 243.688 95.5171 244.841 93.3396C245.994 91.1621 245.795 88.7965 244.397 88.056C242.998 87.3155 240.93 88.4804 239.777 90.6579Z" fill="white"/>
<path d="M272.958 88.4926C273.665 88.9119 274.131 89.6283 274.356 90.6417C274.704 92.1948 274.604 93.5955 274.056 94.8438C273.485 96.1455 272.038 96.0756 271.322 95.004C270.827 94.2614 270.626 93.7663 270.035 93.414C269.446 93.0645 268.914 93.1257 268.025 93.0441C266.741 92.9277 265.987 91.69 266.858 90.5689C267.692 89.4895 268.876 88.7314 270.407 88.2946C271.403 88.0092 272.254 88.0752 272.958 88.4926Z" fill="white"/>
<path d="M209.724 90.8018C210.19 91.619 211.071 91.9947 211.691 91.641C212.311 91.2872 212.436 90.3378 211.97 89.5206C211.504 88.7033 210.623 88.3276 210.003 88.6814C209.383 89.0352 209.258 89.9846 209.724 90.8018Z" fill="white"/>
<path d="M254.885 91.0464C255.925 90.9002 256.693 90.2459 256.6 89.585C256.507 88.924 255.589 88.5067 254.549 88.6529C253.509 88.7991 252.741 89.4533 252.834 90.1143C252.927 90.7752 253.845 91.1925 254.885 91.0464Z" fill="white"/>
<path d="M190.227 91.9725C190.211 92.0128 190.205 92.0566 190.209 92.1006C190.231 92.3453 190.393 92.7228 190.696 93.2334C190.758 93.3368 190.786 93.4571 190.776 93.5772C190.766 93.6974 190.718 93.8114 190.64 93.9032L190.317 94.2847C190.287 94.3203 190.248 94.3483 190.205 94.3665C190.162 94.3847 190.115 94.3926 190.069 94.3895C190.022 94.3864 189.977 94.3724 189.936 94.3486C189.896 94.3249 189.862 94.292 189.837 94.2526C188.862 92.75 188.775 91.2726 189.575 89.8205C189.652 89.6788 189.814 89.5477 190.061 89.4274C190.267 89.3284 190.461 89.275 190.643 89.2672C191.319 89.2342 191.807 89.5487 192.108 90.2107C192.143 90.2923 192.488 91.0474 193.145 92.4763C193.248 92.7013 193.276 92.9539 193.223 93.1954C193.17 93.4368 193.039 93.6537 192.851 93.8129L192.661 93.976C192.228 94.3429 191.919 94.2594 191.732 93.7256C191.583 93.3023 191.49 92.8985 191.453 92.5142C191.426 92.2501 191.331 92.0589 191.17 91.9405C190.693 91.591 190.378 91.6017 190.227 91.9725Z" fill="white"/>
<path d="M277.652 92.3005C278.676 91.7068 279.199 90.6954 278.819 90.0415C278.44 89.3875 277.303 89.3386 276.279 89.9323C275.255 90.5259 274.732 91.5373 275.111 92.1912C275.49 92.8452 276.628 92.8941 277.652 92.3005Z" fill="white"/>
<path d="M207.961 93.2189C207.884 93.2417 207.804 93.249 207.724 93.2406C207.644 93.2321 207.566 93.208 207.496 93.1696C207.425 93.1312 207.363 93.0793 207.312 93.0168C207.262 92.9543 207.224 92.8824 207.201 92.8054L206.954 91.9667C206.884 91.7317 206.847 91.4894 206.846 91.2536C206.844 91.0179 206.877 90.7932 206.944 90.5926C207.01 90.392 207.109 90.2192 207.233 90.0842C207.358 89.9493 207.506 89.8547 207.67 89.8059L207.676 89.803C207.84 89.7543 208.016 89.7524 208.194 89.7975C208.373 89.8426 208.549 89.9337 208.715 90.0657C208.88 90.1977 209.03 90.3679 209.157 90.5667C209.285 90.7655 209.386 90.9889 209.455 91.2241L209.706 92.0657C209.729 92.1428 209.736 92.2235 209.727 92.3035C209.719 92.3834 209.695 92.4608 209.657 92.5314C209.618 92.602 209.566 92.6643 209.504 92.7148C209.441 92.7653 209.369 92.803 209.292 92.8257L207.961 93.2189Z" fill="white"/>
<path d="M261.491 93.1664C260.689 96.6997 260.281 98.5013 260.268 98.5712C260 99.8797 259.464 101.66 258.66 103.912C258.427 104.573 257.624 106.23 256.657 105.496C254.537 103.883 254.4 100.971 255.044 98.5712C255.911 95.3427 257.43 92.7073 259.601 90.665C259.997 90.2942 260.445 90.0243 260.946 89.8554C261.03 89.8277 261.119 89.8193 261.207 89.8311C261.294 89.8428 261.378 89.8744 261.451 89.9233C261.525 89.9721 261.586 90.0371 261.63 90.1132C261.674 90.1893 261.7 90.2744 261.706 90.3621C261.772 91.3076 261.7 92.2424 261.491 93.1664Z" fill="white"/>
<path d="M213.454 90.499C213.553 90.6764 213.715 90.808 213.908 90.8659C214.549 91.06 215.014 91.4988 215.303 92.1822C215.425 92.4714 215.451 92.751 215.381 93.0208C215.37 93.0647 215.35 93.1056 215.322 93.1408C215.294 93.1759 215.258 93.2046 215.218 93.2247C214.067 93.8071 213.221 93.5353 212.679 92.4093C212.398 91.8249 212.478 91.3037 212.921 90.8455C212.989 90.7756 213.025 90.6922 213.028 90.5951C213.042 90.2942 213.051 90.1379 213.055 90.1262C213.103 89.9806 213.165 89.9758 213.241 90.1117L213.454 90.499Z" fill="white"/>
<path d="M199.446 94.0546C199.293 94.1633 199.117 94.3982 198.919 94.7593C198.867 94.8525 198.788 94.9069 198.684 94.9224C198.425 94.9651 198.144 94.9438 197.839 94.8583C197.797 94.8467 197.761 94.8219 197.735 94.7876C197.709 94.7533 197.696 94.7116 197.696 94.6691C197.708 93.5702 197.878 92.7335 198.206 92.1589C198.629 91.4212 198.982 90.7591 199.263 90.1729C199.312 90.0719 199.389 90.0389 199.496 90.0738C201.101 90.6067 201.488 92.3802 201.345 93.9702C201.313 94.3546 201.333 94.803 201.045 95.1583C200.998 95.217 200.936 95.2621 200.865 95.289C200.795 95.3159 200.718 95.3237 200.644 95.3116C200.569 95.2995 200.499 95.2679 200.441 95.22C200.382 95.1721 200.338 95.1096 200.311 95.0389L200.003 94.2264C199.983 94.1738 199.951 94.1263 199.91 94.0878C199.869 94.0492 199.819 94.0205 199.766 94.004C199.712 93.9874 199.655 93.9833 199.6 93.9921C199.545 94.0009 199.492 94.0223 199.446 94.0546Z" fill="white"/>
<path d="M261.29 98.478C261.837 95.5873 262.301 92.851 262.682 90.269C262.687 90.2324 262.7 90.1975 262.72 90.1663C262.74 90.1352 262.766 90.1086 262.796 90.0882C262.827 90.0679 262.862 90.0543 262.898 90.0483C262.935 90.0423 262.972 90.0441 263.008 90.0535C263.806 90.2631 264.36 90.7562 264.671 91.5328C265.344 93.214 265.721 94.7739 265.8 96.2125C265.843 97.0201 265.787 98.1878 265.632 99.7157C265.358 102.371 264.42 104.436 262.088 105.662C261.013 106.23 260.206 105.907 260.145 104.611C260.12 104.1 260.18 103.523 260.326 102.878C260.84 100.613 261.162 99.1459 261.29 98.478Z" fill="white"/>
<path d="M232.35 91.4775C234.024 91.4804 235.76 92.5636 236.901 93.743C239.042 95.9562 240.83 98.877 241.124 101.783C241.308 103.6 240.58 104.74 238.94 105.202C236.817 105.799 235.777 104.558 234.266 103.889C233.79 103.677 233.148 103.571 232.338 103.571C231.527 103.569 230.883 103.673 230.408 103.883C228.896 104.553 227.854 105.79 225.731 105.187C224.092 104.723 223.367 103.583 223.555 101.766C223.855 98.8595 225.649 95.9416 227.793 93.7343C228.937 92.5578 230.675 91.4745 232.35 91.4775Z" fill="white"/>
<path d="M205.318 93.0259C205.502 93.2874 205.745 93.4333 205.861 93.3517C205.977 93.2701 205.921 92.992 205.736 92.7304C205.552 92.4689 205.309 92.323 205.193 92.4046C205.077 92.4862 205.133 92.7643 205.318 93.0259Z" fill="white"/>
<path d="M214.729 95.2253L214.837 95.5951C214.889 95.7751 214.872 95.9684 214.788 96.1362C214.705 96.3041 214.561 96.4342 214.385 96.5007L210.949 97.8024C210.833 97.8463 210.708 97.8604 210.585 97.8436C210.462 97.8267 210.345 97.7794 210.245 97.7059C210.145 97.6324 210.065 97.5351 210.012 97.4228C209.959 97.3105 209.935 97.1867 209.942 97.0628L210.145 93.347C210.153 93.2167 210.195 93.0906 210.266 92.9814C210.338 92.8722 210.437 92.7837 210.553 92.7247C210.669 92.6657 210.799 92.6384 210.93 92.6454C211.06 92.6524 211.186 92.6935 211.296 92.7646L214.42 94.8088C214.57 94.9063 214.679 95.054 214.729 95.2253Z" fill="white"/>
<path d="M187.816 94.8059C187.556 94.6079 187.296 94.5817 187.038 94.7273C186.957 94.7739 186.91 94.7496 186.898 94.6545L186.706 92.9015C186.677 92.6316 186.762 92.5899 186.96 92.7762C187.478 93.2655 187.821 93.9061 187.988 94.6982C187.992 94.7199 187.99 94.7425 187.982 94.7629C187.973 94.7834 187.958 94.8007 187.94 94.8125C187.921 94.8243 187.899 94.83 187.877 94.8288C187.854 94.8276 187.833 94.8196 187.816 94.8059Z" fill="white"/>
<path d="M206.261 94.7842C205.97 95.6145 206.261 96.472 206.911 96.6995C207.56 96.927 208.323 96.4384 208.613 95.6081C208.904 94.7778 208.613 93.9203 207.964 93.6928C207.314 93.4653 206.552 93.9539 206.261 94.7842Z" fill="white"/>
<path d="M188.148 97.9014C187.54 97.451 187.451 97.5491 187.88 98.1955C188.2 98.6789 188.663 99.1915 188.494 99.9107C188.485 99.9505 188.467 99.9873 188.44 100.018C188.413 100.049 188.379 100.072 188.341 100.086C188.303 100.1 188.262 100.105 188.221 100.099C188.181 100.093 188.143 100.078 188.11 100.053C187.889 99.8923 187.71 99.6768 187.574 99.407C187.3 98.8595 187.009 98.2266 186.701 97.5083C186.516 97.0812 186.492 96.5318 186.628 95.8601C186.652 95.7383 186.718 95.6286 186.814 95.5496C186.91 95.4706 187.031 95.427 187.155 95.4262C188.584 95.4184 189.456 96.1125 189.773 97.5083C189.86 97.9024 189.814 98.2616 189.633 98.5858C189.604 98.6373 189.564 98.6818 189.516 98.7158C189.468 98.7498 189.413 98.7726 189.355 98.7824C189.296 98.7922 189.237 98.7887 189.18 98.7723C189.123 98.756 189.071 98.727 189.027 98.6877C188.49 98.2004 188.196 97.9383 188.148 97.9014Z" fill="white"/>
<path d="M202.347 97.1589C202.842 96.7774 202.979 96.46 203.116 95.8397C203.122 95.811 203.136 95.7848 203.158 95.7645C203.179 95.7443 203.206 95.7309 203.235 95.7262C203.264 95.7215 203.293 95.7256 203.32 95.7381C203.347 95.7505 203.369 95.7707 203.384 95.796C203.719 96.3726 204.083 97.2957 203.325 97.6947C203.021 97.8558 202.691 97.7733 202.335 97.4472C202.225 97.3462 202.229 97.2501 202.347 97.1589Z" fill="white"/>
<path d="M202.07 100.854C202.177 100.944 202.324 101.049 202.51 101.172C202.592 101.226 202.656 101.295 202.702 101.378C203.558 102.893 201.278 104.422 200.064 104.771C199.336 104.978 198.288 104.911 197.496 104.908C197.138 104.908 196.802 104.952 196.488 105.042C195.049 105.453 193.641 105.482 192.263 105.129C191.299 104.882 189.744 103.565 190.052 102.322C190.48 100.607 192.254 100.779 192.781 99.7186C193.126 99.0197 193.401 98.512 193.605 98.1956C194.109 97.4151 194.84 97.3248 195.792 97.2724C197.027 97.2084 198.023 97.4064 198.922 98.1373C199.285 98.4324 199.513 98.6149 199.604 98.6848C200.178 99.1361 201.287 99.0983 201.663 99.6749C201.893 100.027 201.832 100.656 202.07 100.854Z" fill="white"/>
<path d="M204.03 97.8199C204.043 97.812 204.057 97.8066 204.072 97.8042C204.087 97.8018 204.102 97.8024 204.117 97.8059C204.131 97.8095 204.145 97.8159 204.157 97.8248C204.169 97.8336 204.18 97.8449 204.187 97.8578L204.257 97.9772C204.323 98.0848 204.372 98.201 204.402 98.319C204.432 98.4371 204.442 98.5546 204.432 98.665C204.422 98.7754 204.392 98.8764 204.344 98.9622C204.295 99.0481 204.229 99.1171 204.15 99.1653L204.088 99.2002C203.928 99.2974 203.722 99.3044 203.516 99.2198C203.309 99.1351 203.119 98.9658 202.988 98.7488L202.915 98.6294C202.907 98.6167 202.902 98.6024 202.899 98.5876C202.897 98.5727 202.897 98.5575 202.901 98.5429C202.904 98.5283 202.911 98.5145 202.92 98.5024C202.929 98.4902 202.94 98.48 202.953 98.4722L204.03 97.8199Z" fill="white"/>
<path d="M211.805 104.713C211.7 104.162 211.36 102.133 211.84 101.448C212.446 100.589 213.226 100.869 213.893 101.495C214.647 102.204 215.185 103.035 215.509 103.991C215.882 105.094 215.769 106.696 214.642 107.281C214.018 107.604 212.79 107.584 212.414 106.801C212.181 106.317 211.978 105.621 211.805 104.713Z" fill="white"/>
<path d="M249.639 102.284C249.635 102.569 249.647 102.754 249.677 102.837C249.948 103.622 249.712 103.809 248.966 103.399C248.923 103.374 248.797 103.227 248.587 102.957C248.457 102.792 248.452 102.624 248.57 102.453C248.956 101.888 249.332 101.464 249.697 101.18C249.916 101.012 249.992 101.061 249.924 101.329C249.837 101.664 249.647 101.856 249.639 102.284Z" fill="white"/>
<path d="M251.887 103.659L251.494 101.923C251.483 101.874 251.489 101.822 251.51 101.777C251.532 101.731 251.568 101.694 251.613 101.671C251.658 101.649 251.71 101.642 251.759 101.651C251.809 101.661 251.854 101.687 251.887 101.725L253.171 103.216C253.196 103.245 253.213 103.28 253.221 103.318C253.228 103.355 253.227 103.394 253.215 103.431C253.204 103.467 253.184 103.5 253.156 103.527C253.128 103.554 253.094 103.573 253.057 103.583L252.169 103.827C252.14 103.836 252.109 103.838 252.078 103.834C252.048 103.83 252.018 103.819 251.992 103.804C251.965 103.788 251.942 103.767 251.924 103.742C251.906 103.717 251.893 103.689 251.887 103.659Z" fill="white"/>
<path d="M205.778 106.821C206.36 108.531 207.602 109.655 208.552 109.332C209.502 109.008 209.8 107.36 209.218 105.65C208.636 103.94 207.394 102.817 206.444 103.14C205.494 103.463 205.196 105.112 205.778 106.821Z" fill="white"/>
<path d="M245.208 105.591C244.499 106.976 244.693 108.493 245.64 108.978C246.588 109.463 247.931 108.733 248.641 107.347C249.35 105.961 249.156 104.444 248.209 103.959C247.261 103.474 245.918 104.205 245.208 105.591Z" fill="white"/>
<path d="M252.009 105.639C252.525 105.148 253.022 105.086 253.5 105.455C254.4 106.154 254.435 107.928 254.225 108.956C253.953 110.293 253.169 110.72 251.872 110.237C249.732 109.439 250.911 106.69 252.009 105.639Z" fill="white"/>
<path d="M218.453 108.076C218.683 107.453 218.8 106.667 219.103 106.064C219.135 106 219.182 105.945 219.239 105.902C219.296 105.858 219.362 105.829 219.433 105.816C219.503 105.802 219.575 105.805 219.644 105.824C219.713 105.842 219.777 105.877 219.831 105.924C220.702 106.697 221.157 107.645 221.194 108.769C221.24 110.17 220.544 111.265 219.24 111.812C217.804 112.415 217.364 110.659 217.775 109.689C218.225 108.622 218.451 108.084 218.453 108.076Z" fill="white"/>
<path d="M243.122 109.209C243.069 109.077 242.909 108.969 242.641 108.886C242.629 108.882 242.618 108.875 242.609 108.866C242.601 108.857 242.594 108.846 242.591 108.834C242.587 108.822 242.587 108.81 242.59 108.798C242.592 108.786 242.598 108.775 242.606 108.766L243.567 107.634C243.633 107.556 243.716 107.502 243.815 107.473C243.974 107.427 244.074 107.483 244.115 107.642C244.138 107.735 244.138 107.814 244.115 107.878C243.942 108.375 243.811 108.864 243.721 109.346C243.712 109.396 243.689 109.443 243.653 109.481C243.618 109.518 243.573 109.545 243.523 109.557C243.473 109.569 243.42 109.566 243.372 109.549C243.323 109.531 243.281 109.5 243.25 109.459C243.209 109.405 243.166 109.322 243.122 109.209Z" fill="white"/>
<path d="M203.913 107.939L205.498 109.285C205.717 109.471 205.863 109.729 205.908 110.013L206.132 111.41C206.172 111.66 206.132 111.916 206.018 112.142C205.904 112.368 205.722 112.552 205.497 112.669C205.273 112.785 205.017 112.828 204.767 112.792C204.517 112.755 204.284 112.641 204.103 112.465L203.049 111.44C202.938 111.331 202.849 111.203 202.786 111.061L202.029 109.343C201.92 109.093 201.898 108.814 201.968 108.55C202.037 108.287 202.194 108.055 202.413 107.892C202.632 107.729 202.899 107.645 203.172 107.653C203.444 107.662 203.706 107.763 203.913 107.939Z" fill="white"/>
<path d="M254.729 110.965C254.697 110.961 254.668 110.945 254.648 110.92C254.627 110.895 254.618 110.863 254.621 110.831L254.624 110.805C254.676 110.307 254.756 109.832 254.849 109.486C254.941 109.139 255.037 108.948 255.116 108.956L255.239 108.967C255.278 108.971 255.312 109.023 255.338 109.121C255.365 109.219 255.384 109.361 255.393 109.538C255.403 109.715 255.404 109.925 255.395 110.155C255.387 110.385 255.369 110.63 255.343 110.878L255.341 110.904C255.339 110.92 255.334 110.935 255.327 110.95C255.319 110.964 255.309 110.977 255.297 110.987C255.284 110.997 255.27 111.005 255.254 111.01C255.239 111.014 255.223 111.016 255.207 111.014L254.729 110.965Z" fill="white"/>
<path d="M241.611 111.91C240.858 113.407 241.125 115.062 242.207 115.606C243.288 116.151 244.776 115.378 245.529 113.881C246.282 112.384 246.015 110.729 244.933 110.185C243.851 109.641 242.364 110.413 241.611 111.91Z" fill="white"/>
<path d="M233.704 115.72C233.631 114.649 232.053 115.321 232.312 113.737C232.519 112.473 233.389 110.825 234.703 110.316C234.723 110.308 234.744 110.305 234.765 110.308C234.787 110.31 234.807 110.318 234.824 110.331C234.841 110.343 234.855 110.36 234.865 110.379C234.874 110.398 234.878 110.419 234.877 110.441C234.85 110.907 234.864 111.312 234.918 111.658C235.052 112.549 236.083 113.318 236.031 114.226C235.967 115.337 235.423 116.099 234.4 116.512C234.339 116.537 234.274 116.549 234.208 116.546C234.143 116.543 234.079 116.526 234.021 116.495C233.962 116.465 233.911 116.423 233.871 116.371C233.831 116.319 233.803 116.259 233.788 116.195C233.738 115.979 233.71 115.821 233.704 115.72Z" fill="white"/>
<path d="M229.347 111.041C229.461 112.249 229.793 112.686 230.533 113.516C230.958 113.996 231.103 115.12 230.655 115.677C229.685 116.876 227.897 116.09 227.239 115.048C227.09 114.809 227.064 114.527 227.163 114.203C227.513 113.058 227.738 112.275 227.839 111.856C227.975 111.293 228.263 110.902 228.704 110.682C228.769 110.65 228.841 110.635 228.914 110.636C228.987 110.638 229.058 110.658 229.121 110.693C229.184 110.728 229.238 110.778 229.277 110.839C229.317 110.899 229.341 110.969 229.347 111.041Z" fill="white"/>
<path d="M209.633 121.76C209.39 121.441 208.886 121.17 208.122 120.945C207.731 120.83 207.261 120.5 206.712 119.954C205.757 119.005 205.702 117.98 206.546 116.879C207.662 115.429 208.585 114.072 209.313 112.808C209.924 111.748 210.823 111.167 212.009 111.064C212.366 111.033 212.699 111.091 213.008 111.239C214.829 112.12 216.712 113.506 218.657 115.397C219.063 115.791 219.311 116.235 219.4 116.728C219.452 117.023 219.342 117.458 219.068 118.032C218.678 118.85 218.475 119.275 218.459 119.308C218.372 119.5 218.311 119.663 218.276 119.797C218.237 119.937 218.217 120.11 218.215 120.316C218.209 121.886 218.104 123.218 217.9 124.311C217.725 125.251 215.375 125.779 214.671 125.886C213.57 126.057 212.66 125.686 211.942 124.774C211.492 124.201 210.722 123.196 209.633 121.76Z" fill="white"/>
<path d="M253.89 111.218C254.365 111.099 255.081 111.536 255.186 112.025C255.473 113.38 255.462 114.556 255.151 115.554C254.829 116.593 254.109 117.095 252.99 117.06C251.727 117.019 250.993 115.051 250.841 114.084C250.591 112.502 252.612 111.539 253.89 111.218Z" fill="white"/>
<path d="M226.648 116.157C227.026 117.444 227.204 118.606 226.363 119.704C225.731 120.534 224.866 120.554 224.193 119.756C223.229 118.612 222.915 117.077 223.532 115.645C224.008 114.548 224.563 113.693 225.198 113.079C225.222 113.055 225.253 113.037 225.286 113.026C225.319 113.016 225.354 113.015 225.389 113.021C225.423 113.028 225.455 113.043 225.483 113.064C225.51 113.086 225.533 113.114 225.547 113.146C225.953 114.037 226.32 115.041 226.648 116.157Z" fill="white"/>
<path d="M202.449 113.906L204.167 114.451C204.311 114.497 204.439 114.58 204.54 114.693C204.64 114.806 204.708 114.943 204.738 115.091L204.924 116.012C204.954 116.163 204.943 116.32 204.89 116.465C204.838 116.61 204.747 116.738 204.627 116.835C204.507 116.932 204.362 116.994 204.209 117.015C204.056 117.035 203.901 117.014 203.759 116.952L202.597 116.448C202.465 116.391 202.35 116.301 202.262 116.186L201.523 115.225C201.413 115.083 201.352 114.909 201.348 114.729C201.344 114.549 201.398 114.373 201.501 114.226C201.605 114.078 201.752 113.968 201.923 113.91C202.093 113.853 202.277 113.851 202.449 113.906Z" fill="white"/>
<path d="M250.183 116.509C250.732 117.21 251.027 117.59 251.065 117.648C252.128 119.264 250.862 120.371 249.397 120.88C248.063 121.346 246.734 121.224 245.41 120.514C244.795 120.185 244.38 119.888 244.167 119.622C243.381 118.65 244.042 117.456 244.889 116.719C245.124 116.515 245.939 115.825 247.335 114.649C247.605 114.42 247.873 114.275 248.139 114.215C248.281 114.182 248.429 114.198 248.561 114.259C248.693 114.32 248.802 114.423 248.87 114.553C249.169 115.119 249.607 115.772 250.183 116.509Z" fill="white"/>
<path d="M235.839 117.992C236.261 116.591 236.613 115.723 237.181 114.459C237.194 114.43 237.215 114.405 237.241 114.387C237.267 114.368 237.298 114.357 237.33 114.355C237.362 114.352 237.394 114.359 237.422 114.373C237.451 114.387 237.475 114.409 237.493 114.436C238.149 115.463 238.645 116.535 238.981 117.651C239.307 118.737 238.818 119.885 238.285 120.816C238.139 121.071 237.91 121.236 237.597 121.311C236.801 121.504 236.262 121.211 235.978 120.435C235.71 119.707 235.591 118.807 235.839 117.992Z" fill="white"/>
<path d="M223.608 120.65C224.071 121.046 224.991 121.67 225.463 122.336C226.002 123.099 225.422 124.191 224.857 124.861C224.059 125.811 223.058 125.525 222.405 124.62C222.258 124.412 222.156 124.181 222.099 123.926C221.816 122.63 221.853 121.285 222.21 119.893C222.219 119.86 222.236 119.829 222.259 119.804C222.283 119.779 222.312 119.76 222.344 119.749C222.377 119.738 222.412 119.735 222.446 119.74C222.48 119.745 222.512 119.759 222.539 119.78C222.858 120.026 223.214 120.316 223.608 120.65Z" fill="white"/>
<path d="M225.547 128.114C225.428 125.543 226.383 121.99 228.791 120.604C230.758 119.476 232.695 119.505 234.604 120.691C235.739 121.396 236.572 122.557 237.102 124.174C238.133 127.322 236.858 131.134 234.499 133.327C233.534 134.225 232.456 134.767 231.264 134.951C228.975 135.304 226.936 133.688 226.101 131.696C225.699 130.741 225.594 129.113 225.547 128.114Z" fill="white"/>
</svg>
