<svg width="287" height="75" viewBox="0 0 287 75" fill="none" xmlns="http://www.w3.org/2000/svg">
<rect x="19.2805" y="15.4316" width="28.2425" height="28.2425" rx="4.79137" fill="#047857"/>
<rect x="50.1131" y="15.4316" width="28.2425" height="28.2425" rx="4.79137" fill="#047857"/>
<rect x="19.2806" y="46.2642" width="28.2425" height="28.2425" rx="4.79137" fill="#047857"/>
<rect x="50.1131" y="46.2642" width="28.2425" height="28.2425" rx="4.79137" fill="#047857"/>
<path d="M16.9495 28.2517L47.508 9.64365C48.332 9.14188 49.3667 9.13972 50.1928 9.63804L81.0502 28.2517" stroke="#064E3B" stroke-width="6.60432" stroke-linecap="round" stroke-linejoin="round"/>
<path d="M4 30.1942L47.4499 3.81232C48.2725 3.31284 49.3043 3.31068 50.129 3.80673L94 30.1942" stroke="#022C22" stroke-width="6.60432" stroke-linecap="round" stroke-linejoin="round"/>
<path fill-rule="evenodd" clip-rule="evenodd" d="M37.7218 36.381C38.0703 37.3594 38.8576 39.191 39.9863 39.4412C40.9946 39.6647 42.2656 39.5136 43.2617 39.3951C43.3633 39.383 43.4621 39.3712 43.5575 39.3603C43.6922 39.3447 43.8252 39.4018 43.9069 39.51C44.6897 40.5452 45.094 41.3794 41.1933 44.133C40.9033 44.3378 40.6245 44.5333 40.3557 44.7218C36.8093 47.2089 35.0015 48.4768 32.091 53.5913C31.2997 55.2126 30.5556 58.142 31.6661 61.6559C31.6783 61.6943 31.6864 61.7389 31.6795 61.7786C31.4606 63.0427 24.468 58.9638 25.6044 54.6103C25.6747 54.341 25.4736 54.0764 25.2446 54.2347C25.146 54.3029 25.0534 54.3944 24.9823 54.5159C24.7115 54.9782 24.4244 56.365 24.5598 57.4877C24.6952 58.6104 26.3877 63.8937 34.7828 65.0824C37.9422 65.1925 43.8982 65.2938 44.2773 64.8183C44.7512 64.2239 44.8866 63.7616 43.1941 63.5635C42.0782 63.4329 41.652 62.9045 41.5366 62.5256C41.4968 62.3947 41.5742 62.267 41.6859 62.1881C42.1202 61.8812 42.7618 61.2776 42.8556 60.5916C42.991 59.601 44.6158 57.4877 45.022 57.4877C45.4283 57.4877 45.8307 58.7529 45.8984 59.1491C45.903 59.1759 45.9102 59.2174 45.9196 59.2715C46.0217 59.8567 46.3818 61.9213 46.4438 62.9691C46.5115 63.5195 46.9312 64.6202 48.0686 64.6202C48.2923 64.6202 48.5159 64.6234 48.7345 64.6266C49.9058 64.6437 50.9334 64.6587 51.0475 64.1579C51.1829 63.5635 50.9121 63.2993 49.4904 62.5068C48.3626 61.8782 47.912 57.8812 48.2784 55.5818C48.2847 55.5423 48.2972 55.5051 48.3154 55.4696L48.9225 54.2853C49.1189 54.7395 49.2413 55.7028 49.3114 56.2544C49.3317 56.4143 49.3477 56.5396 49.3597 56.6079C49.414 56.9152 49.5632 59.2112 49.631 60.3208C49.6988 60.8542 50.1192 61.9212 51.2585 61.9212C51.4825 61.9212 51.7065 61.9243 51.9255 61.9274C53.0988 61.944 54.1281 61.9586 54.2424 61.4731C54.3686 60.9372 53.8861 60.6783 52.6725 60.0267C52.5811 59.9777 52.4856 59.9264 52.386 59.8727C51.2521 59.261 51.8659 50.2355 52.1995 45.6178C52.2027 45.5732 52.1981 45.5299 52.186 45.4868L51.2346 42.0839C51.2175 42.0228 51.2156 41.9584 51.2292 41.8964L51.9128 38.7663C51.974 38.6116 52.0349 38.4691 52.1002 38.3286C52.1246 38.2759 52.1378 38.2194 52.1378 38.1613C52.1373 37.0245 52.1253 35.738 51.8441 34.5492C52.3667 33.81 53.0528 32.7503 53.0528 32.2634C53.0528 31.6369 51.6111 30.8858 49.8708 30.4143C48.6522 30.0841 47.4449 30.157 47.0106 30.5671C46.9835 30.5671 46.9436 30.5646 46.8913 30.5613C46.4227 30.5321 44.9683 30.4414 43.0487 31.539C43.0273 31.5512 43.0075 31.5648 42.9896 31.5818C42.7081 31.8478 42.3492 32.5234 41.9894 33.2009C41.5465 34.0346 41.1022 34.8711 40.7988 34.9504C40.7106 34.9734 40.5822 35.0013 40.4269 35.0349C39.6585 35.2014 38.2314 35.5106 37.7586 36.0887C37.6919 36.1703 37.6864 36.2817 37.7218 36.381Z" fill="white"/>
<path d="M54.2984 63.5444C55.2714 64.0349 56.8374 63.5483 57.7517 63.231C58.1254 63.1013 58.5261 63.091 58.9068 63.1984L60.555 63.6633C60.7499 63.7183 60.9519 63.7444 61.1544 63.7407L68.4615 63.6105C68.7423 63.6055 69.0197 63.547 69.2676 63.415C70.803 62.597 73.2855 60.6172 74.0324 58.383C75.0479 55.3451 74.7094 51.977 74.0324 51.1845C73.3554 50.392 72.927 51.5167 72.8983 51.7128C72.8306 52.1751 72.9492 52.5741 72.7461 55.678C72.5836 58.1611 69.9928 60.2541 68.8871 60.8265C68.8871 60.8045 69.2391 60.3669 69.2933 60.1027C69.361 59.7725 70.038 57.7913 68.6162 52.9703C67.3231 48.5855 61.7176 45.184 60.7648 44.5547C60.6677 44.4906 60.6757 44.4179 60.7709 44.3511C62.3236 43.2618 63.4729 42.1762 63.5386 41.215C63.6063 40.2244 62.5908 39.8281 62.5908 39.7621C62.5908 38.689 61.3663 37.9001 60.6939 37.6105C60.6627 37.597 60.6547 37.5561 60.679 37.5324C60.6892 37.5224 60.6944 37.5085 60.693 37.4944C60.6683 37.2354 60.5972 36.5837 60.492 35.8657C60.3566 34.9411 60.0433 34.6334 59.9504 34.6109C59.7984 34.5741 59.4816 35.2819 59.2783 35.6585C59.275 35.6646 59.2723 35.6709 59.2702 35.6775L59.2569 35.719C59.2204 35.8328 59.0525 35.8066 59.0525 35.6871C59.0525 35.6742 59.0503 35.6619 59.0455 35.6499C58.994 35.5209 58.6683 34.7302 58.461 34.809C58.037 34.97 56.7907 36.9223 56.2491 37.5827C55.7075 38.2431 54.0791 41.801 53.2647 44.7138C52.4523 47.6196 54.3988 54.4892 54.5342 54.9515C54.6405 55.3141 55.1893 57.2724 55.4659 58.2617C55.4768 58.3008 55.486 58.3374 55.4942 58.3771C55.5859 58.8182 56.148 61.6523 55.4821 61.7537C54.849 61.8502 53.765 62.2242 53.8721 62.9913C53.9059 63.2333 54.0801 63.4344 54.2984 63.5444Z" fill="white"/>
<path d="M121.148 37.5573C120.401 37.7253 119.636 37.8373 118.852 37.8933C118.087 37.968 117.331 38.0053 116.584 38.0053C115.856 38.0053 115.287 37.9866 114.876 37.9493C114.484 37.912 113.961 37.8186 113.308 37.6693C112.655 37.52 112.057 37.3146 111.516 37.0533C110.975 36.792 110.396 36.4093 109.78 35.9053C109.183 35.4013 108.679 34.804 108.268 34.1133C107.316 32.508 106.84 30.436 106.84 27.8973C106.84 26.1986 107.101 24.696 107.624 23.3893C108.165 22.0826 108.809 21.0746 109.556 20.3653C110.321 19.656 111.189 19.0866 112.16 18.6573C113.728 17.948 115.305 17.5933 116.892 17.5933C119.169 17.5933 120.803 17.78 121.792 18.1533C122.24 18.3213 122.641 18.5826 122.996 18.9373C123.351 19.292 123.528 19.8053 123.528 20.4773C123.528 21.1493 123.36 21.9986 123.024 23.0253C122.707 24.052 122.24 24.5653 121.624 24.5653C121.437 24.5653 120.747 24.416 119.552 24.1173C118.357 23.8186 117.545 23.6693 117.116 23.6693C116.463 23.6693 115.903 24.0333 115.436 24.7613C114.988 25.4893 114.764 26.5253 114.764 27.8693C114.764 29.2133 114.96 30.2586 115.352 31.0053C115.763 31.752 116.295 32.1253 116.948 32.1253C117.415 32.1253 118.255 31.9386 119.468 31.5653C120.7 31.1733 121.419 30.9773 121.624 30.9773C122.203 30.9773 122.651 31.5093 122.968 32.5733C123.304 33.6373 123.472 34.496 123.472 35.1493C123.472 35.8026 123.267 36.3253 122.856 36.7173C122.464 37.0906 121.895 37.3706 121.148 37.5573ZM130.535 38.0053C128.836 38.0053 127.511 37.604 126.559 36.8013C126.148 36.4653 125.794 35.9706 125.495 35.3173C125.215 34.664 125.075 33.8986 125.075 33.0213C125.075 32.144 125.28 31.3786 125.691 30.7253C126.12 30.072 126.634 29.568 127.231 29.2133C127.828 28.8586 128.528 28.5693 129.331 28.3453C130.544 28.028 131.879 27.8693 133.335 27.8693H134.259C134.259 27.104 133.988 26.5626 133.447 26.2453C133.242 26.1146 132.906 26.0493 132.439 26.0493C131.991 26.0493 131.44 26.1706 130.787 26.4133C130.152 26.656 129.62 26.908 129.191 27.1693C128.762 27.412 128.472 27.5333 128.323 27.5333C127.987 27.5333 127.53 27.0946 126.951 26.2173C126.372 25.3213 126.083 24.5093 126.083 23.7813C126.083 23.5386 126.428 23.2213 127.119 22.8293C127.81 22.4373 128.78 22.0826 130.031 21.7653C131.3 21.4293 132.532 21.2613 133.727 21.2613C134.922 21.2613 135.948 21.364 136.807 21.5693C137.684 21.756 138.394 21.9893 138.935 22.2693C139.495 22.5493 139.962 22.9226 140.335 23.3893C140.727 23.856 141.016 24.276 141.203 24.6493C141.408 25.0226 141.567 25.508 141.679 26.1053C141.791 26.796 141.847 27.6453 141.847 28.6533V37.0813C141.847 37.2866 141.343 37.4546 140.335 37.5853C139.346 37.6973 138.356 37.7533 137.367 37.7533C136.396 37.7533 135.762 37.7253 135.463 37.6693C135.183 37.6133 135.015 37.548 134.959 37.4733C134.903 37.3986 134.856 37.268 134.819 37.0813L134.595 35.4853H134.371C133.904 37.1653 132.626 38.0053 130.535 38.0053ZM134.287 33.3573V30.0813C133.802 30.0813 133.41 30.2866 133.111 30.6973C132.812 31.108 132.663 31.5746 132.663 32.0973C132.663 33.3293 132.943 33.9453 133.503 33.9453C133.746 33.9453 133.932 33.8893 134.063 33.7773C134.212 33.6466 134.287 33.5066 134.287 33.3573ZM140.587 18.4613C140.587 18.7413 140.102 19.18 139.131 19.7773C138.179 20.3746 137.339 20.6733 136.611 20.6733C135.902 20.6733 135.043 20.5146 134.035 20.1973C133.046 19.8613 132.402 19.6933 132.103 19.6933C131.823 19.6933 131.272 19.8613 130.451 20.1973C129.63 20.5146 129.051 20.6733 128.715 20.6733C128.379 20.6733 128.024 20.3466 127.651 19.6933C127.296 19.0213 127.119 18.508 127.119 18.1533C127.119 17.836 127.623 17.388 128.631 16.8093C129.658 16.212 130.507 15.9133 131.179 15.9133C131.851 15.9133 132.672 16.072 133.643 16.3893C134.632 16.7066 135.342 16.8653 135.771 16.8653C135.902 16.8653 136.359 16.7066 137.143 16.3893C137.946 16.072 138.524 15.9133 138.879 15.9133C139.252 15.9133 139.626 16.2586 139.999 16.9493C140.391 17.64 140.587 18.144 140.587 18.4613ZM152.436 38.0053C151.036 38.0053 149.832 37.884 148.824 37.6413C147.816 37.3986 146.901 36.9693 146.08 36.3533C144.381 35.1213 143.532 32.8253 143.532 29.4653C143.532 26.4786 144.4 24.3413 146.136 23.0533C147.76 21.8586 149.86 21.2613 152.436 21.2613C153.537 21.2613 154.48 21.3173 155.264 21.4293C156.048 21.5226 156.841 21.7373 157.644 22.0733C158.465 22.4093 159.119 22.8666 159.604 23.4453C160.108 24.024 160.519 24.8266 160.836 25.8533C161.153 26.8613 161.312 28.0653 161.312 29.4653C161.312 32.3026 160.509 34.44 158.904 35.8773C157.299 37.296 155.143 38.0053 152.436 38.0053ZM151.456 32.5453C151.587 33.2173 151.717 33.6186 151.848 33.7493C151.997 33.88 152.184 33.9453 152.408 33.9453C152.651 33.9453 152.837 33.88 152.968 33.7493C153.117 33.6186 153.248 33.2173 153.36 32.5453C153.491 31.8733 153.556 31.0333 153.556 30.0253C153.556 28.9986 153.528 28.2146 153.472 27.6733C153.435 27.1133 153.379 26.684 153.304 26.3853C153.248 26.0866 153.164 25.8533 153.052 25.6853C152.884 25.4426 152.679 25.3213 152.436 25.3213C152.212 25.3213 152.025 25.396 151.876 25.5453C151.727 25.676 151.587 26.0866 151.456 26.7773C151.325 27.4493 151.26 28.4106 151.26 29.6613C151.26 30.912 151.325 31.8733 151.456 32.5453ZM172.052 37.7533H165.444C164.529 37.7533 163.913 37.688 163.596 37.5573C163.279 37.4266 163.12 37.212 163.12 36.9133V19.2453C163.12 18.76 163.325 18.4146 163.736 18.2093C164.147 17.9853 164.856 17.8733 165.864 17.8733H172.164C175.748 17.8733 178.221 18.5826 179.584 20.0013C180.947 21.4013 181.628 23.9586 181.628 27.6733C181.628 31.388 180.919 34.0013 179.5 35.5133C178.081 37.0066 175.599 37.7533 172.052 37.7533ZM171.828 22.0453C171.38 22.0453 171.081 22.0826 170.932 22.1573V33.4693L171.996 33.5813C172.556 33.5813 172.976 33.1333 173.256 32.2373C173.555 31.3413 173.704 29.792 173.704 27.5893C173.704 25.3866 173.555 23.912 173.256 23.1653C172.957 22.4186 172.481 22.0453 171.828 22.0453ZM192.084 38.0053C190.684 38.0053 189.48 37.884 188.472 37.6413C187.464 37.3986 186.55 36.9693 185.728 36.3533C184.03 35.1213 183.18 32.8253 183.18 29.4653C183.18 26.4786 184.048 24.3413 185.784 23.0533C187.408 21.8586 189.508 21.2613 192.084 21.2613C193.186 21.2613 194.128 21.3173 194.912 21.4293C195.696 21.5226 196.49 21.7373 197.292 22.0733C198.114 22.4093 198.767 22.8666 199.252 23.4453C199.756 24.024 200.167 24.8266 200.484 25.8533C200.802 26.8613 200.96 28.0653 200.96 29.4653C200.96 32.3026 200.158 34.44 198.552 35.8773C196.947 37.296 194.791 38.0053 192.084 38.0053ZM191.104 32.5453C191.235 33.2173 191.366 33.6186 191.496 33.7493C191.646 33.88 191.832 33.9453 192.056 33.9453C192.299 33.9453 192.486 33.88 192.616 33.7493C192.766 33.6186 192.896 33.2173 193.008 32.5453C193.139 31.8733 193.204 31.0333 193.204 30.0253C193.204 28.9986 193.176 28.2146 193.12 27.6733C193.083 27.1133 193.027 26.684 192.952 26.3853C192.896 26.0866 192.812 25.8533 192.7 25.6853C192.532 25.4426 192.327 25.3213 192.084 25.3213C191.86 25.3213 191.674 25.396 191.524 25.5453C191.375 25.676 191.235 26.0866 191.104 26.7773C190.974 27.4493 190.908 28.4106 190.908 29.6613C190.908 30.912 190.974 31.8733 191.104 32.5453ZM228.136 28.5133V37.0813C228.136 37.2866 227.604 37.4546 226.54 37.5853C225.495 37.6973 224.403 37.7533 223.264 37.7533C222.144 37.7533 221.416 37.7066 221.08 37.6133C220.744 37.5013 220.576 37.324 220.576 37.0813V29.3253C220.576 26.656 220.306 25.3213 219.764 25.3213C219.634 25.3213 219.503 25.3773 219.372 25.4893C219.242 25.6013 219.176 25.7973 219.176 26.0773V37.0813C219.176 37.2866 218.644 37.4546 217.58 37.5853C216.535 37.6973 215.443 37.7533 214.304 37.7533C213.166 37.7533 212.428 37.7066 212.092 37.6133C211.775 37.5013 211.616 37.324 211.616 37.0813V29.3253C211.616 27.2533 211.486 26.012 211.224 25.6013C211.094 25.4146 210.926 25.3213 210.72 25.3213C210.366 25.3213 210.188 25.5733 210.188 26.0773V37.0813C210.188 37.2866 209.656 37.4546 208.592 37.5853C207.528 37.6973 206.427 37.7533 205.288 37.7533C204.168 37.7533 203.44 37.7066 203.104 37.6133C202.787 37.5013 202.628 37.324 202.628 37.0813V23.2773C202.628 22.8853 203.16 22.4933 204.224 22.1013C205.307 21.7093 206.446 21.5133 207.64 21.5133C208.835 21.5133 209.507 21.8586 209.656 22.5493L209.908 23.7813H210.104C210.646 22.7173 211.542 21.9613 212.792 21.5133C213.315 21.3453 213.987 21.2613 214.808 21.2613C216.451 21.2613 217.646 22.1013 218.392 23.7813C218.635 23.2213 219.242 22.6613 220.212 22.1013C221.183 21.5413 222.256 21.2613 223.432 21.2613C225.28 21.2613 226.522 21.84 227.156 22.9973C227.81 24.136 228.136 25.9746 228.136 28.5133ZM237.697 22.8013V37.0813C237.697 37.2866 237.156 37.4546 236.073 37.5853C235.009 37.6973 233.908 37.7533 232.769 37.7533C231.649 37.7533 230.921 37.7066 230.585 37.6133C230.268 37.5013 230.109 37.324 230.109 37.0813V23.3053C230.109 22.8946 230.641 22.4933 231.705 22.1013C232.769 21.7093 233.917 21.5133 235.149 21.5133C236.848 21.5133 237.697 21.9426 237.697 22.8013ZM236.717 15.9133C237.146 15.9133 237.576 16.268 238.005 16.9773C238.453 17.6866 238.677 18.564 238.677 19.6093C238.677 19.8893 237.865 20.1413 236.241 20.3653C234.636 20.5706 233.301 20.6733 232.237 20.6733C231.882 20.6733 231.556 20.4493 231.257 20.0013C230.977 19.5533 230.837 19.04 230.837 18.4613C230.837 17.864 231.528 17.2946 232.909 16.7533C234.309 16.1933 235.578 15.9133 236.717 15.9133ZM256.536 28.4573V37.0813C256.536 37.2866 256.004 37.4546 254.94 37.5853C253.876 37.6973 252.775 37.7533 251.636 37.7533C250.516 37.7533 249.788 37.7066 249.452 37.6133C249.135 37.5013 248.976 37.324 248.976 37.0813V28.1773C248.976 27.3373 248.939 26.7866 248.864 26.5253C248.808 26.264 248.752 26.0306 248.696 25.8253C248.565 25.4706 248.332 25.2933 247.996 25.2933C247.473 25.2933 247.212 25.5453 247.212 26.0493V37.0813C247.212 37.2866 246.68 37.4546 245.616 37.5853C244.571 37.6973 243.479 37.7533 242.34 37.7533C241.22 37.7533 240.492 37.7066 240.156 37.6133C239.82 37.5013 239.652 37.324 239.652 37.0813V23.2773C239.652 22.8853 240.184 22.4933 241.248 22.1013C242.331 21.7093 243.469 21.5133 244.664 21.5133C245.859 21.5133 246.531 21.8586 246.68 22.5493L246.932 23.7813H247.128C247.669 22.6986 248.603 21.9426 249.928 21.5133C250.469 21.3453 251.067 21.2613 251.72 21.2613C253.605 21.2613 254.875 21.8306 255.528 22.9693C256.2 24.0893 256.536 25.9186 256.536 28.4573ZM266.192 23.2773V37.0813C266.192 37.2866 265.65 37.4546 264.568 37.5853C263.504 37.6973 262.402 37.7533 261.264 37.7533C260.144 37.7533 259.416 37.7066 259.08 37.6133C258.762 37.5013 258.604 37.324 258.604 37.0813V23.7813C258.604 23.3706 259.126 22.9693 260.172 22.5773C261.236 22.1666 262.393 21.9613 263.644 21.9613C265.342 21.9613 266.192 22.4 266.192 23.2773ZM262.384 15.9133C263.616 15.9133 264.577 16.1 265.268 16.4733C265.977 16.828 266.332 17.4813 266.332 18.4333C266.332 20.1133 265.025 20.9533 262.412 20.9533C259.798 20.9533 258.492 20.1133 258.492 18.4333C258.492 16.7533 259.789 15.9133 262.384 15.9133ZM276.905 38.0053C275.505 38.0053 274.301 37.884 273.293 37.6413C272.285 37.3986 271.37 36.9693 270.549 36.3533C268.85 35.1213 268.001 32.8253 268.001 29.4653C268.001 26.4786 268.869 24.3413 270.605 23.0533C272.229 21.8586 274.329 21.2613 276.905 21.2613C278.006 21.2613 278.949 21.3173 279.733 21.4293C280.517 21.5226 281.31 21.7373 282.113 22.0733C282.934 22.4093 283.587 22.8666 284.073 23.4453C284.577 24.024 284.987 24.8266 285.305 25.8533C285.622 26.8613 285.781 28.0653 285.781 29.4653C285.781 32.3026 284.978 34.44 283.373 35.8773C281.767 37.296 279.611 38.0053 276.905 38.0053ZM275.925 32.5453C276.055 33.2173 276.186 33.6186 276.317 33.7493C276.466 33.88 276.653 33.9453 276.877 33.9453C277.119 33.9453 277.306 33.88 277.437 33.7493C277.586 33.6186 277.717 33.2173 277.829 32.5453C277.959 31.8733 278.025 31.0333 278.025 30.0253C278.025 28.9986 277.997 28.2146 277.941 27.6733C277.903 27.1133 277.847 26.684 277.773 26.3853C277.717 26.0866 277.633 25.8533 277.521 25.6853C277.353 25.4426 277.147 25.3213 276.905 25.3213C276.681 25.3213 276.494 25.396 276.345 25.5453C276.195 25.676 276.055 26.0866 275.925 26.7773C275.794 27.4493 275.729 28.4106 275.729 29.6613C275.729 30.912 275.794 31.8733 275.925 32.5453Z" fill="#059669"/>
<path d="M112.14 63.8733C111.1 63.8733 110.1 63.7066 109.14 63.3733C108.193 63.0266 107.46 62.5866 106.94 62.0533L107.52 60.9133C108.013 61.3933 108.673 61.8 109.5 62.1333C110.34 62.4533 111.22 62.6133 112.14 62.6133C113.02 62.6133 113.733 62.5066 114.28 62.2933C114.84 62.0666 115.247 61.7666 115.5 61.3933C115.767 61.02 115.9 60.6066 115.9 60.1533C115.9 59.6066 115.74 59.1666 115.42 58.8333C115.113 58.5 114.707 58.24 114.2 58.0533C113.693 57.8533 113.133 57.68 112.52 57.5333C111.907 57.3866 111.293 57.2333 110.68 57.0733C110.067 56.9 109.5 56.6733 108.98 56.3933C108.473 56.1133 108.06 55.7466 107.74 55.2933C107.433 54.8266 107.28 54.22 107.28 53.4733C107.28 52.78 107.46 52.1466 107.82 51.5733C108.193 50.9866 108.76 50.52 109.52 50.1733C110.28 49.8133 111.253 49.6333 112.44 49.6333C113.227 49.6333 114.007 49.7466 114.78 49.9733C115.553 50.1866 116.22 50.4866 116.78 50.8733L116.28 52.0533C115.68 51.6533 115.04 51.36 114.36 51.1733C113.693 50.9866 113.047 50.8933 112.42 50.8933C111.58 50.8933 110.887 51.0066 110.34 51.2333C109.793 51.46 109.387 51.7666 109.12 52.1533C108.867 52.5266 108.74 52.9533 108.74 53.4333C108.74 53.98 108.893 54.42 109.2 54.7533C109.52 55.0866 109.933 55.3466 110.44 55.5333C110.96 55.72 111.527 55.8866 112.14 56.0333C112.753 56.18 113.36 56.34 113.96 56.5133C114.573 56.6866 115.133 56.9133 115.64 57.1933C116.16 57.46 116.573 57.82 116.88 58.2733C117.2 58.7266 117.36 59.32 117.36 60.0533C117.36 60.7333 117.173 61.3666 116.8 61.9533C116.427 62.5266 115.853 62.9933 115.08 63.3533C114.32 63.7 113.34 63.8733 112.14 63.8733ZM126.865 63.7533V61.4333L126.805 61.0533V57.1733C126.805 56.28 126.551 55.5933 126.045 55.1133C125.551 54.6333 124.811 54.3933 123.825 54.3933C123.145 54.3933 122.498 54.5066 121.885 54.7333C121.271 54.96 120.751 55.26 120.325 55.6333L119.685 54.5733C120.218 54.12 120.858 53.7733 121.605 53.5333C122.351 53.28 123.138 53.1533 123.965 53.1533C125.325 53.1533 126.371 53.4933 127.105 54.1733C127.851 54.84 128.225 55.86 128.225 57.2333V63.7533H126.865ZM123.245 63.8533C122.458 63.8533 121.771 63.7266 121.185 63.4733C120.611 63.2066 120.171 62.8466 119.865 62.3933C119.558 61.9266 119.405 61.3933 119.405 60.7933C119.405 60.2466 119.531 59.7533 119.785 59.3133C120.051 58.86 120.478 58.5 121.065 58.2333C121.665 57.9533 122.465 57.8133 123.465 57.8133H127.085V58.8733H123.505C122.491 58.8733 121.785 59.0533 121.385 59.4133C120.998 59.7733 120.805 60.22 120.805 60.7533C120.805 61.3533 121.038 61.8333 121.505 62.1933C121.971 62.5533 122.625 62.7333 123.465 62.7333C124.265 62.7333 124.951 62.5533 125.525 62.1933C126.111 61.82 126.538 61.2866 126.805 60.5933L127.125 61.5733C126.858 62.2666 126.391 62.82 125.725 63.2333C125.071 63.6466 124.245 63.8533 123.245 63.8533ZM135.402 63.8533C134.415 63.8533 133.655 63.5866 133.122 63.0533C132.588 62.52 132.322 61.7666 132.322 60.7933V50.9333H133.742V60.7133C133.742 61.3266 133.895 61.8 134.202 62.1333C134.522 62.4666 134.975 62.6333 135.562 62.6333C136.188 62.6333 136.708 62.4533 137.122 62.0933L137.622 63.1133C137.342 63.3666 137.002 63.5533 136.602 63.6733C136.215 63.7933 135.815 63.8533 135.402 63.8533ZM130.442 54.4333V53.2533H136.942V54.4333H130.442ZM144.547 63.8533C143.653 63.8533 142.873 63.6866 142.207 63.3533C141.54 63.02 141.02 62.52 140.647 61.8533C140.287 61.1866 140.107 60.3533 140.107 59.3533V53.2533H141.527V59.1933C141.527 60.3133 141.8 61.16 142.347 61.7333C142.907 62.2933 143.687 62.5733 144.687 62.5733C145.42 62.5733 146.053 62.4266 146.587 62.1333C147.133 61.8266 147.547 61.3866 147.827 60.8133C148.12 60.24 148.267 59.5533 148.267 58.7533V53.2533H149.687V63.7533H148.327V60.8733L148.547 61.3933C148.213 62.1666 147.693 62.7733 146.987 63.2133C146.293 63.64 145.48 63.8533 144.547 63.8533ZM159.064 63.8533C158.144 63.8533 157.317 63.6466 156.584 63.2333C155.851 62.8066 155.271 62.1933 154.844 61.3933C154.417 60.5933 154.204 59.6266 154.204 58.4933C154.204 57.3466 154.417 56.38 154.844 55.5933C155.284 54.7933 155.871 54.1866 156.604 53.7733C157.337 53.36 158.157 53.1533 159.064 53.1533C160.064 53.1533 160.957 53.38 161.744 53.8333C162.544 54.2733 163.171 54.8933 163.624 55.6933C164.077 56.4933 164.304 57.4266 164.304 58.4933C164.304 59.5466 164.077 60.48 163.624 61.2933C163.171 62.0933 162.544 62.72 161.744 63.1733C160.957 63.6266 160.064 63.8533 159.064 63.8533ZM153.644 63.7533V48.9133H155.064V56.3533L154.864 58.4733L155.004 60.5933V63.7533H153.644ZM158.964 62.5933C159.711 62.5933 160.377 62.4266 160.964 62.0933C161.551 61.7466 162.017 61.2666 162.364 60.6533C162.711 60.0266 162.884 59.3066 162.884 58.4933C162.884 57.6666 162.711 56.9466 162.364 56.3333C162.017 55.72 161.551 55.2466 160.964 54.9133C160.377 54.5666 159.711 54.3933 158.964 54.3933C158.217 54.3933 157.544 54.5666 156.944 54.9133C156.357 55.2466 155.891 55.72 155.544 56.3333C155.211 56.9466 155.044 57.6666 155.044 58.4933C155.044 59.3066 155.211 60.0266 155.544 60.6533C155.891 61.2666 156.357 61.7466 156.944 62.0933C157.544 62.4266 158.217 62.5933 158.964 62.5933ZM173.72 63.7533V61.4333L173.66 61.0533V57.1733C173.66 56.28 173.407 55.5933 172.9 55.1133C172.407 54.6333 171.667 54.3933 170.68 54.3933C170 54.3933 169.353 54.5066 168.74 54.7333C168.127 54.96 167.607 55.26 167.18 55.6333L166.54 54.5733C167.073 54.12 167.713 53.7733 168.46 53.5333C169.207 53.28 169.993 53.1533 170.82 53.1533C172.18 53.1533 173.227 53.4933 173.96 54.1733C174.707 54.84 175.08 55.86 175.08 57.2333V63.7533H173.72ZM170.1 63.8533C169.313 63.8533 168.627 63.7266 168.04 63.4733C167.467 63.2066 167.027 62.8466 166.72 62.3933C166.413 61.9266 166.26 61.3933 166.26 60.7933C166.26 60.2466 166.387 59.7533 166.64 59.3133C166.907 58.86 167.333 58.5 167.92 58.2333C168.52 57.9533 169.32 57.8133 170.32 57.8133H173.94V58.8733H170.36C169.347 58.8733 168.64 59.0533 168.24 59.4133C167.853 59.7733 167.66 60.22 167.66 60.7533C167.66 61.3533 167.893 61.8333 168.36 62.1933C168.827 62.5533 169.48 62.7333 170.32 62.7333C171.12 62.7333 171.807 62.5533 172.38 62.1933C172.967 61.82 173.393 61.2866 173.66 60.5933L173.98 61.5733C173.713 62.2666 173.247 62.82 172.58 63.2333C171.927 63.6466 171.1 63.8533 170.1 63.8533Z" fill="#18181B"/>
</svg>
