<svg width="100" height="100" viewBox="0 0 100 100" fill="none" xmlns="http://www.w3.org/2000/svg">
<rect x="0.321289" y="0.321411" width="99.3572" height="99.3572" rx="49.6786" fill="#EF4444"/>
<path d="M57.9395 37.5519L50.4049 45.0865C50.3467 45.1447 50.2776 45.1909 50.2016 45.2223C50.1255 45.2538 50.044 45.2701 49.9617 45.2701C49.8794 45.2701 49.7979 45.2538 49.7219 45.2223C49.6459 45.1909 49.5768 45.1447 49.5186 45.0865L41.9839 37.5519C41.3945 36.9724 40.6 36.6493 39.7734 36.6528C38.9468 36.6563 38.1551 36.9863 37.5706 37.5708C36.9861 38.1552 36.6562 38.947 36.6526 39.7736C36.6491 40.6001 36.9722 41.3946 37.5517 41.9841L45.0863 49.5187C45.2039 49.6363 45.2699 49.7957 45.2699 49.9619C45.2699 50.1281 45.2039 50.2875 45.0863 50.4051L37.5517 57.9397C36.964 58.5274 36.6338 59.3245 36.6338 60.1557C36.6338 60.9869 36.964 61.784 37.5517 62.3718C38.1394 62.9595 38.9365 63.2897 39.7677 63.2897C40.5989 63.2897 41.396 62.9595 41.9837 62.3718L49.5184 54.8371C49.5766 54.7789 49.6457 54.7327 49.7218 54.7012C49.7978 54.6697 49.8793 54.6536 49.9617 54.6536C50.044 54.6536 50.1255 54.6698 50.2016 54.7013C50.2776 54.7329 50.3467 54.7791 50.4049 54.8373L57.9401 62.3726C58.5296 62.952 59.3241 63.2752 60.1507 63.2716C60.9773 63.2681 61.769 62.9381 62.3535 62.3537C62.938 61.7692 63.2679 60.9775 63.2714 60.1509C63.275 59.3243 62.9518 58.5298 62.3724 57.9403L54.8371 50.4051C54.7789 50.3469 54.7327 50.2778 54.7012 50.2017C54.6696 50.1257 54.6534 50.0442 54.6534 49.9618C54.6534 49.8795 54.6696 49.798 54.7011 49.7219C54.7326 49.6459 54.7787 49.5768 54.837 49.5186L62.3716 41.9839C62.9593 41.3962 63.2895 40.5991 63.2895 39.7679C63.2895 38.9367 62.9593 38.1396 62.3716 37.5519C61.7839 36.9641 60.9867 36.634 60.1555 36.634C59.3244 36.634 58.5272 36.9641 57.9395 37.5519Z" fill="white"/>
</svg>
