<svg width="200" height="200" viewBox="0 0 200 200" fill="none" xmlns="http://www.w3.org/2000/svg">
<path d="M29.6432 151.713C35.0832 164.988 43.9532 167.751 50.1895 164.988C62.2503 159.644 93.58 153.673 125.757 167.708C168.373 186.296 177.44 158.251 163.839 129.884C150.239 101.516 145.628 72.8287 161.308 57.0236C176.987 41.2185 156.469 16.4936 120.031 42.2305C96.484 58.8626 79.2029 55.1591 69.923 50.4573C61.177 46.026 51.4504 41.3933 42.3375 45.0105C31.28 49.3998 26.923 58.916 43.7465 80.1753C67.5868 110.302 17.4487 121.957 29.6432 151.713Z" fill="#E4E4E7"/>
<path d="M51.793 87.0459H136.456V152.157C136.456 152.289 136.403 152.417 136.31 152.51C136.216 152.604 136.089 152.657 135.956 152.657H52.293C52.1604 152.657 52.0332 152.604 51.9395 152.51C51.8457 152.417 51.793 152.289 51.793 152.157V87.0459Z" fill="#A1A1AA"/>
<path d="M115.217 61.5306H75.8503L51.793 87.0459H136.456L115.217 61.5306Z" fill="#71717A"/>
<path d="M59.8121 51.3243L75.8503 61.5305L51.793 87.0458L33.5677 73.1946L59.8121 51.3243Z" fill="#A1A1AA"/>
<path d="M131.255 51.3243L115.217 61.5305L136.456 87.0458L157.499 73.1946L131.255 51.3243Z" fill="#A1A1AA"/>
<path d="M86.1929 51.8461C86.6455 51.6315 86.9976 51.2503 87.1757 50.7822C87.3538 50.314 87.344 49.7952 87.1485 49.334L79.9336 32.3212C79.8314 32.0802 79.6815 31.8624 79.493 31.6809C79.3045 31.4993 79.0811 31.3577 78.8365 31.2646C78.5918 31.1716 78.3309 31.129 78.0694 31.1393C77.8078 31.1497 77.5511 31.2129 77.3146 31.325L75.9246 31.9841C75.6881 32.0963 75.4767 32.2551 75.3031 32.451C75.1296 32.6469 74.9974 32.8759 74.9146 33.1242C74.8318 33.3726 74.8001 33.635 74.8213 33.8959C74.8426 34.1568 74.9164 34.4107 75.0383 34.6423L83.6431 50.9959C83.8763 51.4392 84.2719 51.7752 84.7471 51.9336C85.2222 52.0921 85.7403 52.0607 86.1929 51.8461Z" fill="#71717A"/>
<path d="M95.2385 50.1968C95.566 50.1735 95.8719 50.0245 96.0922 49.781C96.3124 49.5374 96.4301 49.2182 96.4206 48.8899L96.0642 36.7783C96.0591 36.6068 96.0194 36.438 95.9475 36.2822C95.8755 36.1264 95.7728 35.9867 95.6455 35.8716C95.5182 35.7564 95.369 35.6683 95.2067 35.6123C95.0445 35.5563 94.8726 35.5338 94.7014 35.5459L93.6951 35.6176C93.5239 35.6298 93.357 35.6765 93.2044 35.7548C93.0517 35.8331 92.9165 35.9415 92.8068 36.0734C92.6971 36.2053 92.6152 36.3581 92.566 36.5224C92.5168 36.6868 92.5014 36.8594 92.5206 37.0299L93.8833 49.0699C93.9201 49.3963 94.0817 49.6959 94.3343 49.9059C94.5868 50.1159 94.9108 50.2202 95.2385 50.1968Z" fill="#71717A"/>
<path d="M102.222 54.6741C103.123 55.195 104.387 54.717 105.089 53.5903L117.545 33.585C118.289 32.3899 118.113 30.9333 117.158 30.3808L115.826 29.6108C114.87 29.0582 113.52 29.632 112.855 30.8731L101.73 51.6483C101.104 52.8184 101.321 54.1531 102.222 54.6741Z" fill="#71717A"/>
</svg>
