<svg width="746" height="576" viewBox="0 0 746 576" fill="none" xmlns="http://www.w3.org/2000/svg">
<rect x="143.5" y="118.905" width="218.095" height="218.095" rx="37" fill="#047857"/>
<rect x="381.595" y="118.905" width="218.095" height="218.095" rx="37" fill="#047857"/>
<rect x="143.5" y="357" width="218.095" height="218.095" rx="37" fill="#047857"/>
<rect x="381.595" y="357" width="218.095" height="218.095" rx="37" fill="#047857"/>
<path d="M125.5 217.905L361.48 74.2091C367.843 70.3343 375.832 70.3176 382.212 74.1657L620.5 217.905" stroke="#064E3B" stroke-width="51" stroke-linecap="round" stroke-linejoin="round"/>
<path d="M25.5 232.905L361.03 29.1777C367.382 25.3206 375.35 25.3039 381.718 29.1345L720.5 232.905" stroke="#022C22" stroke-width="51" stroke-linecap="round" stroke-linejoin="round"/>
<path fill-rule="evenodd" clip-rule="evenodd" d="M285.908 280.68C288.599 288.235 294.679 302.379 303.395 304.312C311.181 306.038 320.996 304.87 328.688 303.955C329.473 303.862 330.236 303.771 330.972 303.687C332.012 303.567 333.039 304.008 333.671 304.843C339.715 312.837 342.837 319.279 312.715 340.543C310.476 342.124 308.323 343.634 306.247 345.09C278.861 364.296 264.9 374.087 242.425 413.582C236.315 426.102 230.569 448.724 239.144 475.858C239.238 476.155 239.301 476.499 239.248 476.806C237.557 486.568 183.559 455.069 192.334 421.451C192.877 419.371 191.324 417.328 189.556 418.55C188.794 419.077 188.08 419.784 187.53 420.722C185.439 424.291 183.222 435.001 184.267 443.671C185.313 452.341 198.383 493.139 263.212 502.319C287.609 503.169 333.603 503.951 336.531 500.279C340.19 495.689 341.236 492.119 328.166 490.589C319.549 489.581 316.258 485.501 315.367 482.574C315.059 481.563 315.657 480.578 316.52 479.968C319.873 477.598 324.828 472.938 325.552 467.64C326.597 459.99 339.145 443.671 342.282 443.671C345.419 443.671 348.526 453.441 349.049 456.5C349.084 456.708 349.14 457.028 349.213 457.446C350.001 461.965 352.782 477.908 353.261 485.999C353.783 490.249 357.025 498.749 365.808 498.749C367.535 498.749 369.262 498.774 370.95 498.799C379.995 498.931 387.931 499.047 388.812 495.179C389.857 490.589 387.766 488.549 376.787 482.43C368.078 477.575 364.598 446.709 367.428 428.953C367.476 428.648 367.573 428.361 367.714 428.087L372.401 418.942C373.918 422.449 374.864 429.888 375.405 434.147C375.562 435.382 375.685 436.349 375.778 436.877C376.197 439.249 377.349 456.98 377.872 465.548C378.396 469.668 381.643 477.907 390.441 477.907C392.171 477.907 393.9 477.931 395.591 477.955C404.652 478.083 412.6 478.196 413.483 474.447C414.457 470.309 410.732 468.309 401.359 463.278C400.654 462.899 399.917 462.503 399.147 462.088C390.403 457.371 395.118 387.854 397.696 352.152C397.728 351.713 397.662 351.287 397.504 350.876L387.396 324.532C388.886 320.44 390.123 317.147 391.173 314.351C394.248 306.166 395.717 302.254 397.231 295.104C398.552 285.903 398.76 275.048 395.942 265.137C399.804 259.559 404.297 252.345 404.297 248.883C404.297 244.045 393.164 238.245 379.725 234.604C370.314 232.054 360.992 232.617 357.637 235.784C357.429 235.784 357.12 235.765 356.717 235.739C353.098 235.514 341.866 234.813 327.043 243.289C326.878 243.384 326.725 243.489 326.587 243.619C324.413 245.673 321.641 250.891 318.863 256.123C315.443 262.561 312.012 269.021 309.669 269.633C308.988 269.811 307.996 270.025 306.797 270.285C300.863 271.571 289.843 273.959 286.192 278.423C285.676 279.053 285.635 279.913 285.908 280.68Z" fill="#ECFDF5"/>
<path d="M413.915 490.442C421.429 494.23 433.522 490.473 440.582 488.022C443.468 487.021 446.562 486.941 449.502 487.77L462.23 491.36C463.735 491.785 465.295 491.986 466.858 491.958L523.286 490.953C525.454 490.914 527.596 490.463 529.51 489.443C541.367 483.126 560.538 467.838 566.305 450.584C574.147 427.125 571.533 401.116 566.305 394.996C561.077 388.876 557.769 397.562 557.548 399.076C557.025 402.646 557.94 405.727 556.372 429.696C555.117 448.871 535.111 465.034 526.572 469.454C526.572 469.284 529.29 465.905 529.709 463.865C530.232 461.315 535.46 446.016 524.481 408.787C514.495 374.926 471.208 348.659 463.85 343.8C463.1 343.305 463.162 342.743 463.897 342.227C475.887 333.816 484.763 325.432 485.27 318.01C485.793 310.36 477.951 307.3 477.951 306.79C477.951 298.503 468.495 292.411 463.302 290.175C463.061 290.071 463 289.755 463.188 289.572C463.266 289.495 463.306 289.387 463.296 289.278C463.105 287.278 462.556 282.246 461.744 276.701C460.698 269.561 458.279 267.185 457.561 267.011C456.388 266.727 453.941 272.193 452.371 275.101C452.345 275.148 452.325 275.197 452.308 275.248L452.206 275.569C451.924 276.447 450.627 276.244 450.627 275.322C450.627 275.222 450.61 275.127 450.573 275.035C450.175 274.038 447.661 267.933 446.059 268.541C442.785 269.785 433.162 284.861 428.979 289.96C424.797 295.06 412.222 322.535 405.933 345.028C399.659 367.467 414.691 420.516 415.736 424.086C416.556 426.886 420.794 442.009 422.931 449.648C423.015 449.95 423.086 450.232 423.149 450.539C423.857 453.945 428.198 475.831 423.056 476.614C418.167 477.36 409.796 480.247 410.623 486.171C410.884 488.04 412.23 489.593 413.915 490.442Z" fill="#ECFDF5"/>
</svg>
