<svg width="207" height="72" viewBox="0 0 207 72" fill="none" xmlns="http://www.w3.org/2000/svg">
<path d="M17.312 32.776C16.4587 32.968 15.584 33.096 14.688 33.16C13.8133 33.2453 12.9493 33.288 12.096 33.288C11.264 33.288 10.6133 33.2667 10.144 33.224C9.696 33.1813 9.09867 33.0747 8.352 32.904C7.60533 32.7333 6.92267 32.4987 6.304 32.2C5.68533 31.9013 5.024 31.464 4.32 30.888C3.63733 30.312 3.06133 29.6293 2.592 28.84C1.504 27.0053 0.96 24.6373 0.96 21.736C0.96 19.7947 1.25867 18.0773 1.856 16.584C2.47467 15.0907 3.21067 13.9387 4.064 13.128C4.93867 12.3173 5.93067 11.6667 7.04 11.176C8.832 10.3653 10.6347 9.96 12.448 9.96C15.0507 9.96 16.9173 10.1733 18.048 10.6C18.56 10.792 19.0187 11.0907 19.424 11.496C19.8293 11.9013 20.032 12.488 20.032 13.256C20.032 14.024 19.84 14.9947 19.456 16.168C19.0933 17.3413 18.56 17.928 17.856 17.928C17.6427 17.928 16.8533 17.7573 15.488 17.416C14.1227 17.0747 13.1947 16.904 12.704 16.904C11.9573 16.904 11.3173 17.32 10.784 18.152C10.272 18.984 10.016 20.168 10.016 21.704C10.016 23.24 10.24 24.4347 10.688 25.288C11.1573 26.1413 11.7653 26.568 12.512 26.568C13.0453 26.568 14.0053 26.3547 15.392 25.928C16.8 25.48 17.6213 25.256 17.856 25.256C18.5173 25.256 19.0293 25.864 19.392 27.08C19.776 28.296 19.968 29.2773 19.968 30.024C19.968 30.7707 19.7333 31.368 19.264 31.816C18.816 32.2427 18.1653 32.5627 17.312 32.776ZM28.04 33.288C26.0987 33.288 24.584 32.8293 23.496 31.912C23.0267 31.528 22.6213 30.9627 22.28 30.216C21.96 29.4693 21.8 28.5947 21.8 27.592C21.8 26.5893 22.0347 25.7147 22.504 24.968C22.9947 24.2213 23.5813 23.6453 24.264 23.24C24.9467 22.8347 25.7467 22.504 26.664 22.248C28.0507 21.8853 29.576 21.704 31.24 21.704H32.296C32.296 20.8293 31.9867 20.2107 31.368 19.848C31.1333 19.6987 30.7493 19.624 30.216 19.624C29.704 19.624 29.0747 19.7627 28.328 20.04C27.6027 20.3173 26.9947 20.6053 26.504 20.904C26.0133 21.1813 25.6827 21.32 25.512 21.32C25.128 21.32 24.6053 20.8187 23.944 19.816C23.2827 18.792 22.952 17.864 22.952 17.032C22.952 16.7547 23.3467 16.392 24.136 15.944C24.9253 15.496 26.0347 15.0907 27.464 14.728C28.9147 14.344 30.3227 14.152 31.688 14.152C33.0533 14.152 34.2267 14.2693 35.208 14.504C36.2107 14.7173 37.0213 14.984 37.64 15.304C38.28 15.624 38.8133 16.0507 39.24 16.584C39.688 17.1173 40.0187 17.5973 40.232 18.024C40.4667 18.4507 40.648 19.0053 40.776 19.688C40.904 20.4773 40.968 21.448 40.968 22.6V32.232C40.968 32.4667 40.392 32.6587 39.24 32.808C38.1093 32.936 36.9787 33 35.848 33C34.7387 33 34.0133 32.968 33.672 32.904C33.352 32.84 33.16 32.7653 33.096 32.68C33.032 32.5947 32.9787 32.4453 32.936 32.232L32.68 30.408H32.424C31.8907 32.328 30.4293 33.288 28.04 33.288ZM32.328 27.976V24.232C31.7733 24.232 31.3253 24.4667 30.984 24.936C30.6427 25.4053 30.472 25.9387 30.472 26.536C30.472 27.944 30.792 28.648 31.432 28.648C31.7093 28.648 31.9227 28.584 32.072 28.456C32.2427 28.3067 32.328 28.1467 32.328 27.976ZM39.528 10.952C39.528 11.272 38.9733 11.7733 37.864 12.456C36.776 13.1387 35.816 13.48 34.984 13.48C34.1733 13.48 33.192 13.2987 32.04 12.936C30.9093 12.552 30.1733 12.36 29.832 12.36C29.512 12.36 28.8827 12.552 27.944 12.936C27.0053 13.2987 26.344 13.48 25.96 13.48C25.576 13.48 25.1707 13.1067 24.744 12.36C24.3387 11.592 24.136 11.0053 24.136 10.6C24.136 10.2373 24.712 9.72533 25.864 9.064C27.0373 8.38133 28.008 8.04 28.776 8.04C29.544 8.04 30.4827 8.22133 31.592 8.584C32.7227 8.94667 33.5333 9.128 34.024 9.128C34.1733 9.128 34.696 8.94667 35.592 8.584C36.5093 8.22133 37.1707 8.04 37.576 8.04C38.0027 8.04 38.4293 8.43467 38.856 9.224C39.304 10.0133 39.528 10.5893 39.528 10.952ZM53.0698 33.288C51.4698 33.288 50.0938 33.1493 48.9418 32.872C47.7898 32.5947 46.7444 32.104 45.8058 31.4C43.8644 29.992 42.8938 27.368 42.8938 23.528C42.8938 20.1147 43.8858 17.672 45.8698 16.2C47.7258 14.8347 50.1258 14.152 53.0698 14.152C54.3284 14.152 55.4058 14.216 56.3018 14.344C57.1978 14.4507 58.1044 14.696 59.0218 15.08C59.9604 15.464 60.7071 15.9867 61.2618 16.648C61.8378 17.3093 62.3071 18.2267 62.6698 19.4C63.0324 20.552 63.2138 21.928 63.2138 23.528C63.2138 26.7707 62.2964 29.2133 60.4618 30.856C58.6271 32.4773 56.1631 33.288 53.0698 33.288ZM51.9498 27.048C52.0991 27.816 52.2484 28.2747 52.3978 28.424C52.5684 28.5733 52.7818 28.648 53.0378 28.648C53.3151 28.648 53.5284 28.5733 53.6778 28.424C53.8484 28.2747 53.9978 27.816 54.1258 27.048C54.2751 26.28 54.3498 25.32 54.3498 24.168C54.3498 22.9947 54.3178 22.0987 54.2538 21.48C54.2111 20.84 54.1471 20.3493 54.0618 20.008C53.9978 19.6667 53.9018 19.4 53.7738 19.208C53.5818 18.9307 53.3471 18.792 53.0698 18.792C52.8138 18.792 52.6004 18.8773 52.4298 19.048C52.2591 19.1973 52.0991 19.6667 51.9498 20.456C51.8004 21.224 51.7258 22.3227 51.7258 23.752C51.7258 25.1813 51.8004 26.28 51.9498 27.048ZM75.488 33H67.936C66.8907 33 66.1867 32.9253 65.824 32.776C65.4613 32.6267 65.28 32.3813 65.28 32.04V11.848C65.28 11.2933 65.5147 10.8987 65.984 10.664C66.4533 10.408 67.264 10.28 68.416 10.28H75.616C79.712 10.28 82.5387 11.0907 84.096 12.712C85.6533 14.312 86.432 17.2347 86.432 21.48C86.432 25.7253 85.6213 28.712 84 30.44C82.3787 32.1467 79.5413 33 75.488 33ZM75.232 15.048C74.72 15.048 74.3787 15.0907 74.208 15.176V28.104L75.424 28.232C76.064 28.232 76.544 27.72 76.864 26.696C77.2053 25.672 77.376 23.9013 77.376 21.384C77.376 18.8667 77.2053 17.1813 76.864 16.328C76.5227 15.4747 75.9787 15.048 75.232 15.048ZM98.3823 33.288C96.7823 33.288 95.4063 33.1493 94.2543 32.872C93.1023 32.5947 92.0569 32.104 91.1183 31.4C89.1769 29.992 88.2063 27.368 88.2063 23.528C88.2063 20.1147 89.1983 17.672 91.1823 16.2C93.0383 14.8347 95.4383 14.152 98.3823 14.152C99.6409 14.152 100.718 14.216 101.614 14.344C102.51 14.4507 103.417 14.696 104.334 15.08C105.273 15.464 106.02 15.9867 106.574 16.648C107.15 17.3093 107.62 18.2267 107.982 19.4C108.345 20.552 108.526 21.928 108.526 23.528C108.526 26.7707 107.609 29.2133 105.774 30.856C103.94 32.4773 101.476 33.288 98.3823 33.288ZM97.2623 27.048C97.4116 27.816 97.5609 28.2747 97.7103 28.424C97.8809 28.5733 98.0943 28.648 98.3503 28.648C98.6276 28.648 98.8409 28.5733 98.9903 28.424C99.1609 28.2747 99.3103 27.816 99.4383 27.048C99.5876 26.28 99.6623 25.32 99.6623 24.168C99.6623 22.9947 99.6303 22.0987 99.5663 21.48C99.5236 20.84 99.4596 20.3493 99.3743 20.008C99.3103 19.6667 99.2143 19.4 99.0863 19.208C98.8943 18.9307 98.6596 18.792 98.3823 18.792C98.1263 18.792 97.9129 18.8773 97.7423 19.048C97.5716 19.1973 97.4116 19.6667 97.2623 20.456C97.1129 21.224 97.0383 22.3227 97.0383 23.752C97.0383 25.1813 97.1129 26.28 97.2623 27.048ZM139.585 22.44V32.232C139.585 32.4667 138.977 32.6587 137.761 32.808C136.566 32.936 135.318 33 134.017 33C132.737 33 131.905 32.9467 131.521 32.84C131.137 32.712 130.945 32.5093 130.945 32.232V23.368C130.945 20.3173 130.635 18.792 130.017 18.792C129.867 18.792 129.718 18.856 129.569 18.984C129.419 19.112 129.345 19.336 129.345 19.656V32.232C129.345 32.4667 128.737 32.6587 127.521 32.808C126.326 32.936 125.078 33 123.777 33C122.475 33 121.633 32.9467 121.249 32.84C120.886 32.712 120.705 32.5093 120.705 32.232V23.368C120.705 21 120.555 19.5813 120.257 19.112C120.107 18.8987 119.915 18.792 119.681 18.792C119.275 18.792 119.073 19.08 119.073 19.656V32.232C119.073 32.4667 118.465 32.6587 117.249 32.808C116.033 32.936 114.774 33 113.473 33C112.193 33 111.361 32.9467 110.977 32.84C110.614 32.712 110.433 32.5093 110.433 32.232V16.456C110.433 16.008 111.041 15.56 112.257 15.112C113.494 14.664 114.795 14.44 116.161 14.44C117.526 14.44 118.294 14.8347 118.465 15.624L118.753 17.032H118.977C119.595 15.816 120.619 14.952 122.049 14.44C122.646 14.248 123.414 14.152 124.353 14.152C126.23 14.152 127.595 15.112 128.449 17.032C128.726 16.392 129.419 15.752 130.529 15.112C131.638 14.472 132.865 14.152 134.209 14.152C136.321 14.152 137.739 14.8133 138.465 16.136C139.211 17.4373 139.585 19.5387 139.585 22.44ZM150.511 15.912V32.232C150.511 32.4667 149.892 32.6587 148.655 32.808C147.439 32.936 146.18 33 144.879 33C143.599 33 142.767 32.9467 142.383 32.84C142.02 32.712 141.839 32.5093 141.839 32.232V16.488C141.839 16.0187 142.447 15.56 143.663 15.112C144.879 14.664 146.191 14.44 147.599 14.44C149.54 14.44 150.511 14.9307 150.511 15.912ZM149.391 8.04C149.881 8.04 150.372 8.44533 150.863 9.256C151.375 10.0667 151.631 11.0693 151.631 12.264C151.631 12.584 150.703 12.872 148.847 13.128C147.012 13.3627 145.487 13.48 144.271 13.48C143.865 13.48 143.492 13.224 143.151 12.712C142.831 12.2 142.671 11.6133 142.671 10.952C142.671 10.2693 143.46 9.61867 145.039 9C146.639 8.36 148.089 8.04 149.391 8.04ZM172.041 22.376V32.232C172.041 32.4667 171.433 32.6587 170.217 32.808C169.001 32.936 167.742 33 166.441 33C165.161 33 164.329 32.9467 163.945 32.84C163.582 32.712 163.401 32.5093 163.401 32.232V22.056C163.401 21.096 163.358 20.4667 163.273 20.168C163.209 19.8693 163.145 19.6027 163.081 19.368C162.932 18.9627 162.665 18.76 162.281 18.76C161.684 18.76 161.385 19.048 161.385 19.624V32.232C161.385 32.4667 160.777 32.6587 159.561 32.808C158.366 32.936 157.118 33 155.817 33C154.537 33 153.705 32.9467 153.321 32.84C152.937 32.712 152.745 32.5093 152.745 32.232V16.456C152.745 16.008 153.353 15.56 154.569 15.112C155.806 14.664 157.108 14.44 158.473 14.44C159.838 14.44 160.606 14.8347 160.777 15.624L161.065 17.032H161.289C161.908 15.7947 162.974 14.9307 164.489 14.44C165.108 14.248 165.79 14.152 166.537 14.152C168.692 14.152 170.142 14.8027 170.889 16.104C171.657 17.384 172.041 19.4747 172.041 22.376ZM183.076 16.456V32.232C183.076 32.4667 182.458 32.6587 181.22 32.808C180.004 32.936 178.746 33 177.444 33C176.164 33 175.332 32.9467 174.948 32.84C174.586 32.712 174.404 32.5093 174.404 32.232V17.032C174.404 16.5627 175.002 16.104 176.196 15.656C177.412 15.1867 178.735 14.952 180.164 14.952C182.106 14.952 183.076 15.4533 183.076 16.456ZM178.724 8.04C180.132 8.04 181.231 8.25333 182.02 8.68C182.831 9.08533 183.236 9.832 183.236 10.92C183.236 12.84 181.743 13.8 178.756 13.8C175.77 13.8 174.276 12.84 174.276 10.92C174.276 9 175.759 8.04 178.724 8.04ZM195.32 33.288C193.72 33.288 192.344 33.1493 191.192 32.872C190.04 32.5947 188.994 32.104 188.056 31.4C186.114 29.992 185.144 27.368 185.144 23.528C185.144 20.1147 186.136 17.672 188.12 16.2C189.976 14.8347 192.376 14.152 195.32 14.152C196.578 14.152 197.656 14.216 198.552 14.344C199.448 14.4507 200.354 14.696 201.272 15.08C202.21 15.464 202.957 15.9867 203.512 16.648C204.088 17.3093 204.557 18.2267 204.92 19.4C205.282 20.552 205.464 21.928 205.464 23.528C205.464 26.7707 204.546 29.2133 202.712 30.856C200.877 32.4773 198.413 33.288 195.32 33.288ZM194.2 27.048C194.349 27.816 194.498 28.2747 194.648 28.424C194.818 28.5733 195.032 28.648 195.288 28.648C195.565 28.648 195.778 28.5733 195.928 28.424C196.098 28.2747 196.248 27.816 196.376 27.048C196.525 26.28 196.6 25.32 196.6 24.168C196.6 22.9947 196.568 22.0987 196.504 21.48C196.461 20.84 196.397 20.3493 196.312 20.008C196.248 19.6667 196.152 19.4 196.024 19.208C195.832 18.9307 195.597 18.792 195.32 18.792C195.064 18.792 194.85 18.8773 194.68 19.048C194.509 19.1973 194.349 19.6667 194.2 20.456C194.05 21.224 193.976 22.3227 193.976 23.752C193.976 25.1813 194.05 26.28 194.2 27.048Z" fill="#10B981"/>
<path d="M66.512 65.288C65.168 65.288 63.88 65.112 62.648 64.76C61.416 64.392 60.424 63.92 59.672 63.344L60.992 60.416C61.712 60.928 62.56 61.352 63.536 61.688C64.528 62.008 65.528 62.168 66.536 62.168C67.304 62.168 67.92 62.096 68.384 61.952C68.864 61.792 69.216 61.576 69.44 61.304C69.664 61.032 69.776 60.72 69.776 60.368C69.776 59.92 69.6 59.568 69.248 59.312C68.896 59.04 68.432 58.824 67.856 58.664C67.28 58.488 66.64 58.328 65.936 58.184C65.248 58.024 64.552 57.832 63.848 57.608C63.16 57.384 62.528 57.096 61.952 56.744C61.376 56.392 60.904 55.928 60.536 55.352C60.184 54.776 60.008 54.04 60.008 53.144C60.008 52.184 60.264 51.312 60.776 50.528C61.304 49.728 62.088 49.096 63.128 48.632C64.184 48.152 65.504 47.912 67.088 47.912C68.144 47.912 69.184 48.04 70.208 48.296C71.232 48.536 72.136 48.904 72.92 49.4L71.72 52.352C70.936 51.904 70.152 51.576 69.368 51.368C68.584 51.144 67.816 51.032 67.064 51.032C66.312 51.032 65.696 51.12 65.216 51.296C64.736 51.472 64.392 51.704 64.184 51.992C63.976 52.264 63.872 52.584 63.872 52.952C63.872 53.384 64.048 53.736 64.4 54.008C64.752 54.264 65.216 54.472 65.792 54.632C66.368 54.792 67 54.952 67.688 55.112C68.392 55.272 69.088 55.456 69.776 55.664C70.48 55.872 71.12 56.152 71.696 56.504C72.272 56.856 72.736 57.32 73.088 57.896C73.456 58.472 73.64 59.2 73.64 60.08C73.64 61.024 73.376 61.888 72.848 62.672C72.32 63.456 71.528 64.088 70.472 64.568C69.432 65.048 68.112 65.288 66.512 65.288ZM83.9527 65V62.48L83.7127 61.928V57.416C83.7127 56.616 83.4647 55.992 82.9687 55.544C82.4887 55.096 81.7447 54.872 80.7367 54.872C80.0487 54.872 79.3687 54.984 78.6967 55.208C78.0407 55.416 77.4807 55.704 77.0167 56.072L75.6727 53.456C76.3767 52.96 77.2247 52.576 78.2167 52.304C79.2087 52.032 80.2167 51.896 81.2407 51.896C83.2087 51.896 84.7367 52.36 85.8247 53.288C86.9127 54.216 87.4567 55.664 87.4567 57.632V65H83.9527ZM80.0167 65.192C79.0087 65.192 78.1447 65.024 77.4247 64.688C76.7047 64.336 76.1527 63.864 75.7687 63.272C75.3847 62.68 75.1927 62.016 75.1927 61.28C75.1927 60.512 75.3767 59.84 75.7447 59.264C76.1287 58.688 76.7287 58.24 77.5447 57.92C78.3607 57.584 79.4247 57.416 80.7367 57.416H84.1687V59.6H81.1447C80.2647 59.6 79.6567 59.744 79.3207 60.032C79.0007 60.32 78.8407 60.68 78.8407 61.112C78.8407 61.592 79.0247 61.976 79.3927 62.264C79.7767 62.536 80.2967 62.672 80.9527 62.672C81.5767 62.672 82.1367 62.528 82.6327 62.24C83.1287 61.936 83.4887 61.496 83.7127 60.92L84.2887 62.648C84.0167 63.48 83.5207 64.112 82.8007 64.544C82.0807 64.976 81.1527 65.192 80.0167 65.192ZM96.1252 65.192C94.6052 65.192 93.4212 64.808 92.5732 64.04C91.7252 63.256 91.3012 62.096 91.3012 60.56V49.232H95.0452V60.512C95.0452 61.056 95.1892 61.48 95.4772 61.784C95.7652 62.072 96.1572 62.216 96.6532 62.216C97.2452 62.216 97.7492 62.056 98.1652 61.736L99.1732 64.376C98.7892 64.648 98.3252 64.856 97.7812 65C97.2532 65.128 96.7012 65.192 96.1252 65.192ZM89.3092 55.256V52.376H98.2612V55.256H89.3092ZM106.723 65.192C105.651 65.192 104.691 64.984 103.843 64.568C103.011 64.152 102.363 63.52 101.899 62.672C101.435 61.808 101.203 60.712 101.203 59.384V52.088H104.947V58.832C104.947 59.904 105.171 60.696 105.619 61.208C106.083 61.704 106.731 61.952 107.563 61.952C108.139 61.952 108.651 61.832 109.099 61.592C109.547 61.336 109.899 60.952 110.155 60.44C110.411 59.912 110.539 59.256 110.539 58.472V52.088H114.283V65H110.731V61.448L111.379 62.48C110.947 63.376 110.307 64.056 109.459 64.52C108.627 64.968 107.715 65.192 106.723 65.192ZM125.383 65.192C124.247 65.192 123.271 64.952 122.455 64.472C121.639 63.992 121.015 63.264 120.583 62.288C120.151 61.296 119.935 60.048 119.935 58.544C119.935 57.024 120.159 55.776 120.607 54.8C121.071 53.824 121.711 53.096 122.527 52.616C123.343 52.136 124.295 51.896 125.383 51.896C126.599 51.896 127.687 52.168 128.647 52.712C129.623 53.256 130.391 54.024 130.951 55.016C131.527 56.008 131.815 57.184 131.815 58.544C131.815 59.888 131.527 61.056 130.951 62.048C130.391 63.04 129.623 63.816 128.647 64.376C127.687 64.92 126.599 65.192 125.383 65.192ZM117.751 65V47.192H121.495V54.704L121.255 58.52L121.327 62.36V65H117.751ZM124.735 62.12C125.359 62.12 125.911 61.976 126.391 61.688C126.887 61.4 127.279 60.992 127.567 60.464C127.871 59.92 128.023 59.28 128.023 58.544C128.023 57.792 127.871 57.152 127.567 56.624C127.279 56.096 126.887 55.688 126.391 55.4C125.911 55.112 125.359 54.968 124.735 54.968C124.111 54.968 123.551 55.112 123.055 55.4C122.559 55.688 122.167 56.096 121.879 56.624C121.591 57.152 121.447 57.792 121.447 58.544C121.447 59.28 121.591 59.92 121.879 60.464C122.167 60.992 122.559 61.4 123.055 61.688C123.551 61.976 124.111 62.12 124.735 62.12ZM142.031 65V62.48L141.791 61.928V57.416C141.791 56.616 141.543 55.992 141.047 55.544C140.567 55.096 139.823 54.872 138.815 54.872C138.127 54.872 137.447 54.984 136.775 55.208C136.119 55.416 135.559 55.704 135.095 56.072L133.751 53.456C134.455 52.96 135.303 52.576 136.295 52.304C137.287 52.032 138.295 51.896 139.319 51.896C141.287 51.896 142.815 52.36 143.903 53.288C144.991 54.216 145.535 55.664 145.535 57.632V65H142.031ZM138.095 65.192C137.087 65.192 136.223 65.024 135.503 64.688C134.783 64.336 134.231 63.864 133.847 63.272C133.463 62.68 133.271 62.016 133.271 61.28C133.271 60.512 133.455 59.84 133.823 59.264C134.207 58.688 134.807 58.24 135.623 57.92C136.439 57.584 137.503 57.416 138.815 57.416H142.247V59.6H139.223C138.343 59.6 137.735 59.744 137.399 60.032C137.079 60.32 136.919 60.68 136.919 61.112C136.919 61.592 137.103 61.976 137.471 62.264C137.855 62.536 138.375 62.672 139.031 62.672C139.655 62.672 140.215 62.528 140.711 62.24C141.207 61.936 141.567 61.496 141.791 60.92L142.367 62.648C142.095 63.48 141.599 64.112 140.879 64.544C140.159 64.976 139.231 65.192 138.095 65.192Z" fill="#09090B"/>
</svg>
