<svg width="1000" height="1000" viewBox="0 0 1000 1000" fill="none" xmlns="http://www.w3.org/2000/svg">
<rect width="1000" height="1000" fill="#10b981"/>
<rect x="270.5" y="319.905" width="218.095" height="218.095" rx="37" fill="white"/>
<rect x="508.595" y="319.905" width="218.095" height="218.095" rx="37" fill="white"/>
<rect x="270.5" y="558" width="218.095" height="218.095" rx="37" fill="white"/>
<rect x="508.595" y="558" width="218.095" height="218.095" rx="37" fill="white"/>
<path d="M252.5 418.905L488.48 275.209C494.843 271.334 502.832 271.318 509.212 275.166L747.5 418.905" stroke="#064E3B" stroke-width="51" stroke-linecap="round" stroke-linejoin="round"/>
<path d="M152.5 433.905L488.03 230.178C494.382 226.321 502.35 226.304 508.718 230.135L847.5 433.905" stroke="#022C22" stroke-width="51" stroke-linecap="round" stroke-linejoin="round"/>
<path fill-rule="evenodd" clip-rule="evenodd" d="M412.908 481.679C415.599 489.235 421.679 503.379 430.395 505.311C438.181 507.037 447.996 505.87 455.688 504.955C456.473 504.862 457.236 504.771 457.972 504.686C459.012 504.566 460.039 505.007 460.671 505.842C466.715 513.837 469.837 520.278 439.715 541.543C437.476 543.123 435.323 544.633 433.247 546.089C405.861 565.295 391.9 575.086 369.425 614.581C363.315 627.102 357.569 649.723 366.144 676.858C366.238 677.155 366.301 677.499 366.248 677.806C364.557 687.567 310.559 656.069 319.334 622.45C319.877 620.37 318.324 618.328 316.556 619.55C315.794 620.076 315.08 620.783 314.53 621.721C312.439 625.291 310.222 636.001 311.267 644.67C312.313 653.34 325.383 694.139 390.212 703.319C414.609 704.169 460.603 704.95 463.531 701.279C467.19 696.689 468.236 693.119 455.166 691.589C446.549 690.58 443.258 686.5 442.367 683.574C442.059 682.563 442.657 681.577 443.52 680.967C446.873 678.598 451.828 673.937 452.552 668.64C453.597 660.99 466.145 644.67 469.282 644.67C472.419 644.67 475.526 654.44 476.049 657.5C476.084 657.707 476.14 658.027 476.213 658.445C477.001 662.964 479.782 678.908 480.261 686.999C480.783 691.249 484.025 699.749 492.808 699.749C494.535 699.749 496.262 699.774 497.95 699.798C506.995 699.931 514.931 700.047 515.812 696.179C516.857 691.589 514.766 689.549 503.787 683.429C495.078 678.575 491.598 647.709 494.428 629.952C494.476 629.648 494.573 629.36 494.714 629.086L499.401 619.941C500.918 623.449 501.864 630.887 502.405 635.147C502.562 636.381 502.685 637.349 502.778 637.876C503.197 640.249 504.349 657.979 504.872 666.548C505.396 670.667 508.643 678.906 517.441 678.906C519.171 678.906 520.9 678.931 522.591 678.955C531.652 679.083 539.6 679.195 540.483 675.446C541.457 671.308 537.732 669.309 528.359 664.277C527.654 663.899 526.917 663.503 526.147 663.088C517.393 658.365 522.129 588.694 524.705 553.029C524.731 552.671 524.691 552.323 524.59 551.979L516.666 525.062C516.556 524.691 516.52 524.302 516.558 523.917L517.318 516.315C520.719 506.211 521.97 501.891 523 496C523.882 487.404 524.223 477.094 521.997 467.487C526.028 461.78 531.297 453.632 531.297 449.883C531.297 445.045 520.164 439.245 506.725 435.603C497.314 433.053 487.992 433.617 484.637 436.783C484.429 436.783 484.12 436.764 483.717 436.739C480.098 436.513 468.866 435.813 454.043 444.289C453.878 444.383 453.725 444.488 453.587 444.619C451.413 446.673 448.641 451.89 445.863 457.122C442.443 463.56 439.012 470.02 436.669 470.632C435.988 470.81 434.996 471.025 433.797 471.285C427.863 472.57 416.843 474.958 413.192 479.423C412.676 480.053 412.635 480.913 412.908 481.679Z" fill="#10b981"/>
<path d="M540.508 691.442C548.022 695.23 560.115 691.472 567.175 689.022C570.061 688.02 573.155 687.941 576.095 688.77L588.823 692.36C590.328 692.784 591.888 692.986 593.451 692.958L649.879 691.952C652.047 691.914 654.19 691.462 656.103 690.443C667.96 684.126 687.131 668.837 692.898 651.584C700.74 628.125 698.126 602.116 692.898 595.996C687.67 589.876 684.362 598.561 684.141 600.076C683.618 603.645 684.533 606.726 682.965 630.696C681.71 649.871 661.704 666.033 653.165 670.453C653.165 670.283 655.883 666.904 656.302 664.864C656.825 662.315 662.053 647.015 651.074 609.786C641.088 575.926 597.801 549.659 590.443 544.799C589.693 544.304 589.755 543.743 590.49 543.227C602.48 534.815 611.356 526.432 611.863 519.009C612.386 511.359 604.544 508.299 604.544 507.789C604.544 499.503 595.088 493.411 589.895 491.174C589.654 491.07 589.593 490.754 589.781 490.571C589.859 490.494 589.899 490.387 589.889 490.278C589.698 488.278 589.149 483.245 588.337 477.7C587.291 470.561 584.872 468.184 584.154 468.011C582.981 467.727 580.534 473.192 578.964 476.101C578.938 476.148 578.918 476.196 578.901 476.247L578.799 476.568C578.517 477.447 577.22 477.244 577.22 476.321C577.22 476.222 577.203 476.127 577.166 476.034C576.768 475.038 574.254 468.932 572.652 469.541C569.378 470.784 559.755 485.86 555.572 490.96C551.39 496.06 538.815 523.534 532.526 546.028C526.252 568.467 541.284 621.516 542.329 625.086C543.149 627.886 547.387 643.008 549.524 650.648C549.608 650.949 549.679 651.232 549.742 651.539C550.45 654.945 554.791 676.83 549.649 677.614C544.76 678.359 536.389 681.247 537.216 687.171C537.477 689.04 538.823 690.592 540.508 691.442Z" fill="#10b981"/>
</svg>
