<svg width="160" height="128" viewBox="0 0 160 128" fill="none" xmlns="http://www.w3.org/2000/svg">
<rect x="18" y="1" width="124.958" height="126" rx="17.6723" fill="#B91C1C" stroke="white" stroke-width="2"/>
<path d="M55.8103 20.4243C56.1599 20.9466 56.7131 21.1893 57.0459 20.9665C57.3788 20.7437 57.3652 20.1397 57.0156 19.6175C56.666 19.0952 56.1128 18.8525 55.7799 19.0753C55.4471 19.2981 55.4607 19.9021 55.8103 20.4243Z" fill="white"/>
<path d="M53.8977 21.165C54.3741 21.6414 55.0033 21.7846 55.3031 21.4847C55.6029 21.1849 55.4598 20.5557 54.9834 20.0793C54.507 19.603 53.8778 19.4598 53.578 19.7596C53.2782 20.0595 53.4213 20.6887 53.8977 21.165Z" fill="white"/>
<path d="M104.561 21.7276C104.226 22.2354 104.226 22.8259 104.56 23.0464C104.895 23.2669 105.437 23.0339 105.772 22.526C106.107 22.0182 106.107 21.4277 105.773 21.2072C105.439 20.9867 104.896 21.2197 104.561 21.7276Z" fill="white"/>
<path d="M48.0894 22.6115C48.3367 23.1618 48.8334 23.4748 49.1987 23.3106C49.564 23.1464 49.6597 22.5672 49.4124 22.0169C49.1651 21.4666 48.6684 21.1536 48.3031 21.3178C47.9378 21.482 47.8421 22.0612 48.0894 22.6115Z" fill="white"/>
<path d="M57.7874 23.7504C57.7489 23.8172 57.7267 23.8698 57.7206 23.9082C57.664 24.2076 57.6185 24.51 57.5841 24.8155C57.5052 25.5104 57.0288 25.9261 56.3582 25.5165C55.4812 24.9824 54.5041 23.3256 55.0837 22.2666C55.6633 21.2106 57.5871 21.1439 58.5096 21.596C59.2135 21.9419 59.1195 22.567 58.5763 23.007C58.3376 23.2012 58.107 23.4015 57.8845 23.6078C57.8561 23.6361 57.8238 23.6837 57.7874 23.7504Z" fill="white"/>
<path d="M46.1371 23.1145C46.5392 23.6254 47.1321 23.8297 47.4613 23.5706C47.7906 23.3115 47.7315 22.6872 47.3294 22.1762C46.9273 21.6652 46.3344 21.461 46.0052 21.7201C45.6759 21.9792 45.735 22.6035 46.1371 23.1145Z" fill="white"/>
<path d="M107.674 23.2521C108.15 22.7826 108.297 22.1592 108.001 21.8596C107.706 21.5601 107.08 21.698 106.604 22.1675C106.128 22.637 105.982 23.2604 106.277 23.5599C106.572 23.8594 107.198 23.7216 107.674 23.2521Z" fill="white"/>
<path d="M53.1601 23.3353C53.7968 23.4753 54.3876 23.2491 54.4797 22.8301C54.5718 22.4111 54.1304 21.9579 53.4937 21.8179C52.857 21.6779 52.2661 21.9041 52.174 22.3231C52.0819 22.7422 52.5234 23.1953 53.1601 23.3353Z" fill="white"/>
<path d="M119.875 25.6928C119.105 27.7861 119.564 29.8819 120.901 30.3738C122.238 30.8656 123.946 29.5673 124.716 27.474C125.487 25.3806 125.027 23.2849 123.69 22.793C122.354 22.3011 120.645 23.5994 119.875 25.6928Z" fill="white"/>
<path d="M63.5306 24.194C63.7009 24.8251 64.1668 25.2481 64.5713 25.139C64.9758 25.0298 65.1657 24.4298 64.9954 23.7988C64.8252 23.1678 64.3592 22.7447 63.9547 22.8539C63.5502 22.963 63.3603 23.563 63.5306 24.194Z" fill="white"/>
<path d="M65.5324 24.532C65.5645 25.1445 65.9202 25.6237 66.3269 25.6024C66.7336 25.5811 67.0372 25.0673 67.0051 24.4548C66.973 23.8423 66.6173 23.363 66.2107 23.3843C65.804 23.4056 65.5003 23.9194 65.5324 24.532Z" fill="white"/>
<path d="M106.52 24.3453C106.613 24.5172 106.656 24.7064 106.647 24.9127C106.611 26.0516 106.126 26.9731 105.191 27.677C105.079 27.7613 104.945 27.8099 104.806 27.8164C104.666 27.8229 104.529 27.787 104.411 27.7135C103.838 27.3524 104.001 26.2448 103.783 25.8443C103.565 25.4468 102.542 24.9886 102.548 24.3119C102.549 24.1728 102.592 24.0371 102.672 23.9227C102.752 23.8084 102.866 23.7208 102.997 23.6716C104.094 23.263 105.131 23.35 106.11 23.9326C106.288 24.0378 106.425 24.1753 106.52 24.3453Z" fill="white"/>
<path d="M45.0996 25.1589C45.6943 25.4004 46.3072 25.2739 46.4686 24.8764C46.63 24.4789 46.2788 23.9609 45.6841 23.7195C45.0894 23.478 44.4765 23.6045 44.315 24.002C44.1536 24.3995 44.5049 24.9175 45.0996 25.1589Z" fill="white"/>
<path d="M113.119 27.1633C112.828 29.2631 113.679 31.1162 115.02 31.3024C116.361 31.4885 117.685 29.9371 117.976 27.8373C118.267 25.7374 117.416 23.8843 116.075 23.6982C114.734 23.5121 113.41 25.0634 113.119 27.1633Z" fill="white"/>
<path d="M49.5976 26.1692C49.4276 26.3998 49.3791 26.8246 49.3487 27.0249C49.2729 27.5529 48.9239 28.1324 48.3322 27.9504C47.519 27.6955 47.0911 26.5788 46.8878 25.7626C46.7584 25.2487 46.8403 24.7895 47.1336 24.385C47.427 23.9804 47.8376 23.7589 48.3656 23.7204C49.2061 23.6597 50.3986 23.7174 50.8963 24.4092C51.2544 24.916 50.8113 25.4288 50.3319 25.6655C50.1529 25.7565 49.7645 25.9355 49.5976 26.1692Z" fill="white"/>
<path d="M53.903 25.2887C54.538 25.2997 55.0585 24.9841 55.0655 24.5836C55.0725 24.1831 54.5634 23.8495 53.9283 23.8384C53.2933 23.8273 52.7728 24.143 52.7658 24.5435C52.7588 24.9439 53.2679 25.2776 53.903 25.2887Z" fill="white"/>
<path d="M108.377 25.4139C109.014 25.2854 109.463 24.8456 109.38 24.4316C109.296 24.0176 108.712 23.7862 108.074 23.9147C107.437 24.0433 106.988 24.4831 107.071 24.897C107.155 25.311 107.739 25.5424 108.377 25.4139Z" fill="white"/>
<path d="M61.8164 25.7061C62.2991 26.1516 62.9245 26.2592 63.2132 25.9464C63.5019 25.6335 63.3445 25.0188 62.8617 24.5733C62.3789 24.1278 61.7535 24.0202 61.4649 24.333C61.1762 24.6459 61.3336 25.2606 61.8164 25.7061Z" fill="white"/>
<path d="M95.4135 26.2098C95.1947 26.8079 95.3273 27.4061 95.7097 27.5461C96.0922 27.686 96.5796 27.3147 96.7984 26.7166C97.0173 26.1186 96.8847 25.5203 96.5023 25.3804C96.1198 25.2404 95.6324 25.6118 95.4135 26.2098Z" fill="white"/>
<path d="M97.5233 26.1529C97.1727 26.7183 97.1737 27.3535 97.5255 27.5717C97.8773 27.7898 98.4467 27.5082 98.7973 26.9428C99.1479 26.3773 99.1469 25.7421 98.7951 25.524C98.4433 25.3059 97.8739 25.5874 97.5233 26.1529Z" fill="white"/>
<path d="M65.5616 28.4117C64.9759 28.7545 64.5481 30.3021 63.6044 29.4676C62.8033 28.7576 63.0551 26.2785 63.9897 25.7323C64.9213 25.1831 67.2092 26.1692 67.4368 27.2191C67.7069 28.445 66.1472 28.0688 65.5616 28.4117Z" fill="white"/>
<path d="M45.5542 27.18C46.177 27.2753 46.7303 27.037 46.7898 26.6477C46.8494 26.2584 46.3928 25.8655 45.7699 25.7702C45.147 25.6749 44.5938 25.9132 44.5342 26.3025C44.4747 26.6918 44.9313 27.0847 45.5542 27.18Z" fill="white"/>
<path d="M107.7 27.4C108.317 27.3903 108.811 27.0483 108.805 26.6361C108.798 26.2239 108.293 25.8976 107.677 25.9073C107.06 25.917 106.565 26.259 106.572 26.6712C106.578 27.0834 107.083 27.4097 107.7 27.4Z" fill="white"/>
<path d="M61.4097 27.7493C61.934 28.0898 62.5373 28.0912 62.7573 27.7524C62.9772 27.4137 62.7306 26.8631 62.2063 26.5227C61.6821 26.1822 61.0788 26.1808 60.8588 26.5196C60.6388 26.8583 60.8855 27.4089 61.4097 27.7493Z" fill="white"/>
<path d="M100.012 28.8721C100.592 28.5779 100.908 28.0366 100.718 27.6629C100.529 27.2893 99.9051 27.2249 99.3252 27.5191C98.7454 27.8133 98.4289 28.3546 98.6185 28.7283C98.808 29.1019 99.4318 29.1663 100.012 28.8721Z" fill="white"/>
<path d="M97.9114 28.2891C98.2311 28.6269 98.3666 29.0973 98.3181 29.7001C98.2554 30.4708 98.0348 31.104 97.6566 31.5996C97.4381 31.8869 97.2236 32.0386 97.0133 32.0548C96.8319 32.0669 96.6528 32.0215 96.5044 31.9259C96.3559 31.8302 96.2467 31.6898 96.194 31.5268C96.0928 31.2092 95.9532 30.8774 95.7752 30.5315C95.753 30.487 95.7206 30.4425 95.6781 30.398C95.6356 30.3535 95.5932 30.3181 95.5507 30.2918C95.2149 30.0936 94.8912 29.9348 94.5797 29.8154C94.4204 29.7534 94.2868 29.6364 94.2 29.4831C94.1131 29.3298 94.0781 29.1488 94.1002 28.9688C94.1286 28.7604 94.2924 28.5551 94.5918 28.3528C95.1077 28.0028 95.752 27.8198 96.5247 27.8036C97.1316 27.7894 97.5938 27.9513 97.9114 28.2891Z" fill="white"/>
<path d="M129.834 33.0564C131.595 31.6954 132.313 29.6741 131.438 28.5418C130.563 27.4094 128.426 27.5947 126.665 28.9557C124.904 30.3166 124.186 32.3379 125.061 33.4703C125.936 34.6027 128.073 34.4174 129.834 33.0564Z" fill="white"/>
<path d="M36.4388 33.0628C37.0823 35.4477 38.8382 37.0481 40.3608 36.6372C41.8833 36.2264 42.5959 33.96 41.9524 31.5751C41.3089 29.1902 39.553 27.5899 38.0304 28.0007C36.5079 28.4115 35.7953 30.6779 36.4388 33.0628Z" fill="white"/>
<path d="M57.2382 31.4754C57.5567 32.5171 58.3515 33.1976 59.0133 32.9952C59.6752 32.7929 59.9536 31.7843 59.6351 30.7426C59.3167 29.7009 58.5219 29.0205 57.86 29.2228C57.1981 29.4252 56.9198 30.4337 57.2382 31.4754Z" fill="white"/>
<path d="M99.816 30.9411C100.413 30.779 100.811 30.3342 100.706 29.9477C100.601 29.5612 100.033 29.3793 99.4358 29.5414C98.839 29.7035 98.4404 30.1483 98.5454 30.5348C98.6504 30.9213 99.2193 31.1032 99.816 30.9411Z" fill="white"/>
<path d="M43.8057 34.163C43.9287 36.511 45.24 38.3509 46.7345 38.2726C48.229 38.1943 49.3407 36.2274 49.2177 33.8794C49.0946 31.5314 47.7833 29.6914 46.2889 29.7697C44.7944 29.8481 43.6826 31.815 43.8057 34.163Z" fill="white"/>
<path d="M60.5514 31.874C60.6525 32.9048 61.2603 33.6888 61.9091 33.6252C62.5579 33.5615 63.002 32.6744 62.9009 31.6437C62.7998 30.6129 62.1919 29.8289 61.5431 29.8925C60.8943 29.9561 60.4503 30.8433 60.5514 31.874Z" fill="white"/>
<path d="M68.8787 32.2735C68.5303 33.4497 68.8536 34.5827 69.6007 34.804C70.3479 35.0253 71.2361 34.2512 71.5845 33.075C71.9329 31.8988 71.6096 30.7659 70.8624 30.5446C70.1153 30.3232 69.2271 31.0973 68.8787 32.2735Z" fill="white"/>
<path d="M85.4756 33.3849C86.0956 34.5128 87.1828 35.1057 87.9039 34.7093C88.625 34.3129 88.7068 33.0773 88.0868 31.9494C87.4668 30.8215 86.3796 30.2286 85.6585 30.625C84.9374 31.0214 84.8555 32.2571 85.4756 33.3849Z" fill="white"/>
<path d="M89.3578 33.0304C89.7149 34.2057 90.6101 34.9745 91.3573 34.7475C92.1045 34.5204 92.4208 33.3836 92.0637 32.2082C91.7066 31.0329 90.8114 30.2641 90.0641 30.4911C89.3169 30.7182 89.0007 31.855 89.3578 33.0304Z" fill="white"/>
<path d="M72.8566 32.011C72.2396 33.1425 72.3264 34.3797 73.0503 34.7744C73.7742 35.1691 74.8612 34.5718 75.4781 33.4403C76.095 32.3089 76.0082 31.0716 75.2843 30.6769C74.5604 30.2823 73.4735 30.8795 72.8566 32.011Z" fill="white"/>
<path d="M122.703 32.2586C123.538 32.8776 124.102 33.7272 124.396 34.8075C125.195 37.7508 124.996 40.5971 123.798 43.3463C123.466 44.111 122.964 44.6905 122.29 45.085C121.27 45.6828 119.902 45.1305 119.116 44.4114C118.391 43.7529 118.102 42.5725 117.69 41.8382C117.457 41.4215 117.068 41.0108 116.521 40.6062C115.975 40.2016 115.469 39.9488 115.001 39.8476C114.179 39.6686 112.968 39.7384 112.125 39.2377C111.208 38.6945 110.28 37.5475 110.553 36.3975C110.735 35.6389 111.142 34.9885 111.776 34.4464C114.055 32.4983 116.72 31.4767 119.768 31.3816C120.887 31.3472 121.865 31.6395 122.703 32.2586Z" fill="white"/>
<path d="M54.594 34.0667C55.4122 34.773 56.4457 34.9167 56.9024 34.3877C57.359 33.8587 57.0658 32.8572 56.2476 32.1509C55.4293 31.4446 54.3958 31.3009 53.9392 31.8299C53.4826 32.3589 53.7757 33.3604 54.594 34.0667Z" fill="white"/>
<path d="M104.066 32.2545C103.78 32.805 103.841 33.4026 104.201 33.5892C104.561 33.7758 105.084 33.4809 105.37 32.9304C105.655 32.3799 105.594 31.7823 105.234 31.5957C104.874 31.409 104.351 31.704 104.066 32.2545Z" fill="white"/>
<path d="M106.167 32.4597C105.759 32.9806 105.691 33.61 106.017 33.8654C106.343 34.1208 106.938 33.9055 107.347 33.3846C107.755 32.8637 107.822 32.2344 107.496 31.9789C107.171 31.7235 106.575 31.9388 106.167 32.4597Z" fill="white"/>
<path d="M30.2433 38.6289C32.0495 40.319 34.3862 40.7567 35.4625 39.6065C36.5389 38.4562 35.9473 36.1537 34.1412 34.4636C32.3351 32.7734 29.9984 32.3358 28.922 33.486C27.8457 34.6362 28.4372 36.9388 30.2433 38.6289Z" fill="white"/>
<path d="M60.8675 38.1006C60.1483 38.577 59.9844 39.5237 59.5354 39.903C58.8658 40.4674 58.2407 40.4624 57.6601 39.8878C56.4615 38.7044 56.6345 34.8629 58.1001 33.8979C59.5627 32.933 63.1615 34.2924 63.7775 35.8582C64.0748 36.6188 63.8321 37.1953 63.0492 37.5878C62.5242 37.8518 61.5896 37.6272 60.8675 38.1006Z" fill="white"/>
<path d="M108.342 35.4193C108.947 35.1885 109.315 34.6829 109.165 34.2899C109.015 33.8969 108.403 33.7655 107.799 33.9962C107.195 34.227 106.826 34.7326 106.976 35.1256C107.126 35.5186 107.738 35.65 108.342 35.4193Z" fill="white"/>
<path d="M83.0269 37.0132C84.1478 37.6319 85.3801 37.5472 85.7794 36.8239C86.1787 36.1006 85.5937 35.0126 84.4728 34.3938C83.3519 33.7751 82.1196 33.8598 81.7203 34.5831C81.321 35.3064 81.906 36.3944 83.0269 37.0132Z" fill="white"/>
<path d="M77.9329 37.0474C79.046 36.4047 79.6156 35.3072 79.205 34.596C78.7944 33.8849 77.5592 33.8294 76.446 34.472C75.3328 35.1147 74.7633 36.2122 75.1738 36.9234C75.5844 37.6346 76.8197 37.6901 77.9329 37.0474Z" fill="white"/>
<path d="M104.108 36.9963C103.962 36.3257 103.51 36.177 102.842 35.7917C102.666 35.6893 102.535 35.5227 102.477 35.3262C102.42 35.1297 102.44 34.9184 102.533 34.7357C102.876 34.0742 103.913 33.9892 104.633 33.9923C105.227 33.9963 105.696 34.1217 106.038 34.3685C107.324 35.291 106.347 37.6002 105.233 38.1585C105.147 38.2016 105.053 38.2235 104.955 38.2228C104.858 38.2221 104.76 38.1988 104.669 38.1544C104.578 38.1101 104.496 38.0457 104.428 37.9658C104.359 37.8858 104.307 37.7922 104.275 37.6912C104.238 37.582 104.183 37.3503 104.108 36.9963Z" fill="white"/>
<path d="M54.1026 37.4136C55.0049 37.922 56.0018 37.8631 56.3292 37.282C56.6566 36.7009 56.1906 35.8177 55.2883 35.3092C54.386 34.8008 53.3891 34.8597 53.0617 35.4408C52.7343 36.0219 53.2003 36.9051 54.1026 37.4136Z" fill="white"/>
<path d="M130.427 39.9481C132.329 39.0243 133.387 37.2781 132.79 36.048C132.192 34.8178 130.166 34.5695 128.263 35.4933C126.361 36.4171 125.303 38.1632 125.9 39.3934C126.497 40.6235 128.524 40.8719 130.427 39.9481Z" fill="white"/>
<path d="M91.2358 40.1539C90.5075 40.8883 90.5773 42.0838 89.8521 42.8697C89.142 43.6405 88.0466 43.3826 87.5004 42.5845C86.5739 41.2291 86.147 39.722 86.2199 38.0632C86.2583 37.2156 86.5365 36.5309 87.0543 36.0089C87.5722 35.487 88.255 35.2038 89.1026 35.1593C90.7594 35.0703 92.2695 35.483 93.6329 36.3973C94.4371 36.9375 94.7041 38.0299 93.9394 38.746C93.1596 39.4773 91.964 39.4196 91.2358 40.1539Z" fill="white"/>
<path d="M73.9062 35.9974C74.4504 36.5396 74.7195 37.3518 74.7134 38.4341C74.7073 39.8724 74.1884 42.394 72.8472 43.1738C71.9824 43.6745 70.9598 43.0524 70.6321 42.2392C70.447 41.778 70.2134 40.7948 69.6702 40.2517C69.124 39.7116 68.1409 39.4809 67.6766 39.2958C66.8634 38.9742 66.2383 37.9516 66.7359 37.0868C67.5097 35.7426 70.0283 35.2115 71.4696 35.1994C72.5519 35.1913 73.3641 35.4573 73.9062 35.9974Z" fill="white"/>
<path d="M107.931 37.4688C108.537 37.375 108.978 36.9754 108.916 36.5762C108.855 36.1771 108.313 35.9296 107.707 36.0235C107.101 36.1173 106.659 36.5169 106.721 36.916C106.783 37.3152 107.325 37.5627 107.931 37.4688Z" fill="white"/>
<path d="M98.0207 47.5497C98.025 47.5715 98.0343 47.5921 98.0477 47.6099C98.0612 47.6276 98.0786 47.642 98.0986 47.652C98.1185 47.6619 98.1404 47.6672 98.1627 47.6673C98.185 47.6675 98.207 47.6625 98.2271 47.6528C99.4145 47.0945 100.75 46.3794 102.233 45.5075C102.807 45.1676 103.401 45.1505 104.014 45.4559C104.194 45.5469 104.229 45.6764 104.12 45.8443C103.671 46.5301 103.2 47.0004 102.408 47.3949C101.324 47.933 100.428 48.3689 99.72 48.7027C99.4773 48.816 98.9705 48.8615 98.1998 48.8393C96.983 48.8029 96.3033 48.1353 96.3731 46.9337C96.4681 45.3639 96.6259 44.1289 96.8464 43.2287C97.0588 42.3628 97.3855 41.0995 97.8265 39.4387C97.9874 38.8409 98.4243 37.5786 99.1556 37.6089C99.2977 37.6159 99.4332 37.6711 99.5397 37.7654C99.6461 37.8598 99.7173 37.9876 99.7413 38.1278C99.8384 38.7104 99.7898 39.29 99.5956 39.8665C98.7035 42.5085 98.2524 43.8467 98.2423 43.8811C97.8781 45.2122 97.8043 46.435 98.0207 47.5497Z" fill="white"/>
<path d="M44.072 48.3193C43.2851 48.7926 42.7682 49.2751 42.5214 49.7667C41.6566 51.4872 40.7403 53.0105 38.6253 53.0378C36.6499 53.0651 35.7608 50.9137 35.4118 49.2781C34.7048 45.9676 34.9294 40.4723 38.158 38.5242C41.3835 36.5761 46.3509 38.9338 48.9514 41.1004C50.238 42.1716 51.7278 43.9588 50.7841 45.6945C49.7737 47.5546 47.9986 47.6547 46.0747 47.6214C45.5265 47.6112 44.859 47.8439 44.072 48.3193Z" fill="white"/>
<path d="M83.3003 40.9925C84.4753 41.345 85.6101 41.0231 85.835 40.2735C86.0599 39.5239 85.2897 38.6304 84.1147 38.2779C82.9397 37.9254 81.8049 38.2473 81.58 38.9969C81.3551 39.7466 82.1253 40.64 83.3003 40.9925Z" fill="white"/>
<path d="M77.6588 41.0501C78.8243 40.6894 79.5807 39.7882 79.3483 39.0374C79.1158 38.2866 77.9826 37.9704 76.8172 38.3311C75.6517 38.6919 74.8953 39.593 75.1277 40.3439C75.3602 41.0947 76.4934 41.4109 77.6588 41.0501Z" fill="white"/>
<path d="M28.9025 46.1436C30.9186 47.3502 33.178 47.2838 33.9492 45.9954C34.7203 44.7069 33.711 42.6843 31.695 41.4777C29.6789 40.2711 27.4194 40.3375 26.6483 41.6259C25.8772 42.9143 26.8864 44.937 28.9025 46.1436Z" fill="white"/>
<path d="M62.8731 44.6083C62.859 43.878 62.8134 43.1973 62.7366 42.5661C62.7062 42.3193 62.7022 42.1615 62.7244 42.0927C62.8539 41.6902 63.0127 41.679 63.2008 42.0594C63.7136 43.0941 64.0019 44.1228 64.6331 44.8935C65.4615 45.9039 66.3779 47.3058 65.9773 48.6926C65.6708 49.7637 64.3751 50.322 63.48 49.7425C62.3118 48.9899 62.0538 47.6943 62.4938 46.4168C62.5201 46.3399 62.6142 46.0425 62.776 45.5246C62.8468 45.2981 62.8792 44.9926 62.8731 44.6083Z" fill="white"/>
<path d="M113.423 47.1693C113.868 46.2873 114.271 45.471 114.631 44.7205C114.884 44.1905 115.299 43.701 115.875 43.2519C115.932 43.2076 115.997 43.1756 116.067 43.1581C116.137 43.1406 116.209 43.1379 116.28 43.1502C116.351 43.1625 116.418 43.1895 116.477 43.2295C116.537 43.2695 116.587 43.3216 116.625 43.3824C116.89 43.8092 116.957 44.3028 116.828 44.8631C116.567 45.9828 115.496 47.5516 115.023 48.6167C114.442 49.9175 113.996 50.851 113.684 51.4175C113.442 51.8564 113.123 52.1113 112.729 52.1821C112.625 52.2003 112.53 52.1801 112.443 52.1214C111.627 51.5692 111.824 50.58 112.131 49.7212C112.131 49.7192 112.562 48.8686 113.423 47.1693Z" fill="white"/>
<path d="M58.5127 45.6224C58.6766 46.1261 59.417 46.5388 59.8448 46.8361C60.2636 47.1275 60.5448 47.3662 60.6884 47.5523C61.2498 48.2775 61.8718 50.1012 60.9676 50.7991C59.7872 51.7155 58.2791 50.8325 57.6661 49.6855C57.4477 49.2768 57.3546 48.588 57.387 47.619C57.4173 46.7289 57.3495 45.6588 57.1837 44.4086C57.1331 44.0344 57.1715 43.7127 57.299 43.4437C57.3189 43.4019 57.3506 43.3669 57.3902 43.343C57.4298 43.319 57.4756 43.3071 57.5221 43.3087C57.5686 43.3103 57.6138 43.3254 57.6523 43.352C57.6908 43.3786 57.7209 43.4157 57.739 43.4589C57.9736 44.0374 58.2315 44.7586 58.5127 45.6224Z" fill="white"/>
<path d="M92.5193 46.9786C92.2502 46.7622 91.4461 46.2777 90.1069 45.5251C89.7812 45.3431 89.491 44.9476 89.2361 44.3387C89.1936 44.2375 89.2108 44.1495 89.2876 44.0747C89.7428 43.6135 90.2526 43.5932 90.817 44.014C91.5432 44.5541 92.6629 45.2814 94.1761 46.1957C95.0864 46.748 95.7428 47.4884 96.1454 48.4169C96.1746 48.4845 96.1858 48.5585 96.1778 48.6317C96.1698 48.7049 96.1429 48.7748 96.0997 48.8344C96.0566 48.8941 95.9987 48.9415 95.9317 48.9721C95.8647 49.0026 95.7909 49.0152 95.7176 49.0086C95.319 48.9722 94.9539 48.8326 94.6221 48.5899C93.817 47.9972 93.1161 47.4601 92.5193 46.9786Z" fill="white"/>
<path d="M127.172 46.0082C126.954 47.2851 127.437 48.4331 128.252 48.5723C129.066 48.7115 129.903 47.7892 130.122 46.5123C130.34 45.2353 129.857 44.0873 129.042 43.9481C128.228 43.8089 127.391 44.7312 127.172 46.0082Z" fill="white"/>
<path d="M81.48 45.9022C81.3126 46.7967 81.6389 47.6083 82.2089 47.7149C82.7788 47.8216 83.3766 47.183 83.544 46.2885C83.7113 45.394 83.385 44.5825 82.8151 44.4758C82.2451 44.3692 81.6474 45.0078 81.48 45.9022Z" fill="white"/>
<path d="M78.5051 46.7553C78.8447 47.6086 79.558 48.126 80.0983 47.911C80.6386 47.696 80.8013 46.8299 80.4618 45.9767C80.1222 45.1234 79.4089 44.6059 78.8686 44.821C78.3283 45.036 78.1656 45.902 78.5051 46.7553Z" fill="white"/>
<path d="M123.472 47.5734C123.532 48.8104 124.219 49.782 125.006 49.7435C125.793 49.705 126.381 48.6711 126.321 47.4341C126.26 46.1971 125.574 45.2255 124.787 45.264C124 45.3025 123.411 46.3364 123.472 47.5734Z" fill="white"/>
<path d="M66.7662 51.3145C67.1121 50.829 67.719 50.2221 67.9556 49.5606C68.3946 48.3347 68.6869 47.0835 68.8326 45.807C68.8349 45.787 68.8416 45.7677 68.8521 45.7505C68.8625 45.7333 68.8766 45.7186 68.8934 45.7073C68.9101 45.6961 68.929 45.6886 68.9489 45.6854C68.9688 45.6822 68.9892 45.6833 69.0086 45.6887C69.0733 45.7069 69.1249 45.7554 69.1633 45.8343C69.9745 47.5397 70.3781 49.2966 70.3741 51.1051C70.3721 51.8152 70.2578 52.3391 70.0312 52.6769C69.1087 54.0576 67.1606 53.7086 66.5447 52.1702C66.4516 51.9416 66.5254 51.6564 66.7662 51.3145Z" fill="white"/>
<path d="M131.421 47.1348C130.552 48.0904 130.342 49.3159 130.953 49.8719C131.564 50.428 132.765 50.104 133.634 49.1484C134.504 48.1927 134.713 46.9672 134.102 46.4112C133.491 45.8551 132.291 46.1791 131.421 47.1348Z" fill="white"/>
<path d="M83.7898 47.4434C83.4394 48.234 83.5628 49.0554 84.0654 49.2781C84.5679 49.5008 85.2593 49.0405 85.6097 48.2499C85.96 47.4593 85.8366 46.6378 85.3341 46.4151C84.8315 46.1924 84.1401 46.6528 83.7898 47.4434Z" fill="white"/>
<path d="M104.66 46.9204L104.63 46.9503C104.323 47.255 104.321 47.7507 104.626 48.0575L108.894 52.3551C109.198 52.6619 109.694 52.6636 110.001 52.359L110.031 52.329C110.338 52.0244 110.339 51.5287 110.035 51.2219L105.767 46.9242C105.462 46.6174 104.967 46.6157 104.66 46.9204Z" fill="white"/>
<path d="M76.8402 49.0616C77.3142 49.7888 78.0764 50.132 78.5425 49.8282C79.0086 49.5243 79.0021 48.6885 78.5281 47.9613C78.054 47.2341 77.2918 46.8908 76.8257 47.1947C76.3596 47.4985 76.3661 48.3344 76.8402 49.0616Z" fill="white"/>
<path d="M81.1889 48.0076C82.6879 47.8772 85.0001 50.4837 84.5571 51.9767C84.3508 52.6715 83.5831 52.8354 82.9155 52.5775C82.5149 52.4227 82.1447 52.2103 81.5621 52.2619C80.9765 52.3104 80.6518 52.5866 80.2816 52.8081C79.6687 53.1783 78.8858 53.1479 78.5611 52.4986C77.8662 51.1058 79.6899 48.1381 81.1889 48.0076Z" fill="white"/>
<path d="M129.463 49.4793C131.59 50.505 132.088 54.9231 130.792 56.6375C130.207 57.4113 128.85 57.0593 128.392 56.4888C127.986 55.9851 127.573 55.2083 126.863 54.8654C126.153 54.5225 125.288 54.6803 124.642 54.6773C123.91 54.6743 122.791 53.8307 123.03 52.89C123.567 50.8114 127.336 48.4507 129.463 49.4793Z" fill="white"/>
<path d="M55.9819 51.5729C56.2884 52.2526 57.0652 52.6774 57.9118 53.2631C58.8373 53.9033 60.2089 55.5085 58.813 56.4826C58.4186 56.7587 57.5963 56.8133 57.0986 56.607C55.5571 55.9667 55.4722 54.5193 55.3235 52.9627C55.2709 52.4084 55.1576 51.8541 54.9836 51.2998C54.7631 50.5938 54.6033 50.0608 54.5042 49.7007C54.4956 49.6671 54.4964 49.6317 54.5066 49.5985C54.5169 49.5653 54.5361 49.5356 54.5622 49.5127C54.5883 49.4898 54.6202 49.4745 54.6544 49.4686C54.6886 49.4627 54.7238 49.4663 54.756 49.4792C54.9482 49.5601 55.1273 49.7705 55.2931 50.1103C55.5157 50.5635 55.7453 51.051 55.9819 51.5729Z" fill="white"/>
<path d="M112.795 53.8617C112.696 53.4389 112.809 53.1112 113.135 52.8786C113.295 52.7633 113.587 52.6561 114.012 52.5569C115.871 52.118 117.72 51.2703 119.559 50.0141C119.953 49.7471 120.414 49.6045 120.94 49.5863C121.025 49.5833 121.111 49.6008 121.189 49.6371C121.267 49.6735 121.335 49.7278 121.389 49.7956C122.284 50.9305 119.62 51.9986 118.931 52.2292C117.015 52.8725 115.351 53.6008 113.939 54.414C113.769 54.5131 113.52 54.503 113.19 54.3837C112.992 54.3108 112.86 54.1369 112.795 53.8617Z" fill="white"/>
<path d="M29.1428 51.2269C29.2616 51.7671 29.6431 52.1422 29.995 52.0648C30.3469 51.9875 30.5359 51.4869 30.4172 50.9467C30.2984 50.4066 29.9169 50.0315 29.565 50.1088C29.2131 50.1862 29.0241 50.6868 29.1428 51.2269Z" fill="white"/>
<path d="M95.3602 51.2078C94.7406 52.0544 94.4949 52.9284 94.8113 53.16C95.1278 53.3916 95.8866 52.8931 96.5062 52.0465C97.1258 51.2 97.3715 50.3259 97.0551 50.0943C96.7386 49.8627 95.9798 50.3612 95.3602 51.2078Z" fill="white"/>
<path d="M134.687 53.0204C135.698 52.3129 136.15 51.2163 135.699 50.5711C135.247 49.9259 134.061 49.9764 133.051 50.6839C132.041 51.3913 131.588 52.4879 132.04 53.1331C132.491 53.7783 133.677 53.7278 134.687 53.0204Z" fill="white"/>
<path d="M30.8515 51.54C30.8312 52.0675 31.0945 52.5058 31.4394 52.5191C31.7844 52.5323 32.0805 52.1155 32.1008 51.5879C32.121 51.0604 31.8578 50.6221 31.5128 50.6088C31.1679 50.5956 30.8718 51.0124 30.8515 51.54Z" fill="white"/>
<path d="M27.6408 52.4312C28.042 52.8381 28.5724 52.9657 28.8254 52.7162C29.0783 52.4668 28.9581 51.9347 28.5569 51.5278C28.1556 51.1209 27.6252 50.9932 27.3723 51.2427C27.1193 51.4922 27.2395 52.0243 27.6408 52.4312Z" fill="white"/>
<path d="M46.2063 53.0503C46.3601 53.5937 46.7736 53.9525 47.13 53.8517C47.4864 53.7508 47.6506 53.2286 47.4968 52.6851C47.343 52.1417 46.9295 51.7829 46.5731 51.8838C46.2167 51.9846 46.0525 52.5069 46.2063 53.0503Z" fill="white"/>
<path d="M47.9178 53.3193C47.9496 53.8395 48.2629 54.2437 48.6175 54.222C48.9722 54.2003 49.2338 53.761 49.202 53.2408C49.1702 52.7205 48.8569 52.3164 48.5023 52.3381C48.1477 52.3598 47.886 52.7991 47.9178 53.3193Z" fill="white"/>
<path d="M30.7266 54.847C30.2714 55.0928 30.1197 55.8241 29.619 55.9121C29.2751 55.9748 29.0284 55.8271 28.8787 55.4691C28.553 54.6882 28.5995 53.8659 29.0182 53.0021C29.1032 52.8281 29.259 52.6794 29.4855 52.556C29.7141 52.4326 29.9245 52.3831 30.1167 52.4074C31.0695 52.5287 31.7836 52.9394 32.259 53.6393C32.4775 53.9589 32.4673 54.2462 32.2286 54.5011C31.8797 54.8713 31.1848 54.5982 30.7266 54.847Z" fill="white"/>
<path d="M111.836 54.7983L111.548 54.9439C111.457 54.9903 111.356 55.015 111.253 55.0161C111.15 55.0172 111.049 54.9945 110.956 54.95L110.422 54.6951C110.337 54.6542 110.262 54.5956 110.201 54.5233C110.14 54.451 110.095 54.3666 110.069 54.2757C110.043 54.1847 110.037 54.0893 110.051 53.9958C110.065 53.9023 110.098 53.8128 110.149 53.7332L110.692 52.8836C110.761 52.7751 110.86 52.6889 110.977 52.6352C111.094 52.5816 111.223 52.5627 111.351 52.581C111.478 52.5993 111.597 52.6538 111.694 52.7382C111.791 52.8225 111.861 52.9331 111.897 53.0565L112.176 54.0154C112.22 54.165 112.21 54.3252 112.148 54.4682C112.086 54.6112 111.976 54.728 111.836 54.7983Z" fill="white"/>
<path d="M27.2108 54.1636C27.6536 54.4511 28.1642 54.4506 28.3513 54.1625C28.5384 53.8744 28.3312 53.4077 27.8884 53.1202C27.4457 52.8327 26.9351 52.8332 26.748 53.1213C26.5609 53.4094 26.7681 53.8761 27.2108 54.1636Z" fill="white"/>
<path d="M44.7467 54.3189C45.1543 54.7098 45.6935 54.809 45.951 54.5404C46.2086 54.2719 46.0869 53.7374 45.6792 53.3465C45.2716 52.9556 44.7324 52.8564 44.4749 53.1249C44.2174 53.3934 44.3391 53.928 44.7467 54.3189Z" fill="white"/>
<path d="M67.0485 56.755C67.3338 57.0867 67.5684 57.4589 67.7525 57.8716C68.0681 58.5877 67.0425 59.3433 66.4599 59.58C64.88 60.2192 63.2586 60.4114 61.5957 60.1565C61.1486 60.0878 60.737 59.9249 60.3607 59.668C60.3074 59.6316 60.2687 59.5775 60.2515 59.5153C60.2343 59.4531 60.2396 59.3868 60.2666 59.3281C60.6045 58.6059 60.8745 57.8433 61.0768 57.0402C61.4652 55.5078 62.0478 54.4094 63.6197 54.0908C64.6938 53.8723 65.5647 54.9677 66.2019 55.7657C66.2525 55.8305 66.5347 56.1602 67.0485 56.755Z" fill="white"/>
<path d="M47.9651 56.6311C47.7103 56.7797 47.4796 57.1317 47.1489 57.5292C47.0903 57.5991 47.016 57.654 46.9321 57.6895C46.8481 57.7251 46.757 57.7402 46.6661 57.7337C46.5752 57.7272 46.4871 57.6992 46.4091 57.652C46.3311 57.6049 46.2654 57.5399 46.2173 57.4625C45.6742 56.5916 45.7106 54.9014 46.6421 54.3583C47.5707 53.8151 49.0606 54.6162 49.5521 55.5174C49.5959 55.5974 49.62 55.6865 49.6227 55.7776C49.6253 55.8687 49.6062 55.9591 49.5672 56.0414C49.5281 56.1238 49.47 56.1956 49.3978 56.2512C49.3256 56.3067 49.2412 56.3444 49.1516 56.361C48.6418 56.4551 48.2231 56.4793 47.9651 56.6311Z" fill="white"/>
<path d="M99.752 55.7518C99.2975 56.7399 99.4487 57.7799 100.09 58.0748C100.731 58.3696 101.619 57.8075 102.073 56.8194C102.528 55.8313 102.376 54.7913 101.736 54.4965C101.095 54.2016 100.206 54.7637 99.752 55.7518Z" fill="white"/>
<path d="M44.436 56.0701C44.8928 56.3479 45.4085 56.3339 45.5879 56.0389C45.7672 55.7439 45.5423 55.2796 45.0855 55.0019C44.6287 54.7242 44.113 54.7382 43.9337 55.0331C43.7543 55.3281 43.9792 55.7924 44.436 56.0701Z" fill="white"/>
<path d="M75.4176 60.6792C76.169 63.2654 78.1283 64.9696 79.794 64.4857C81.4596 64.0018 82.2008 61.513 81.4494 58.9268C80.6981 56.3406 78.7387 54.6364 77.0731 55.1203C75.4074 55.6043 74.6663 58.0931 75.4176 60.6792Z" fill="white"/>
<path d="M84.4064 58.9602C83.6749 61.5625 84.4264 64.05 86.0849 64.5162C87.7434 64.9824 89.6809 63.2507 90.4124 60.6484C91.1438 58.0461 90.3923 55.5586 88.7338 55.0924C87.0753 54.6262 85.1379 56.3579 84.4064 58.9602Z" fill="white"/>
<path d="M103.303 55.9978C102.612 56.9018 102.529 57.9993 103.117 58.4492C103.706 58.8991 104.743 58.531 105.434 57.627C106.125 56.723 106.209 55.6255 105.62 55.1756C105.032 54.7257 103.994 55.0938 103.303 55.9978Z" fill="white"/>
<path d="M112.765 56.2916C112.465 56.9288 112.17 57.2353 112.34 58.1032C112.343 58.1145 112.341 58.1262 112.336 58.1362C112.331 58.1462 112.323 58.1538 112.313 58.1578L112.228 58.1881C112.151 58.2164 112.097 58.1922 112.067 58.1153L111.293 56.0731C111.275 56.0252 111.268 55.974 111.271 55.923C111.274 55.872 111.288 55.8222 111.311 55.7769C111.335 55.7317 111.367 55.692 111.407 55.6604C111.447 55.6289 111.493 55.6061 111.542 55.5937C111.892 55.5027 112.237 55.5472 112.577 55.7272C112.674 55.7788 112.748 55.8661 112.783 55.9711C112.818 56.0761 112.812 56.1908 112.765 56.2916Z" fill="white"/>
<path d="M123.214 58.2262C122.889 59.4576 123.286 60.6304 124.101 60.8458C124.916 61.0611 125.84 60.2374 126.166 59.006C126.491 57.7746 126.094 56.6018 125.279 56.3865C124.464 56.1711 123.54 56.9948 123.214 58.2262Z" fill="white"/>
<path d="M119.396 59.5078C119.355 60.7305 119.969 61.7431 120.766 61.7696C121.563 61.796 122.242 60.8263 122.283 59.6035C122.324 58.3808 121.71 57.3682 120.913 57.3418C120.116 57.3153 119.436 58.2851 119.396 59.5078Z" fill="white"/>
<path d="M42.277 58.7896C42.3932 59.1869 42.666 59.4568 42.8863 59.3923C43.1067 59.3279 43.1912 58.9536 43.075 58.5563C42.9588 58.159 42.686 57.8892 42.4656 57.9536C42.2453 58.018 42.1608 58.3923 42.277 58.7896Z" fill="white"/>
<path d="M31.3365 59.2785C31.4642 59.8063 31.8503 60.1658 32.1989 60.0814C32.5475 59.9971 32.7265 59.5009 32.5989 58.9732C32.4712 58.4454 32.0851 58.0859 31.7365 58.1703C31.3879 58.2546 31.2089 58.7508 31.3365 59.2785Z" fill="white"/>
<path d="M38.4128 59.7867C38.162 59.9647 37.9981 60.0557 37.9212 60.0597C37.7998 60.0678 37.7462 60.0122 37.7604 59.8929C37.8413 59.1848 37.9101 58.7539 37.9667 58.6002C38.2075 57.9347 38.3814 57.9569 38.4887 58.667C38.5129 58.8227 38.6758 59.1343 38.9772 59.6016C38.9883 59.6194 38.9943 59.6399 38.9945 59.6609C38.9948 59.6819 38.9893 59.7026 38.9787 59.7207C38.9681 59.7388 38.9527 59.7537 38.9343 59.7637C38.9158 59.7737 38.895 59.7785 38.874 59.7775L38.5069 59.7593C38.4735 59.7574 38.4403 59.767 38.4128 59.7867Z" fill="white"/>
<path d="M107.096 61.0892C108.189 60.7128 108.884 59.8527 108.648 59.1681C108.413 58.4836 107.335 58.2339 106.242 58.6103C105.149 58.9868 104.453 59.8469 104.689 60.5314C104.925 61.216 106.002 61.4657 107.096 61.0892Z" fill="white"/>
<path d="M33.0665 59.5801C33.0868 60.1076 33.3761 60.5247 33.7127 60.5118C34.0493 60.4989 34.3057 60.0608 34.2855 59.5333C34.2652 59.0058 33.9759 58.5886 33.6393 58.6015C33.3027 58.6145 33.0463 59.0526 33.0665 59.5801Z" fill="white"/>
<path d="M103.735 59.6964C104.827 61.1529 103.871 63.6472 102.873 65.0552C102.117 66.1263 100.818 66.3751 100.154 64.9945C99.9203 64.509 100.008 63.4925 99.5258 62.8492C99.0433 62.2059 98.045 62.0056 97.6445 61.6445C96.5066 60.6189 97.1104 59.4415 98.3485 59.0167C99.981 58.4584 102.642 58.2399 103.735 59.6964Z" fill="white"/>
<path d="M129.416 61.9255C130.37 61.0487 130.686 59.8408 130.122 59.2277C129.558 58.6146 128.328 58.8284 127.374 59.7053C126.421 60.5821 126.105 61.79 126.669 62.4031C127.232 63.0162 128.462 62.8024 129.416 61.9255Z" fill="white"/>
<path d="M29.8977 60.5976C30.3229 60.9819 30.8608 61.0797 31.0989 60.8161C31.3371 60.5525 31.1855 60.0273 30.7602 59.643C30.335 59.2588 29.7971 59.161 29.559 59.4246C29.3208 59.6882 29.4724 60.2134 29.8977 60.5976Z" fill="white"/>
<path d="M33.0844 62.9178C32.8143 63.0695 32.5928 63.3821 32.4775 63.5459C32.2793 63.8251 32.0861 63.9535 31.8979 63.9313C31.5015 63.8868 31.2597 63.7361 31.1727 63.4792C30.8774 62.5951 30.9553 61.7526 31.4064 60.9515C31.4974 60.7856 31.6178 60.6612 31.7675 60.5783C31.9151 60.4933 32.0841 60.4549 32.2742 60.463C33.1926 60.4953 33.9533 60.8665 34.5561 61.5766C34.7301 61.785 34.7331 62.0702 34.5652 62.4323C34.4863 62.6043 34.2759 62.7024 33.934 62.7266C33.7338 62.7418 33.3514 62.7691 33.0844 62.9178Z" fill="white"/>
<path d="M43.6106 63.5799L43.2404 64.3537C42.9087 65.0516 42.6811 65.0233 42.5577 64.2687C42.5294 64.0927 42.4828 63.7559 42.4181 63.2583C42.3331 62.5907 42.4677 61.9838 42.8217 61.4376C43.2101 60.8408 43.8271 60.7205 44.6727 61.0765C44.966 61.1999 45.2593 61.5782 45.5526 62.2114C46.026 63.2309 46.1181 64.3254 45.8288 65.4946C45.8206 65.5287 45.8036 65.5599 45.7793 65.5852C45.7551 65.6105 45.7246 65.6288 45.6909 65.6384C45.6572 65.648 45.6216 65.6484 45.5877 65.6397C45.5538 65.6309 45.5229 65.6133 45.498 65.5887C45.1824 65.2711 44.9933 64.8695 44.9306 64.384C44.876 63.9653 44.8011 63.7033 44.706 63.5981C44.348 63.2077 44.0425 63.1187 43.7897 63.3311C43.7209 63.3877 43.6612 63.4707 43.6106 63.5799Z" fill="white"/>
<path d="M29.5362 62.351C29.9815 62.6314 30.4924 62.6208 30.6772 62.3272C30.8621 62.0337 30.651 61.5684 30.2057 61.288C29.7604 61.0076 29.2496 61.0182 29.0647 61.3118C28.8798 61.6053 29.091 62.0706 29.5362 62.351Z" fill="white"/>
<path d="M48.1734 61.8627C48.5564 62.1481 48.9529 62.2641 49.059 62.1216C49.1652 61.9792 48.9408 61.6323 48.5579 61.3469C48.1749 61.0615 47.7784 60.9455 47.6723 61.088C47.5661 61.2304 47.7905 61.5772 48.1734 61.8627Z" fill="white"/>
<path d="M69.9024 66.9696C71.1133 69.2278 73.2706 70.428 74.721 69.6504C76.1713 68.8727 76.3655 66.4116 75.1546 64.1534C73.9438 61.8951 71.7864 60.6949 70.3361 61.4726C68.8857 62.2502 68.6916 64.7113 69.9024 66.9696Z" fill="white"/>
<path d="M90.6665 64.1636C89.4651 66.4326 89.6727 68.8975 91.13 69.6692C92.5874 70.4408 94.7427 69.227 95.9441 66.958C97.1455 64.689 96.938 62.2241 95.4806 61.4524C94.0232 60.6808 91.8679 61.8946 90.6665 64.1636Z" fill="white"/>
<path d="M125.242 61.908C125.979 62.3449 126.464 63.0914 126.699 64.1474C127.061 65.7657 126.957 67.2253 126.386 68.526C125.792 69.8824 124.284 69.8096 123.537 68.6929C123.021 67.9191 122.812 67.4033 122.196 67.0361C121.583 66.672 121.028 66.7357 120.102 66.6508C118.764 66.5294 117.978 65.2398 118.885 64.0715C119.755 62.9468 120.988 62.1568 122.584 61.7016C123.622 61.4043 124.508 61.473 125.242 61.908Z" fill="white"/>
<path d="M59.3512 64.3145C59.8369 65.1661 60.7546 65.5575 61.401 65.1889C62.0473 64.8202 62.1775 63.831 61.6918 62.9794C61.206 62.1278 60.2883 61.7364 59.642 62.105C58.9956 62.4737 58.8654 63.4629 59.3512 64.3145Z" fill="white"/>
<path d="M106.41 64.5689C107.494 64.4166 108.294 63.7348 108.197 63.0461C108.1 62.3574 107.143 61.9225 106.06 62.0748C104.976 62.2271 104.176 62.9089 104.273 63.5976C104.369 64.2863 105.326 64.7212 106.41 64.5689Z" fill="white"/>
<path d="M39.0347 65.5333C39.0188 65.5753 39.0125 65.6209 39.0165 65.6668C39.0388 65.9217 39.2077 66.3152 39.5233 66.8472C39.5878 66.955 39.617 67.0803 39.6067 67.2055C39.5963 67.3306 39.547 67.4494 39.4656 67.5451L39.1288 67.9426C39.0972 67.9798 39.0573 68.009 39.0124 68.0279C38.9675 68.0469 38.9187 68.0551 38.8701 68.0519C38.8214 68.0486 38.7742 68.034 38.7322 68.0093C38.6902 67.9845 38.6545 67.9503 38.6281 67.9093C37.6126 66.3435 37.5216 64.8041 38.355 63.2909C38.436 63.1432 38.6049 63.0067 38.8618 62.8813C39.0762 62.7781 39.2785 62.7225 39.4687 62.7144C40.1727 62.68 40.6814 63.0077 40.995 63.6975C41.0314 63.7825 41.3915 64.5694 42.0752 66.0583C42.1834 66.2928 42.2119 66.556 42.1566 66.8076C42.1012 67.0591 41.965 67.2852 41.7687 67.4511L41.5715 67.621C41.1204 68.0033 40.7977 67.9164 40.6035 67.36C40.4478 66.919 40.3507 66.4983 40.3122 66.0977C40.2839 65.8226 40.1858 65.6234 40.0179 65.5C39.5203 65.1358 39.1925 65.147 39.0347 65.5333Z" fill="white"/>
<path d="M130.133 65.875C131.2 65.2564 131.745 64.2026 131.35 63.5211C130.955 62.8397 129.77 62.7887 128.702 63.4073C127.635 64.0259 127.09 65.0798 127.486 65.7612C127.881 66.4426 129.066 66.4936 130.133 65.875Z" fill="white"/>
<path d="M57.5144 66.8323C57.4341 66.8561 57.3499 66.8638 57.2667 66.855C57.1834 66.8462 57.1027 66.8211 57.0291 66.781C56.9556 66.741 56.8906 66.6869 56.838 66.6218C56.7854 66.5566 56.7461 66.4818 56.7224 66.4015L56.4645 65.5275C56.3918 65.2827 56.3535 65.0302 56.3516 64.7845C56.3498 64.5389 56.3845 64.3048 56.4538 64.0957C56.5232 63.8866 56.6257 63.7066 56.7556 63.566C56.8855 63.4254 57.0403 63.3268 57.211 63.276L57.2171 63.273C57.3879 63.2222 57.5715 63.2203 57.7572 63.2672C57.9429 63.3142 58.1271 63.4092 58.2993 63.5467C58.4715 63.6842 58.6282 63.8616 58.7607 64.0687C58.8931 64.2758 58.9986 64.5086 59.0711 64.7538L59.332 65.6307C59.3558 65.711 59.3635 65.7952 59.3547 65.8785C59.3459 65.9617 59.3208 66.0425 59.2807 66.116C59.2407 66.1896 59.1866 66.2545 59.1215 66.3071C59.0563 66.3598 58.9815 66.399 58.9012 66.4227L57.5144 66.8323Z" fill="white"/>
<path d="M113.293 66.7788C112.457 70.4605 112.033 72.3378 112.018 72.4106C111.739 73.7741 111.181 75.6291 110.343 77.9757C110.101 78.6645 109.263 80.3911 108.256 79.6264C106.047 77.9454 105.904 74.911 106.575 72.4106C107.479 69.0465 109.062 66.3003 111.324 64.1722C111.736 63.7858 112.204 63.5046 112.725 63.3286C112.813 63.2997 112.906 63.291 112.997 63.3032C113.088 63.3155 113.175 63.3483 113.252 63.3993C113.328 63.4502 113.392 63.5179 113.438 63.5972C113.484 63.6765 113.511 63.7652 113.517 63.8566C113.586 64.8418 113.511 65.8158 113.293 66.7788Z" fill="white"/>
<path d="M63.2374 63.9993C63.3404 64.1841 63.5102 64.3213 63.7107 64.3816C64.3783 64.5839 64.8628 65.0411 65.1642 65.7532C65.2916 66.0546 65.319 66.3459 65.2461 66.6271C65.2346 66.6728 65.2135 66.7154 65.1842 66.7521C65.1549 66.7887 65.118 66.8185 65.0762 66.8395C63.8766 67.4464 62.9946 67.1632 62.4302 65.9899C62.1369 65.381 62.2208 64.8378 62.6821 64.3604C62.7529 64.2876 62.7903 64.2006 62.7943 64.0994C62.8085 63.7859 62.8176 63.623 62.8216 63.6109C62.8722 63.4592 62.9369 63.4541 63.0158 63.5957L63.2374 63.9993Z" fill="white"/>
<path d="M48.6417 67.7041C48.4819 67.8174 48.2988 68.0621 48.0925 68.4384C48.0379 68.5355 47.9559 68.5921 47.8467 68.6083C47.5776 68.6528 47.2843 68.6306 46.9667 68.5416C46.9233 68.5295 46.8852 68.5035 46.8583 68.4678C46.8314 68.4321 46.8172 68.3887 46.818 68.3443C46.8302 67.1994 47.0072 66.3275 47.349 65.7287C47.79 64.96 48.1572 64.2701 48.4505 63.6592C48.5011 63.554 48.582 63.5196 48.6933 63.556C50.3652 64.1113 50.7688 65.9593 50.6201 67.6161C50.5868 68.0166 50.608 68.4839 50.3076 68.8541C50.2581 68.9153 50.1934 68.9623 50.1199 68.9903C50.0464 69.0184 49.9668 69.0265 49.8891 69.0139C49.8115 69.0012 49.7386 68.9683 49.6778 68.9184C49.617 68.8685 49.5705 68.8034 49.5429 68.7297L49.2213 67.8831C49.2003 67.8282 49.1671 67.7788 49.1243 67.7386C49.0815 67.6984 49.0301 67.6686 48.9742 67.6513C48.9183 67.634 48.8592 67.6298 48.8016 67.6389C48.744 67.6481 48.6893 67.6704 48.6417 67.7041Z" fill="white"/>
<path d="M113.083 72.313C113.654 69.3008 114.137 66.4495 114.534 63.759C114.54 63.7209 114.553 63.6845 114.574 63.652C114.594 63.6196 114.622 63.5918 114.654 63.5706C114.686 63.5494 114.722 63.5353 114.76 63.529C114.798 63.5228 114.837 63.5246 114.874 63.5344C115.705 63.7529 116.283 64.2667 116.606 65.0759C117.308 66.8278 117.701 68.4532 117.784 69.9522C117.828 70.7937 117.77 72.0105 117.608 73.6026C117.323 76.37 116.345 78.5214 113.915 79.7988C112.795 80.3906 111.955 80.0537 111.891 78.7034C111.865 78.1714 111.927 77.5696 112.079 76.898C112.615 74.5372 112.95 73.0089 113.083 72.313Z" fill="white"/>
<path d="M82.9275 65.0176C84.6723 65.0206 86.4808 66.1494 87.6703 67.3784C89.9006 69.6845 91.7637 72.728 92.0702 75.7564C92.2624 77.6498 91.5038 78.8373 89.7944 79.3188C87.5823 79.9408 86.499 78.6481 84.9242 77.9502C84.4286 77.7297 83.759 77.6195 82.9154 77.6195C82.0698 77.6175 81.3992 77.7257 80.9036 77.9442C79.3287 78.6421 78.2424 79.9317 76.0303 79.3036C74.323 78.8201 73.5674 77.6316 73.7636 75.7381C74.0762 72.7098 75.9454 69.6693 78.1787 67.3693C79.3712 66.1433 81.1827 65.0145 82.9275 65.0176Z" fill="white"/>
<path d="M54.7595 66.6314C54.9517 66.9039 55.2052 67.0559 55.3257 66.9709C55.4462 66.8859 55.3881 66.596 55.1959 66.3235C55.0036 66.051 54.7501 65.899 54.6296 65.984C54.5091 66.069 54.5672 66.3588 54.7595 66.6314Z" fill="white"/>
<path d="M64.5662 68.9228L64.6785 69.3082C64.7332 69.4958 64.7151 69.6971 64.628 69.872C64.5408 70.0469 64.3909 70.1826 64.2082 70.2519L60.6276 71.6082C60.5065 71.6539 60.376 71.6687 60.2478 71.6511C60.1196 71.6335 59.9978 71.5842 59.8935 71.5077C59.7892 71.4311 59.7057 71.3297 59.6506 71.2127C59.5954 71.0956 59.5703 70.9667 59.5777 70.8375L59.7901 66.9656C59.7979 66.8298 59.8412 66.6984 59.9157 66.5846C59.9902 66.4708 60.0933 66.3786 60.2147 66.3172C60.336 66.2557 60.4714 66.2272 60.6072 66.2345C60.7431 66.2418 60.8746 66.2846 60.9887 66.3587L64.2446 68.4889C64.4003 68.5904 64.5144 68.7443 64.5662 68.9228Z" fill="white"/>
<path d="M36.5223 68.4869C36.2512 68.2806 35.9812 68.2533 35.7121 68.405C35.6271 68.4535 35.5786 68.4282 35.5665 68.3291L35.3662 66.5024C35.3358 66.2212 35.4238 66.1777 35.6302 66.3719C36.1703 66.8817 36.5274 67.5493 36.7013 68.3746C36.7063 68.3972 36.7041 68.4208 36.6952 68.4421C36.6862 68.4634 36.6709 68.4815 36.6513 68.4937C36.6317 68.506 36.6088 68.512 36.5857 68.5107C36.5626 68.5095 36.5405 68.5012 36.5223 68.4869Z" fill="white"/>
<path d="M55.7424 68.4629C55.4394 69.3281 55.7425 70.2216 56.4195 70.4587C57.0965 70.6958 57.8909 70.1866 58.1938 69.3214C58.4968 68.4562 58.1936 67.5627 57.5167 67.3256C56.8397 67.0886 56.0453 67.5978 55.7424 68.4629Z" fill="white"/>
<path d="M36.8683 71.7121C36.2351 71.2428 36.1421 71.345 36.5891 72.0186C36.9229 72.5223 37.4054 73.0564 37.2294 73.8059C37.2201 73.8473 37.2005 73.8857 37.1726 73.9176C37.1447 73.9496 37.1092 73.974 37.0694 73.9888C37.0296 74.0036 36.9868 74.0082 36.9448 74.0022C36.9028 73.9962 36.8629 73.9798 36.8288 73.9546C36.5982 73.7867 36.4121 73.5621 36.2705 73.2809C35.9853 72.7105 35.6818 72.051 35.3602 71.3025C35.168 70.8574 35.1427 70.2849 35.2843 69.585C35.3101 69.4581 35.3787 69.3438 35.4787 69.2615C35.5787 69.1792 35.704 69.1338 35.8336 69.1329C37.3224 69.1248 38.2317 69.848 38.5615 71.3025C38.6525 71.7131 38.604 72.0874 38.4158 72.4252C38.386 72.4789 38.3444 72.5252 38.2942 72.5607C38.244 72.5962 38.1864 72.6199 38.1258 72.6301C38.0652 72.6403 38.003 72.6367 37.944 72.6196C37.8849 72.6026 37.8305 72.5724 37.7847 72.5314C37.2243 72.0237 36.9189 71.7506 36.8683 71.7121Z" fill="white"/>
<path d="M51.6642 70.9382C52.18 70.5407 52.3226 70.21 52.4653 69.5636C52.4716 69.5337 52.4868 69.5064 52.509 69.4853C52.5311 69.4642 52.5591 69.4503 52.5893 69.4453C52.6194 69.4404 52.6504 69.4447 52.6781 69.4577C52.7058 69.4707 52.7289 69.4918 52.7444 69.5181C53.0934 70.1189 53.4727 71.0808 52.6837 71.4965C52.3661 71.6644 52.0222 71.5785 51.652 71.2386C51.5367 71.1334 51.5408 71.0333 51.6642 70.9382Z" fill="white"/>
<path d="M51.3757 74.789C51.487 74.8821 51.6397 74.9923 51.8339 75.1198C51.9189 75.1764 51.9856 75.2482 52.0342 75.3352C52.9263 76.9131 50.5503 78.5062 49.285 78.8703C48.5264 79.0857 47.434 79.0159 46.6086 79.0129C46.2364 79.0129 45.8865 79.0594 45.5587 79.1525C44.0597 79.5814 42.5921 79.6117 41.1558 79.2435C40.1514 78.9856 38.5311 77.614 38.8527 76.3184C39.2988 74.5311 41.1467 74.7101 41.6959 73.6056C42.056 72.8773 42.3423 72.3483 42.5547 72.0186C43.0796 71.2054 43.8413 71.1113 44.8335 71.0567C46.1201 70.9899 47.1579 71.1963 48.0955 71.9579C48.4738 72.2654 48.7105 72.4555 48.8056 72.5284C49.4033 72.9987 50.5594 72.9593 50.9509 73.5601C51.1906 73.9272 51.1269 74.5827 51.3757 74.789Z" fill="white"/>
<path d="M53.4179 71.6272C53.4313 71.6189 53.4461 71.6134 53.4616 71.6109C53.477 71.6084 53.4929 71.609 53.5081 71.6127C53.5234 71.6163 53.5377 71.623 53.5504 71.6323C53.563 71.6415 53.5737 71.6532 53.5818 71.6667L53.6546 71.7911C53.7228 71.9033 53.7741 72.0243 53.8054 72.1473C53.8367 72.2703 53.8474 72.3928 53.837 72.5078C53.8265 72.6228 53.7951 72.7281 53.7446 72.8175C53.694 72.907 53.6253 72.9789 53.5423 73.0291L53.4786 73.0655C53.3116 73.1667 53.0969 73.1741 52.8819 73.0859C52.6668 72.9977 52.4689 72.8212 52.3316 72.5952L52.2558 72.4708C52.2475 72.4575 52.2419 72.4426 52.2394 72.4272C52.2369 72.4117 52.2375 72.3958 52.2412 72.3806C52.2449 72.3654 52.2515 72.351 52.2608 72.3383C52.2701 72.3257 52.2818 72.315 52.2952 72.3069L53.4179 71.6272Z" fill="white"/>
<path d="M61.5198 78.8102C61.4106 78.2367 61.0555 76.1217 61.5562 75.4086C62.1874 74.5135 63.0006 74.8048 63.6955 75.4572C64.4804 76.1955 65.0417 77.0624 65.3796 78.0577C65.768 79.2077 65.6496 80.8766 64.4753 81.4865C63.8259 81.8234 62.5454 81.8021 62.154 80.9859C61.9112 80.4822 61.6998 79.7569 61.5198 78.8102Z" fill="white"/>
<path d="M100.943 76.2785C100.939 76.5759 100.952 76.768 100.982 76.855C101.265 77.6723 101.019 77.8675 100.242 77.4407C100.197 77.4144 100.066 77.2606 99.8474 76.9794C99.7118 76.8075 99.7058 76.6325 99.8292 76.4545C100.232 75.8658 100.623 75.4238 101.003 75.1284C101.232 74.9524 101.311 75.004 101.24 75.2832C101.149 75.6322 100.952 75.8324 100.943 76.2785Z" fill="white"/>
<path d="M103.285 77.7104L102.876 75.9019C102.864 75.8505 102.87 75.7968 102.893 75.7493C102.916 75.7018 102.953 75.6632 103 75.6396C103.047 75.6159 103.101 75.6086 103.152 75.6187C103.204 75.6288 103.251 75.6559 103.285 75.6955L104.623 77.2491C104.649 77.2795 104.667 77.316 104.675 77.3551C104.683 77.3942 104.681 77.4348 104.67 77.4729C104.658 77.5111 104.637 77.5456 104.608 77.5734C104.579 77.6011 104.544 77.6211 104.505 77.6315L103.58 77.8864C103.549 77.895 103.516 77.8972 103.485 77.8929C103.453 77.8886 103.422 77.8779 103.395 77.8615C103.367 77.845 103.343 77.8231 103.325 77.7972C103.306 77.7712 103.292 77.7417 103.285 77.7104Z" fill="white"/>
<path d="M55.2395 81.0068C55.846 82.7884 57.1401 83.9594 58.1301 83.6224C59.12 83.2854 59.4309 81.568 58.8244 79.7864C58.2179 78.0048 56.9237 76.8337 55.9337 77.1707C54.9438 77.5078 54.633 79.2252 55.2395 81.0068Z" fill="white"/>
<path d="M96.3265 79.7241C95.5875 81.1682 95.7891 82.7486 96.7767 83.254C97.7643 83.7594 99.164 82.9984 99.903 81.5543C100.642 80.1102 100.44 78.5298 99.4528 78.0244C98.4652 77.519 97.0655 78.28 96.3265 79.7241Z" fill="white"/>
<path d="M103.413 79.7754C103.951 79.2636 104.469 79.1998 104.966 79.5842C105.904 80.3124 105.94 82.1604 105.722 83.2316C105.439 84.6254 104.622 85.0704 103.27 84.5667C101.04 83.7353 102.269 80.8708 103.413 79.7754Z" fill="white"/>
<path d="M68.4474 82.3145C68.6871 81.6652 68.8085 80.8459 69.1241 80.2178C69.1578 80.1513 69.2063 80.0934 69.2659 80.0485C69.3254 80.0037 69.3945 79.973 69.4677 79.959C69.5409 79.9449 69.6164 79.9478 69.6883 79.9674C69.7603 79.987 69.8267 80.0228 69.8827 80.0721C70.791 80.8772 71.2644 81.8655 71.3028 83.0367C71.3513 84.4963 70.6261 85.6372 69.2667 86.2077C67.7708 86.8358 67.3126 85.0061 67.7404 83.9956C68.2097 82.883 68.4454 82.3226 68.4474 82.3145Z" fill="white"/>
<path d="M94.1518 83.4949C94.0971 83.3574 93.9303 83.2451 93.6511 83.1581C93.6386 83.154 93.6273 83.1469 93.6182 83.1375C93.6091 83.1282 93.6024 83.1168 93.5988 83.1044C93.5952 83.0921 93.5947 83.0791 93.5975 83.0668C93.6003 83.0544 93.6062 83.0431 93.6147 83.0337L94.616 81.8533C94.6848 81.7724 94.7708 81.7168 94.874 81.6864C95.0398 81.6379 95.144 81.6965 95.1865 81.8624C95.2108 81.9595 95.2108 82.0414 95.1865 82.1082C95.0065 82.6261 94.8699 83.1359 94.7769 83.6375C94.7674 83.6903 94.7427 83.7392 94.706 83.7782C94.6692 83.8172 94.6218 83.8446 94.5697 83.8572C94.5176 83.8697 94.4629 83.8668 94.4124 83.8489C94.3619 83.8309 94.3177 83.7986 94.2853 83.7559C94.2428 83.6992 94.1983 83.6123 94.1518 83.4949Z" fill="white"/>
<path d="M53.2964 82.1715L54.9472 83.5734C55.1757 83.7672 55.3274 84.0362 55.375 84.332L55.6087 85.7885C55.6498 86.0489 55.6081 86.3156 55.4893 86.5509C55.3705 86.7861 55.1808 86.9781 54.9469 87.0996C54.713 87.2211 54.4468 87.2659 54.186 87.2278C53.9252 87.1896 53.683 87.0704 53.4937 86.887L52.3952 85.8189C52.2797 85.7061 52.187 85.5722 52.1221 85.4244L51.3332 83.6341C51.219 83.374 51.1964 83.0828 51.269 82.8082C51.3417 82.5335 51.5052 82.2916 51.733 82.1219C51.9609 81.9521 52.2395 81.8647 52.5234 81.8737C52.8074 81.8827 53.0799 81.9877 53.2964 82.1715Z" fill="white"/>
<path d="M106.247 85.3254C106.214 85.3216 106.183 85.3048 106.162 85.2787C106.141 85.2525 106.131 85.2192 106.135 85.1858L106.138 85.1585C106.191 84.6395 106.275 84.1451 106.372 83.7839C106.468 83.4226 106.568 83.224 106.651 83.2317L106.778 83.2438C106.819 83.2474 106.854 83.3018 106.882 83.4039C106.91 83.5059 106.929 83.6536 106.939 83.8385C106.949 84.0234 106.95 84.2418 106.941 84.4814C106.932 84.7209 106.914 84.9768 106.887 85.2344L106.884 85.2617C106.883 85.2784 106.878 85.2947 106.87 85.3096C106.862 85.3245 106.851 85.3377 106.838 85.3484C106.825 85.3591 106.81 85.3672 106.794 85.3721C106.778 85.377 106.761 85.3787 106.745 85.377L106.247 85.3254Z" fill="white"/>
<path d="M92.578 86.3095C91.7933 87.8695 92.0712 89.5938 93.1985 90.1609C94.3259 90.7279 95.8759 89.9228 96.6605 88.3628C97.4451 86.8028 97.1673 85.0784 96.0399 84.5114C94.9125 83.9444 93.3626 84.7494 92.578 86.3095Z" fill="white"/>
<path d="M84.3385 90.2788C84.2627 89.1621 82.618 89.863 82.8881 88.2123C83.1035 86.8954 84.0108 85.1779 85.3793 84.6469C85.4001 84.6388 85.4225 84.636 85.4446 84.6387C85.4667 84.6415 85.4877 84.6497 85.5058 84.6627C85.5239 84.6757 85.5384 84.6929 85.5482 84.713C85.5579 84.733 85.5624 84.7551 85.5614 84.7774C85.5331 85.2629 85.5472 85.6857 85.6039 86.0458C85.7435 86.9743 86.8176 87.7754 86.763 88.7221C86.6963 89.8792 86.1298 90.6732 85.0638 91.1041C85.0005 91.1301 84.9324 91.1419 84.8642 91.1389C84.7959 91.1358 84.7291 91.1179 84.6685 91.0865C84.6078 91.055 84.5547 91.0107 84.513 90.9566C84.4712 90.9025 84.4417 90.84 84.4265 90.7734C84.3739 90.5488 84.3446 90.3839 84.3385 90.2788Z" fill="white"/>
<path d="M79.799 85.4027C79.9174 86.662 80.2633 87.1171 81.034 87.982C81.477 88.4826 81.6288 89.6539 81.1615 90.2335C80.151 91.4837 78.2879 90.6644 77.6021 89.5781C77.4463 89.3292 77.42 89.0359 77.5232 88.6981C77.8873 87.5045 78.122 86.6893 78.2272 86.2523C78.3688 85.6657 78.6692 85.2581 79.1284 85.0295C79.1964 84.9961 79.2715 84.9797 79.3472 84.9816C79.423 84.9835 79.497 85.0037 79.563 85.0404C79.629 85.0771 79.685 85.1293 79.7261 85.1924C79.7672 85.2555 79.7922 85.3277 79.799 85.4027Z" fill="white"/>
<path d="M59.256 96.5718C59.0032 96.24 58.4782 95.9568 57.6812 95.7222C57.2746 95.6028 56.785 95.2589 56.2125 94.6905C55.2172 93.7012 55.1596 92.6331 56.0396 91.4861C57.2028 89.975 58.1637 88.561 58.9223 87.244C59.5595 86.1395 60.4961 85.5336 61.7321 85.4264C62.1043 85.394 62.4513 85.4547 62.7729 85.6085C64.6704 86.5269 66.6327 87.9713 68.6597 89.9416C69.0825 90.3523 69.3404 90.8145 69.4334 91.3283C69.4881 91.6358 69.3728 92.089 69.0875 92.6877C68.6809 93.5394 68.4695 93.9824 68.4533 94.0168C68.3623 94.2171 68.2986 94.387 68.2622 94.5266C68.2217 94.6723 68.2005 94.8523 68.1984 95.0667C68.1924 96.7033 68.0831 98.091 67.8707 99.2299C67.6887 100.21 65.2399 100.759 64.5056 100.872C63.3586 101.05 62.4108 100.663 61.6623 99.7124C61.193 99.1156 60.3909 98.0688 59.256 96.5718Z" fill="white"/>
<path d="M105.373 85.5881C105.868 85.4637 106.614 85.9189 106.723 86.4286C107.023 87.8407 107.011 89.0666 106.687 90.1063C106.351 91.1886 105.601 91.7115 104.435 91.6751C103.119 91.6327 102.354 89.5814 102.196 88.574C101.935 86.9263 104.041 85.9219 105.373 85.5881Z" fill="white"/>
<path d="M76.9861 90.7346C77.3806 92.0758 77.5657 93.2865 76.6888 94.4305C76.0303 95.2953 75.1291 95.3166 74.4281 94.4851C73.4237 93.2926 73.096 91.6935 73.7393 90.2005C74.2349 89.0576 74.8135 88.1665 75.475 87.5272C75.5007 87.5018 75.5322 87.483 75.5668 87.4725C75.6015 87.462 75.6382 87.4601 75.674 87.4669C75.7097 87.4738 75.7434 87.4892 75.7722 87.5118C75.8009 87.5345 75.8239 87.5637 75.8391 87.597C76.2619 88.5256 76.6443 89.5714 76.9861 90.7346Z" fill="white"/>
<path d="M51.7702 88.3882L53.5605 88.9556C53.7102 89.0036 53.8443 89.0909 53.9489 89.2083C54.0535 89.3257 54.1248 89.4689 54.1552 89.6232L54.3494 90.5821C54.3811 90.7397 54.3689 90.903 54.3143 91.0543C54.2596 91.2055 54.1646 91.3389 54.0395 91.4399C53.9144 91.5409 53.764 91.6057 53.6047 91.6273C53.4453 91.6488 53.2831 91.6263 53.1357 91.5622L51.9249 91.0372C51.7872 90.9775 51.6671 90.8835 51.576 90.7641L50.8052 89.7628C50.691 89.6142 50.6273 89.433 50.6233 89.2456C50.6192 89.0582 50.6751 88.8745 50.7828 88.7211C50.8905 88.5677 51.0443 88.4527 51.2219 88.3928C51.3995 88.3329 51.5916 88.3313 51.7702 88.3882Z" fill="white"/>
<path d="M101.51 91.1027C102.083 91.833 102.389 92.2285 102.43 92.2892C103.537 93.9733 102.217 95.1263 100.691 95.6574C99.3013 96.1429 97.9166 96.0154 96.5369 95.275C95.8957 94.9331 95.4638 94.6236 95.2413 94.3465C94.422 93.333 95.1108 92.0889 95.9938 91.3212C96.2386 91.1088 97.0882 90.3896 98.5427 89.1637C98.8239 88.925 99.103 88.7743 99.3802 88.7116C99.5278 88.6778 99.6826 88.6939 99.8204 88.7576C99.9582 88.8213 100.071 88.9289 100.142 89.0636C100.453 89.6543 100.91 90.334 101.51 91.1027Z" fill="white"/>
<path d="M86.5629 92.6466C87.0029 91.187 87.37 90.2828 87.9618 88.9658C87.9754 88.9354 87.997 88.9092 88.0243 88.89C88.0516 88.8709 88.0836 88.8594 88.1169 88.857C88.1501 88.8545 88.1834 88.861 88.2133 88.8759C88.2431 88.8908 88.2684 88.9135 88.2864 88.9416C88.9702 90.0117 89.487 91.1284 89.837 92.2916C90.1769 93.4234 89.6671 94.6189 89.1118 95.59C88.9601 95.855 88.7214 96.0269 88.3957 96.1058C87.5663 96.3061 87.0039 96.0016 86.7085 95.1924C86.4294 94.4338 86.305 93.4962 86.5629 92.6466Z" fill="white"/>
<path d="M73.8184 95.4173C74.3008 95.8299 75.2597 96.4793 75.7513 97.1742C76.3126 97.9692 75.7088 99.1071 75.1201 99.805C74.2887 100.794 73.2449 100.497 72.5652 99.5532C72.4114 99.3367 72.3052 99.096 72.2465 98.831C71.9512 97.4796 71.9896 96.0788 72.3618 94.6283C72.371 94.5937 72.3886 94.5618 72.413 94.5356C72.4374 94.5093 72.4679 94.4895 72.5018 94.4778C72.5356 94.4661 72.5719 94.4629 72.6073 94.4685C72.6427 94.4741 72.6761 94.4884 72.7047 94.51C73.0365 94.7669 73.4077 95.0693 73.8184 95.4173Z" fill="white"/>
<path d="M75.8392 103.194C75.7147 100.514 76.71 96.8125 79.2195 95.3681C81.2687 94.1928 83.2876 94.2231 85.2762 95.4591C86.4596 96.1935 87.3274 97.4032 87.8797 99.0883C88.9539 102.368 87.6248 106.341 85.1669 108.625C84.1615 109.562 83.0378 110.126 81.7957 110.319C79.4107 110.686 77.2866 109.002 76.4157 106.926C75.997 105.931 75.8877 104.235 75.8392 103.194Z" fill="white"/>
</svg>
