<svg width="1760" height="200" viewBox="0 0 1760 200" fill="none" xmlns="http://www.w3.org/2000/svg">
<g clip-path="url(#clip0_283_370)">
<rect width="1760" height="200" rx="8" fill="#10B981"/>
<g style="mix-blend-mode:darken" opacity="0.33">
<path d="M1062.03 46.2742C1063.34 46.941 1064.48 47.9783 1065.28 49.341C1067.51 53.1364 1066.24 58.0192 1062.45 60.2481C1062.87 63.34 1061.44 66.525 1058.58 68.2035C1056.44 69.46 1053.96 69.6039 1051.79 68.8099C1050.38 68.573 1047.62 68.2022 1046.23 68.3477C1044.38 68.5403 1039.71 67.5491 1036.56 61.578C1033.41 55.6068 1033.96 53.5091 1035.21 49.578C1036.18 48.0251 1036.94 46.3536 1037.45 45.06C1037.66 42.5711 1039.04 40.2201 1041.36 38.8593C1044.11 37.2408 1047.44 37.4682 1049.92 39.1684C1049.95 39.1454 1049.99 39.1227 1050.03 39.1002C1053.83 36.8719 1058.71 38.1428 1060.94 41.9389C1061.74 43.3015 1062.09 44.8044 1062.03 46.2742Z" fill="#059669"/>
<path d="M1041.1 44.2802C1040.28 46.4396 1041.07 48.7355 1042.86 49.4084C1044.64 50.0812 1046.75 48.8762 1047.57 46.7168C1048.38 44.5574 1047.59 42.2614 1045.8 41.5885C1044.02 40.9157 1041.91 42.1208 1041.1 44.2802Z" fill="white"/>
<path d="M1051.6 43.588C1050.08 45.3281 1050.02 47.7549 1051.46 49.0084C1052.9 50.2619 1055.29 49.8674 1056.81 48.1273C1058.33 46.3872 1058.39 43.9604 1056.95 42.7069C1055.51 41.4534 1053.11 41.8479 1051.6 43.588Z" fill="white"/>
<path d="M1057.88 50.726C1055.66 51.357 1054.29 53.3568 1054.81 55.1927C1055.33 57.0286 1057.55 58.0054 1059.77 57.3744C1061.99 56.7434 1063.37 54.7437 1062.85 52.9078C1062.33 51.0719 1060.1 50.0951 1057.88 50.726Z" fill="white"/>
<path d="M1054.73 59.3116C1052.43 59.1516 1050.45 60.5654 1050.32 62.4694C1050.19 64.3735 1051.95 66.0467 1054.25 66.2067C1056.55 66.3667 1058.53 64.9528 1058.66 63.0488C1058.79 61.1448 1057.03 59.4716 1054.73 59.3116Z" fill="white"/>
<path d="M1039.94 51.2193C1037.6 52.5906 1040.65 56.6676 1042.13 58.2853C1042.95 60.291 1044.84 65.2254 1047.18 63.8541C1049.81 63.1959 1053.79 53.9284 1052.31 52.3107C1051.31 50.3021 1042.16 49.9958 1039.94 51.2193Z" fill="white"/>
<path d="M893.095 6.59055C891.979 5.63249 890.585 4.97187 889.02 4.75161C884.662 4.13812 880.632 7.1731 880.017 11.5307C876.998 12.3186 874.597 14.8514 874.135 18.1345C873.789 20.5923 874.603 22.9459 876.161 24.6413C876.919 25.8598 878.314 28.2716 878.71 29.6135C879.234 31.3898 881.93 35.3293 888.651 35.9659C895.372 36.6024 897.103 35.2983 900.262 32.6474C901.329 31.1605 902.584 29.8188 903.585 28.8534C905.805 27.708 907.454 25.5395 907.829 22.8777C908.275 19.7118 906.795 16.719 904.282 15.0828C904.288 15.0391 904.295 14.9953 904.301 14.9514C904.915 10.5926 901.879 6.56167 897.52 5.94808C895.955 5.72782 894.433 5.97786 893.095 6.59055Z" fill="#059669"/>
<path d="M902.917 25.1833C901.23 26.7583 898.807 26.9043 897.504 25.5093C896.201 24.1144 896.513 21.7069 898.199 20.1319C899.885 18.5569 902.309 18.4109 903.611 19.8058C904.914 21.2007 904.603 23.6083 902.917 25.1833Z" fill="white"/>
<path d="M899.555 15.2115C898.524 17.2758 896.304 18.2577 894.596 17.4047C892.889 16.5517 892.341 14.1868 893.372 12.1225C894.403 10.0582 896.623 9.07633 898.331 9.92934C900.038 10.7823 900.586 13.1472 899.555 15.2115Z" fill="white"/>
<path d="M890.56 12.1198C890.823 14.4124 889.498 16.4469 887.602 16.664C885.706 16.8811 883.956 15.1987 883.693 12.9061C883.431 10.6135 884.755 8.57905 886.651 8.36192C888.548 8.1448 890.298 9.82726 890.56 12.1198Z" fill="white"/>
<path d="M883.825 18.3086C884.85 20.3759 884.295 22.7392 882.585 23.5872C880.875 24.4351 878.658 23.4466 877.633 21.3793C876.607 19.312 877.162 16.9487 878.872 16.1008C880.582 15.2528 882.8 16.2413 883.825 18.3086Z" fill="white"/>
<path d="M896.944 28.9014C896.566 31.5838 891.636 30.3212 889.575 29.5668C887.408 29.5712 882.126 29.7058 882.504 27.0235C882.108 24.3365 889.16 17.1256 891.22 17.88C893.457 18.0361 897.227 26.3782 896.944 28.9014Z" fill="white"/>
<path d="M972.704 83.637C974.16 83.8489 975.574 84.4659 976.768 85.5007C980.094 88.383 980.454 93.4154 977.573 96.7419C978.963 99.5359 978.631 103.01 976.46 105.516C974.834 107.391 972.525 108.324 970.224 108.263C968.807 108.492 966.072 109.025 964.8 109.609C963.117 110.381 958.376 110.937 953.48 106.289C948.584 101.64 948.43 99.4783 948.352 95.3549C948.772 93.5738 948.959 91.7462 949.029 90.3571C948.434 87.9311 948.985 85.263 950.746 83.2316C952.839 80.8156 956.068 79.9645 958.953 80.7841C958.981 80.7503 959.01 80.7166 959.039 80.6831C961.921 77.3566 966.955 76.9968 970.281 79.8796C971.476 80.9144 972.287 82.2263 972.704 83.637Z" fill="#059669"/>
<path d="M952.235 88.45C952.156 90.7562 953.638 92.6789 955.545 92.7444C957.453 92.8099 959.063 90.9935 959.143 88.6874C959.222 86.3812 957.74 84.4585 955.832 84.393C953.925 84.3275 952.314 86.1439 952.235 88.45Z" fill="white"/>
<path d="M961.961 84.4322C961.082 86.5659 961.801 88.8848 963.566 89.6114C965.331 90.3381 967.474 89.1974 968.352 87.0637C969.231 84.9299 968.512 82.6111 966.747 81.8844C964.982 81.1578 962.839 82.2984 961.961 84.4322Z" fill="white"/>
<path d="M970.202 89.1817C968.301 90.4901 967.637 92.8253 968.72 94.3974C969.802 95.9695 972.22 96.1833 974.121 94.8749C976.022 93.5665 976.685 91.2313 975.603 89.6592C974.521 88.087 972.102 87.8733 970.202 89.1817Z" fill="white"/>
<path d="M969.962 98.3254C967.73 98.9109 966.313 100.882 966.797 102.728C967.281 104.575 969.483 105.596 971.715 105.011C973.947 104.425 975.364 102.454 974.88 100.608C974.396 98.7619 972.194 97.7399 969.962 98.3254Z" fill="white"/>
<path d="M953.357 95.3957C951.583 97.4428 955.774 100.33 957.696 101.388C959.117 103.025 962.486 107.095 964.26 105.047C966.546 103.58 967.348 93.5265 965.426 92.4687C963.838 90.8849 955.073 93.5242 953.357 95.3957Z" fill="white"/>
<path d="M892.593 103.414C891.842 102.149 890.733 101.077 889.321 100.367C885.389 98.3906 880.599 99.9753 878.622 103.907C875.509 103.686 872.423 105.317 870.934 108.279C869.82 110.497 869.838 112.987 870.77 115.092C871.099 116.489 871.648 119.221 871.593 120.619C871.521 122.47 872.814 127.065 878.977 129.82C885.14 132.575 887.198 131.894 891.04 130.394C892.526 129.327 894.145 128.458 895.402 127.864C897.872 127.489 900.129 125.963 901.336 123.561C902.772 120.705 902.328 117.396 900.471 115.041C900.492 115.002 900.512 114.962 900.532 114.923C902.509 110.99 900.923 106.199 896.99 104.222C895.579 103.512 894.056 103.262 892.593 103.414Z" fill="#059669"/>
<path d="M895.943 124.172C893.841 125.124 891.498 124.486 890.711 122.748C889.923 121.009 890.989 118.828 893.091 117.876C895.193 116.924 897.535 117.561 898.323 119.3C899.11 121.038 898.045 123.22 895.943 124.172Z" fill="white"/>
<path d="M895.951 113.649C894.313 115.274 891.895 115.493 890.551 114.139C889.207 112.784 889.445 110.368 891.082 108.742C892.72 107.117 895.138 106.898 896.482 108.253C897.827 109.607 897.589 112.023 895.951 113.649Z" fill="white"/>
<path d="M888.419 107.84C887.934 110.095 886.028 111.599 884.162 111.197C882.296 110.796 881.177 108.642 881.662 106.386C882.148 104.13 884.054 102.627 885.92 103.028C887.786 103.429 888.905 105.584 888.419 107.84Z" fill="white"/>
<path d="M880.057 111.546C880.366 113.833 879.084 115.894 877.192 116.15C875.301 116.405 873.517 114.759 873.208 112.472C872.898 110.186 874.181 108.125 876.072 107.869C877.964 107.613 879.748 109.259 880.057 111.546Z" fill="white"/>
<path d="M889.094 125.782C887.877 128.202 883.611 125.427 881.9 124.053C879.845 123.363 874.799 121.799 876.015 119.379C876.501 116.707 885.49 112.133 887.201 113.508C889.27 114.372 890.17 123.482 889.094 125.782Z" fill="white"/>
<g filter="url(#filter0_f_283_370)">
<path d="M993.089 26.1731C993.803 25.6295 994.675 25.277 995.636 25.1985C998.31 24.9801 1000.66 26.971 1000.88 29.6456C1002.69 30.2326 1004.06 31.8599 1004.22 33.875C1004.34 35.3835 1003.77 36.7873 1002.76 37.764C1002.25 38.4788 1001.32 39.8974 1001.03 40.7002C1000.65 41.7629 998.864 44.0652 994.75 44.2137C990.636 44.3622 989.629 43.5067 987.8 41.7805C987.203 40.8375 986.487 39.976 985.912 39.3527C984.601 38.5765 983.674 37.1977 983.541 35.564C983.382 33.6209 984.389 31.8516 985.978 30.9449C985.975 30.9181 985.973 30.8913 985.97 30.8643C985.752 28.189 987.744 25.8431 990.419 25.6246C991.379 25.5462 992.297 25.7525 993.089 26.1731Z" fill="#059669"/>
<path d="M986.451 37.1419C987.421 38.1607 988.891 38.3357 989.734 37.5329C990.577 36.7301 990.473 35.2534 989.502 34.2346C988.532 33.2158 987.062 33.0407 986.219 33.8436C985.376 34.6464 985.48 36.1231 986.451 37.1419Z" fill="white"/>
<path d="M988.852 31.191C989.406 32.4843 990.723 33.1611 991.792 32.7025C992.862 32.244 993.28 30.8238 992.726 29.5305C992.171 28.2372 990.855 27.5604 989.785 28.019C988.715 28.4775 988.297 29.8977 988.852 31.191Z" fill="white"/>
<path d="M994.437 29.6289C994.196 31.0151 994.93 32.3008 996.077 32.5004C997.223 32.7 998.348 31.738 998.59 30.3517C998.831 28.9655 998.097 27.6798 996.951 27.4802C995.804 27.2806 994.679 28.2426 994.437 29.6289Z" fill="white"/>
<path d="M998.318 33.6359C997.62 34.8579 997.874 36.3164 998.885 36.8934C999.895 37.4704 1001.28 36.9475 1001.98 35.7255C1002.68 34.5034 1002.42 33.045 1001.41 32.468C1000.4 31.891 999.015 32.4139 998.318 33.6359Z" fill="white"/>
<path d="M989.955 39.6178C990.089 41.2641 993.135 40.6709 994.416 40.2849C995.736 40.3647 998.946 40.6345 998.812 38.9882C999.148 37.3665 995.112 32.726 993.831 33.112C992.463 33.1274 989.872 38.0716 989.955 39.6178Z" fill="white"/>
</g>
<path d="M937.95 62.6682C938.181 61.8014 938.175 60.8606 937.881 59.9428C937.064 57.3866 934.329 55.9767 931.773 56.7933C930.54 55.3435 928.513 54.6955 926.587 55.3113C925.146 55.7723 924.069 56.843 923.55 58.1476C923.082 58.887 922.127 60.2921 921.494 60.8649C920.657 61.6231 919.208 64.1474 920.638 68.0076C922.069 71.8677 923.244 72.4733 925.536 73.5065C926.636 73.6986 927.705 74.0325 928.5 74.3267C929.718 75.2427 931.345 75.5741 932.907 75.0749C934.764 74.4811 936.016 72.8757 936.249 71.0618C936.275 71.054 936.3 71.046 936.326 71.0378C938.883 70.2203 940.293 67.4849 939.475 64.9282C939.182 64.0105 938.641 63.2405 937.95 62.6682Z" fill="#059669"/>
<path d="M930.34 72.9871C929.028 72.4779 928.306 71.1856 928.727 70.1006C929.149 69.0156 930.553 68.5487 931.865 69.0579C933.177 69.567 933.899 70.8593 933.478 71.9444C933.057 73.0294 931.652 73.4962 930.34 72.9871Z" fill="white"/>
<path d="M934.927 68.4995C933.52 68.4798 932.393 67.5204 932.409 66.3566C932.425 65.1929 933.579 64.2654 934.986 64.2851C936.393 64.3048 937.52 65.2642 937.504 66.4279C937.488 67.5917 936.334 68.5192 934.927 68.4995Z" fill="white"/>
<path d="M934.243 62.7399C933.053 63.4913 931.585 63.3027 930.963 62.3187C930.342 61.3346 930.802 59.9278 931.992 59.1764C933.182 58.4249 934.65 58.6135 935.271 59.5975C935.893 60.5816 935.432 61.9885 934.243 62.7399Z" fill="white"/>
<path d="M929.059 60.6796C928.195 61.7903 926.75 62.1113 925.832 61.3967C924.913 60.6821 924.869 59.2024 925.733 58.0917C926.597 56.9811 928.042 56.66 928.96 57.3746C929.879 58.0893 929.923 59.5689 929.059 60.6796Z" fill="white"/>
<path d="M926.716 70.6912C925.142 71.1943 924.53 68.1519 924.399 66.8201C923.822 65.6307 922.349 62.7653 923.923 62.2623C925.294 61.3332 931.122 63.2965 931.254 64.6283C931.76 65.8983 928.177 70.1785 926.716 70.6912Z" fill="white"/>
<path d="M1007.57 74.8594C1008.03 74.5146 1008.58 74.291 1009.19 74.2412C1010.89 74.1026 1012.37 75.3656 1012.51 77.0622C1013.66 77.4345 1014.53 78.4667 1014.63 79.745C1014.71 80.7019 1014.35 81.5924 1013.71 82.2119C1013.39 82.6654 1012.79 83.5652 1012.61 84.0745C1012.37 84.7486 1011.24 86.2091 1008.63 86.3032C1006.02 86.3974 1005.38 85.8548 1004.22 84.7598C1003.84 84.1616 1003.39 83.6151 1003.02 83.2197C1002.19 82.7274 1001.6 81.8528 1001.52 80.8164C1001.42 79.5838 1002.05 78.4615 1003.06 77.8864C1003.06 77.8694 1003.06 77.8523 1003.06 77.8352C1002.92 76.1382 1004.18 74.6501 1005.88 74.5115C1006.49 74.4617 1007.07 74.5926 1007.57 74.8594Z" fill="#059669"/>
<path d="M1003.36 81.8174C1003.98 82.4636 1004.91 82.5747 1005.44 82.0654C1005.98 81.5561 1005.91 80.6194 1005.3 79.9732C1004.68 79.3269 1003.75 79.2159 1003.21 79.7251C1002.68 80.2344 1002.75 81.1711 1003.36 81.8174Z" fill="white"/>
<path d="M1004.88 78.0425C1005.24 78.8629 1006.07 79.2922 1006.75 79.0013C1007.43 78.7104 1007.69 77.8096 1007.34 76.9892C1006.99 76.1688 1006.15 75.7395 1005.48 76.0304C1004.8 76.3213 1004.53 77.2221 1004.88 78.0425Z" fill="white"/>
<path d="M1008.43 77.0516C1008.27 77.9309 1008.74 78.7465 1009.47 78.8731C1010.19 78.9997 1010.91 78.3895 1011.06 77.5101C1011.21 76.6308 1010.75 75.8152 1010.02 75.6886C1009.29 75.562 1008.58 76.1722 1008.43 77.0516Z" fill="white"/>
<path d="M1010.89 79.5934C1010.45 80.3686 1010.61 81.2937 1011.25 81.6597C1011.89 82.0258 1012.77 81.6941 1013.21 80.9189C1013.65 80.1437 1013.49 79.2186 1012.85 78.8526C1012.21 78.4865 1011.33 78.8182 1010.89 79.5934Z" fill="white"/>
<path d="M1005.58 83.3879C1005.67 84.4323 1007.6 84.056 1008.41 83.8111C1009.25 83.8617 1011.29 84.0329 1011.2 82.9885C1011.42 81.9598 1008.86 79.0162 1008.04 79.261C1007.18 79.2708 1005.53 82.4072 1005.58 83.3879Z" fill="white"/>
<path d="M887.418 67.8307C887.564 67.2809 887.56 66.6841 887.374 66.1019C886.855 64.4804 885.121 63.5861 883.499 64.1041C882.717 63.1844 881.431 62.7734 880.21 63.164C879.295 63.4564 878.612 64.1356 878.283 64.9631C877.986 65.4322 877.38 66.3235 876.979 66.6868C876.448 67.1678 875.529 68.769 876.436 71.2177C877.343 73.6663 878.089 74.0505 879.543 74.7058C880.241 74.8277 880.919 75.0395 881.423 75.2261C882.195 75.8072 883.228 76.0174 884.219 75.7007C885.396 75.3241 886.191 74.3057 886.338 73.1551C886.355 73.1502 886.371 73.1451 886.387 73.1399C888.009 72.6213 888.904 70.8862 888.385 69.2644C888.199 68.6822 887.856 68.1937 887.418 67.8307Z" fill="#059669"/>
<path d="M882.59 74.376C881.758 74.053 881.3 73.2332 881.567 72.545C881.834 71.8567 882.725 71.5605 883.557 71.8835C884.389 72.2065 884.847 73.0263 884.58 73.7145C884.313 74.4028 883.422 74.6989 882.59 74.376Z" fill="white"/>
<path d="M885.5 71.5293C884.607 71.5168 883.892 70.9082 883.902 70.17C883.913 69.4318 884.644 68.8435 885.537 68.856C886.429 68.8685 887.145 69.477 887.134 70.2152C887.124 70.9535 886.392 71.5418 885.5 71.5293Z" fill="white"/>
<path d="M885.065 67.8758C884.311 68.3524 883.379 68.2328 882.985 67.6086C882.591 66.9844 882.883 66.0919 883.638 65.6153C884.392 65.1386 885.324 65.2583 885.718 65.8825C886.112 66.5067 885.82 67.3991 885.065 67.8758Z" fill="white"/>
<path d="M881.777 66.5689C881.229 67.2734 880.313 67.4771 879.73 67.0237C879.147 66.5704 879.119 65.6318 879.667 64.9273C880.215 64.2228 881.132 64.0191 881.715 64.4724C882.297 64.9257 882.325 65.8643 881.777 66.5689Z" fill="white"/>
<path d="M880.291 72.9196C879.293 73.2387 878.904 71.3088 878.821 70.464C878.455 69.7095 877.521 67.8919 878.519 67.5728C879.389 66.9835 883.086 68.2289 883.169 69.0736C883.491 69.8793 881.218 72.5943 880.291 72.9196Z" fill="white"/>
<path d="M1046.75 -34.394C1048.75 -35.9172 1051.2 -36.9053 1053.89 -37.1251C1061.38 -37.7373 1067.96 -32.1578 1068.57 -24.6623C1073.65 -23.0172 1077.49 -18.4569 1077.95 -12.8097C1078.3 -8.58211 1076.67 -4.64807 1073.85 -1.91088C1072.43 0.0924091 1069.81 4.06792 1069 6.31772C1067.93 9.29605 1062.94 15.7483 1051.41 16.1643C1039.88 16.5804 1037.05 14.1829 1031.93 9.34544C1030.26 6.70253 1028.25 4.28838 1026.64 2.54159C1022.97 0.36632 1020.37 -3.49768 1019.99 -8.0762C1019.55 -13.5216 1022.37 -18.4801 1026.82 -21.021C1026.82 -21.0961 1026.81 -21.1714 1026.8 -21.247C1026.19 -28.7444 1031.77 -35.3187 1039.27 -35.9311C1041.96 -36.1509 1044.53 -35.5726 1046.75 -34.394Z" fill="#059669"/>
<path d="M1028.15 -3.65329C1030.87 -0.798198 1034.99 -0.307606 1037.35 -2.55752C1039.71 -4.80743 1039.42 -8.94585 1036.7 -11.8009C1033.98 -14.656 1029.86 -15.1466 1027.5 -12.8967C1025.14 -10.6468 1025.43 -6.50838 1028.15 -3.65329Z" fill="white"/>
<path d="M1034.88 -20.3304C1036.43 -16.7059 1040.12 -14.8094 1043.12 -16.0945C1046.11 -17.3796 1047.29 -21.3595 1045.73 -24.984C1044.18 -28.6085 1040.49 -30.505 1037.49 -29.2199C1034.49 -27.9349 1033.32 -23.9549 1034.88 -20.3304Z" fill="white"/>
<path d="M1050.53 -24.7083C1049.85 -20.8233 1051.91 -17.2204 1055.12 -16.661C1058.34 -16.1015 1061.49 -18.7975 1062.17 -22.6825C1062.84 -26.5675 1060.79 -30.1704 1057.57 -30.7298C1054.36 -31.2893 1051.21 -28.5934 1050.53 -24.7083Z" fill="white"/>
<path d="M1061.4 -13.4787C1059.45 -10.054 1060.16 -5.9668 1062.99 -4.34975C1065.82 -2.73269 1069.71 -4.19808 1071.66 -7.62279C1073.62 -11.0475 1072.9 -15.1347 1070.07 -16.7517C1067.24 -18.3688 1063.36 -16.9034 1061.4 -13.4787Z" fill="white"/>
<path d="M1037.97 3.28536C1038.34 7.89919 1046.88 6.23663 1050.47 5.15493C1054.17 5.37855 1063.17 6.13466 1062.79 1.52084C1063.73 -3.02387 1052.42 -16.0287 1048.83 -14.947C1045 -14.9037 1037.73 -1.04767 1037.97 3.28536Z" fill="white"/>
<path d="M964.588 -22.5213C963.651 -24.8542 962.059 -26.9555 959.861 -28.5237C953.738 -32.8917 945.234 -31.4702 940.864 -25.349C935.665 -26.5366 930.027 -24.5911 926.737 -19.9785C924.273 -16.5255 923.651 -12.3151 924.675 -8.51613C924.864 -6.07048 925.076 -1.31371 924.618 1.03268C924.011 4.13886 924.99 12.2378 934.676 18.5046C944.363 24.7715 948.016 24.1603 954.897 22.6338C957.687 21.2214 960.648 20.1773 962.927 19.5036C967.196 19.5185 971.407 17.532 974.075 13.7923C977.248 9.34456 977.366 3.64024 974.846 -0.822914C974.891 -0.883642 974.935 -0.94485 974.98 -1.00653C979.348 -7.13035 977.925 -15.6362 971.802 -20.005C969.603 -21.5732 967.098 -22.3952 964.588 -22.5213Z" fill="#059669"/>
<path d="M964.808 13.4114C961.009 14.4687 957.22 12.7784 956.345 9.63607C955.471 6.49375 957.842 3.08931 961.641 2.03204C965.44 0.974779 969.229 2.66505 970.103 5.80738C970.978 8.9497 968.607 12.3541 964.808 13.4114Z" fill="white"/>
<path d="M967.578 -4.35731C964.386 -2.0415 960.246 -2.30435 958.331 -4.9444C956.415 -7.58445 957.45 -11.602 960.642 -13.9178C963.833 -16.2336 967.974 -15.9708 969.889 -13.3307C971.805 -10.6907 970.77 -6.67313 967.578 -4.35731Z" fill="white"/>
<path d="M956.381 -16.1401C954.97 -12.4576 951.358 -10.4181 948.312 -11.5849C945.266 -12.7516 943.94 -16.6827 945.351 -20.3652C946.761 -24.0477 950.374 -26.0872 953.42 -24.9205C956.466 -23.7537 957.791 -19.8226 956.381 -16.1401Z" fill="white"/>
<path d="M941.288 -12.0713C941.211 -8.12862 938.506 -4.98387 935.244 -5.04732C931.983 -5.11077 929.402 -8.3584 929.479 -12.3011C929.555 -16.2438 932.261 -19.3885 935.522 -19.3251C938.783 -19.2616 941.365 -16.014 941.288 -12.0713Z" fill="white"/>
<path d="M952.82 14.3362C950.131 18.1047 943.653 12.3015 941.125 9.53208C937.835 7.82886 929.722 3.86646 932.41 0.0979554C933.93 -4.28762 950.309 -9.6563 952.838 -6.8869C956.106 -4.88569 955.24 10.7345 952.82 14.3362Z" fill="white"/>
<g filter="url(#filter1_f_283_370)">
<path d="M840.215 156.512C841.526 157.179 842.668 158.217 843.468 159.579C845.696 163.375 844.426 168.257 840.632 170.486C841.054 173.578 839.627 176.763 836.768 178.442C834.627 179.698 832.141 179.842 829.98 179.048C828.564 178.811 825.803 178.44 824.412 178.586C822.57 178.779 817.9 177.787 814.75 171.816C811.601 165.845 812.146 163.747 813.393 159.816C814.361 158.263 815.124 156.592 815.635 155.298C815.848 152.809 817.224 150.458 819.542 149.098C822.299 147.479 825.63 147.707 828.101 149.407C828.139 149.384 828.177 149.361 828.215 149.339C832.011 147.11 836.895 148.381 839.123 152.177C839.923 153.54 840.272 155.043 840.215 156.512Z" fill="#059669"/>
<path d="M819.283 154.518C818.469 156.678 819.258 158.974 821.044 159.647C822.83 160.32 824.937 159.114 825.751 156.955C826.564 154.796 825.776 152.5 823.99 151.827C822.204 151.154 820.096 152.359 819.283 154.518Z" fill="white"/>
<path d="M829.783 153.826C828.268 155.566 828.206 157.993 829.645 159.247C831.085 160.5 833.48 160.106 834.995 158.366C836.511 156.625 836.573 154.199 835.133 152.945C833.694 151.692 831.299 152.086 829.783 153.826Z" fill="white"/>
<path d="M836.069 160.964C833.85 161.595 832.474 163.595 832.996 165.431C833.517 167.267 835.74 168.244 837.959 167.613C840.179 166.982 841.555 164.982 841.033 163.146C840.512 161.31 838.289 160.333 836.069 160.964Z" fill="white"/>
<path d="M832.914 169.55C830.612 169.39 828.639 170.804 828.507 172.708C828.374 174.612 830.133 176.285 832.435 176.445C834.737 176.605 836.711 175.191 836.843 173.287C836.975 171.383 835.216 169.71 832.914 169.55Z" fill="white"/>
<path d="M818.122 161.458C815.785 162.829 818.832 166.906 820.314 168.524C821.136 170.529 823.025 175.464 825.361 174.092C827.996 173.434 831.975 164.167 830.492 162.549C829.496 160.54 820.346 160.234 818.122 161.458Z" fill="white"/>
</g>
<path d="M737.808 115.322C737.057 114.057 735.948 112.985 734.536 112.275C730.604 110.299 725.814 111.884 723.837 115.815C720.724 115.595 717.638 117.225 716.149 120.188C715.034 122.405 715.052 124.896 715.985 127C716.314 128.398 716.863 131.129 716.808 132.527C716.736 134.378 718.028 138.973 724.192 141.728C730.355 144.483 732.413 143.802 736.254 142.302C737.741 141.235 739.36 140.366 740.617 139.772C743.087 139.398 745.344 137.871 746.551 135.469C747.987 132.613 747.543 129.304 745.686 126.949C745.707 126.91 745.727 126.871 745.747 126.831C747.724 122.898 746.138 118.107 742.205 116.13C740.793 115.421 739.271 115.17 737.808 115.322Z" fill="#059669"/>
<path d="M741.158 136.08C739.056 137.032 736.713 136.394 735.926 134.656C735.138 132.917 736.204 130.736 738.306 129.784C740.408 128.832 742.75 129.469 743.538 131.208C744.325 132.947 743.259 135.128 741.158 136.08Z" fill="white"/>
<path d="M741.166 125.557C739.528 127.182 737.11 127.402 735.766 126.047C734.421 124.692 734.659 122.276 736.297 120.651C737.935 119.025 740.353 118.806 741.697 120.161C743.042 121.516 742.804 123.931 741.166 125.557Z" fill="white"/>
<path d="M733.634 119.748C733.149 122.004 731.243 123.507 729.377 123.106C727.511 122.704 726.392 120.55 726.877 118.294C727.362 116.038 729.269 114.535 731.135 114.936C733 115.338 734.12 117.492 733.634 119.748Z" fill="white"/>
<path d="M725.272 123.454C725.581 125.741 724.299 127.802 722.407 128.058C720.516 128.314 718.732 126.667 718.423 124.381C718.113 122.094 719.396 120.033 721.287 119.777C723.179 119.521 724.963 121.167 725.272 123.454Z" fill="white"/>
<path d="M734.309 137.69C733.092 140.11 728.826 137.335 727.115 135.961C725.06 135.271 720.013 133.707 721.23 131.287C721.715 128.615 730.705 124.042 732.415 125.416C734.485 126.28 735.385 135.39 734.309 137.69Z" fill="white"/>
<path d="M750.052 196.925C751.507 197.137 752.922 197.754 754.116 198.789C757.442 201.671 757.802 206.703 754.921 210.03C756.311 212.824 755.979 216.298 753.808 218.804C752.182 220.679 749.873 221.612 747.571 221.552C746.154 221.78 743.419 222.313 742.148 222.897C740.465 223.669 735.723 224.225 730.828 219.577C725.932 214.928 725.777 212.766 725.7 208.643C726.12 206.862 726.307 205.034 726.377 203.645C725.782 201.219 726.333 198.551 728.093 196.52C730.187 194.104 733.415 193.253 736.3 194.072C736.329 194.038 736.357 194.005 736.386 193.971C739.269 190.645 744.303 190.285 747.629 193.168C748.823 194.202 749.635 195.514 750.052 196.925Z" fill="#059669"/>
<path d="M729.583 201.738C729.503 204.044 730.985 205.967 732.893 206.032C734.801 206.098 736.411 204.282 736.49 201.975C736.57 199.669 735.087 197.747 733.18 197.681C731.272 197.616 729.662 199.432 729.583 201.738Z" fill="white"/>
<path d="M739.309 197.72C738.43 199.854 739.148 202.173 740.913 202.9C742.678 203.626 744.821 202.486 745.7 200.352C746.578 198.218 745.86 195.899 744.095 195.173C742.33 194.446 740.187 195.587 739.309 197.72Z" fill="white"/>
<path d="M747.549 202.47C745.649 203.778 744.985 206.113 746.067 207.685C747.15 209.258 749.568 209.471 751.468 208.163C753.369 206.855 754.033 204.519 752.95 202.947C751.868 201.375 749.45 201.161 747.549 202.47Z" fill="white"/>
<path d="M747.309 211.614C745.077 212.199 743.66 214.17 744.145 216.016C744.629 217.863 746.831 218.885 749.063 218.299C751.295 217.714 752.712 215.742 752.228 213.896C751.743 212.05 749.541 211.028 747.309 211.614Z" fill="white"/>
<path d="M730.704 208.684C728.93 210.731 733.121 213.618 735.044 214.676C736.465 216.313 739.834 220.383 741.608 218.336C743.893 216.868 744.696 206.815 742.773 205.757C741.186 204.173 732.42 206.812 730.704 208.684Z" fill="white"/>
<path d="M770.437 139.461C771.151 138.918 772.023 138.565 772.983 138.487C775.658 138.268 778.004 140.259 778.223 142.934C780.033 143.521 781.405 145.148 781.569 147.163C781.692 148.672 781.113 150.075 780.104 151.052C779.599 151.767 778.664 153.185 778.375 153.988C777.993 155.051 776.212 157.353 772.098 157.502C767.984 157.65 766.976 156.795 765.147 155.069C764.551 154.126 763.835 153.264 763.26 152.641C761.949 151.865 761.022 150.486 760.889 148.852C760.73 146.909 761.737 145.14 763.325 144.233C763.323 144.206 763.32 144.179 763.318 144.152C763.1 141.477 765.091 139.131 767.767 138.913C768.727 138.834 769.645 139.041 770.437 139.461Z" fill="#059669"/>
<path d="M763.798 150.43C764.769 151.449 766.239 151.624 767.082 150.821C767.924 150.018 767.821 148.541 766.85 147.523C765.879 146.504 764.409 146.329 763.567 147.132C762.724 147.934 762.828 149.411 763.798 150.43Z" fill="white"/>
<path d="M766.199 144.479C766.754 145.772 768.07 146.449 769.14 145.991C770.21 145.532 770.628 144.112 770.073 142.819C769.519 141.525 768.202 140.849 767.133 141.307C766.063 141.766 765.645 143.186 766.199 144.479Z" fill="white"/>
<path d="M771.785 142.917C771.544 144.303 772.278 145.589 773.424 145.788C774.571 145.988 775.696 145.026 775.937 143.64C776.179 142.254 775.445 140.968 774.298 140.768C773.152 140.569 772.026 141.531 771.785 142.917Z" fill="white"/>
<path d="M775.665 146.924C774.968 148.146 775.221 149.604 776.232 150.181C777.243 150.758 778.628 150.236 779.326 149.014C780.023 147.792 779.769 146.333 778.759 145.756C777.748 145.179 776.363 145.702 775.665 146.924Z" fill="white"/>
<path d="M767.302 152.906C767.437 154.552 770.483 153.959 771.764 153.573C773.084 153.653 776.294 153.923 776.16 152.276C776.496 150.655 772.46 146.014 771.178 146.4C769.811 146.415 767.219 151.36 767.302 152.906Z" fill="white"/>
<path d="M784.923 188.147C785.375 187.803 785.929 187.579 786.538 187.529C788.235 187.391 789.723 188.654 789.862 190.35C791.01 190.723 791.88 191.755 791.984 193.033C792.062 193.99 791.695 194.88 791.055 195.5C790.735 195.953 790.142 196.853 789.958 197.363C789.716 198.037 788.586 199.497 785.976 199.591C783.367 199.686 782.728 199.143 781.567 198.048C781.189 197.45 780.735 196.903 780.37 196.508C779.538 196.015 778.951 195.141 778.866 194.105C778.765 192.872 779.404 191.75 780.412 191.174C780.41 191.157 780.408 191.14 780.407 191.123C780.268 189.426 781.532 187.938 783.229 187.8C783.838 187.75 784.42 187.881 784.923 188.147Z" fill="#059669"/>
<path d="M780.711 195.105C781.326 195.752 782.259 195.863 782.793 195.353C783.328 194.844 783.262 193.907 782.646 193.261C782.031 192.615 781.098 192.504 780.564 193.013C780.029 193.522 780.095 194.459 780.711 195.105Z" fill="white"/>
<path d="M782.234 191.331C782.585 192.151 783.421 192.58 784.099 192.289C784.778 191.999 785.043 191.098 784.691 190.277C784.339 189.457 783.504 189.028 782.826 189.318C782.147 189.609 781.882 190.51 782.234 191.331Z" fill="white"/>
<path d="M785.777 190.34C785.624 191.219 786.089 192.035 786.817 192.161C787.544 192.288 788.258 191.678 788.411 190.798C788.564 189.919 788.099 189.103 787.371 188.977C786.644 188.85 785.93 189.46 785.777 190.34Z" fill="white"/>
<path d="M788.238 192.881C787.796 193.657 787.957 194.582 788.598 194.948C789.239 195.314 790.118 194.982 790.56 194.207C791.003 193.432 790.842 192.507 790.2 192.141C789.559 191.775 788.681 192.106 788.238 192.881Z" fill="white"/>
<path d="M782.933 196.676C783.019 197.72 784.951 197.344 785.764 197.099C786.601 197.15 788.637 197.321 788.552 196.277C788.765 195.248 786.205 192.304 785.392 192.549C784.525 192.559 782.881 195.695 782.933 196.676Z" fill="white"/>
<path d="M952.913 135.665C955.366 133.796 958.365 132.584 961.667 132.314C970.863 131.563 978.927 138.408 979.681 147.604C985.905 149.622 990.62 155.216 991.186 162.145C991.609 167.331 989.617 172.157 986.15 175.515C984.413 177.973 981.198 182.85 980.206 185.61C978.892 189.264 972.768 197.179 958.624 197.69C944.479 198.2 941.015 195.259 934.727 189.324C932.676 186.082 930.214 183.12 928.236 180.977C923.73 178.309 920.544 173.568 920.085 167.952C919.539 161.271 923.002 155.188 928.462 152.071C928.453 151.979 928.445 151.886 928.438 151.794C927.686 142.596 934.534 134.53 943.732 133.779C947.033 133.509 950.189 134.219 952.913 135.665Z" fill="#059669"/>
<path d="M930.086 173.377C933.423 176.88 938.477 177.482 941.374 174.722C944.271 171.961 943.915 166.884 940.578 163.382C937.24 159.879 932.187 159.277 929.289 162.037C926.392 164.798 926.749 169.875 930.086 173.377Z" fill="white"/>
<path d="M938.341 152.918C940.247 157.364 944.774 159.691 948.451 158.114C952.129 156.538 953.566 151.655 951.66 147.209C949.754 142.762 945.227 140.436 941.549 142.012C937.871 143.589 936.435 148.471 938.341 152.918Z" fill="white"/>
<path d="M957.545 147.547C956.716 152.313 959.239 156.733 963.181 157.419C967.123 158.106 970.992 154.798 971.821 150.032C972.651 145.266 970.128 140.846 966.186 140.16C962.244 139.473 958.375 142.781 957.545 147.547Z" fill="white"/>
<path d="M970.885 161.324C968.487 165.525 969.36 170.539 972.835 172.523C976.31 174.507 981.071 172.709 983.47 168.508C985.868 164.306 984.995 159.292 981.52 157.308C978.045 155.324 973.284 157.122 970.885 161.324Z" fill="white"/>
<path d="M942.132 181.89C942.595 187.55 953.068 185.51 957.473 184.183C962.009 184.458 973.047 185.385 972.585 179.725C973.741 174.149 959.864 158.195 955.459 159.522C950.758 159.575 941.848 176.574 942.132 181.89Z" fill="white"/>
</g>
<g style="mix-blend-mode:darken" opacity="0.33">
<path d="M1102.37 123.787C1101.06 123.12 1099.92 122.083 1099.12 120.72C1096.89 116.925 1098.16 112.042 1101.95 109.813C1101.53 106.721 1102.96 103.536 1105.82 101.858C1107.96 100.601 1110.44 100.458 1112.6 101.252C1114.02 101.488 1116.78 101.859 1118.17 101.714C1120.01 101.521 1124.68 102.512 1127.83 108.483C1130.98 114.455 1130.44 116.552 1129.19 120.483C1128.22 122.036 1127.46 123.708 1126.95 125.001C1126.74 127.49 1125.36 129.841 1123.04 131.202C1120.28 132.821 1116.95 132.593 1114.48 130.893C1114.45 130.916 1114.41 130.939 1114.37 130.961C1110.57 133.19 1105.69 131.919 1103.46 128.123C1102.66 126.76 1102.31 125.257 1102.37 123.787Z" fill="#059669"/>
<path d="M1123.3 125.781C1124.11 123.622 1123.33 121.326 1121.54 120.653C1119.75 119.98 1117.65 121.185 1116.83 123.345C1116.02 125.504 1116.81 127.8 1118.59 128.473C1120.38 129.146 1122.49 127.941 1123.3 125.781Z" fill="white"/>
<path d="M1112.8 126.473C1114.32 124.733 1114.38 122.307 1112.94 121.053C1111.5 119.799 1109.1 120.194 1107.59 121.934C1106.07 123.674 1106.01 126.101 1107.45 127.355C1108.89 128.608 1111.28 128.214 1112.8 126.473Z" fill="white"/>
<path d="M1106.51 119.335C1108.73 118.704 1110.11 116.705 1109.59 114.869C1109.07 113.033 1106.84 112.056 1104.62 112.687C1102.4 113.318 1101.03 115.318 1101.55 117.154C1102.07 118.99 1104.29 119.966 1106.51 119.335Z" fill="white"/>
<path d="M1109.67 110.75C1111.97 110.91 1113.94 109.496 1114.08 107.592C1114.21 105.688 1112.45 104.015 1110.15 103.855C1107.85 103.695 1105.87 105.109 1105.74 107.013C1105.61 108.917 1107.37 110.59 1109.67 110.75Z" fill="white"/>
<path d="M1124.46 118.842C1126.8 117.471 1123.75 113.394 1122.27 111.776C1121.45 109.77 1119.56 104.836 1117.22 106.207C1114.59 106.865 1110.61 116.133 1112.09 117.751C1113.09 119.759 1122.24 120.066 1124.46 118.842Z" fill="white"/>
<path d="M1271.3 163.471C1272.42 164.429 1273.81 165.09 1275.38 165.31C1279.74 165.923 1283.77 162.888 1284.38 158.531C1287.4 157.743 1289.8 155.21 1290.26 151.927C1290.61 149.469 1289.8 147.116 1288.24 145.42C1287.48 144.202 1286.08 141.79 1285.69 140.448C1285.16 138.672 1282.47 134.732 1275.75 134.096C1269.03 133.459 1267.3 134.763 1264.14 137.414C1263.07 138.901 1261.81 140.243 1260.81 141.208C1258.59 142.353 1256.94 144.522 1256.57 147.184C1256.12 150.35 1257.6 153.342 1260.12 154.979C1260.11 155.022 1260.1 155.066 1260.1 155.11C1259.48 159.469 1262.52 163.5 1266.88 164.113C1268.44 164.334 1269.97 164.084 1271.3 163.471Z" fill="#059669"/>
<path d="M1261.48 144.878C1263.17 143.303 1265.59 143.157 1266.89 144.552C1268.2 145.947 1267.89 148.355 1266.2 149.93C1264.51 151.505 1262.09 151.651 1260.79 150.256C1259.48 148.861 1259.8 146.453 1261.48 144.878Z" fill="white"/>
<path d="M1264.84 154.85C1265.87 152.786 1268.09 151.804 1269.8 152.657C1271.51 153.51 1272.06 155.875 1271.03 157.939C1269.99 160.003 1267.77 160.985 1266.07 160.132C1264.36 159.279 1263.81 156.914 1264.84 154.85Z" fill="white"/>
<path d="M1273.84 157.942C1273.58 155.649 1274.9 153.615 1276.8 153.397C1278.69 153.18 1280.44 154.863 1280.7 157.155C1280.97 159.448 1279.64 161.482 1277.75 161.699C1275.85 161.917 1274.1 160.234 1273.84 157.942Z" fill="white"/>
<path d="M1280.57 151.753C1279.55 149.685 1280.1 147.322 1281.81 146.474C1283.52 145.626 1285.74 146.615 1286.77 148.682C1287.79 150.749 1287.24 153.113 1285.53 153.961C1283.82 154.809 1281.6 153.82 1280.57 151.753Z" fill="white"/>
<path d="M1267.45 141.16C1267.83 138.478 1272.76 139.74 1274.82 140.495C1276.99 140.49 1282.27 140.356 1281.89 143.038C1282.29 145.725 1275.24 152.936 1273.18 152.181C1270.94 152.025 1267.17 143.683 1267.45 141.16Z" fill="white"/>
<path d="M1191.69 86.4244C1190.24 86.2125 1188.82 85.5955 1187.63 84.5607C1184.3 81.6784 1183.94 76.646 1186.83 73.3195C1185.44 70.5256 1185.77 67.0515 1187.94 64.5459C1189.56 62.6701 1191.87 61.7377 1194.17 61.798C1195.59 61.5691 1198.33 61.0362 1199.6 60.4528C1201.28 59.6806 1206.02 59.1244 1210.92 63.7727C1215.81 68.421 1215.97 70.5831 1216.05 74.7065C1215.63 76.4876 1215.44 78.3152 1215.37 79.7043C1215.96 82.1303 1215.41 84.7984 1213.65 86.8298C1211.56 89.2458 1208.33 90.0969 1205.45 89.2773C1205.42 89.3111 1205.39 89.3448 1205.36 89.3783C1202.48 92.7048 1197.44 93.0646 1194.12 90.1818C1192.92 89.147 1192.11 87.8351 1191.69 86.4244Z" fill="#059669"/>
<path d="M1212.16 81.6114C1212.24 79.3052 1210.76 77.3825 1208.85 77.317C1206.95 77.2515 1205.33 79.0679 1205.26 81.374C1205.18 83.6802 1206.66 85.6029 1208.57 85.6684C1210.47 85.7339 1212.08 83.9175 1212.16 81.6114Z" fill="white"/>
<path d="M1202.44 85.6292C1203.32 83.4955 1202.6 81.1766 1200.83 80.45C1199.07 79.7233 1196.92 80.864 1196.05 82.9977C1195.17 85.1315 1195.89 87.4503 1197.65 88.177C1199.42 88.9036 1201.56 87.763 1202.44 85.6292Z" fill="white"/>
<path d="M1194.2 80.8797C1196.1 79.5713 1196.76 77.2361 1195.68 75.664C1194.6 74.0919 1192.18 73.8781 1190.28 75.1865C1188.38 76.4949 1187.71 78.8301 1188.8 80.4022C1189.88 81.9744 1192.3 82.1882 1194.2 80.8797Z" fill="white"/>
<path d="M1194.44 71.736C1196.67 71.1505 1198.09 69.1792 1197.6 67.333C1197.12 65.4869 1194.91 64.4649 1192.68 65.0504C1190.45 65.6359 1189.03 67.6072 1189.52 69.4533C1190 71.2995 1192.2 72.3215 1194.44 71.736Z" fill="white"/>
<path d="M1211.04 74.6657C1212.82 72.6186 1208.62 69.7316 1206.7 68.6738C1205.28 67.0368 1201.91 62.9669 1200.14 65.014C1197.85 66.4812 1197.05 76.535 1198.97 77.5927C1200.56 79.1765 1209.33 76.5372 1211.04 74.6657Z" fill="white"/>
<path d="M1271.8 66.6473C1272.56 67.9123 1273.66 68.9845 1275.08 69.6942C1279.01 71.6708 1283.8 70.0861 1285.78 66.1546C1288.89 66.3751 1291.97 64.7444 1293.46 61.7821C1294.58 59.5645 1294.56 57.0741 1293.63 54.9692C1293.3 53.5719 1292.75 50.8404 1292.8 49.4425C1292.88 47.5919 1291.58 42.9966 1285.42 40.2416C1279.26 37.4866 1277.2 38.1677 1273.36 39.6675C1271.87 40.7345 1270.25 41.6038 1269 42.1978C1266.53 42.5721 1264.27 44.0984 1263.06 46.5001C1261.63 49.3566 1262.07 52.6657 1263.93 55.0205C1263.91 55.0596 1263.89 55.099 1263.87 55.1386C1261.89 59.0715 1263.47 63.8623 1267.41 65.8393C1268.82 66.5489 1270.34 66.7995 1271.8 66.6473Z" fill="#059669"/>
<path d="M1268.46 45.8897C1270.56 44.9376 1272.9 45.5752 1273.69 47.3138C1274.47 49.0524 1273.41 51.2336 1271.31 52.1857C1269.21 53.1378 1266.86 52.5002 1266.08 50.7616C1265.29 49.023 1266.35 46.8418 1268.46 45.8897Z" fill="white"/>
<path d="M1268.45 56.4128C1270.09 54.7874 1272.5 54.5681 1273.85 55.9229C1275.19 57.2776 1274.95 59.6935 1273.32 61.3189C1271.68 62.9443 1269.26 63.1637 1267.92 61.8089C1266.57 60.4541 1266.81 58.0382 1268.45 56.4128Z" fill="white"/>
<path d="M1275.98 62.2218C1276.46 59.9659 1278.37 58.4626 1280.24 58.8641C1282.1 59.2655 1283.22 61.4197 1282.74 63.6756C1282.25 65.9316 1280.34 67.4349 1278.48 67.0334C1276.61 66.632 1275.49 64.4777 1275.98 62.2218Z" fill="white"/>
<path d="M1284.34 58.5154C1284.03 56.2287 1285.31 54.1676 1287.21 53.9118C1289.1 53.656 1290.88 55.3023 1291.19 57.5891C1291.5 59.8758 1290.22 61.9369 1288.33 62.1927C1286.43 62.4485 1284.65 60.8021 1284.34 58.5154Z" fill="white"/>
<path d="M1275.3 44.2797C1276.52 41.8595 1280.79 44.6342 1282.5 46.0087C1284.55 46.6986 1289.6 48.2621 1288.38 50.6824C1287.9 53.3546 1278.91 57.928 1277.2 56.5534C1275.13 55.6894 1274.23 46.5795 1275.3 44.2797Z" fill="white"/>
<g filter="url(#filter2_f_283_370)">
<path d="M1171.31 143.888C1170.6 144.432 1169.72 144.784 1168.76 144.863C1166.09 145.081 1163.74 143.09 1163.52 140.416C1161.71 139.829 1160.34 138.202 1160.18 136.186C1160.05 134.678 1160.63 133.274 1161.64 132.297C1162.15 131.583 1163.08 130.164 1163.37 129.361C1163.75 128.298 1165.53 125.996 1169.65 125.848C1173.76 125.699 1174.77 126.555 1176.6 128.281C1177.19 129.224 1177.91 130.085 1178.49 130.709C1179.8 131.485 1180.72 132.864 1180.86 134.497C1181.02 136.44 1180.01 138.21 1178.42 139.116C1178.42 139.143 1178.43 139.17 1178.43 139.197C1178.65 141.872 1176.65 144.218 1173.98 144.437C1173.02 144.515 1172.1 144.309 1171.31 143.888Z" fill="#059669"/>
<path d="M1177.95 132.92C1176.98 131.901 1175.51 131.726 1174.66 132.529C1173.82 133.331 1173.93 134.808 1174.9 135.827C1175.87 136.846 1177.34 137.021 1178.18 136.218C1179.02 135.415 1178.92 133.938 1177.95 132.92Z" fill="white"/>
<path d="M1175.55 138.87C1174.99 137.577 1173.68 136.9 1172.61 137.359C1171.54 137.817 1171.12 139.238 1171.67 140.531C1172.23 141.824 1173.54 142.501 1174.61 142.042C1175.68 141.584 1176.1 140.164 1175.55 138.87Z" fill="white"/>
<path d="M1169.96 140.433C1170.2 139.046 1169.47 137.761 1168.32 137.561C1167.17 137.361 1166.05 138.323 1165.81 139.71C1165.57 141.096 1166.3 142.382 1167.45 142.581C1168.59 142.781 1169.72 141.819 1169.96 140.433Z" fill="white"/>
<path d="M1166.08 136.425C1166.78 135.203 1166.52 133.745 1165.51 133.168C1164.5 132.591 1163.12 133.114 1162.42 134.336C1161.72 135.558 1161.98 137.016 1162.99 137.593C1164 138.17 1165.38 137.648 1166.08 136.425Z" fill="white"/>
<path d="M1174.44 130.444C1174.31 128.797 1171.26 129.391 1169.98 129.776C1168.66 129.697 1165.45 129.427 1165.59 131.073C1165.25 132.695 1169.29 137.335 1170.57 136.949C1171.93 136.934 1174.53 131.99 1174.44 130.444Z" fill="white"/>
</g>
<path d="M1226.45 107.393C1226.22 108.26 1226.22 109.201 1226.52 110.119C1227.33 112.675 1230.07 114.085 1232.63 113.268C1233.86 114.718 1235.88 115.366 1237.81 114.75C1239.25 114.289 1240.33 113.218 1240.85 111.914C1241.32 111.174 1242.27 109.769 1242.9 109.197C1243.74 108.438 1245.19 105.914 1243.76 102.054C1242.33 98.1937 1241.15 97.5881 1238.86 96.5549C1237.76 96.3628 1236.69 96.0289 1235.9 95.7347C1234.68 94.8187 1233.05 94.4873 1231.49 94.9865C1229.63 95.5803 1228.38 97.1857 1228.15 98.9996C1228.12 99.0074 1228.1 99.0154 1228.07 99.0236C1225.52 99.8411 1224.11 102.576 1224.92 105.133C1225.22 106.051 1225.76 106.821 1226.45 107.393Z" fill="#059669"/>
<path d="M1234.06 97.0743C1235.37 97.5835 1236.09 98.8758 1235.67 99.9608C1235.25 101.046 1233.84 101.513 1232.53 101.004C1231.22 100.494 1230.5 99.2021 1230.92 98.117C1231.34 97.032 1232.75 96.5652 1234.06 97.0743Z" fill="white"/>
<path d="M1229.47 101.562C1230.88 101.582 1232.01 102.541 1231.99 103.705C1231.97 104.869 1230.82 105.796 1229.41 105.776C1228.01 105.757 1226.88 104.797 1226.89 103.633C1226.91 102.47 1228.06 101.542 1229.47 101.562Z" fill="white"/>
<path d="M1230.16 107.322C1231.35 106.57 1232.81 106.759 1233.43 107.743C1234.06 108.727 1233.6 110.134 1232.41 110.885C1231.22 111.636 1229.75 111.448 1229.13 110.464C1228.51 109.48 1228.97 108.073 1230.16 107.322Z" fill="white"/>
<path d="M1235.34 109.382C1236.2 108.271 1237.65 107.95 1238.57 108.665C1239.49 109.379 1239.53 110.859 1238.67 111.97C1237.8 113.08 1236.36 113.401 1235.44 112.687C1234.52 111.972 1234.47 110.492 1235.34 109.382Z" fill="white"/>
<path d="M1237.68 99.3702C1239.26 98.8671 1239.87 101.91 1240 103.241C1240.58 104.431 1242.05 107.296 1240.48 107.799C1239.1 108.728 1233.28 106.765 1233.14 105.433C1232.64 104.163 1236.22 99.883 1237.68 99.3702Z" fill="white"/>
<path d="M1156.82 95.202C1156.37 95.5468 1155.82 95.7704 1155.21 95.8202C1153.51 95.9588 1152.03 94.6958 1151.89 92.9992C1150.74 92.6269 1149.87 91.5947 1149.76 90.3164C1149.69 89.3595 1150.05 88.469 1150.69 87.8495C1151.01 87.396 1151.61 86.4962 1151.79 85.9869C1152.03 85.3128 1153.16 83.8523 1155.77 83.7582C1158.38 83.664 1159.02 84.2066 1160.18 85.3016C1160.56 85.8998 1161.01 86.4463 1161.38 86.8417C1162.21 87.334 1162.8 88.2086 1162.88 89.245C1162.98 90.4776 1162.34 91.5999 1161.34 92.175C1161.34 92.192 1161.34 92.2091 1161.34 92.2262C1161.48 93.9232 1160.22 95.4113 1158.52 95.5499C1157.91 95.5997 1157.33 95.4688 1156.82 95.202Z" fill="#059669"/>
<path d="M1161.04 88.244C1160.42 87.5978 1159.49 87.4867 1158.95 87.996C1158.42 88.5053 1158.49 89.442 1159.1 90.0882C1159.72 90.7345 1160.65 90.8455 1161.18 90.3363C1161.72 89.827 1161.65 88.8903 1161.04 88.244Z" fill="white"/>
<path d="M1159.51 92.0189C1159.16 91.1985 1158.33 90.7692 1157.65 91.0601C1156.97 91.351 1156.7 92.2518 1157.06 93.0722C1157.41 93.8926 1158.24 94.3219 1158.92 94.031C1159.6 93.7401 1159.87 92.8393 1159.51 92.0189Z" fill="white"/>
<path d="M1155.97 93.0098C1156.12 92.1305 1155.66 91.3149 1154.93 91.1883C1154.2 91.0617 1153.49 91.6719 1153.34 92.5513C1153.18 93.4306 1153.65 94.2462 1154.38 94.3728C1155.1 94.4994 1155.82 93.8892 1155.97 93.0098Z" fill="white"/>
<path d="M1153.51 90.468C1153.95 89.6928 1153.79 88.7677 1153.15 88.4017C1152.51 88.0357 1151.63 88.3673 1151.19 89.1425C1150.75 89.9177 1150.91 90.8428 1151.55 91.2088C1152.19 91.5749 1153.07 91.2432 1153.51 90.468Z" fill="white"/>
<path d="M1158.81 86.6735C1158.73 85.6291 1156.8 86.0054 1155.98 86.2503C1155.15 86.1997 1153.11 86.0285 1153.2 87.0729C1152.98 88.1016 1155.54 91.0452 1156.36 90.8004C1157.22 90.7906 1158.87 87.6542 1158.81 86.6735Z" fill="white"/>
<path d="M1276.98 102.231C1276.83 102.781 1276.84 103.377 1277.02 103.959C1277.54 105.581 1279.28 106.475 1280.9 105.957C1281.68 106.877 1282.97 107.288 1284.19 106.897C1285.1 106.605 1285.79 105.926 1286.11 105.098C1286.41 104.629 1287.02 103.738 1287.42 103.375C1287.95 102.894 1288.87 101.292 1287.96 98.8437C1287.05 96.3951 1286.31 96.0109 1284.85 95.3556C1284.16 95.2337 1283.48 95.0219 1282.97 94.8353C1282.2 94.2542 1281.17 94.044 1280.18 94.3607C1279 94.7373 1278.21 95.7557 1278.06 96.9063C1278.04 96.9112 1278.03 96.9163 1278.01 96.9215C1276.39 97.4401 1275.49 99.1752 1276.01 100.797C1276.2 101.379 1276.54 101.868 1276.98 102.231Z" fill="#059669"/>
<path d="M1281.81 95.6854C1282.64 96.0084 1283.1 96.8282 1282.83 97.5164C1282.56 98.2047 1281.67 98.5009 1280.84 98.1779C1280.01 97.8549 1279.55 97.0351 1279.82 96.3469C1280.08 95.6586 1280.98 95.3625 1281.81 95.6854Z" fill="white"/>
<path d="M1278.9 98.5321C1279.79 98.5446 1280.51 99.1532 1280.5 99.8914C1280.49 100.63 1279.75 101.218 1278.86 101.205C1277.97 101.193 1277.25 100.584 1277.26 99.8462C1277.27 99.1079 1278.01 98.5196 1278.9 98.5321Z" fill="white"/>
<path d="M1279.33 102.186C1280.09 101.709 1281.02 101.829 1281.41 102.453C1281.81 103.077 1281.52 103.969 1280.76 104.446C1280.01 104.923 1279.07 104.803 1278.68 104.179C1278.29 103.555 1278.58 102.662 1279.33 102.186Z" fill="white"/>
<path d="M1282.62 103.493C1283.17 102.788 1284.09 102.584 1284.67 103.038C1285.25 103.491 1285.28 104.43 1284.73 105.134C1284.18 105.839 1283.27 106.042 1282.68 105.589C1282.1 105.136 1282.07 104.197 1282.62 103.493Z" fill="white"/>
<path d="M1284.11 97.1418C1285.11 96.8227 1285.49 98.7526 1285.58 99.5974C1285.94 100.352 1286.88 102.169 1285.88 102.489C1285.01 103.078 1281.31 101.833 1281.23 100.988C1280.91 100.182 1283.18 97.4671 1284.11 97.1418Z" fill="white"/>
<path d="M1117.65 204.455C1115.65 205.979 1113.2 206.967 1110.51 207.186C1103.01 207.799 1096.44 202.219 1095.83 194.724C1090.75 193.079 1086.91 188.518 1086.45 182.871C1086.1 178.644 1087.73 174.709 1090.55 171.972C1091.97 169.969 1094.59 165.993 1095.4 163.744C1096.47 160.765 1101.46 154.313 1112.99 153.897C1124.52 153.481 1127.34 155.878 1132.47 160.716C1134.14 163.359 1136.15 165.773 1137.76 167.52C1141.43 169.695 1144.03 173.559 1144.4 178.138C1144.85 183.583 1142.03 188.541 1137.58 191.082C1137.58 191.158 1137.59 191.233 1137.6 191.308C1138.21 198.806 1132.63 205.38 1125.13 205.992C1122.44 206.212 1119.87 205.634 1117.65 204.455Z" fill="#059669"/>
<path d="M1136.25 173.715C1133.53 170.86 1129.41 170.369 1127.05 172.619C1124.69 174.869 1124.98 179.007 1127.7 181.862C1130.42 184.717 1134.54 185.208 1136.9 182.958C1139.26 180.708 1138.97 176.57 1136.25 173.715Z" fill="white"/>
<path d="M1129.52 190.392C1127.97 186.767 1124.28 184.871 1121.28 186.156C1118.28 187.441 1117.11 191.421 1118.67 195.045C1120.22 198.67 1123.91 200.566 1126.91 199.281C1129.91 197.996 1131.08 194.016 1129.52 190.392Z" fill="white"/>
<path d="M1113.87 194.77C1114.55 190.885 1112.49 187.282 1109.28 186.722C1106.06 186.163 1102.91 188.859 1102.23 192.744C1101.56 196.629 1103.61 200.232 1106.83 200.791C1110.04 201.351 1113.19 198.655 1113.87 194.77Z" fill="white"/>
<path d="M1103 183.54C1104.95 180.115 1104.24 176.028 1101.41 174.411C1098.57 172.794 1094.69 174.259 1092.74 177.684C1090.78 181.109 1091.49 185.196 1094.33 186.813C1097.16 188.43 1101.04 186.965 1103 183.54Z" fill="white"/>
<path d="M1126.43 166.776C1126.06 162.162 1117.52 163.825 1113.93 164.906C1110.23 164.683 1101.23 163.927 1101.61 168.541C1100.67 173.085 1111.98 186.09 1115.57 185.008C1119.4 184.965 1126.66 171.109 1126.43 166.776Z" fill="white"/>
<path d="M1199.81 192.583C1200.75 194.916 1202.34 197.017 1204.54 198.585C1210.66 202.953 1219.16 201.532 1223.53 195.41C1228.73 196.598 1234.37 194.652 1237.66 190.04C1240.12 186.587 1240.75 182.377 1239.72 178.578C1239.53 176.132 1239.32 171.375 1239.78 169.029C1240.39 165.923 1239.41 157.824 1229.72 151.557C1220.04 145.29 1216.38 145.901 1209.5 147.428C1206.71 148.84 1203.75 149.884 1201.47 150.558C1197.2 150.543 1192.99 152.529 1190.32 156.269C1187.15 160.717 1187.03 166.421 1189.55 170.884C1189.51 170.945 1189.46 171.006 1189.42 171.068C1185.05 177.192 1186.47 185.698 1192.6 190.066C1194.79 191.635 1197.3 192.457 1199.81 192.583Z" fill="#059669"/>
<path d="M1199.59 156.65C1203.39 155.593 1207.18 157.283 1208.05 160.425C1208.93 163.568 1206.56 166.972 1202.76 168.029C1198.96 169.087 1195.17 167.396 1194.3 164.254C1193.42 161.112 1195.79 157.707 1199.59 156.65Z" fill="white"/>
<path d="M1196.82 174.419C1200.01 172.103 1204.15 172.366 1206.07 175.006C1207.98 177.646 1206.95 181.663 1203.76 183.979C1200.56 186.295 1196.42 186.032 1194.51 183.392C1192.59 180.752 1193.63 176.735 1196.82 174.419Z" fill="white"/>
<path d="M1208.02 186.202C1209.43 182.519 1213.04 180.48 1216.09 181.646C1219.13 182.813 1220.46 186.744 1219.05 190.427C1217.64 194.109 1214.02 196.149 1210.98 194.982C1207.93 193.815 1206.61 189.884 1208.02 186.202Z" fill="white"/>
<path d="M1223.11 182.133C1223.19 178.19 1225.89 175.045 1229.15 175.109C1232.41 175.172 1235 178.42 1234.92 182.362C1234.84 186.305 1232.14 189.45 1228.88 189.386C1225.61 189.323 1223.03 186.075 1223.11 182.133Z" fill="white"/>
<path d="M1211.58 155.725C1214.27 151.957 1220.74 157.76 1223.27 160.529C1226.56 162.233 1234.68 166.195 1231.99 169.963C1230.47 174.349 1214.09 179.718 1211.56 176.948C1208.29 174.947 1209.16 159.327 1211.58 155.725Z" fill="white"/>
<g filter="url(#filter3_f_283_370)">
<path d="M1324.18 13.5489C1322.87 12.8821 1321.73 11.8448 1320.93 10.4821C1318.7 6.68668 1319.97 1.80392 1323.77 -0.424969C1323.34 -3.51692 1324.77 -6.7019 1327.63 -8.38035C1329.77 -9.63685 1332.26 -9.78078 1334.42 -8.98676C1335.83 -8.74986 1338.6 -8.37908 1339.99 -8.52458C1341.83 -8.71719 1346.5 -7.72602 1349.65 -1.75486C1352.8 4.21629 1352.25 6.31403 1351 10.2451C1350.04 11.798 1349.27 13.4696 1348.76 14.7631C1348.55 17.252 1347.17 19.6031 1344.86 20.9639C1342.1 22.5823 1338.77 22.3549 1336.3 20.6547C1336.26 20.6777 1336.22 20.7004 1336.18 20.7229C1332.39 22.9512 1327.5 21.6804 1325.28 17.8843C1324.48 16.5216 1324.13 15.0188 1324.18 13.5489Z" fill="#059669"/>
<path d="M1345.12 15.5429C1345.93 13.3836 1345.14 11.0876 1343.35 10.4147C1341.57 9.74188 1339.46 10.947 1338.65 13.1064C1337.83 15.2657 1338.62 17.5617 1340.41 18.2346C1342.19 18.9074 1344.3 17.7023 1345.12 15.5429Z" fill="white"/>
<path d="M1334.61 16.2352C1336.13 14.495 1336.19 12.0682 1334.75 10.8147C1333.31 9.56121 1330.92 9.95569 1329.4 11.6958C1327.89 13.4359 1327.83 15.8627 1329.26 17.1162C1330.7 18.3697 1333.1 17.9753 1334.61 16.2352Z" fill="white"/>
<path d="M1328.33 9.09708C1330.55 8.46612 1331.92 6.46635 1331.4 4.63045C1330.88 2.79456 1328.66 1.81776 1326.44 2.44872C1324.22 3.07967 1322.84 5.07945 1323.36 6.91534C1323.89 8.75124 1326.11 9.72803 1328.33 9.09708Z" fill="white"/>
<path d="M1331.48 0.51156C1333.79 0.67155 1335.76 -0.74228 1335.89 -2.64632C1336.02 -4.55035 1334.26 -6.22358 1331.96 -6.38357C1329.66 -6.54356 1327.69 -5.12973 1327.56 -3.22569C1327.42 -1.32166 1329.18 0.351569 1331.48 0.51156Z" fill="white"/>
<path d="M1346.28 8.60383C1348.61 7.23253 1345.57 3.15556 1344.08 1.5378C1343.26 -0.467917 1341.37 -5.40227 1339.04 -4.03097C1336.4 -3.3728 1332.42 5.89467 1333.91 7.51242C1334.9 9.52106 1344.05 9.82733 1346.28 8.60383Z" fill="white"/>
</g>
<path d="M1426.59 54.7391C1427.34 56.0041 1428.45 57.0763 1429.86 57.786C1433.79 59.7626 1438.58 58.1779 1440.56 54.2464C1443.67 54.4669 1446.76 52.8362 1448.25 49.8739C1449.36 47.6563 1449.35 45.1659 1448.41 43.061C1448.08 41.6637 1447.54 38.9322 1447.59 37.5343C1447.66 35.6837 1446.37 31.0884 1440.21 28.3334C1434.04 25.5784 1431.99 26.2595 1428.14 27.7593C1426.66 28.8263 1425.04 29.6956 1423.78 30.2896C1421.31 30.6639 1419.05 32.1902 1417.85 34.5919C1416.41 37.4484 1416.85 40.7575 1418.71 43.1123C1418.69 43.1514 1418.67 43.1908 1418.65 43.2304C1416.67 47.1633 1418.26 51.9541 1422.19 53.9311C1423.6 54.6407 1425.13 54.8913 1426.59 54.7391Z" fill="#059669"/>
<path d="M1423.24 33.9815C1425.34 33.0294 1427.68 33.667 1428.47 35.4056C1429.26 37.1441 1428.19 39.3254 1426.09 40.2775C1423.99 41.2296 1421.65 40.592 1420.86 38.8534C1420.07 37.1148 1421.14 34.9336 1423.24 33.9815Z" fill="white"/>
<path d="M1423.23 44.5046C1424.87 42.8792 1427.29 42.6599 1428.63 44.0147C1429.98 45.3694 1429.74 47.7853 1428.1 49.4107C1426.46 51.0361 1424.05 51.2555 1422.7 49.9007C1421.36 48.5459 1421.59 46.13 1423.23 44.5046Z" fill="white"/>
<path d="M1430.76 50.3136C1431.25 48.0577 1433.16 46.5544 1435.02 46.9558C1436.89 47.3573 1438.01 49.5115 1437.52 51.7674C1437.04 54.0234 1435.13 55.5267 1433.26 55.1252C1431.4 54.7238 1430.28 52.5695 1430.76 50.3136Z" fill="white"/>
<path d="M1439.13 46.6072C1438.82 44.3205 1440.1 42.2594 1441.99 42.0036C1443.88 41.7478 1445.67 43.3941 1445.98 45.6809C1446.28 47.9676 1445 50.0287 1443.11 50.2845C1441.22 50.5403 1439.44 48.8939 1439.13 46.6072Z" fill="white"/>
<path d="M1430.09 32.3715C1431.31 29.9513 1435.57 32.726 1437.28 34.1005C1439.34 34.7904 1444.38 36.3539 1443.17 38.7742C1442.68 41.4464 1433.69 46.0198 1431.98 44.6452C1429.91 43.7812 1429.01 34.6713 1430.09 32.3715Z" fill="white"/>
<path d="M1393.96 30.6002C1393.25 31.1438 1392.38 31.4963 1391.41 31.5748C1388.74 31.7932 1386.39 29.8023 1386.18 27.1277C1384.37 26.5407 1382.99 24.9134 1382.83 22.8983C1382.71 21.3898 1383.29 19.9861 1384.29 19.0094C1384.8 18.2945 1385.73 16.876 1386.02 16.0732C1386.4 15.0104 1388.19 12.7081 1392.3 12.5596C1396.41 12.4112 1397.42 13.2666 1399.25 14.9928C1399.85 15.9358 1400.56 16.7973 1401.14 17.4206C1402.45 18.1968 1403.38 19.5756 1403.51 21.2093C1403.67 23.1524 1402.66 24.9217 1401.07 25.8284C1401.08 25.8552 1401.08 25.8821 1401.08 25.909C1401.3 28.5843 1399.31 30.9302 1396.63 31.1487C1395.67 31.2271 1394.75 31.0208 1393.96 30.6002Z" fill="#059669"/>
<path d="M1400.6 19.6314C1399.63 18.6127 1398.16 18.4376 1397.32 19.2404C1396.47 20.0433 1396.58 21.52 1397.55 22.5387C1398.52 23.5575 1399.99 23.7326 1400.83 22.9297C1401.67 22.1269 1401.57 20.6502 1400.6 19.6314Z" fill="white"/>
<path d="M1398.2 25.5823C1397.64 24.289 1396.33 23.6123 1395.26 24.0708C1394.19 24.5293 1393.77 25.9495 1394.32 27.2428C1394.88 28.5362 1396.2 29.2129 1397.27 28.7543C1398.34 28.2958 1398.75 26.8756 1398.2 25.5823Z" fill="white"/>
<path d="M1392.61 27.1445C1392.85 25.7582 1392.12 24.4726 1390.97 24.2729C1389.83 24.0733 1388.7 25.0353 1388.46 26.4216C1388.22 27.8078 1388.95 29.0935 1390.1 29.2931C1391.25 29.4927 1392.37 28.5307 1392.61 27.1445Z" fill="white"/>
<path d="M1388.73 23.1374C1389.43 21.9154 1389.18 20.457 1388.17 19.8799C1387.16 19.3029 1385.77 19.8258 1385.07 21.0479C1384.37 22.2699 1384.63 23.7283 1385.64 24.3053C1386.65 24.8823 1388.04 24.3594 1388.73 23.1374Z" fill="white"/>
<path d="M1397.1 17.1555C1396.96 15.5092 1393.92 16.1024 1392.63 16.4884C1391.31 16.4086 1388.1 16.1388 1388.24 17.7852C1387.9 19.4068 1391.94 24.0473 1393.22 23.6614C1394.59 23.6459 1397.18 18.7017 1397.1 17.1555Z" fill="white"/>
<path d="M1211.49 34.3966C1209.03 36.2653 1206.03 37.4774 1202.73 37.7471C1193.53 38.4982 1185.47 31.6533 1184.72 22.4577C1178.49 20.4394 1173.78 14.8449 1173.21 7.9169C1172.79 2.73051 1174.78 -2.09578 1178.25 -5.45376C1179.99 -7.9114 1183.2 -12.7886 1184.19 -15.5486C1185.51 -19.2024 1191.63 -27.1181 1205.77 -27.6285C1219.92 -28.1388 1223.38 -25.1977 1229.67 -19.263C1231.72 -16.0207 1234.18 -13.059 1236.16 -10.9161C1240.67 -8.24743 1243.85 -3.50707 1244.31 2.10986C1244.86 8.79032 1241.4 14.8733 1235.94 17.9905C1235.94 18.0827 1235.95 18.1751 1235.96 18.2678C1236.71 27.4657 1229.86 35.531 1220.67 36.2822C1217.36 36.5519 1214.21 35.8424 1211.49 34.3966Z" fill="#059669"/>
<path d="M1234.31 -3.31592C1230.97 -6.81854 1225.92 -7.4204 1223.02 -4.66021C1220.13 -1.90001 1220.48 3.17701 1223.82 6.67964C1227.16 10.1823 1232.21 10.7841 1235.11 8.02394C1238.01 5.26374 1237.65 0.186715 1234.31 -3.31592Z" fill="white"/>
<path d="M1226.06 17.1436C1224.15 12.6971 1219.62 10.3705 1215.95 11.947C1212.27 13.5235 1210.83 18.4061 1212.74 22.8527C1214.64 27.2992 1219.17 29.6258 1222.85 28.0493C1226.53 26.4728 1227.96 21.5901 1226.06 17.1436Z" fill="white"/>
<path d="M1206.85 22.5145C1207.68 17.7483 1205.16 13.3283 1201.22 12.6419C1197.28 11.9556 1193.41 15.263 1192.58 20.0291C1191.75 24.7952 1194.27 29.2153 1198.21 29.9016C1202.15 30.5879 1206.02 27.2806 1206.85 22.5145Z" fill="white"/>
<path d="M1193.51 8.73788C1195.91 4.53644 1195.04 -0.477689 1191.56 -2.4615C1188.09 -4.4453 1183.33 -2.64756 1180.93 1.55388C1178.53 5.75531 1179.4 10.7694 1182.88 12.7533C1186.35 14.7371 1191.11 12.9393 1193.51 8.73788Z" fill="white"/>
<path d="M1222.27 -11.8283C1221.8 -17.4885 1211.33 -15.4489 1206.93 -14.1218C1202.39 -14.3962 1191.35 -15.3238 1191.81 -9.66354C1190.66 -4.08809 1204.53 11.8663 1208.94 10.5393C1213.64 10.4862 1222.55 -6.51249 1222.27 -11.8283Z" fill="white"/>
</g>
<path d="M53.214 96.622C51.774 96.946 50.298 97.162 48.786 97.27C47.31 97.414 45.852 97.486 44.412 97.486C43.008 97.486 41.91 97.45 41.118 97.378C40.362 97.306 39.354 97.126 38.094 96.838C36.834 96.55 35.682 96.154 34.638 95.65C33.594 95.146 32.478 94.408 31.29 93.436C30.138 92.464 29.166 91.312 28.374 89.98C26.538 86.884 25.62 82.888 25.62 77.992C25.62 74.716 26.124 71.818 27.132 69.298C28.176 66.778 29.418 64.834 30.858 63.466C32.334 62.098 34.008 61 35.88 60.172C38.904 58.804 41.946 58.12 45.006 58.12C49.398 58.12 52.548 58.48 54.456 59.2C55.32 59.524 56.094 60.028 56.778 60.712C57.462 61.396 57.804 62.386 57.804 63.682C57.804 64.978 57.48 66.616 56.832 68.596C56.22 70.576 55.32 71.566 54.132 71.566C53.772 71.566 52.44 71.278 50.136 70.702C47.832 70.126 46.266 69.838 45.438 69.838C44.178 69.838 43.098 70.54 42.198 71.944C41.334 73.348 40.902 75.346 40.902 77.938C40.902 80.53 41.28 82.546 42.036 83.986C42.828 85.426 43.854 86.146 45.114 86.146C46.014 86.146 47.634 85.786 49.974 85.066C52.35 84.31 53.736 83.932 54.132 83.932C55.248 83.932 56.112 84.958 56.724 87.01C57.372 89.062 57.696 90.718 57.696 91.978C57.696 93.238 57.3 94.246 56.508 95.002C55.752 95.722 54.654 96.262 53.214 96.622ZM71.3175 97.486C68.0415 97.486 65.4855 96.712 63.6495 95.164C62.8575 94.516 62.1735 93.562 61.5975 92.302C61.0575 91.042 60.7875 89.566 60.7875 87.874C60.7875 86.182 61.1835 84.706 61.9755 83.446C62.8035 82.186 63.7935 81.214 64.9455 80.53C66.0975 79.846 67.4475 79.288 68.9955 78.856C71.3355 78.244 73.9095 77.938 76.7175 77.938H78.4995C78.4995 76.462 77.9775 75.418 76.9335 74.806C76.5375 74.554 75.8895 74.428 74.9895 74.428C74.1255 74.428 73.0635 74.662 71.8035 75.13C70.5795 75.598 69.5535 76.084 68.7255 76.588C67.8975 77.056 67.3395 77.29 67.0515 77.29C66.4035 77.29 65.5215 76.444 64.4055 74.752C63.2895 73.024 62.7315 71.458 62.7315 70.054C62.7315 69.586 63.3975 68.974 64.7295 68.218C66.0615 67.462 67.9335 66.778 70.3455 66.166C72.7935 65.518 75.1695 65.194 77.4735 65.194C79.7775 65.194 81.7575 65.392 83.4135 65.788C85.1055 66.148 86.4735 66.598 87.5175 67.138C88.5975 67.678 89.4975 68.398 90.2175 69.298C90.9735 70.198 91.5315 71.008 91.8915 71.728C92.2875 72.448 92.5935 73.384 92.8095 74.536C93.0255 75.868 93.1335 77.506 93.1335 79.45V95.704C93.1335 96.1 92.1615 96.424 90.2175 96.676C88.3095 96.892 86.4015 97 84.4935 97C82.6215 97 81.3975 96.946 80.8215 96.838C80.2815 96.73 79.9575 96.604 79.8495 96.46C79.7415 96.316 79.6515 96.064 79.5795 95.704L79.1475 92.626H78.7155C77.8155 95.866 75.3495 97.486 71.3175 97.486ZM78.5535 88.522V82.204C77.6175 82.204 76.8615 82.6 76.2855 83.392C75.7095 84.184 75.4215 85.084 75.4215 86.092C75.4215 88.468 75.9615 89.656 77.0415 89.656C77.5095 89.656 77.8695 89.548 78.1215 89.332C78.4095 89.08 78.5535 88.81 78.5535 88.522ZM90.7035 59.794C90.7035 60.334 89.7675 61.18 87.8955 62.332C86.0595 63.484 84.4395 64.06 83.0355 64.06C81.6675 64.06 80.0115 63.754 78.0675 63.142C76.1595 62.494 74.9175 62.17 74.3415 62.17C73.8015 62.17 72.7395 62.494 71.1555 63.142C69.5715 63.754 68.4555 64.06 67.8075 64.06C67.1595 64.06 66.4755 63.43 65.7555 62.17C65.0715 60.874 64.7295 59.884 64.7295 59.2C64.7295 58.588 65.7015 57.724 67.6455 56.608C69.6255 55.456 71.2635 54.88 72.5595 54.88C73.8555 54.88 75.4395 55.186 77.3115 55.798C79.2195 56.41 80.5875 56.716 81.4155 56.716C81.6675 56.716 82.5495 56.41 84.0615 55.798C85.6095 55.186 86.7255 54.88 87.4095 54.88C88.1295 54.88 88.8495 55.546 89.5695 56.878C90.3255 58.21 90.7035 59.182 90.7035 59.794ZM113.555 97.486C110.855 97.486 108.533 97.252 106.589 96.784C104.645 96.316 102.881 95.488 101.297 94.3C98.0212 91.924 96.3832 87.496 96.3832 81.016C96.3832 75.256 98.0572 71.134 101.405 68.65C104.537 66.346 108.587 65.194 113.555 65.194C115.679 65.194 117.497 65.302 119.009 65.518C120.521 65.698 122.051 66.112 123.599 66.76C125.183 67.408 126.443 68.29 127.379 69.406C128.351 70.522 129.143 72.07 129.755 74.05C130.367 75.994 130.673 78.316 130.673 81.016C130.673 86.488 129.125 90.61 126.029 93.382C122.933 96.118 118.775 97.486 113.555 97.486ZM111.665 86.956C111.917 88.252 112.169 89.026 112.421 89.278C112.709 89.53 113.069 89.656 113.501 89.656C113.969 89.656 114.329 89.53 114.581 89.278C114.869 89.026 115.121 88.252 115.337 86.956C115.589 85.66 115.715 84.04 115.715 82.096C115.715 80.116 115.661 78.604 115.553 77.56C115.481 76.48 115.373 75.652 115.229 75.076C115.121 74.5 114.959 74.05 114.743 73.726C114.419 73.258 114.023 73.024 113.555 73.024C113.123 73.024 112.763 73.168 112.475 73.456C112.187 73.708 111.917 74.5 111.665 75.832C111.413 77.128 111.287 78.982 111.287 81.394C111.287 83.806 111.413 85.66 111.665 86.956ZM151.386 97H138.642C136.878 97 135.69 96.874 135.078 96.622C134.466 96.37 134.16 95.956 134.16 95.38V61.306C134.16 60.37 134.556 59.704 135.348 59.308C136.14 58.876 137.508 58.66 139.452 58.66H151.602C158.514 58.66 163.284 60.028 165.912 62.764C168.54 65.464 169.854 70.396 169.854 77.56C169.854 84.724 168.486 89.764 165.75 92.68C163.014 95.56 158.226 97 151.386 97ZM150.954 66.706C150.09 66.706 149.514 66.778 149.226 66.922V88.738L151.278 88.954C152.358 88.954 153.168 88.09 153.708 86.362C154.284 84.634 154.572 81.646 154.572 77.398C154.572 73.15 154.284 70.306 153.708 68.866C153.132 67.426 152.214 66.706 150.954 66.706ZM190.02 97.486C187.32 97.486 184.998 97.252 183.054 96.784C181.11 96.316 179.346 95.488 177.762 94.3C174.486 91.924 172.848 87.496 172.848 81.016C172.848 75.256 174.522 71.134 177.87 68.65C181.002 66.346 185.052 65.194 190.02 65.194C192.144 65.194 193.962 65.302 195.474 65.518C196.986 65.698 198.516 66.112 200.064 66.76C201.648 67.408 202.908 68.29 203.844 69.406C204.816 70.522 205.608 72.07 206.22 74.05C206.832 75.994 207.138 78.316 207.138 81.016C207.138 86.488 205.59 90.61 202.494 93.382C199.398 96.118 195.24 97.486 190.02 97.486ZM188.13 86.956C188.382 88.252 188.634 89.026 188.886 89.278C189.174 89.53 189.534 89.656 189.966 89.656C190.434 89.656 190.794 89.53 191.046 89.278C191.334 89.026 191.586 88.252 191.802 86.956C192.054 85.66 192.18 84.04 192.18 82.096C192.18 80.116 192.126 78.604 192.018 77.56C191.946 76.48 191.838 75.652 191.694 75.076C191.586 74.5 191.424 74.05 191.208 73.726C190.884 73.258 190.488 73.024 190.02 73.024C189.588 73.024 189.228 73.168 188.94 73.456C188.652 73.708 188.382 74.5 188.13 75.832C187.878 77.128 187.752 78.982 187.752 81.394C187.752 83.806 187.878 85.66 188.13 86.956ZM259.549 79.18V95.704C259.549 96.1 258.523 96.424 256.471 96.676C254.455 96.892 252.349 97 250.153 97C247.993 97 246.589 96.91 245.941 96.73C245.293 96.514 244.969 96.172 244.969 95.704V80.746C244.969 75.598 244.447 73.024 243.403 73.024C243.151 73.024 242.899 73.132 242.647 73.348C242.395 73.564 242.269 73.942 242.269 74.482V95.704C242.269 96.1 241.243 96.424 239.191 96.676C237.175 96.892 235.069 97 232.873 97C230.677 97 229.255 96.91 228.607 96.73C227.995 96.514 227.689 96.172 227.689 95.704V80.746C227.689 76.75 227.437 74.356 226.933 73.564C226.681 73.204 226.357 73.024 225.961 73.024C225.277 73.024 224.935 73.51 224.935 74.482V95.704C224.935 96.1 223.909 96.424 221.857 96.676C219.805 96.892 217.681 97 215.485 97C213.325 97 211.921 96.91 211.273 96.73C210.661 96.514 210.355 96.172 210.355 95.704V69.082C210.355 68.326 211.381 67.57 213.433 66.814C215.521 66.058 217.717 65.68 220.021 65.68C222.325 65.68 223.621 66.346 223.909 67.678L224.395 70.054H224.773C225.817 68.002 227.545 66.544 229.957 65.68C230.965 65.356 232.261 65.194 233.845 65.194C237.013 65.194 239.317 66.814 240.757 70.054C241.225 68.974 242.395 67.894 244.267 66.814C246.139 65.734 248.209 65.194 250.477 65.194C254.041 65.194 256.435 66.31 257.659 68.542C258.919 70.738 259.549 74.284 259.549 79.18ZM277.987 68.164V95.704C277.987 96.1 276.943 96.424 274.855 96.676C272.803 96.892 270.679 97 268.483 97C266.323 97 264.919 96.91 264.271 96.73C263.659 96.514 263.353 96.172 263.353 95.704V69.136C263.353 68.344 264.379 67.57 266.431 66.814C268.483 66.058 270.697 65.68 273.073 65.68C276.349 65.68 277.987 66.508 277.987 68.164ZM276.097 54.88C276.925 54.88 277.753 55.564 278.581 56.932C279.445 58.3 279.877 59.992 279.877 62.008C279.877 62.548 278.311 63.034 275.179 63.466C272.083 63.862 269.509 64.06 267.457 64.06C266.773 64.06 266.143 63.628 265.567 62.764C265.027 61.9 264.757 60.91 264.757 59.794C264.757 58.642 266.089 57.544 268.753 56.5C271.453 55.42 273.901 54.88 276.097 54.88ZM314.319 79.072V95.704C314.319 96.1 313.293 96.424 311.241 96.676C309.189 96.892 307.065 97 304.869 97C302.709 97 301.305 96.91 300.657 96.73C300.045 96.514 299.739 96.172 299.739 95.704V78.532C299.739 76.912 299.667 75.85 299.523 75.346C299.415 74.842 299.307 74.392 299.199 73.996C298.947 73.312 298.497 72.97 297.849 72.97C296.841 72.97 296.337 73.456 296.337 74.428V95.704C296.337 96.1 295.311 96.424 293.259 96.676C291.243 96.892 289.137 97 286.941 97C284.781 97 283.377 96.91 282.729 96.73C282.081 96.514 281.757 96.172 281.757 95.704V69.082C281.757 68.326 282.783 67.57 284.835 66.814C286.923 66.058 289.119 65.68 291.423 65.68C293.727 65.68 295.023 66.346 295.311 67.678L295.797 70.054H296.175C297.219 67.966 299.019 66.508 301.575 65.68C302.619 65.356 303.771 65.194 305.031 65.194C308.667 65.194 311.115 66.292 312.375 68.488C313.671 70.648 314.319 74.176 314.319 79.072ZM332.941 69.082V95.704C332.941 96.1 331.897 96.424 329.809 96.676C327.757 96.892 325.633 97 323.437 97C321.277 97 319.873 96.91 319.225 96.73C318.613 96.514 318.307 96.172 318.307 95.704V70.054C318.307 69.262 319.315 68.488 321.331 67.732C323.383 66.94 325.615 66.544 328.027 66.544C331.303 66.544 332.941 67.39 332.941 69.082ZM325.597 54.88C327.973 54.88 329.827 55.24 331.159 55.96C332.527 56.644 333.211 57.904 333.211 59.74C333.211 62.98 330.691 64.6 325.651 64.6C320.611 64.6 318.091 62.98 318.091 59.74C318.091 56.5 320.593 54.88 325.597 54.88ZM353.602 97.486C350.902 97.486 348.58 97.252 346.636 96.784C344.692 96.316 342.928 95.488 341.344 94.3C338.068 91.924 336.43 87.496 336.43 81.016C336.43 75.256 338.104 71.134 341.452 68.65C344.584 66.346 348.634 65.194 353.602 65.194C355.726 65.194 357.544 65.302 359.056 65.518C360.568 65.698 362.098 66.112 363.646 66.76C365.23 67.408 366.49 68.29 367.426 69.406C368.398 70.522 369.19 72.07 369.802 74.05C370.414 75.994 370.72 78.316 370.72 81.016C370.72 86.488 369.172 90.61 366.076 93.382C362.98 96.118 358.822 97.486 353.602 97.486ZM351.712 86.956C351.964 88.252 352.216 89.026 352.468 89.278C352.756 89.53 353.116 89.656 353.548 89.656C354.016 89.656 354.376 89.53 354.628 89.278C354.916 89.026 355.168 88.252 355.384 86.956C355.636 85.66 355.762 84.04 355.762 82.096C355.762 80.116 355.708 78.604 355.6 77.56C355.528 76.48 355.42 75.652 355.276 75.076C355.168 74.5 355.006 74.05 354.79 73.726C354.466 73.258 354.07 73.024 353.602 73.024C353.17 73.024 352.81 73.168 352.522 73.456C352.234 73.708 351.964 74.5 351.712 75.832C351.46 77.128 351.334 78.982 351.334 81.394C351.334 83.806 351.46 85.66 351.712 86.956Z" fill="#ECFDF5"/>
<path d="M34.016 135.384C32.224 135.384 30.5067 135.149 28.864 134.68C27.2213 134.189 25.8987 133.56 24.896 132.792L26.656 128.888C27.616 129.571 28.7467 130.136 30.048 130.584C31.3707 131.011 32.704 131.224 34.048 131.224C35.072 131.224 35.8933 131.128 36.512 130.936C37.152 130.723 37.6213 130.435 37.92 130.072C38.2187 129.709 38.368 129.293 38.368 128.824C38.368 128.227 38.1333 127.757 37.664 127.416C37.1947 127.053 36.576 126.765 35.808 126.552C35.04 126.317 34.1867 126.104 33.248 125.912C32.3307 125.699 31.4027 125.443 30.464 125.144C29.5467 124.845 28.704 124.461 27.936 123.992C27.168 123.523 26.5387 122.904 26.048 122.136C25.5787 121.368 25.344 120.387 25.344 119.192C25.344 117.912 25.6853 116.749 26.368 115.704C27.072 114.637 28.1173 113.795 29.504 113.176C30.912 112.536 32.672 112.216 34.784 112.216C36.192 112.216 37.5787 112.387 38.944 112.728C40.3093 113.048 41.5147 113.539 42.56 114.2L40.96 118.136C39.9147 117.539 38.8693 117.101 37.824 116.824C36.7787 116.525 35.7547 116.376 34.752 116.376C33.7493 116.376 32.928 116.493 32.288 116.728C31.648 116.963 31.1893 117.272 30.912 117.656C30.6347 118.019 30.496 118.445 30.496 118.936C30.496 119.512 30.7307 119.981 31.2 120.344C31.6693 120.685 32.288 120.963 33.056 121.176C33.824 121.389 34.6667 121.603 35.584 121.816C36.5227 122.029 37.4507 122.275 38.368 122.552C39.3067 122.829 40.16 123.203 40.928 123.672C41.696 124.141 42.3147 124.76 42.784 125.528C43.2747 126.296 43.52 127.267 43.52 128.44C43.52 129.699 43.168 130.851 42.464 131.896C41.76 132.941 40.704 133.784 39.296 134.424C37.9093 135.064 36.1493 135.384 34.016 135.384ZM57.2703 135V131.64L56.9503 130.904V124.888C56.9503 123.821 56.6196 122.989 55.9583 122.392C55.3183 121.795 54.3263 121.496 52.9823 121.496C52.0649 121.496 51.1583 121.645 50.2623 121.944C49.3876 122.221 48.6409 122.605 48.0223 123.096L46.2303 119.608C47.1689 118.947 48.2996 118.435 49.6223 118.072C50.9449 117.709 52.2889 117.528 53.6543 117.528C56.2783 117.528 58.3156 118.147 59.7663 119.384C61.2169 120.621 61.9423 122.552 61.9423 125.176V135H57.2703ZM52.0223 135.256C50.6783 135.256 49.5263 135.032 48.5663 134.584C47.6063 134.115 46.8703 133.485 46.3583 132.696C45.8463 131.907 45.5903 131.021 45.5903 130.04C45.5903 129.016 45.8356 128.12 46.3263 127.352C46.8383 126.584 47.6383 125.987 48.7263 125.56C49.8143 125.112 51.2329 124.888 52.9823 124.888H57.5583V127.8H53.5263C52.3529 127.8 51.5423 127.992 51.0943 128.376C50.6676 128.76 50.4543 129.24 50.4543 129.816C50.4543 130.456 50.6996 130.968 51.1903 131.352C51.7023 131.715 52.3956 131.896 53.2703 131.896C54.1023 131.896 54.8489 131.704 55.5103 131.32C56.1716 130.915 56.6516 130.328 56.9503 129.56L57.7183 131.864C57.3556 132.973 56.6943 133.816 55.7343 134.392C54.7743 134.968 53.5369 135.256 52.0223 135.256ZM73.5003 135.256C71.4736 135.256 69.8949 134.744 68.7643 133.72C67.6336 132.675 67.0683 131.128 67.0683 129.08V113.976H72.0603V129.016C72.0603 129.741 72.2523 130.307 72.6363 130.712C73.0203 131.096 73.5429 131.288 74.2043 131.288C74.9936 131.288 75.6656 131.075 76.2203 130.648L77.5643 134.168C77.0523 134.531 76.4336 134.808 75.7083 135C75.0043 135.171 74.2683 135.256 73.5003 135.256ZM64.4123 122.008V118.168H76.3483V122.008H64.4123ZM87.6305 135.256C86.2012 135.256 84.9212 134.979 83.7905 134.424C82.6812 133.869 81.8172 133.027 81.1985 131.896C80.5798 130.744 80.2705 129.283 80.2705 127.512V117.784H85.2625V126.776C85.2625 128.205 85.5612 129.261 86.1585 129.944C86.7772 130.605 87.6412 130.936 88.7505 130.936C89.5185 130.936 90.2012 130.776 90.7985 130.456C91.3958 130.115 91.8652 129.603 92.2065 128.92C92.5478 128.216 92.7185 127.341 92.7185 126.296V117.784H97.7105V135H92.9745V130.264L93.8385 131.64C93.2625 132.835 92.4092 133.741 91.2785 134.36C90.1692 134.957 88.9532 135.256 87.6305 135.256ZM112.511 135.256C110.997 135.256 109.695 134.936 108.607 134.296C107.519 133.656 106.687 132.685 106.111 131.384C105.535 130.061 105.247 128.397 105.247 126.392C105.247 124.365 105.546 122.701 106.143 121.4C106.762 120.099 107.615 119.128 108.703 118.488C109.791 117.848 111.061 117.528 112.511 117.528C114.133 117.528 115.583 117.891 116.863 118.616C118.165 119.341 119.189 120.365 119.935 121.688C120.703 123.011 121.087 124.579 121.087 126.392C121.087 128.184 120.703 129.741 119.935 131.064C119.189 132.387 118.165 133.421 116.863 134.168C115.583 134.893 114.133 135.256 112.511 135.256ZM102.335 135V111.256H107.327V121.272L107.007 126.36L107.103 131.48V135H102.335ZM111.647 131.16C112.479 131.16 113.215 130.968 113.855 130.584C114.517 130.2 115.039 129.656 115.423 128.952C115.829 128.227 116.031 127.373 116.031 126.392C116.031 125.389 115.829 124.536 115.423 123.832C115.039 123.128 114.517 122.584 113.855 122.2C113.215 121.816 112.479 121.624 111.647 121.624C110.815 121.624 110.069 121.816 109.407 122.2C108.746 122.584 108.223 123.128 107.839 123.832C107.455 124.536 107.263 125.389 107.263 126.392C107.263 127.373 107.455 128.227 107.839 128.952C108.223 129.656 108.746 130.2 109.407 130.584C110.069 130.968 110.815 131.16 111.647 131.16ZM134.708 135V131.64L134.388 130.904V124.888C134.388 123.821 134.057 122.989 133.396 122.392C132.756 121.795 131.764 121.496 130.42 121.496C129.502 121.496 128.596 121.645 127.7 121.944C126.825 122.221 126.078 122.605 125.46 123.096L123.668 119.608C124.606 118.947 125.737 118.435 127.06 118.072C128.382 117.709 129.726 117.528 131.092 117.528C133.716 117.528 135.753 118.147 137.204 119.384C138.654 120.621 139.38 122.552 139.38 125.176V135H134.708ZM129.46 135.256C128.116 135.256 126.964 135.032 126.004 134.584C125.044 134.115 124.308 133.485 123.796 132.696C123.284 131.907 123.028 131.021 123.028 130.04C123.028 129.016 123.273 128.12 123.764 127.352C124.276 126.584 125.076 125.987 126.164 125.56C127.252 125.112 128.67 124.888 130.42 124.888H134.996V127.8H130.964C129.79 127.8 128.98 127.992 128.532 128.376C128.105 128.76 127.892 129.24 127.892 129.816C127.892 130.456 128.137 130.968 128.628 131.352C129.14 131.715 129.833 131.896 130.708 131.896C131.54 131.896 132.286 131.704 132.948 131.32C133.609 130.915 134.089 130.328 134.388 129.56L135.156 131.864C134.793 132.973 134.132 133.816 133.172 134.392C132.212 134.968 130.974 135.256 129.46 135.256Z" fill="#18181B"/>
<rect x="1603.17" y="58.5393" width="50.209" height="50.209" rx="8.51799" fill="white"/>
<rect x="1657.98" y="58.5393" width="50.209" height="50.209" rx="8.51799" fill="white"/>
<rect x="1603.17" y="113.352" width="50.209" height="50.209" rx="8.51799" fill="white"/>
<rect x="1657.98" y="113.352" width="50.209" height="50.209" rx="8.51799" fill="white"/>
<path d="M1599.02 81.3306L1653.35 48.2496C1654.81 47.3575 1656.65 47.3537 1658.12 48.2396L1712.98 81.3306" stroke="#064E3B" stroke-width="11.741" stroke-linecap="round" stroke-linejoin="round"/>
<path d="M1576 84.7838L1653.24 37.8826C1654.71 36.9946 1656.54 36.9908 1658.01 37.8727L1736 84.7838" stroke="#022C22" stroke-width="11.741" stroke-linecap="round" stroke-linejoin="round"/>
<path fill-rule="evenodd" clip-rule="evenodd" d="M1635.95 95.7824C1636.57 97.5217 1637.97 100.778 1639.98 101.223C1641.77 101.62 1644.03 101.351 1645.8 101.141C1645.98 101.119 1646.15 101.098 1646.32 101.079C1646.56 101.051 1646.8 101.153 1646.95 101.345C1648.34 103.185 1649.06 104.668 1642.12 109.564C1641.61 109.928 1641.11 110.275 1640.63 110.61C1634.33 115.032 1631.11 117.286 1625.94 126.378C1624.53 129.261 1623.21 134.469 1625.18 140.715C1625.21 140.784 1625.22 140.863 1625.21 140.934C1624.82 143.181 1612.39 135.93 1614.41 128.19C1614.53 127.711 1614.18 127.241 1613.77 127.522C1613.59 127.643 1613.43 127.806 1613.3 128.022C1612.82 128.844 1612.31 131.31 1612.55 133.305C1612.79 135.301 1615.8 144.694 1630.72 146.807C1636.34 147.003 1646.93 147.183 1647.6 146.338C1648.45 145.281 1648.69 144.459 1645.68 144.107C1643.69 143.875 1642.94 142.935 1642.73 142.262C1642.66 142.029 1642.8 141.802 1643 141.662C1643.77 141.116 1644.91 140.043 1645.08 138.824C1645.32 137.062 1648.21 133.305 1648.93 133.305C1649.65 133.305 1650.37 135.555 1650.49 136.259C1650.49 136.307 1650.51 136.38 1650.52 136.477C1650.71 137.517 1651.35 141.187 1651.46 143.05C1651.58 144.029 1652.32 145.985 1654.34 145.985C1654.74 145.985 1655.14 145.991 1655.53 145.997C1657.61 146.027 1659.44 146.054 1659.64 145.163C1659.88 144.107 1659.4 143.637 1656.87 142.228C1654.87 141.111 1654.07 134.005 1654.72 129.917C1654.73 129.847 1654.75 129.781 1654.78 129.718L1655.86 127.612C1656.21 128.42 1656.43 130.133 1656.55 131.113C1656.59 131.398 1656.62 131.62 1656.64 131.742C1656.74 132.288 1657 136.37 1657.12 138.342C1657.24 139.291 1657.99 141.187 1660.02 141.187C1660.41 141.187 1660.81 141.193 1661.2 141.199C1663.29 141.228 1665.12 141.254 1665.32 140.391C1665.54 139.438 1664.69 138.978 1662.53 137.82C1662.37 137.732 1662.2 137.641 1662.02 137.546C1660 136.459 1661.09 120.419 1661.69 112.208C1661.69 112.126 1661.68 112.046 1661.66 111.967L1659.84 105.77C1659.81 105.685 1659.8 105.595 1659.81 105.506L1659.99 103.755C1660.77 101.43 1661.06 100.435 1661.29 99.0792C1661.5 97.1003 1661.58 94.7268 1661.06 92.515C1661.99 91.2013 1663.2 89.3254 1663.2 88.4623C1663.2 87.3485 1660.64 86.0132 1657.55 85.1749C1655.38 84.5879 1653.24 84.7176 1652.46 85.4465C1652.42 85.4465 1652.34 85.4421 1652.25 85.4363C1651.42 85.3844 1648.83 85.2231 1645.42 87.1744C1645.38 87.1961 1645.35 87.2203 1645.31 87.2504C1644.81 87.7233 1644.18 88.9244 1643.54 90.1289C1642.75 91.6111 1641.96 93.0982 1641.42 93.2391C1641.26 93.28 1641.04 93.3295 1640.76 93.3893C1639.39 93.6853 1636.86 94.235 1636.02 95.2628C1635.9 95.4078 1635.89 95.6058 1635.95 95.7824Z" fill="#047857"/>
<path d="M1665.33 144.073C1667.06 144.945 1669.84 144.08 1671.46 143.516C1672.13 143.285 1672.84 143.267 1673.52 143.458L1676.45 144.284C1676.79 144.382 1677.15 144.428 1677.51 144.422L1690.5 144.191C1691 144.182 1691.5 144.078 1691.94 143.843C1694.67 142.389 1699.08 138.869 1700.41 134.897C1702.21 129.496 1701.61 123.509 1700.41 122.1C1699.2 120.691 1698.44 122.69 1698.39 123.039C1698.27 123.861 1698.48 124.57 1698.12 130.088C1697.83 134.503 1693.23 138.224 1691.26 139.241C1691.26 139.202 1691.89 138.424 1691.98 137.954C1692.1 137.367 1693.31 133.845 1690.78 125.275C1688.48 117.479 1678.52 111.432 1676.82 110.314C1676.65 110.2 1676.66 110.07 1676.83 109.952C1679.59 108.015 1681.64 106.085 1681.75 104.376C1681.87 102.615 1680.07 101.911 1680.07 101.793C1680.07 99.8856 1677.89 98.4831 1676.7 97.9682C1676.64 97.9443 1676.63 97.8716 1676.67 97.8294C1676.69 97.8118 1676.7 97.787 1676.69 97.7619C1676.65 97.3014 1676.52 96.1429 1676.34 94.8664C1676.1 93.2227 1675.54 92.6756 1675.37 92.6356C1675.1 92.5702 1674.54 93.8285 1674.18 94.4981C1674.17 94.509 1674.17 94.5201 1674.16 94.5318L1674.14 94.6057C1674.08 94.8079 1673.78 94.7613 1673.78 94.5489C1673.78 94.5259 1673.77 94.5041 1673.76 94.4828C1673.67 94.2534 1673.09 92.8478 1672.73 92.9878C1671.97 93.2742 1669.76 96.7449 1668.79 97.9189C1667.83 99.093 1664.94 105.418 1663.49 110.596C1662.04 115.762 1665.5 127.975 1665.74 128.797C1665.93 129.441 1666.91 132.923 1667.4 134.682C1667.42 134.751 1667.44 134.816 1667.45 134.887C1667.61 135.671 1668.61 140.709 1667.43 140.89C1666.3 141.061 1664.38 141.726 1664.57 143.09C1664.63 143.52 1664.94 143.877 1665.33 144.073Z" fill="#047857"/>
</g>
<defs>
<filter id="filter0_f_283_370" x="982.525" y="24.1821" width="22.7133" height="21.0481" filterUnits="userSpaceOnUse" color-interpolation-filters="sRGB">
<feFlood flood-opacity="0" result="BackgroundImageFix"/>
<feBlend mode="normal" in="SourceGraphic" in2="BackgroundImageFix" result="shape"/>
<feGaussianBlur stdDeviation="0.5" result="effect1_foregroundBlur_283_370"/>
</filter>
<filter id="filter1_f_283_370" x="810.409" y="146" width="36.1575" height="35.5403" filterUnits="userSpaceOnUse" color-interpolation-filters="sRGB">
<feFlood flood-opacity="0" result="BackgroundImageFix"/>
<feBlend mode="normal" in="SourceGraphic" in2="BackgroundImageFix" result="shape"/>
<feGaussianBlur stdDeviation="1" result="effect1_foregroundBlur_283_370"/>
</filter>
<filter id="filter2_f_283_370" x="1159.16" y="124.831" width="22.7133" height="21.0481" filterUnits="userSpaceOnUse" color-interpolation-filters="sRGB">
<feFlood flood-opacity="0" result="BackgroundImageFix"/>
<feBlend mode="normal" in="SourceGraphic" in2="BackgroundImageFix" result="shape"/>
<feGaussianBlur stdDeviation="0.5" result="effect1_foregroundBlur_283_370"/>
</filter>
<filter id="filter3_f_283_370" x="1317.83" y="-11.4784" width="36.1575" height="35.5403" filterUnits="userSpaceOnUse" color-interpolation-filters="sRGB">
<feFlood flood-opacity="0" result="BackgroundImageFix"/>
<feBlend mode="normal" in="SourceGraphic" in2="BackgroundImageFix" result="shape"/>
<feGaussianBlur stdDeviation="1" result="effect1_foregroundBlur_283_370"/>
</filter>
<clipPath id="clip0_283_370">
<rect width="1760" height="200" rx="8" fill="white"/>
</clipPath>
</defs>
</svg>
