<svg width="32" height="32" viewBox="0 0 32 32" fill="none" xmlns="http://www.w3.org/2000/svg">
<path d="M27.2267 6.10669C26.5578 5.43546 25.7629 4.90287 24.8878 4.53948C24.0126 4.17608 23.0743 3.98901 22.1267 3.98901C21.179 3.98901 20.2407 4.17608 19.3656 4.53948C18.4904 4.90287 17.6956 5.43546 17.0267 6.10669L16 7.14669L14.9733 6.10669C14.3044 5.43546 13.5096 4.90287 12.6344 4.53948C11.7592 4.17608 10.8209 3.98901 9.87333 3.98901C8.92571 3.98901 7.9874 4.17608 7.11223 4.53948C6.23706 4.90287 5.44223 5.43546 4.77333 6.10669C1.94666 8.93336 1.77333 13.7067 5.33333 17.3334L16 28L26.6667 17.3334C30.2267 13.7067 30.0533 8.93336 27.2267 6.10669Z" stroke="#09090B" stroke-width="2" stroke-linecap="round" stroke-linejoin="round"/>
<path d="M16.0001 7.14673L11.8267 11.3334C11.2991 11.8653 11.0031 12.5842 11.0031 13.3334C11.0031 14.0826 11.2991 14.8015 11.8267 15.3334C12.3586 15.861 13.0775 16.1571 13.8267 16.1571C14.5759 16.1571 15.2948 15.861 15.8267 15.3334L18.8401 12.3867C19.5889 11.6458 20.5999 11.2302 21.6534 11.2302C22.7069 11.2302 23.7178 11.6458 24.4667 12.3867L27.6667 15.5867" stroke="#09090B" stroke-width="2" stroke-linecap="round" stroke-linejoin="round"/>
<path d="M24 19.9999L21.3334 17.3333" stroke="#09090B" stroke-width="2" stroke-linecap="round" stroke-linejoin="round"/>
<path d="M20 23.9999L17.3334 21.3333" stroke="#09090B" stroke-width="2" stroke-linecap="round" stroke-linejoin="round"/>
</svg>
