<svg width="50" height="50" viewBox="0 0 50 50" fill="none" xmlns="http://www.w3.org/2000/svg">
<circle cx="25" cy="25" r="25" fill="#FEF2F2"/>
<path d="M17.8449 32.5301L17.8446 32.5179L17.8446 32.5058C17.845 32.0426 17.9744 31.4855 18.173 30.9028C16.6002 31.512 14.6864 30.8561 13.4983 29.4652C12.0553 27.7758 11.8505 25.1986 13.5234 23.7697C15.1962 22.3408 17.7097 22.9459 19.1527 24.6353C19.7033 25.2798 20.0736 26.0535 20.2281 26.8434C20.8253 25.9224 21.4879 25.0491 22.138 24.391C22.4772 24.0476 22.8343 23.7408 23.1967 23.5177C23.5171 23.3205 23.9127 23.1446 24.3449 23.1324C24.8031 23.0595 25.2456 23.1975 25.5918 23.3586C25.9891 23.5434 26.3939 23.8216 26.7841 24.142C27.519 24.7454 28.2956 25.5758 28.9998 26.4722C29.1014 25.8099 29.347 25.1529 29.7253 24.5665C30.9299 22.6996 33.3401 21.7643 35.1887 22.9571C37.0374 24.1498 37.1785 26.7313 35.974 28.5982C34.9546 30.1782 33.0715 31.0909 31.3962 30.6111C31.4524 30.7822 31.5001 30.951 31.538 31.1162C31.6321 31.5277 31.6785 31.9761 31.5937 32.4023C31.5772 33.25 31.1339 33.8662 30.5062 34.2433C29.9103 34.6013 29.1607 34.7434 28.4683 34.7988C27.1869 34.9015 25.7175 34.7283 24.8224 34.6228C24.7954 34.6196 24.7689 34.6165 24.743 34.6134C23.8092 34.8285 22.3263 35.0683 21.0085 34.9836C20.3194 34.9394 19.5788 34.8015 18.9806 34.4457C18.3305 34.0591 17.8692 33.4202 17.8449 32.5301ZM21.9997 24.1082C19.9336 24.864 17.7889 23.4202 17.0257 21.3337C16.2625 19.2472 16.9694 16.7604 19.0355 16.0046C21.1016 15.2488 23.2463 16.6925 24.0095 18.7791C24.7728 20.8656 24.0659 23.3524 21.9997 24.1082ZM27.313 24.1802C25.1692 23.6858 24.1601 21.3055 24.6594 19.1406C25.1586 16.9757 27.1082 15.2777 29.252 15.7721C31.3957 16.2665 32.4049 18.6468 31.9056 20.8117C31.4063 22.9766 29.4567 24.6746 27.313 24.1802Z" stroke="#F87171" stroke-width="1.73152"/>
</svg>
