<svg width="129" height="121" viewBox="0 0 129 121" fill="none" xmlns="http://www.w3.org/2000/svg">
<path d="M119.026 68.3065C116.907 81.2926 110.004 93.0123 98.7649 100.696C87.5321 108.375 71.8407 112.106 52.0029 108.869C29.8668 105.257 19.2654 98.1458 14.0881 90.1735C8.90544 82.1928 8.90578 73.0237 8.90611 64.4045L8.90611 64.2032C8.90612 55.7699 11.0482 40.1798 18.4903 27.6446C22.1981 21.3994 27.1875 15.9681 33.8304 12.5171C40.4583 9.0739 48.8497 7.54058 59.4835 9.27587C102.702 16.3285 123.197 42.747 119.026 68.3065Z" fill="#10B981" stroke="#10B981" stroke-width="3.02384"/>
<path d="M58.7476 87.539C60.8093 89.9527 64.0991 90.5269 66.0956 88.8216C68.092 87.1163 68.0391 83.7772 65.9774 81.3634C63.9157 78.9497 60.6258 78.3755 58.6294 80.0808C56.6329 81.7861 56.6859 85.1253 58.7476 87.539Z" fill="white"/>
<path d="M64.8846 74.4279C65.9751 77.4091 68.8581 79.0946 71.3239 78.1927C73.7897 77.2907 74.9047 74.1427 73.8142 71.1615C72.7237 68.1803 69.8407 66.4948 67.3748 67.3968C64.909 68.2988 63.7941 71.4467 64.8846 74.4279Z" fill="white"/>
<path d="M77.6583 71.5927C76.945 74.6859 78.4408 77.6717 80.9993 78.2617C83.5577 78.8517 86.2101 76.8225 86.9234 73.7293C87.6367 70.6361 86.141 67.6503 83.5825 67.0602C81.024 66.4702 78.3717 68.4995 77.6583 71.5927Z" fill="white"/>
<path d="M85.9081 81.0939C84.1871 83.7613 84.5805 87.0776 86.7868 88.5011C88.993 89.9246 92.1767 88.9163 93.8977 86.2489C95.6187 83.5815 95.2253 80.2652 93.0191 78.8417C90.8128 77.4182 87.6291 78.4266 85.9081 81.0939Z" fill="white"/>
<path d="M66.3373 93.5451C66.4386 97.2701 73.3731 96.3066 76.3067 95.594C79.269 95.9352 86.4678 96.936 86.3665 93.2109C87.3228 89.5991 78.7986 78.6518 75.865 79.3645C72.7832 79.2319 66.3402 90.0521 66.3373 93.5451Z" fill="white"/>
<path d="M44.5041 60.92C43.1047 61.2699 41.3678 61.4448 39.2936 61.4448C37.2194 61.4448 35.47 61.2699 34.0456 60.92C32.6461 60.5451 31.3716 59.8704 30.222 58.8958C27.9479 56.9715 26.8108 53.2104 26.8108 47.6125C26.8108 42.2146 27.9979 38.5534 30.372 36.6292C31.5465 35.6795 32.8335 35.0173 34.233 34.6424C35.6325 34.2676 37.3068 34.0801 39.2561 34.0801C41.2304 34.0801 42.9172 34.2676 44.3167 34.6424C45.7412 35.0173 47.0407 35.6795 48.2152 36.6292C50.5893 38.5534 51.7764 42.2146 51.7764 47.6125C51.7764 53.2104 50.6393 56.9715 48.3652 58.8958C47.2156 59.8704 45.9286 60.5451 44.5041 60.92ZM38.5064 55.0722C38.7063 55.3971 38.9687 55.5595 39.2936 55.5595C39.6435 55.5595 39.9184 55.3971 40.1183 55.0722C40.3182 54.7223 40.4806 53.9726 40.6056 52.8231C40.7306 51.6735 40.793 50.0366 40.793 47.9124C40.793 45.7882 40.7306 44.1388 40.6056 42.9643C40.4806 41.7647 40.3182 40.9775 40.1183 40.6027C39.9184 40.2028 39.6435 40.0029 39.2936 40.0029C38.9687 40.0029 38.7063 40.1903 38.5064 40.5652C38.0066 41.4149 37.7567 43.8639 37.7567 47.9124C37.7567 51.9359 38.0066 54.3225 38.5064 55.0722ZM74.5522 60.2078C74.5522 60.4827 73.79 60.7076 72.2656 60.8825C70.7412 61.0325 69.2168 61.1074 67.6923 61.1074C66.1679 61.1074 65.1808 61.0449 64.731 60.92C64.3061 60.77 64.0937 60.5326 64.0937 60.2078V55.597H54.7222C53.8726 55.597 53.4477 53.5228 53.4477 49.3744C53.4477 48.8995 54.4598 46.8628 56.4841 43.2642C58.5333 39.6655 59.9453 37.3039 60.72 36.1793C61.0199 35.7545 62.1444 35.3546 64.0937 34.9798C66.043 34.6049 67.9422 34.4175 69.7915 34.4175C72.9653 34.4175 74.5522 35.0048 74.5522 36.1793V60.2078ZM64.731 49.7492L64.7684 41.5773L62.1444 49.7492H64.731Z" fill="white"/>
</svg>
