<svg width="131" height="121" viewBox="0 0 131 121" fill="none" xmlns="http://www.w3.org/2000/svg">
<path d="M119.026 68.3065C116.907 81.2926 110.004 93.0123 98.7649 100.696C87.5321 108.375 71.8407 112.106 52.0029 108.869C29.8668 105.257 19.2654 98.1458 14.0881 90.1735C8.90544 82.1928 8.90578 73.0237 8.90611 64.4045L8.90611 64.2032C8.90612 55.7699 11.0482 40.1798 18.4903 27.6446C22.1981 21.3994 27.1875 15.9681 33.8304 12.5171C40.4583 9.0739 48.8497 7.54058 59.4835 9.27587C102.702 16.3285 123.197 42.747 119.026 68.3065Z" fill="#10B981" stroke="#10B981" stroke-width="3.02384"/>
<path d="M60.7476 87.5387C62.8093 89.9524 66.0991 90.5267 68.0956 88.8214C70.092 87.116 70.0391 83.7769 67.9774 81.3632C65.9157 78.9495 62.6258 78.3752 60.6294 80.0806C58.6329 81.7859 58.6859 85.125 60.7476 87.5387Z" fill="white"/>
<path d="M66.8846 74.4277C67.9751 77.4089 70.8581 79.0944 73.3239 78.1924C75.7897 77.2904 76.9047 74.1425 75.8142 71.1613C74.7237 68.1801 71.8407 66.4946 69.3748 67.3965C66.909 68.2985 65.7941 71.4465 66.8846 74.4277Z" fill="white"/>
<path d="M79.6583 71.5924C78.945 74.6856 80.4408 77.6715 82.9993 78.2615C85.5577 78.8515 88.2101 76.8223 88.9234 73.7291C89.6367 70.6359 88.141 67.65 85.5825 67.06C83.024 66.47 80.3717 68.4992 79.6583 71.5924Z" fill="white"/>
<path d="M87.9081 81.0937C86.1871 83.7611 86.5805 87.0774 88.7868 88.5009C90.993 89.9244 94.1767 88.916 95.8977 86.2486C97.6187 83.5813 97.2253 80.265 95.0191 78.8415C92.8128 77.418 89.6291 78.4263 87.9081 81.0937Z" fill="white"/>
<path d="M68.3373 93.5448C68.4386 97.2699 75.3731 96.3064 78.3067 95.5937C81.269 95.935 88.4678 96.9357 88.3665 93.2107C89.3228 89.5989 80.7986 78.6516 77.865 79.3642C74.7832 79.2316 68.3402 90.0519 68.3373 93.5448Z" fill="white"/>
<path d="M44.5041 60.9202C43.1047 61.2701 41.3678 61.445 39.2936 61.445C37.2194 61.445 35.47 61.2701 34.0456 60.9202C32.6461 60.5454 31.3716 59.8706 30.222 58.896C27.9479 56.9717 26.8108 53.2106 26.8108 47.6128C26.8108 42.2148 27.9979 38.5537 30.372 36.6294C31.5465 35.6798 32.8335 35.0175 34.233 34.6427C35.6325 34.2678 37.3068 34.0804 39.2561 34.0804C41.2304 34.0804 42.9172 34.2678 44.3167 34.6427C45.7412 35.0175 47.0407 35.6798 48.2152 36.6294C50.5893 38.5537 51.7764 42.2148 51.7764 47.6128C51.7764 53.2106 50.6393 56.9717 48.3652 58.896C47.2156 59.8706 45.9286 60.5454 44.5041 60.9202ZM38.5064 55.0724C38.7063 55.3973 38.9687 55.5598 39.2936 55.5598C39.6435 55.5598 39.9184 55.3973 40.1183 55.0724C40.3182 54.7226 40.4806 53.9729 40.6056 52.8233C40.7306 51.6737 40.793 50.0368 40.793 47.9126C40.793 45.7885 40.7306 44.1391 40.6056 42.9645C40.4806 41.765 40.3182 40.9778 40.1183 40.6029C39.9184 40.2031 39.6435 40.0031 39.2936 40.0031C38.9687 40.0031 38.7063 40.1906 38.5064 40.5654C38.0066 41.4151 37.7567 43.8642 37.7567 47.9126C37.7567 51.9361 38.0066 54.3227 38.5064 55.0724ZM74.2524 41.0902C74.2524 43.6143 73.2527 45.5011 71.2535 46.7506C71.5284 46.8755 71.8783 47.1754 72.3031 47.6502C72.7529 48.1251 73.1278 48.5999 73.4277 49.0747C74.2024 50.2992 74.5897 51.7487 74.5897 53.4231C74.5897 56.172 73.6026 58.1963 71.6284 59.4958C69.6541 60.7953 66.9426 61.445 63.4939 61.445C61.7946 61.445 60.1827 61.3076 58.6583 61.0327C57.1588 60.7328 56.0093 60.4079 55.2096 60.0581C54.4099 59.6832 54.01 59.3458 54.01 59.0459C54.01 57.6715 54.1599 56.4594 54.4598 55.4098C54.7597 54.3602 55.0971 53.623 55.472 53.1982C55.8468 52.7483 56.2092 52.5234 56.559 52.5234C56.659 52.5234 57.3213 52.7483 58.5458 53.1982C59.7703 53.648 60.9699 53.8729 62.1444 53.8729C63.344 53.8729 63.9438 53.498 63.9438 52.7483C63.9438 51.7237 62.6817 51.1739 60.1577 51.0989C59.1581 51.074 58.6083 51.049 58.5083 51.024C57.9835 50.849 57.7211 49.7495 57.7211 47.7252C57.7211 45.701 57.9835 44.5889 58.5083 44.389C58.6083 44.339 59.1581 44.314 60.1577 44.314C62.6817 44.264 63.9438 43.7517 63.9438 42.7771C63.9438 42.0274 63.394 41.6525 62.2944 41.6525C61.2198 41.6525 60.0202 41.9149 58.6957 42.4397C57.3712 42.9645 56.6465 43.2269 56.5216 43.2269C55.9468 43.2269 55.422 42.3897 54.9472 40.7154C54.4723 39.041 54.2349 37.8539 54.2349 37.1542C54.2349 36.5045 54.9596 35.8422 56.4091 35.1675C58.0085 34.4427 60.3576 34.0804 63.4564 34.0804C70.6537 34.0804 74.2524 36.417 74.2524 41.0902Z" fill="white"/>
</svg>
