<svg width="126" height="126" viewBox="0 0 126 126" fill="none" xmlns="http://www.w3.org/2000/svg">
<path d="M125 62.7213C125 96.6793 97.2492 124.221 63 124.221C28.7508 124.221 1 96.6793 1 62.7213C1 28.7633 28.7508 1.22131 63 1.22131C97.2492 1.22131 125 28.7633 125 62.7213Z" fill="#FEF2F2" stroke="#FCA5A5" stroke-width="2"/>
<path d="M45.8691 83.5071L45.8688 83.4931L45.8688 83.4791C45.8702 81.7664 46.636 79.3299 47.7553 76.7511C48.8931 74.1297 50.4591 71.2218 52.1882 68.5149C53.9146 65.8125 55.8258 63.2757 57.6634 61.4152C58.5813 60.4859 59.5055 59.7001 60.402 59.1483C61.2404 58.6322 62.1416 58.2668 63.0395 58.2671C63.9506 58.0928 64.9248 58.3536 65.8328 58.776C66.8109 59.2311 67.8566 59.9412 68.9142 60.8096C71.0334 62.5494 73.323 65.0258 75.3841 67.7118C76.2781 68.8768 77.135 70.089 77.9209 71.307C76.9664 68.3327 77.4825 64.7168 79.4421 61.6797C82.579 56.8179 88.5921 54.7148 92.9651 57.5364C97.3382 60.3579 97.9002 66.7033 94.7633 71.5652C91.6264 76.427 85.6133 78.5301 81.2403 75.7085C80.7147 75.3694 80.2442 74.9794 79.8285 74.5472C80.0916 75.0446 80.3372 75.5366 80.5628 76.0203C81.1883 77.361 81.6714 78.6613 81.9435 79.8502C82.1996 80.9694 82.2861 82.064 82.0666 83.023C82.0729 84.9437 81.1213 86.3017 79.6804 87.1673C78.2751 88.0115 76.4124 88.3922 74.5186 88.5439C71.0265 88.8236 66.9891 88.3489 64.4239 88.0472C64.26 88.0279 64.1021 88.0094 63.9508 87.9918C61.3825 88.6017 57.169 89.3035 53.5018 89.0681C51.6343 88.9481 49.7971 88.5794 48.3858 87.7401C46.9146 86.8651 45.9228 85.4798 45.8691 83.5071ZM47.1056 76.1758C43.1485 79.556 36.9084 78.2745 33.1505 73.8751C29.3925 69.4756 29.1024 63.1119 33.0595 59.7318C37.0167 56.3517 43.2568 57.6331 47.0147 62.0326C50.7726 66.432 51.0628 72.7957 47.1056 76.1758ZM55.726 58.2077C50.8385 59.9955 45.4371 56.6183 43.4494 51.1845C41.4618 45.7506 43.4091 39.6853 48.2967 37.8975C53.1842 36.1096 58.5856 39.4868 60.5733 44.9207C62.561 50.3545 60.6136 56.4198 55.726 58.2077ZM71.6767 58.3609C66.6055 57.1914 63.9227 51.4135 65.2229 45.7756C66.5231 40.1376 71.4653 36.1181 76.5364 37.2876C81.6076 38.4571 84.2903 44.2349 82.9902 49.8729C81.69 55.5109 76.7478 59.5303 71.6767 58.3609Z" fill="#FEF2F2" stroke="#FCA5A5" stroke-width="2"/>
</svg>
