<svg width="298" height="409" viewBox="0 0 298 409" fill="none" xmlns="http://www.w3.org/2000/svg">
<g style="mix-blend-mode:multiply" opacity="0.9">
<path d="M248.203 78.4626C249.664 78.2874 251.19 78.514 252.613 79.2014C256.575 81.1159 258.236 85.88 256.323 89.8431C258.394 92.1775 258.98 95.6178 257.538 98.6032C256.458 100.838 254.472 102.341 252.234 102.883C250.926 103.474 248.425 104.702 247.35 105.597C245.926 106.782 241.495 108.556 235.556 105.346C229.617 102.136 228.903 100.089 227.753 96.1287C227.693 94.2997 227.397 92.4866 227.102 91.1274C225.894 88.9407 225.73 86.2213 226.9 83.8009C228.29 80.9222 231.185 79.2583 234.184 79.2968C234.202 79.2567 234.221 79.2167 234.24 79.1768C236.155 75.2133 240.921 73.5526 244.884 75.4675C246.307 76.1548 247.433 77.2095 248.203 78.4626Z" fill="#DC2626"/>
<path d="M229.7 88.4499C230.225 90.6969 232.157 92.1662 234.016 91.7317C235.874 91.2973 236.955 89.1235 236.43 86.8766C235.905 84.6296 233.972 83.1603 232.114 83.5948C230.255 84.0292 229.174 86.2029 229.7 88.4499Z" fill="white"/>
<path d="M238.04 82.0335C237.749 84.3225 239.048 86.3735 240.941 86.6145C242.834 86.8555 244.605 85.1952 244.897 82.9061C245.188 80.6171 243.889 78.5661 241.996 78.3251C240.103 78.0841 238.332 79.7444 238.04 82.0335Z" fill="white"/>
<path d="M247.235 84.4681C245.741 86.2272 245.71 88.6546 247.165 89.8899C248.62 91.1252 251.01 90.7006 252.504 88.9415C253.997 87.1825 254.028 84.7551 252.573 83.5198C251.119 82.2845 248.728 82.7091 247.235 84.4681Z" fill="white"/>
<path d="M249.389 93.3578C247.387 94.5054 246.534 96.778 247.483 98.4339C248.432 100.09 250.825 100.502 252.827 99.3541C254.828 98.2065 255.682 95.9338 254.733 94.278C253.783 92.6221 251.391 92.2101 249.389 93.3578Z" fill="white"/>
<path d="M232.595 94.8623C231.416 97.3014 236.216 98.9948 238.348 99.5142C240.146 100.724 244.461 103.774 245.639 101.335C247.462 99.3219 245.614 89.4069 243.482 88.8875C241.536 87.7728 233.763 92.6079 232.595 94.8623Z" fill="white"/>
<path d="M85.7454 139.462C84.2849 139.287 82.7588 139.514 81.336 140.201C77.3732 142.115 75.7124 146.879 77.6258 150.843C75.5548 153.177 74.9686 156.617 76.4109 159.603C77.4907 161.838 79.4767 163.34 81.7142 163.883C83.0224 164.473 85.5234 165.701 86.5987 166.596C88.0222 167.781 92.454 169.555 98.393 166.345C104.332 163.135 105.045 161.089 106.196 157.128C106.255 155.299 106.552 153.486 106.847 152.127C108.054 149.94 108.218 147.221 107.049 144.8C105.658 141.922 102.764 140.258 99.765 140.296C99.7465 140.256 99.7276 140.216 99.7083 140.176C97.7934 136.213 93.028 134.552 89.0646 136.467C87.6418 137.154 86.5158 138.209 85.7454 139.462Z" fill="#DC2626"/>
<path d="M104.25 149.449C103.724 151.696 101.792 153.165 99.9333 152.731C98.0748 152.296 96.994 150.123 97.5192 147.876C98.0445 145.629 99.9769 144.159 101.835 144.594C103.694 145.028 104.775 147.202 104.25 149.449Z" fill="white"/>
<path d="M95.909 143.032C96.2003 145.322 94.9016 147.373 93.0083 147.614C91.1149 147.855 89.3439 146.194 89.0525 143.905C88.7612 141.616 90.0599 139.565 91.9532 139.324C93.8466 139.083 95.6176 140.743 95.909 143.032Z" fill="white"/>
<path d="M86.7143 145.467C88.2078 147.226 88.239 149.654 86.784 150.889C85.3291 152.124 82.9389 151.7 81.4454 149.941C79.952 148.181 79.9208 145.754 81.3757 144.519C82.8307 143.284 85.2209 143.708 86.7143 145.467Z" fill="white"/>
<path d="M84.5601 154.357C86.5621 155.504 87.4154 157.777 86.4662 159.433C85.517 161.089 83.1246 161.501 81.1227 160.353C79.1208 159.206 78.2674 156.933 79.2166 155.277C80.1658 153.621 82.5582 153.209 84.5601 154.357Z" fill="white"/>
<path d="M101.355 155.861C102.533 158.3 97.7337 159.994 95.6015 160.513C93.8027 161.723 89.4887 164.773 88.3103 162.334C86.4867 160.321 88.3352 150.406 90.4674 149.887C92.413 148.772 100.186 153.607 101.355 155.861Z" fill="white"/>
<path d="M194.759 159.202C196.087 158.568 197.605 158.294 199.173 158.49C203.54 159.035 206.639 163.016 206.095 167.383C208.805 168.932 210.462 172.003 210.051 175.293C209.744 177.756 208.344 179.816 206.398 181.046C205.347 182.024 203.371 183.989 202.639 185.181C201.67 186.759 198.039 189.858 191.385 188.719C184.731 187.58 183.4 185.869 181.042 182.486C180.4 180.772 179.539 179.15 178.824 177.956C176.98 176.271 175.954 173.748 176.287 171.08C176.682 167.908 178.892 165.405 181.745 164.481C181.75 164.437 181.755 164.393 181.76 164.349C182.305 159.981 186.288 156.882 190.656 157.427C192.224 157.623 193.628 158.261 194.759 159.202Z" fill="#DC2626"/>
<path d="M180.427 174.588C181.644 176.549 183.945 177.322 185.567 176.315C187.189 175.309 187.517 172.903 186.299 170.943C185.082 168.982 182.781 168.209 181.16 169.216C179.538 170.223 179.21 172.628 180.427 174.588Z" fill="white"/>
<path d="M186.274 165.839C186.731 168.101 188.618 169.628 190.489 169.25C192.36 168.872 193.506 166.732 193.049 164.471C192.592 162.209 190.705 160.682 188.834 161.059C186.963 161.437 185.817 163.577 186.274 165.839Z" fill="white"/>
<path d="M195.764 165.202C194.913 167.346 195.66 169.656 197.434 170.36C199.208 171.065 201.337 169.897 202.188 167.753C203.04 165.608 202.292 163.298 200.518 162.594C198.744 161.889 196.616 163.057 195.764 165.202Z" fill="white"/>
<path d="M200.651 172.934C199.122 174.662 199.042 177.088 200.471 178.353C201.901 179.617 204.299 179.242 205.828 177.514C207.357 175.785 207.438 173.359 206.008 172.094C204.579 170.83 202.181 171.205 200.651 172.934Z" fill="white"/>
<path d="M185.223 179.736C184.888 182.424 189.976 182.492 192.163 182.301C194.254 182.871 199.317 184.379 199.653 181.691C200.736 179.201 195.81 170.399 193.624 170.59C191.424 170.157 185.608 177.226 185.223 179.736Z" fill="white"/>
<path d="M139.19 220.201C137.862 219.567 136.344 219.293 134.776 219.489C130.409 220.034 127.31 224.015 127.854 228.382C125.145 229.931 123.488 233.002 123.898 236.292C124.205 238.755 125.606 240.815 127.552 242.045C128.602 243.023 130.578 244.988 131.31 246.18C132.28 247.758 135.91 250.857 142.564 249.718C149.218 248.579 150.549 246.868 152.908 243.485C153.549 241.771 154.411 240.149 155.125 238.955C156.969 237.27 157.996 234.747 157.663 232.079C157.267 228.907 155.058 226.404 152.204 225.48C152.2 225.436 152.195 225.392 152.189 225.348C151.644 220.98 147.661 217.881 143.293 218.426C141.725 218.622 140.321 219.26 139.19 220.201Z" fill="#DC2626"/>
<path d="M153.521 235.587C152.304 237.547 150.002 238.321 148.381 237.314C146.759 236.307 146.431 233.902 147.648 231.941C148.865 229.981 151.167 229.208 152.788 230.214C154.41 231.221 154.738 233.626 153.521 235.587Z" fill="white"/>
<path d="M147.674 226.838C147.217 229.1 145.33 230.627 143.459 230.249C141.588 229.871 140.442 227.731 140.899 225.469C141.356 223.207 143.243 221.68 145.113 222.058C146.984 222.436 148.13 224.576 147.674 226.838Z" fill="white"/>
<path d="M138.183 226.2C139.035 228.345 138.287 230.654 136.513 231.359C134.74 232.063 132.611 230.896 131.76 228.751C130.908 226.606 131.656 224.297 133.43 223.592C135.203 222.888 137.332 224.056 138.183 226.2Z" fill="white"/>
<path d="M133.296 233.932C134.825 235.66 134.906 238.087 133.477 239.351C132.047 240.616 129.649 240.24 128.12 238.512C126.591 236.784 126.51 234.358 127.939 233.093C129.369 231.828 131.767 232.204 133.296 233.932Z" fill="white"/>
<path d="M148.725 240.735C149.06 243.423 143.971 243.49 141.785 243.3C139.694 243.87 134.63 245.378 134.295 242.69C133.212 240.199 138.138 231.398 140.324 231.589C142.524 231.156 148.34 238.225 148.725 240.735Z" fill="white"/>
<g filter="url(#filter0_f_571_2479)">
<path d="M179.733 100.109C180.023 99.2607 180.552 98.4825 181.306 97.8831C183.408 96.2136 186.464 96.5632 188.134 98.6638C189.965 98.1447 192.01 98.7339 193.268 100.317C194.209 101.502 194.509 102.991 194.214 104.363C194.192 105.238 194.204 106.937 194.411 107.765C194.684 108.861 194.485 111.765 191.149 114.177C187.813 116.589 186.499 116.438 184.019 116.022C182.999 115.57 181.925 115.252 181.1 115.054C179.579 115.138 178.042 114.508 177.022 113.225C175.809 111.698 175.662 109.668 176.478 108.031C176.46 108.01 176.443 107.989 176.427 107.968C174.757 105.866 175.107 102.809 177.208 101.139C177.963 100.54 178.84 100.201 179.733 100.109Z" fill="#DC2626"/>
<path d="M180.318 112.917C181.691 113.224 183.01 112.552 183.264 111.416C183.517 110.28 182.61 109.11 181.236 108.804C179.863 108.497 178.544 109.169 178.291 110.305C178.037 111.441 178.945 112.611 180.318 112.917Z" fill="white"/>
<path d="M179.003 106.637C180.183 107.403 181.653 107.233 182.287 106.257C182.921 105.28 182.478 103.868 181.298 103.102C180.118 102.335 178.647 102.505 178.014 103.481C177.38 104.458 177.823 105.87 179.003 106.637Z" fill="white"/>
<path d="M182.775 102.231C183.346 103.517 184.671 104.177 185.735 103.705C186.799 103.233 187.199 101.808 186.628 100.522C186.057 99.2356 184.732 98.5755 183.669 99.0475C182.605 99.5195 182.205 100.945 182.775 102.231Z" fill="white"/>
<path d="M188.229 103.402C188.329 104.806 189.351 105.877 190.512 105.794C191.673 105.711 192.533 104.506 192.433 103.103C192.333 101.699 191.31 100.628 190.15 100.711C188.989 100.794 188.129 101.999 188.229 103.402Z" fill="white"/>
<path d="M184.607 113.026C185.634 114.319 187.836 112.131 188.686 111.098C189.827 110.43 192.644 108.868 191.617 107.575C190.994 106.04 185.059 104.429 184.209 105.463C183.081 106.236 183.678 111.787 184.607 113.026Z" fill="white"/>
</g>
<path d="M154.215 161.11C153.924 160.261 153.395 159.483 152.641 158.884C150.54 157.214 147.483 157.564 145.813 159.664C143.982 159.145 141.937 159.734 140.68 161.317C139.738 162.502 139.439 163.991 139.733 165.364C139.756 166.239 139.743 167.938 139.537 168.766C139.263 169.861 139.462 172.765 142.799 175.177C146.135 177.589 147.448 177.439 149.928 177.022C150.948 176.57 152.023 176.253 152.847 176.055C154.368 176.139 155.906 175.509 156.925 174.225C158.138 172.699 158.285 170.668 157.47 169.031C157.487 169.011 157.504 168.99 157.521 168.968C159.191 166.867 158.841 163.809 156.739 162.14C155.985 161.54 155.107 161.201 154.215 161.11Z" fill="#DC2626"/>
<path d="M153.631 173.918C152.258 174.225 150.939 173.553 150.685 172.417C150.432 171.281 151.339 170.111 152.713 169.805C154.086 169.498 155.405 170.17 155.658 171.306C155.912 172.442 155.004 173.612 153.631 173.918Z" fill="white"/>
<path d="M154.946 167.637C153.766 168.404 152.295 168.234 151.662 167.258C151.028 166.281 151.471 164.869 152.651 164.103C153.831 163.336 155.301 163.506 155.935 164.482C156.569 165.459 156.126 166.871 154.946 167.637Z" fill="white"/>
<path d="M151.173 163.232C150.603 164.518 149.278 165.178 148.214 164.706C147.15 164.234 146.75 162.809 147.321 161.523C147.891 160.237 149.216 159.577 150.28 160.048C151.344 160.52 151.744 161.946 151.173 163.232Z" fill="white"/>
<path d="M145.72 164.403C145.62 165.807 144.598 166.878 143.437 166.795C142.276 166.712 141.416 165.507 141.516 164.104C141.616 162.7 142.638 161.629 143.799 161.712C144.96 161.795 145.82 163 145.72 164.403Z" fill="white"/>
<path d="M149.342 174.027C148.314 175.32 146.113 173.132 145.263 172.099C144.122 171.431 141.304 169.869 142.332 168.576C142.954 167.041 148.89 165.43 149.74 166.464C150.868 167.237 150.271 172.788 149.342 174.027Z" fill="white"/>
<path d="M218.852 132.51C219.037 131.972 219.372 131.478 219.851 131.098C221.184 130.039 223.122 130.261 224.182 131.593C225.343 131.264 226.64 131.638 227.438 132.642C228.035 133.394 228.225 134.338 228.038 135.209C228.024 135.764 228.032 136.842 228.163 137.367C228.337 138.062 228.21 139.904 226.094 141.434C223.978 142.964 223.145 142.869 221.572 142.604C220.924 142.317 220.243 142.116 219.72 141.99C218.755 142.044 217.78 141.644 217.133 140.83C216.364 139.862 216.27 138.574 216.787 137.535C216.777 137.522 216.766 137.509 216.755 137.495C215.696 136.162 215.918 134.223 217.251 133.164C217.73 132.783 218.286 132.568 218.852 132.51Z" fill="#DC2626"/>
<path d="M219.223 140.636C220.094 140.83 220.931 140.404 221.091 139.683C221.252 138.963 220.677 138.221 219.805 138.026C218.934 137.832 218.098 138.258 217.937 138.979C217.776 139.699 218.352 140.441 219.223 140.636Z" fill="white"/>
<path d="M218.389 136.652C219.137 137.138 220.07 137.03 220.472 136.411C220.874 135.791 220.593 134.895 219.845 134.409C219.096 133.923 218.163 134.031 217.761 134.65C217.359 135.269 217.64 136.165 218.389 136.652Z" fill="white"/>
<path d="M220.782 133.857C221.144 134.673 221.984 135.092 222.659 134.792C223.334 134.493 223.588 133.589 223.226 132.773C222.864 131.957 222.023 131.538 221.348 131.838C220.673 132.137 220.42 133.041 220.782 133.857Z" fill="white"/>
<path d="M224.241 134.6C224.304 135.49 224.953 136.17 225.689 136.117C226.426 136.065 226.971 135.3 226.908 134.41C226.844 133.519 226.196 132.84 225.459 132.893C224.723 132.945 224.177 133.71 224.241 134.6Z" fill="white"/>
<path d="M221.943 140.704C222.595 141.525 223.992 140.137 224.531 139.481C225.255 139.058 227.042 138.067 226.39 137.247C225.995 136.273 222.23 135.252 221.691 135.907C220.976 136.398 221.354 139.919 221.943 140.704Z" fill="white"/>
<path d="M115.095 193.51C114.91 192.972 114.575 192.478 114.096 192.098C112.764 191.039 110.825 191.261 109.765 192.593C108.604 192.264 107.307 192.638 106.509 193.642C105.912 194.394 105.722 195.338 105.909 196.209C105.923 196.764 105.915 197.842 105.784 198.367C105.61 199.062 105.737 200.904 107.853 202.434C109.969 203.964 110.802 203.869 112.375 203.604C113.023 203.317 113.704 203.116 114.227 202.99C115.192 203.044 116.167 202.644 116.814 201.83C117.583 200.862 117.677 199.574 117.16 198.535C117.17 198.522 117.181 198.509 117.192 198.495C118.251 197.162 118.029 195.223 116.696 194.164C116.217 193.783 115.661 193.568 115.095 193.51Z" fill="#DC2626"/>
<path d="M114.724 201.635C113.853 201.83 113.016 201.403 112.855 200.683C112.694 199.962 113.27 199.22 114.141 199.026C115.012 198.831 115.849 199.258 116.01 199.978C116.171 200.699 115.595 201.441 114.724 201.635Z" fill="white"/>
<path d="M115.558 197.651C114.809 198.137 113.877 198.029 113.475 197.41C113.072 196.791 113.353 195.895 114.102 195.409C114.851 194.923 115.783 195.03 116.185 195.65C116.588 196.269 116.307 197.165 115.558 197.651Z" fill="white"/>
<path d="M113.165 194.856C112.803 195.672 111.962 196.091 111.288 195.792C110.613 195.492 110.359 194.588 110.721 193.772C111.083 192.956 111.923 192.538 112.598 192.837C113.273 193.136 113.527 194.041 113.165 194.856Z" fill="white"/>
<path d="M109.706 195.6C109.642 196.49 108.994 197.169 108.257 197.117C107.521 197.064 106.975 196.3 107.039 195.409C107.102 194.519 107.751 193.84 108.487 193.892C109.224 193.945 109.769 194.709 109.706 195.6Z" fill="white"/>
<path d="M112.003 201.704C111.351 202.524 109.955 201.137 109.416 200.481C108.692 200.057 106.905 199.067 107.556 198.246C107.951 197.273 111.716 196.251 112.256 196.907C112.971 197.397 112.592 200.918 112.003 201.704Z" fill="white"/>
<path d="M190.634 19.9264C191.448 17.5482 192.93 15.3673 195.044 13.6875C200.933 9.00865 209.499 9.98846 214.179 15.8754C219.31 14.4205 225.041 16.0718 228.565 20.508C231.204 23.829 232.043 28.0016 231.217 31.8485C231.155 34.3006 231.189 39.062 231.768 41.3815C232.535 44.4521 231.976 52.5909 222.627 59.3503C213.278 66.1098 209.597 65.6884 202.647 64.5199C199.788 63.2536 196.777 62.364 194.466 61.8091C190.203 62.0448 185.895 60.2787 183.038 56.6821C179.639 52.4044 179.226 46.7138 181.511 42.1263C181.463 42.068 181.416 42.0091 181.369 41.9498C176.689 36.0601 177.67 27.4921 183.56 22.8124C185.674 21.1326 188.133 20.1822 190.634 19.9264Z" fill="#DC2626"/>
<path d="M192.273 55.8221C196.121 56.6814 199.817 54.7975 200.528 51.6141C201.239 48.4308 198.695 45.1535 194.847 44.2941C190.998 43.4348 187.302 45.3187 186.591 48.5021C185.88 51.6854 188.424 54.9627 192.273 55.8221Z" fill="white"/>
<path d="M188.587 38.2204C191.894 40.368 196.015 39.8914 197.792 37.1558C199.568 34.4202 198.327 30.4616 195.02 28.314C191.712 26.1663 187.591 26.643 185.815 29.3786C184.038 32.1142 185.28 36.0728 188.587 38.2204Z" fill="white"/>
<path d="M199.16 25.8742C200.759 29.4789 204.472 31.3288 207.454 30.0061C210.435 28.6833 211.556 24.6889 209.957 21.0843C208.358 17.4797 204.644 15.6298 201.663 16.9525C198.681 18.2752 197.561 22.2696 199.16 25.8742Z" fill="white"/>
<path d="M214.443 29.157C214.723 33.0904 217.588 36.091 220.842 35.859C224.095 35.627 226.505 32.2502 226.225 28.3167C225.944 24.3833 223.079 21.3827 219.826 21.6147C216.572 21.8467 214.162 25.2235 214.443 29.157Z" fill="white"/>
<path d="M204.292 56.1256C207.172 59.75 213.341 53.6195 215.723 50.723C218.921 48.8519 226.818 44.4752 223.938 40.8508C222.193 36.5497 205.559 32.0353 203.177 34.9318C200.017 37.0994 201.689 52.6539 204.292 56.1256Z" fill="white"/>
<path d="M128.96 75.5006C126.884 74.0828 124.392 73.2225 121.693 73.1422C114.175 72.9185 107.899 78.8305 107.673 86.3478C102.692 88.2531 99.0894 93.0061 98.9209 98.6696C98.7947 102.909 100.62 106.754 103.584 109.341C105.101 111.269 107.924 115.104 108.848 117.308C110.072 120.227 115.391 126.413 126.926 126.232C138.462 126.051 141.158 123.511 146.026 118.415C147.559 115.689 149.439 113.174 150.958 111.346C154.514 108.984 156.908 104.991 157.044 100.399C157.207 94.938 154.132 90.1322 149.555 87.8249C149.559 87.7495 149.562 87.6739 149.564 87.5982C149.788 80.0791 143.874 73.8023 136.354 73.5785C133.655 73.4982 131.116 74.2088 128.96 75.5006Z" fill="#DC2626"/>
<path d="M149.132 105.238C146.563 108.23 142.474 108.933 140 106.808C137.525 104.683 137.601 100.535 140.17 97.5434C142.739 94.5515 146.827 93.8485 149.302 95.9732C151.777 98.098 151.701 102.246 149.132 105.238Z" fill="white"/>
<path d="M141.549 88.9311C140.185 92.6311 136.599 94.7159 133.538 93.5876C130.478 92.4593 129.103 88.5452 130.467 84.8452C131.831 81.1452 135.418 79.0604 138.478 80.1887C141.538 81.317 142.914 85.2311 141.549 88.9311Z" fill="white"/>
<path d="M125.69 85.3687C126.566 89.2135 124.699 92.918 121.519 93.6429C118.338 94.3677 115.05 91.8385 114.174 87.9937C113.297 84.1489 115.165 80.4444 118.345 79.7195C121.525 78.9946 124.814 81.5238 125.69 85.3687Z" fill="white"/>
<path d="M115.412 97.1457C117.541 100.465 117.042 104.583 114.297 106.345C111.551 108.106 107.6 106.843 105.47 103.524C103.341 100.205 103.84 96.0868 106.585 94.3254C109.33 92.564 113.282 93.8267 115.412 97.1457Z" fill="white"/>
<path d="M139.684 112.675C139.547 117.302 130.935 116.083 127.293 115.189C123.612 115.604 114.666 116.824 114.804 112.197C113.627 107.707 124.251 94.1344 127.893 95.029C131.722 94.874 139.692 108.336 139.684 112.675Z" fill="white"/>
<path d="M220.21 288.462C218.75 288.287 217.223 288.514 215.801 289.201C211.838 291.115 210.177 295.879 212.09 299.843C210.02 302.177 209.433 305.617 210.876 308.603C211.955 310.838 213.941 312.34 216.179 312.883C217.487 313.473 219.988 314.701 221.063 315.596C222.487 316.781 226.919 318.555 232.858 315.345C238.797 312.135 239.51 310.089 240.661 306.128C240.72 304.299 241.017 302.486 241.311 301.127C242.519 298.94 242.683 296.221 241.514 293.8C240.123 290.922 237.228 289.258 234.23 289.296C234.211 289.256 234.192 289.216 234.173 289.176C232.258 285.213 227.493 283.552 223.529 285.467C222.106 286.154 220.98 287.209 220.21 288.462Z" fill="#DC2626"/>
<path d="M238.714 298.449C238.189 300.696 236.257 302.165 234.398 301.731C232.539 301.296 231.459 299.123 231.984 296.876C232.509 294.629 234.442 293.159 236.3 293.594C238.159 294.028 239.239 296.202 238.714 298.449Z" fill="white"/>
<path d="M230.374 292.032C230.665 294.322 229.366 296.373 227.473 296.614C225.58 296.855 223.809 295.194 223.517 292.905C223.226 290.616 224.525 288.565 226.418 288.324C228.311 288.083 230.082 289.743 230.374 292.032Z" fill="white"/>
<path d="M221.179 294.467C222.672 296.226 222.704 298.654 221.249 299.889C219.794 301.124 217.404 300.7 215.91 298.941C214.417 297.181 214.385 294.754 215.84 293.519C217.295 292.284 219.686 292.708 221.179 294.467Z" fill="white"/>
<path d="M219.025 303.357C221.027 304.504 221.88 306.777 220.931 308.433C219.982 310.089 217.589 310.501 215.587 309.353C213.585 308.206 212.732 305.933 213.681 304.277C214.631 302.621 217.023 302.209 219.025 303.357Z" fill="white"/>
<path d="M235.819 304.861C236.998 307.3 232.198 308.994 230.066 309.513C228.267 310.723 223.953 313.773 222.775 311.334C220.951 309.321 222.8 299.406 224.932 298.887C226.878 297.772 234.651 302.607 235.819 304.861Z" fill="white"/>
<g filter="url(#filter1_f_571_2479)">
<path d="M125.202 293.462C126.663 293.287 128.189 293.514 129.612 294.201C133.575 296.115 135.235 300.879 133.322 304.843C135.393 307.177 135.979 310.617 134.537 313.603C133.457 315.838 131.471 317.34 129.234 317.883C127.925 318.473 125.424 319.701 124.349 320.596C122.926 321.781 118.494 323.555 112.555 320.345C106.616 317.135 105.902 315.089 104.752 311.128C104.692 309.299 104.396 307.486 104.101 306.127C102.893 303.94 102.729 301.221 103.899 298.8C105.29 295.922 108.184 294.258 111.183 294.296C111.201 294.256 111.22 294.216 111.24 294.176C113.154 290.213 117.92 288.552 121.883 290.467C123.306 291.154 124.432 292.209 125.202 293.462Z" fill="#DC2626"/>
<path d="M106.699 303.449C107.224 305.696 109.156 307.166 111.015 306.731C112.874 306.297 113.954 304.123 113.429 301.876C112.904 299.629 110.971 298.16 109.113 298.594C107.254 299.029 106.174 301.202 106.699 303.449Z" fill="white"/>
<path d="M115.039 297.033C114.748 299.322 116.047 301.373 117.94 301.614C119.833 301.855 121.604 300.195 121.896 297.906C122.187 295.617 120.888 293.566 118.995 293.325C117.102 293.084 115.331 294.744 115.039 297.033Z" fill="white"/>
<path d="M124.234 299.468C122.741 301.227 122.709 303.654 124.164 304.889C125.619 306.125 128.009 305.7 129.503 303.941C130.996 302.182 131.028 299.755 129.573 298.519C128.118 297.284 125.727 297.709 124.234 299.468Z" fill="white"/>
<path d="M126.388 308.357C124.386 309.505 123.533 311.778 124.482 313.433C125.431 315.089 127.824 315.501 129.826 314.354C131.828 313.206 132.681 310.933 131.732 309.278C130.782 307.622 128.39 307.21 126.388 308.357Z" fill="white"/>
<path d="M109.594 309.862C108.415 312.301 113.215 313.994 115.347 314.514C117.146 315.723 121.46 318.773 122.638 316.334C124.462 314.321 122.613 304.406 120.481 303.887C118.535 302.772 110.762 307.607 109.594 309.862Z" fill="white"/>
</g>
<path d="M17.1897 316.202C15.8622 315.569 14.3439 315.295 12.7759 315.49C8.40876 316.035 5.30998 320.017 5.85366 324.384C3.1443 325.932 1.48737 329.004 1.89788 332.294C2.2052 334.757 3.60552 336.816 5.55159 338.046C6.60178 339.025 8.5779 340.989 9.31004 342.181C10.2793 343.759 13.9097 346.859 20.5638 345.72C27.218 344.581 28.5491 342.87 30.9073 339.486C31.5491 337.773 32.4105 336.15 33.125 334.957C34.9692 333.272 35.9954 330.748 35.6626 328.081C35.2667 324.908 33.0574 322.405 30.2042 321.481C30.1994 321.438 30.1943 321.394 30.1888 321.35C29.6438 316.982 25.6611 313.883 21.2932 314.428C19.7252 314.623 18.3208 315.262 17.1897 316.202Z" fill="#DC2626"/>
<path d="M31.5203 331.588C30.3033 333.549 28.0021 334.322 26.3805 333.315C24.759 332.309 24.431 329.903 25.6481 327.943C26.8652 325.982 29.1663 325.209 30.7879 326.216C32.4095 327.223 32.7374 329.628 31.5203 331.588Z" fill="white"/>
<path d="M25.6733 322.839C25.2164 325.101 23.3294 326.628 21.4585 326.25C19.5877 325.872 18.4415 323.732 18.8984 321.471C19.3553 319.209 21.2424 317.682 23.1132 318.059C24.984 318.437 26.1302 320.577 25.6733 322.839Z" fill="white"/>
<path d="M16.1832 322.202C17.0348 324.346 16.2871 326.656 14.5132 327.36C12.7393 328.065 10.6109 326.897 9.75934 324.753C8.90773 322.608 9.65539 320.298 11.4293 319.594C13.2032 318.889 15.3316 320.057 16.1832 322.202Z" fill="white"/>
<path d="M11.2961 329.934C12.8251 331.662 12.9059 334.088 11.4765 335.353C10.047 336.617 7.64866 336.242 6.11959 334.514C4.59052 332.785 4.50975 330.359 5.93919 329.094C7.36863 327.83 9.76698 328.205 11.2961 329.934Z" fill="white"/>
<path d="M26.7245 336.736C27.0599 339.424 21.9711 339.492 19.7849 339.301C17.6935 339.871 12.63 341.379 12.2946 338.691C11.2116 336.201 16.1374 327.399 18.3236 327.59C20.5238 327.157 26.3396 334.226 26.7245 336.736Z" fill="white"/>
<path d="M72.759 377.202C74.0865 376.568 75.6048 376.294 77.1727 376.49C81.5399 377.035 84.6387 381.016 84.095 385.383C86.8044 386.932 88.4613 390.003 88.0508 393.293C87.7435 395.756 86.3432 397.816 84.3971 399.046C83.3469 400.024 81.3708 401.989 80.6386 403.181C79.6694 404.759 76.039 407.858 69.3848 406.719C62.7307 405.58 61.3995 403.869 59.0414 400.486C58.3995 398.772 57.5382 397.15 56.8236 395.956C54.9794 394.271 53.9533 391.748 54.2861 389.08C54.682 385.908 56.8913 383.405 59.7445 382.481C59.7492 382.437 59.7543 382.393 59.7598 382.349C60.3048 377.981 64.2876 374.882 68.6555 375.427C70.2235 375.623 71.6279 376.261 72.759 377.202Z" fill="#DC2626"/>
<path d="M58.4268 392.588C59.6438 394.549 61.945 395.322 63.5666 394.315C65.1881 393.309 65.516 390.903 64.299 388.943C63.0819 386.982 60.7808 386.209 59.1592 387.216C57.5376 388.223 57.2097 390.628 58.4268 392.588Z" fill="white"/>
<path d="M64.2738 383.839C64.7307 386.101 66.6177 387.628 68.4886 387.25C70.3594 386.872 71.5056 384.732 71.0487 382.471C70.5917 380.209 68.7047 378.682 66.8339 379.059C64.963 379.437 63.8168 381.577 64.2738 383.839Z" fill="white"/>
<path d="M73.7639 383.202C72.9123 385.346 73.66 387.656 75.4338 388.36C77.2077 389.065 79.3361 387.897 80.1877 385.753C81.0393 383.608 80.2917 381.298 78.5178 380.594C76.7439 379.889 74.6155 381.057 73.7639 383.202Z" fill="white"/>
<path d="M78.651 390.934C77.122 392.662 77.0412 395.088 78.4706 396.353C79.9001 397.617 82.2984 397.242 83.8275 395.514C85.3566 393.785 85.4373 391.359 84.0079 390.094C82.5784 388.83 80.1801 389.205 78.651 390.934Z" fill="white"/>
<path d="M63.2226 397.736C62.8872 400.424 67.976 400.492 70.1622 400.301C72.2535 400.871 77.317 402.379 77.6524 399.691C78.7355 397.201 73.8097 388.399 71.6235 388.59C69.4233 388.157 63.6075 395.226 63.2226 397.736Z" fill="white"/>
<path d="M288.68 310.11C288.389 309.262 287.861 308.483 287.106 307.884C285.005 306.215 281.948 306.564 280.278 308.665C278.448 308.146 276.403 308.735 275.145 310.318C274.203 311.503 273.904 312.992 274.199 314.364C274.221 315.239 274.209 316.938 274.002 317.766C273.728 318.862 273.928 321.766 277.264 324.178C280.6 326.59 281.913 326.439 284.393 326.022C285.414 325.571 286.488 325.253 287.313 325.055C288.834 325.139 290.371 324.509 291.39 323.226C292.603 321.699 292.751 319.669 291.935 318.032C291.952 318.011 291.969 317.99 291.986 317.969C293.656 315.867 293.306 312.81 291.204 311.14C290.45 310.541 289.572 310.202 288.68 310.11Z" fill="#DC2626"/>
<path d="M288.096 322.919C286.723 323.225 285.404 322.553 285.15 321.417C284.897 320.281 285.804 319.112 287.178 318.805C288.551 318.499 289.87 319.171 290.124 320.307C290.377 321.443 289.47 322.612 288.096 322.919Z" fill="white"/>
<path d="M289.411 316.638C288.231 317.404 286.761 317.234 286.127 316.258C285.493 315.282 285.936 313.869 287.116 313.103C288.296 312.337 289.767 312.507 290.401 313.483C291.034 314.459 290.592 315.872 289.411 316.638Z" fill="white"/>
<path d="M285.639 312.233C285.068 313.519 283.743 314.179 282.679 313.707C281.615 313.235 281.215 311.81 281.786 310.523C282.357 309.237 283.682 308.577 284.746 309.049C285.809 309.521 286.209 310.946 285.639 312.233Z" fill="white"/>
<path d="M280.185 313.404C280.085 314.807 279.063 315.878 277.902 315.795C276.741 315.713 275.881 314.508 275.981 313.104C276.081 311.7 277.104 310.63 278.265 310.713C279.425 310.795 280.285 312 280.185 313.404Z" fill="white"/>
<path d="M283.807 323.027C282.78 324.32 280.578 322.133 279.728 321.099C278.587 320.432 275.77 318.87 276.797 317.577C277.42 316.042 283.355 314.431 284.205 315.465C285.333 316.238 284.736 321.788 283.807 323.027Z" fill="white"/>
<path d="M57.7323 318.11C58.0229 317.261 58.5516 316.483 59.306 315.884C61.4073 314.214 64.4639 314.564 66.1339 316.664C67.9647 316.145 70.0096 316.734 71.2674 318.317C72.2089 319.502 72.5083 320.991 72.2135 322.364C72.1915 323.239 72.2035 324.938 72.4103 325.766C72.684 326.861 72.4845 329.765 69.1484 332.177C65.8123 334.589 64.499 334.439 62.0189 334.022C60.9986 333.57 59.9242 333.253 59.0996 333.055C57.5786 333.139 56.0415 332.509 55.0218 331.225C53.809 329.699 53.6617 327.668 54.4771 326.031C54.46 326.011 54.443 325.99 54.4262 325.968C52.7564 323.867 53.1064 320.809 55.208 319.14C55.9624 318.54 56.84 318.201 57.7323 318.11Z" fill="#DC2626"/>
<path d="M58.3174 330.918C59.6907 331.224 61.0096 330.552 61.2632 329.416C61.5169 328.28 60.6092 327.111 59.2359 326.804C57.8626 326.498 56.5437 327.17 56.29 328.306C56.0364 329.442 56.9441 330.611 58.3174 330.918Z" fill="white"/>
<path d="M57.0022 324.637C58.1824 325.403 59.6529 325.233 60.2868 324.257C60.9206 323.281 60.4778 321.868 59.2976 321.102C58.1175 320.336 56.6469 320.506 56.0131 321.482C55.3792 322.458 55.8221 323.871 57.0022 324.637Z" fill="white"/>
<path d="M60.7749 320.232C61.3455 321.518 62.6706 322.178 63.7345 321.706C64.7983 321.234 65.1982 319.809 64.6276 318.522C64.057 317.236 62.7319 316.576 61.6681 317.048C60.6042 317.52 60.2043 318.945 60.7749 320.232Z" fill="white"/>
<path d="M66.2283 321.403C66.3284 322.806 67.3507 323.877 68.5116 323.794C69.6725 323.712 70.5325 322.507 70.4324 321.103C70.3323 319.7 69.31 318.629 68.1491 318.712C66.9882 318.794 66.1282 319.999 66.2283 321.403Z" fill="white"/>
<path d="M62.6064 331.026C63.6339 332.319 65.8353 330.132 66.6853 329.098C67.8261 328.431 70.644 326.869 69.6165 325.576C68.9939 324.041 63.0583 322.43 62.2083 323.464C61.0807 324.237 61.6775 329.787 62.6064 331.026Z" fill="white"/>
<path d="M249.559 342.51C249.375 341.972 249.04 341.478 248.561 341.098C247.228 340.039 245.289 340.26 244.23 341.593C243.069 341.264 241.771 341.637 240.974 342.641C240.376 343.393 240.186 344.338 240.373 345.208C240.387 345.763 240.38 346.841 240.249 347.366C240.075 348.061 240.201 349.903 242.318 351.433C244.434 352.963 245.267 352.868 246.84 352.604C247.487 352.317 248.169 352.116 248.692 351.99C249.657 352.043 250.632 351.644 251.279 350.829C252.048 349.861 252.141 348.573 251.624 347.535C251.635 347.522 251.646 347.508 251.656 347.495C252.716 346.162 252.494 344.222 251.161 343.163C250.682 342.783 250.125 342.568 249.559 342.51Z" fill="#DC2626"/>
<path d="M249.188 350.635C248.317 350.829 247.481 350.403 247.32 349.682C247.159 348.962 247.735 348.22 248.606 348.025C249.477 347.831 250.314 348.257 250.474 348.978C250.635 349.698 250.06 350.44 249.188 350.635Z" fill="white"/>
<path d="M250.023 346.651C249.274 347.137 248.341 347.029 247.939 346.41C247.537 345.79 247.818 344.894 248.567 344.408C249.315 343.922 250.248 344.03 250.65 344.649C251.052 345.268 250.771 346.164 250.023 346.651Z" fill="white"/>
<path d="M247.629 343.856C247.268 344.672 246.427 345.091 245.752 344.791C245.077 344.492 244.824 343.588 245.186 342.772C245.548 341.956 246.388 341.537 247.063 341.837C247.738 342.136 247.991 343.04 247.629 343.856Z" fill="white"/>
<path d="M244.17 344.599C244.107 345.489 243.458 346.169 242.722 346.116C241.985 346.064 241.44 345.299 241.503 344.409C241.567 343.519 242.215 342.839 242.952 342.892C243.688 342.944 244.234 343.709 244.17 344.599Z" fill="white"/>
<path d="M246.468 350.703C245.816 351.524 244.42 350.136 243.88 349.481C243.157 349.057 241.369 348.066 242.021 347.246C242.416 346.272 246.181 345.251 246.72 345.906C247.436 346.397 247.057 349.918 246.468 350.703Z" fill="white"/>
<path d="M96.8535 350.509C97.0378 349.971 97.3732 349.477 97.8517 349.097C99.1846 348.038 101.124 348.26 102.183 349.592C103.344 349.263 104.641 349.637 105.439 350.641C106.037 351.393 106.226 352.337 106.039 353.208C106.025 353.763 106.033 354.841 106.164 355.366C106.338 356.061 106.211 357.903 104.095 359.433C101.979 360.963 101.146 360.868 99.5726 360.603C98.9254 360.316 98.2439 360.115 97.7208 359.989C96.756 360.043 95.7809 359.643 95.134 358.829C94.3647 357.861 94.2713 356.573 94.7885 355.534C94.7777 355.521 94.7669 355.508 94.7563 355.494C93.697 354.161 93.9191 352.222 95.2522 351.163C95.7307 350.782 96.2874 350.567 96.8535 350.509Z" fill="#DC2626"/>
<path d="M97.2239 358.635C98.095 358.829 98.9316 358.403 99.0925 357.682C99.2534 356.962 98.6777 356.22 97.8065 356.025C96.9354 355.831 96.0987 356.257 95.9378 356.978C95.777 357.698 96.3527 358.44 97.2239 358.635Z" fill="white"/>
<path d="M96.3896 354.651C97.1382 355.137 98.071 355.029 98.4731 354.41C98.8752 353.79 98.5943 352.894 97.8457 352.408C97.0971 351.922 96.1642 352.03 95.7622 352.649C95.3601 353.268 95.641 354.164 96.3896 354.651Z" fill="white"/>
<path d="M98.7828 351.856C99.1447 352.672 99.9853 353.091 100.66 352.791C101.335 352.492 101.589 351.588 101.227 350.772C100.865 349.956 100.024 349.537 99.3493 349.837C98.6745 350.136 98.4208 351.04 98.7828 351.856Z" fill="white"/>
<path d="M102.242 352.599C102.306 353.489 102.954 354.169 103.69 354.116C104.427 354.064 104.972 353.299 104.909 352.409C104.845 351.519 104.197 350.839 103.46 350.892C102.724 350.944 102.179 351.709 102.242 352.599Z" fill="white"/>
<path d="M99.9445 358.703C100.596 359.524 101.993 358.136 102.532 357.481C103.256 357.057 105.043 356.066 104.391 355.246C103.996 354.272 100.231 353.251 99.692 353.906C98.9767 354.397 99.3553 357.918 99.9445 358.703Z" fill="white"/>
<path d="M207.256 213.446C208.255 210.528 210.073 207.853 212.666 205.792C219.891 200.052 230.4 201.254 236.141 208.476C242.436 206.691 249.466 208.717 253.79 214.159C257.028 218.233 258.057 223.352 257.043 228.072C256.968 231.08 257.009 236.921 257.72 239.767C258.661 243.534 257.975 253.519 246.505 261.811C235.035 270.104 230.52 269.587 221.994 268.153C218.486 266.6 214.792 265.508 211.957 264.828C206.727 265.117 201.443 262.95 197.937 258.538C193.767 253.29 193.261 246.309 196.064 240.681C196.005 240.609 195.947 240.537 195.889 240.464C190.148 233.239 191.352 222.727 198.577 216.986C201.171 214.926 204.188 213.76 207.256 213.446Z" fill="#DC2626"/>
<path d="M209.266 257.483C213.988 258.537 218.522 256.226 219.394 252.32C220.266 248.415 217.145 244.394 212.424 243.34C207.702 242.286 203.168 244.597 202.296 248.503C201.424 252.408 204.544 256.428 209.266 257.483Z" fill="white"/>
<path d="M204.744 235.889C208.802 238.524 213.858 237.939 216.037 234.583C218.216 231.227 216.694 226.37 212.636 223.736C208.579 221.101 203.523 221.686 201.344 225.042C199.164 228.398 200.687 233.254 204.744 235.889Z" fill="white"/>
<path d="M217.715 220.743C219.677 225.165 224.232 227.434 227.89 225.812C231.548 224.189 232.923 219.289 230.961 214.866C228.999 210.444 224.443 208.175 220.786 209.797C217.128 211.42 215.753 216.32 217.715 220.743Z" fill="white"/>
<path d="M236.464 224.77C236.808 229.595 240.323 233.277 244.314 232.992C248.306 232.707 251.262 228.565 250.918 223.739C250.574 218.913 247.059 215.232 243.068 215.517C239.077 215.802 236.12 219.944 236.464 224.77Z" fill="white"/>
<path d="M224.012 257.855C227.545 262.301 235.113 254.781 238.036 251.227C241.958 248.932 251.646 243.562 248.113 239.116C245.973 233.839 225.566 228.301 222.643 231.854C218.766 234.514 220.818 253.596 224.012 257.855Z" fill="white"/>
</g>
<defs>
<filter id="filter0_f_571_2479" x="174.372" y="95.8281" width="21.1257" height="21.4365" filterUnits="userSpaceOnUse" color-interpolation-filters="sRGB">
<feFlood flood-opacity="0" result="BackgroundImageFix"/>
<feBlend mode="normal" in="SourceGraphic" in2="BackgroundImageFix" result="shape"/>
<feGaussianBlur stdDeviation="0.5" result="effect1_foregroundBlur_571_2479"/>
</filter>
<filter id="filter1_f_571_2479" x="101.103" y="287.671" width="36.2292" height="36.4937" filterUnits="userSpaceOnUse" color-interpolation-filters="sRGB">
<feFlood flood-opacity="0" result="BackgroundImageFix"/>
<feBlend mode="normal" in="SourceGraphic" in2="BackgroundImageFix" result="shape"/>
<feGaussianBlur stdDeviation="1" result="effect1_foregroundBlur_571_2479"/>
</filter>
</defs>
</svg>
