<svg width="107" height="44" viewBox="0 0 107 44" fill="none" xmlns="http://www.w3.org/2000/svg">
<path d="M9.41496 4.16879C9.38476 4.18273 9.35108 4.19434 9.31392 4.20363C9.25585 4.21757 9.23262 4.1955 9.24424 4.13743L9.61006 2.35707C9.62124 2.30068 9.64965 2.2493 9.6914 2.20996C9.73316 2.17061 9.78623 2.1452 9.84339 2.1372C9.90054 2.1292 9.95899 2.13899 10.0108 2.16525C10.0625 2.1915 10.1051 2.23294 10.1327 2.2839L12.7248 7.10936C12.9223 7.47867 13.0512 7.45428 13.1116 7.03619C13.1511 6.74817 13.4042 6.52751 13.8711 6.37421C13.9547 6.34866 14.0499 6.36492 14.1568 6.42299C14.2985 6.50196 14.3786 6.56003 14.3972 6.5972C14.6132 7.03155 14.7514 7.0118 14.8118 6.53797C14.849 6.23369 14.9941 5.84812 15.2473 5.38125C15.3797 5.13504 15.4296 5.1513 15.3971 5.43003C15.3484 5.87948 15.2612 6.45435 15.6097 6.81669C16.195 7.42641 17.5155 7.62152 17.8952 6.64249C18.0183 6.32892 17.9254 5.89922 17.6165 5.35338C17.289 4.77154 16.6061 4.00504 16.411 3.4232C16.0579 2.38262 16.411 1.62889 17.4702 1.16202C18.311 0.792711 19.1925 0.918139 20.1146 1.53831C20.2214 1.60799 20.319 1.59754 20.4072 1.50695L20.6163 1.30139C20.7742 1.14344 20.8102 1.16783 20.7243 1.37455L20.1459 2.76122C20.0437 3.00511 20.0042 2.99581 20.0275 2.73335L20.0693 2.25603C20.0783 2.14524 20.0501 2.03485 19.9892 1.94246C19.592 1.35017 19.0903 1.13183 18.484 1.28745C17.6014 1.51276 17.4202 2.08647 17.9405 3.00859C18.3272 3.68799 19.1808 4.47539 19.4387 5.25931C19.7499 6.2093 19.3551 6.90264 18.2541 7.33931C17.1903 7.76204 16.2287 7.63894 15.3693 6.96999C15.3211 6.93223 15.2657 6.90478 15.2065 6.88936C15.1472 6.87394 15.0855 6.87087 15.025 6.88035C14.9645 6.88982 14.9067 6.91165 14.855 6.94445C14.8034 6.97726 14.759 7.02034 14.7247 7.07103C14.3043 7.68191 13.7805 7.89908 13.1534 7.72256C13.021 7.68772 12.8967 7.70397 12.7806 7.77133L11.1779 8.6981C11.1646 8.70664 11.1488 8.71017 11.1331 8.70806C11.1175 8.70594 11.1032 8.69831 11.0927 8.68655C11.0822 8.67478 11.0762 8.65966 11.0759 8.64389C11.0755 8.62812 11.0808 8.61275 11.0908 8.60054C11.4485 8.09651 11.5124 7.68075 11.2824 7.35324C11.02 6.98161 10.4637 5.94335 9.61355 4.23847C9.56942 4.15021 9.50322 4.12698 9.41496 4.16879Z" fill="white"/>
<path d="M20.355 7.81313C20.3178 7.82707 20.2772 7.84449 20.233 7.86539C19.8045 8.08489 19.2854 7.83752 19.2087 7.43336C19.1989 7.37407 19.2016 7.31339 19.2166 7.2552C19.2316 7.19701 19.2586 7.14258 19.2958 7.09541C19.7069 6.5937 20.1552 6.51589 20.6407 6.86197C20.7313 6.92469 20.7765 7.01179 20.7765 7.12328V7.57273C20.7765 7.6819 20.8276 7.75506 20.9298 7.79222C21.2806 7.9223 21.5349 7.90604 21.6929 7.74345C22.5685 6.83062 23.7566 5.58099 25.2571 3.99457C25.4034 3.83895 25.4115 3.6601 25.2815 3.45802C25.1096 3.18394 25.1688 3.12587 25.4592 3.28382L27.5426 4.4057L27.574 4.41963L27.5287 4.51719C27.5055 4.57061 27.4671 4.58454 27.4137 4.55899C27.063 4.39408 26.7599 4.44634 26.5044 4.71578C24.825 6.46711 23.6416 7.71093 22.9541 8.44723C22.8728 8.5355 22.8519 8.63653 22.8914 8.75035C22.9285 8.86416 22.9947 8.96404 23.09 9.04998C23.1341 9.08947 23.1388 9.1336 23.1039 9.18238C23.083 9.21257 23.0563 9.22767 23.0238 9.22767C23.0029 9.22999 22.9796 9.22302 22.9541 9.20677L20.6685 7.87236C20.5478 7.80036 20.4432 7.78061 20.355 7.81313Z" fill="white"/>
<path d="M8.94666 5.54356C8.85574 5.98652 8.82328 6.35407 8.87418 6.36452C8.92507 6.37496 9.04003 6.02435 9.13096 5.58139C9.22188 5.13844 9.25434 4.77089 9.20344 4.76044C9.15255 4.75 9.03759 5.10061 8.94666 5.54356Z" fill="white"/>
<path d="M3.22025 6.64595C3.20166 6.56698 3.15869 6.48916 3.09133 6.41251C3.07717 6.39277 3.07234 6.37018 3.07778 6.34917C3.08323 6.32816 3.09856 6.31024 3.12077 6.29892C3.14299 6.28759 3.17049 6.28367 3.19791 6.28793C3.22533 6.29219 3.25068 6.30431 3.26902 6.32193C3.72428 6.82596 4.10985 7.29631 4.42574 7.73298C4.43225 7.74392 4.43505 7.75667 4.43375 7.76933C4.43244 7.78199 4.42709 7.7939 4.41849 7.80328C4.40989 7.81266 4.3985 7.81903 4.38599 7.82143C4.37349 7.82383 4.36055 7.82213 4.34909 7.8166L3.59304 7.37761C3.39523 7.26342 3.16483 7.21886 2.93871 7.25108C2.71259 7.28329 2.5038 7.39041 2.34574 7.55529C1.81151 8.11739 1.66983 8.78866 1.92068 9.56909C2.42239 11.1253 3.35264 12.2402 4.71143 12.9138C5.2596 13.1879 5.73692 13.1147 6.14339 12.6943C6.97609 11.8233 6.46044 10.7293 5.89951 9.69801C5.86699 9.63994 5.88092 9.59697 5.94132 9.56909C5.9599 9.56213 5.99358 9.56561 6.04235 9.57955C6.11204 9.60045 6.75659 10.4157 7.17817 10.9035C7.25249 10.9918 7.23972 11.0638 7.13984 11.1195L6.92731 11.2449C6.82047 11.3053 6.76705 11.3971 6.76705 11.5202C6.76937 12.1613 6.53245 12.7721 6.05629 13.3528C5.37689 14.1751 4.40832 14.5026 3.42929 13.9974C1.20644 12.8476 0.488723 9.80601 1.85797 7.76086C2.11347 7.37993 2.51762 7.09539 3.07043 6.90725C3.19818 6.86312 3.24812 6.77602 3.22025 6.64595Z" fill="white"/>
<path d="M9.19545 6.72263L10.2372 6.12336C10.2953 6.08852 10.3498 6.09201 10.4009 6.13382C10.4358 6.16169 10.4532 6.20234 10.4532 6.25576C10.4532 6.26041 10.4509 6.26273 10.4462 6.26273L8.8993 6.94561C8.79014 6.99439 8.74717 6.96071 8.77039 6.84457C8.77736 6.81437 8.79246 6.7807 8.81569 6.74353C8.85053 6.69476 8.89814 6.67269 8.95854 6.67733C8.98641 6.67966 9.02473 6.69475 9.07351 6.72263C9.09266 6.73331 9.11401 6.73894 9.13541 6.73894C9.15682 6.73894 9.17753 6.73331 9.19545 6.72263Z" fill="white"/>
<path d="M8.83316 9.29042C9.00504 9.35778 9.19899 9.32526 9.415 9.19286C9.42065 9.18952 9.42712 9.18783 9.43369 9.18801C9.44025 9.18818 9.44663 9.19021 9.45209 9.19385C9.45755 9.19749 9.46187 9.2026 9.46455 9.20859C9.46724 9.21458 9.46818 9.2212 9.46726 9.2277L9.44287 9.34268C9.43358 9.38681 9.40803 9.41817 9.36622 9.43675L8.67637 9.72593C8.56256 9.77238 8.50217 9.86181 8.4952 9.9942C8.46501 10.5633 8.19325 10.8861 7.67992 10.9628C7.56843 10.979 7.48133 10.9419 7.41862 10.8513C7.07021 10.3449 7.07834 9.91987 7.44301 9.57611C7.54753 9.47856 7.67063 9.42978 7.81232 9.42978H7.98304C8.13169 9.42978 8.22228 9.35661 8.2548 9.21028L8.62063 7.53444C8.64618 7.40901 8.65895 7.41133 8.65895 7.54141V9.03956C8.65895 9.16267 8.71702 9.24629 8.83316 9.29042Z" fill="white"/>
<path d="M9.94104 11.4506C12.0989 11.2996 14.1266 11.439 16.0243 11.8687C16.1938 11.9082 16.2948 11.8803 16.3274 11.7851C16.3343 11.763 16.3365 11.7398 16.334 11.7169C16.3315 11.694 16.3242 11.6719 16.3127 11.6522C16.3012 11.6324 16.2857 11.6154 16.2672 11.6023C16.2487 11.5892 16.2276 11.5802 16.2054 11.576C14.2567 11.1812 12.2998 11.0372 10.3347 11.144C11.2174 10.4495 12.1244 9.97915 13.0558 9.73295C15.1207 9.18943 17.3064 9.14297 19.6129 9.59358C19.2273 9.69114 18.9126 9.83398 18.6687 10.0221C18.5688 10.0988 18.534 10.1975 18.5641 10.3183L18.6826 10.7886C18.6943 10.8329 18.694 10.8794 18.6818 10.9235C18.6695 10.9676 18.6458 11.0076 18.6129 11.0395L17.937 11.7189C17.8302 11.8257 17.7071 11.8501 17.5677 11.792L17.1392 11.6109C17.0761 11.5863 17.0061 11.5871 16.9442 11.6132C16.8823 11.6393 16.8334 11.6885 16.8082 11.7502L16.4772 12.5411C16.4648 12.5703 16.4584 12.6017 16.4584 12.6335C16.4584 12.6652 16.4647 12.6968 16.477 12.7262C16.4893 12.7557 16.5074 12.7825 16.5301 12.8052C16.5529 12.8278 16.5799 12.8458 16.6096 12.8582C17.181 13.0928 17.3505 13.5887 17.1183 14.3459C17.0904 14.4411 17.0335 14.5131 16.9475 14.5619L16.4389 14.8546C16.4086 14.8719 16.3821 14.895 16.3608 14.9226C16.3395 14.9502 16.3239 14.9818 16.3148 15.0155C16.3058 15.0491 16.3034 15.0843 16.308 15.1188C16.3125 15.1534 16.3238 15.1867 16.3413 15.2169L16.85 16.1019C16.8871 16.1646 16.9382 16.1773 17.0033 16.1402L17.3587 15.9346C17.4841 15.8626 17.5979 15.8777 17.7001 15.9799L18.4143 16.6941C18.5235 16.8033 18.5479 16.9276 18.4875 17.0669L18.3342 17.4397C18.2854 17.5536 18.3052 17.6546 18.3934 17.7429C18.635 17.9844 18.959 18.1273 19.3655 18.1714C19.4229 18.1773 19.4806 18.1646 19.5302 18.1351C19.5798 18.1056 19.6186 18.0609 19.6407 18.0076L19.7766 17.6801C19.7971 17.6318 19.8311 17.5904 19.8744 17.5613C19.9178 17.5322 19.9686 17.5166 20.0205 17.5164H20.9926C21.1157 17.5164 21.2074 17.5698 21.2678 17.6767L21.4873 18.0529C21.5171 18.106 21.5605 18.1503 21.6131 18.1814C21.6656 18.2126 21.7256 18.2296 21.7869 18.2306C21.9727 18.233 22.255 18.1598 22.6336 18.0111C22.7706 17.9577 22.8217 17.8602 22.7869 17.7185L22.651 17.1854C22.6231 17.0716 22.6498 16.974 22.7311 16.8927L23.4001 16.2273C23.5046 16.1204 23.6219 16.1042 23.752 16.1785C24.0167 16.3341 24.184 16.3899 24.2537 16.3457C24.4951 16.1909 24.6778 15.9663 24.7666 15.7154C24.8554 15.4645 24.844 15.2049 24.7345 14.9869C24.7252 14.9707 24.6532 14.9312 24.5184 14.8685C24.393 14.8127 24.3094 14.7187 24.2676 14.5863C24.0469 13.8895 24.2351 13.3785 24.832 13.0533C24.8775 13.0277 24.9137 12.9887 24.9356 12.9418C24.9575 12.8949 24.964 12.8424 24.954 12.792C24.9005 12.5458 24.7914 12.3019 24.6265 12.0603C24.5521 11.9535 24.4511 11.914 24.3233 11.9419C23.6846 12.0812 23.2189 11.8408 22.9262 11.2207C22.8682 11.0952 22.8519 10.9802 22.8774 10.8757L22.982 10.4332C23.0052 10.3264 22.9773 10.2277 22.8983 10.1371C22.7799 9.99774 22.6103 9.94083 22.3897 9.96638C22.025 9.74108 21.8345 9.79682 21.8183 10.1336C21.449 10.3961 20.9682 10.4925 20.3759 10.4228C20.0902 10.3903 19.952 10.1952 19.9613 9.83747L20.6755 10.2312C20.7463 10.2703 20.825 10.293 20.9058 10.2977C20.9866 10.3024 21.0675 10.2889 21.1426 10.2581C21.2177 10.2274 21.2852 10.1803 21.34 10.1202C21.3948 10.0601 21.4356 9.98847 21.4594 9.91063C21.6081 9.41822 22.0169 9.36479 22.6858 9.75037C22.9018 9.87347 23.076 9.8305 23.2084 9.62145C23.5638 9.06168 24.0284 8.54255 24.6021 8.06407C26.0027 6.8969 27.5078 8.84799 27.8771 9.94547C28.1907 10.8792 28.4984 11.7026 28.8004 12.4157C29.3137 13.6305 29.6342 14.4156 29.762 14.7709C30.3775 16.4944 30.8792 18.2097 31.2671 19.9169C31.5621 21.2269 31.6724 22.739 31.5981 24.4532C31.4692 27.3415 29.9397 30.2612 27.0096 31.0625C26.5334 31.1903 25.5683 31.4225 24.1143 31.7593C20.2191 32.6582 16.8012 35.0448 14.3728 38.2328C14.2009 38.4581 13.3752 39.6624 11.8956 41.8458C10.1814 44.3717 7.98298 42.3962 6.94473 40.5915C5.86931 38.7194 5.29559 36.7636 5.22359 34.7243C5.20501 34.1993 5.08655 33.5896 4.86821 32.8951C3.98558 30.087 4.07036 27.338 5.12255 24.6483C5.15972 24.5531 5.133 24.4822 5.04242 24.4358C3.2725 23.5671 1.91371 22.5672 0.966039 21.436C0.12289 20.4302 -0.138416 19.2364 0.18212 17.8543C0.449233 16.7162 1.18321 15.7802 2.38406 15.0462C2.7255 14.8371 3.17379 14.7129 3.72892 14.6734C4.79156 14.5967 5.71485 14.649 6.21655 15.5583C6.23225 15.5873 6.25557 15.6115 6.284 15.6283C6.31243 15.645 6.34488 15.6537 6.37787 15.6533C6.41086 15.6529 6.44312 15.6436 6.47118 15.6262C6.49924 15.6089 6.52203 15.5842 6.53709 15.5549C7.41972 13.8058 8.55438 12.4378 9.94104 11.4506ZM15.5295 13.4888C15.6294 13.5213 15.9406 13.6316 16.4632 13.8198C16.7489 13.922 16.8163 13.8418 16.6653 13.5794C16.519 13.3239 16.2275 13.1613 15.7908 13.0916C15.526 13.0498 14.4808 12.8663 12.6551 12.5411C12.1604 12.4529 11.272 12.4494 9.98982 12.5307C9.44862 12.5632 8.97711 12.7722 8.57528 13.1578C7.59277 14.1055 7.02486 15.3388 6.87156 16.8579C6.85995 16.988 6.91569 17.0309 7.0388 16.9868C7.89588 16.6732 8.60547 16.8858 9.16757 17.6244C9.18074 17.6432 9.18687 17.666 9.18488 17.6889C9.18288 17.7117 9.1729 17.7332 9.15667 17.7494C9.14045 17.7656 9.11903 17.7756 9.09617 17.7776C9.07331 17.7796 9.05048 17.7734 9.03169 17.7603C8.48353 17.3445 7.82039 17.2981 7.04228 17.6209C6.91918 17.672 6.85646 17.7661 6.85414 17.9031C6.85182 18.7672 6.72407 19.5395 6.47089 20.22C6.06325 21.3175 5.95525 22.6206 6.27578 23.509C6.59864 24.4056 6.89014 25.3753 7.15029 26.4182C7.40347 27.4286 7.62761 28.0697 7.82272 28.3414C8.25707 28.9477 8.93878 29.2369 9.86787 29.209C9.97613 29.2047 10.0834 29.23 10.178 29.2823C10.2726 29.3345 10.3509 29.4116 10.4044 29.5051C10.8875 30.3274 11.1686 31.2379 11.2476 32.2366C11.2592 32.3783 11.3254 32.4109 11.4462 32.3342C13.1882 31.2193 14.6074 30.0394 15.7037 28.7944C15.9964 28.4599 15.936 28.3751 15.5225 28.54C14.0964 29.1021 12.6006 29.3611 11.035 29.317C10.0479 29.2868 10.0328 29.1451 10.9897 28.8919C11.3056 28.8083 11.8434 28.655 12.6029 28.432C13.6806 28.1115 14.6236 27.6098 15.432 26.9269C15.5202 26.8526 15.5272 26.7701 15.4529 26.6795C14.7305 25.7899 14.6039 24.7552 15.0731 23.5752C15.4354 22.6647 15.7095 22.0747 15.8953 21.8053C16.7826 20.5162 17.5375 19.4048 18.16 18.471C18.1768 18.4461 18.188 18.4178 18.1927 18.3881C18.1974 18.3584 18.1956 18.328 18.1873 18.2991C18.179 18.2702 18.1644 18.2435 18.1447 18.2208C18.1249 18.1981 18.1004 18.1801 18.0729 18.1679C17.0648 17.7057 16.361 16.981 15.9615 15.9938C15.7246 15.405 15.7211 14.6176 15.6515 14.0811C15.6375 13.9673 15.5899 13.8709 15.5086 13.7919C15.4459 13.7315 15.3901 13.67 15.3414 13.6072C15.209 13.447 15.2717 13.4075 15.5295 13.4888ZM25.9922 23.2164C25.9899 23.4765 26.0433 23.6995 26.1525 23.8853C26.2431 24.0409 26.2733 24.0293 26.2431 23.8505C26.1548 23.3069 26.0909 23.0166 26.0514 22.9794C25.4104 22.3941 25.1084 22.5335 25.1456 23.3975C25.1665 23.9271 25.3059 24.581 25.5637 25.3591C25.6008 25.4729 25.5706 25.5623 25.4731 25.6273C25.0341 25.927 24.9063 26.4914 25.0898 27.3206C25.2222 27.9268 25.4139 28.3403 25.6647 28.5609C25.9063 28.7746 26.1223 28.8246 26.3128 28.7108C26.4916 28.6039 26.5868 28.3461 26.5984 27.9373C26.6008 27.8397 26.6426 27.827 26.7239 27.899L27.1315 28.2543C27.2175 28.331 27.3115 28.3531 27.4137 28.3205C27.5299 28.281 27.6193 28.1661 27.682 27.9756C27.7168 27.8664 27.7888 27.8304 27.898 27.8676C28.2348 27.9837 28.474 27.9199 28.6157 27.676C28.6529 27.6156 28.6761 27.5413 28.6854 27.453L28.6994 27.3276C28.7156 27.1905 28.783 27.1557 28.9014 27.2231L29.1174 27.3485C29.1647 27.3762 29.218 27.3919 29.2728 27.3942C29.3275 27.3965 29.3821 27.3853 29.4318 27.3616C29.4815 27.338 29.5249 27.3026 29.5581 27.2584C29.5914 27.2142 29.6135 27.1626 29.6226 27.1081C29.7132 26.5367 29.6621 25.9386 29.4693 25.3138C29.4647 25.2975 29.4542 25.2894 29.438 25.2894H29.3369C29.2998 25.2894 29.287 25.3068 29.2986 25.3416C29.4542 25.8387 29.5251 26.1534 29.5111 26.2858C29.4368 27.0547 29.251 27.086 28.9537 26.3799C28.8376 26.1035 28.6935 25.697 28.5217 25.1605C28.476 25.0174 28.3767 24.8975 28.2444 24.8256C28.1121 24.7536 27.9569 24.735 27.8109 24.7737C27.3255 24.9061 27.0909 25.1825 27.1071 25.603C27.1373 26.3485 27.2964 27.021 27.5844 27.6202C27.6054 27.6644 27.5995 27.7027 27.567 27.7352C27.5415 27.7608 27.5078 27.7782 27.466 27.7875C27.38 27.8061 27.3104 27.7793 27.2569 27.7073C26.8481 27.1731 26.5845 26.6842 26.4661 26.2405C26.2826 25.5507 26.1211 25.0699 25.9818 24.7981C25.7634 24.3684 25.6426 23.8609 25.6194 23.2756C25.6184 23.2547 25.623 23.234 25.6328 23.2156C25.6426 23.1972 25.6573 23.1818 25.6752 23.1711L25.7971 23.1014C25.9295 23.0247 25.9945 23.0631 25.9922 23.2164ZM23.0551 27.9652C23.0786 27.942 23.1072 27.9247 23.1387 27.9149C23.1702 27.9051 23.2036 27.9031 23.236 27.9089C23.2685 27.9147 23.299 27.9282 23.3252 27.9483C23.3513 27.9684 23.3722 27.9945 23.3861 28.0244C23.7485 28.8071 24.242 29.5214 24.8669 30.1671C25.5567 30.8802 26.1978 30.8604 26.7901 30.1079C26.8574 30.0243 26.8923 29.943 26.8946 29.864C26.9039 29.6131 26.8133 29.5702 26.6228 29.7351C26.5578 29.7908 26.4881 29.9 26.4138 30.0626C26.3807 30.1337 26.3314 30.1962 26.2699 30.245C26.2085 30.2937 26.1366 30.3274 26.06 30.3434C25.9834 30.3593 25.9043 30.357 25.829 30.3367C25.7537 30.3163 25.6843 30.2786 25.6264 30.2263C24.904 29.576 24.292 28.7375 23.7903 27.7108C23.7345 27.597 23.7543 27.4983 23.8495 27.4147C24.3744 26.9594 24.4999 26.4473 24.2258 25.8782C24.2026 25.832 24.1671 25.7932 24.1234 25.7662C24.0797 25.7391 24.0295 25.7248 23.9784 25.7249H23.8356C23.8133 25.7246 23.7913 25.7298 23.7715 25.74C23.7517 25.7502 23.7346 25.7652 23.7216 25.7836C23.7087 25.802 23.7002 25.8234 23.697 25.8459C23.6938 25.8684 23.6959 25.8914 23.7032 25.913C23.8286 26.2777 23.8704 26.5413 23.8286 26.7039C23.7009 27.2056 23.5359 27.2219 23.3339 26.7527C23.0017 25.9769 22.6812 25.0478 22.3723 23.9654C22.3188 23.7703 22.2131 23.6379 22.0552 23.5682C22.027 23.5557 21.996 23.5507 21.9652 23.5535C21.9345 23.5563 21.9049 23.567 21.8795 23.5844C21.854 23.6019 21.8334 23.6256 21.8196 23.6532C21.8059 23.6809 21.7994 23.7116 21.8009 23.7424C21.8566 25.2685 21.9786 26.6691 22.1667 27.9443C22.2062 28.2021 22.0389 28.439 21.665 28.655C21.5535 28.7177 21.4536 28.7026 21.3654 28.6097C20.8427 28.0662 20.2226 28.446 20.1215 29.094C19.9706 30.0556 20.1262 30.9046 20.5884 31.6409C20.6458 31.7311 20.7221 31.8079 20.8119 31.866C20.9018 31.924 21.0031 31.962 21.109 31.9772C21.2149 31.9924 21.3229 31.9846 21.4254 31.9542C21.528 31.9238 21.6228 31.8716 21.7033 31.8011C21.9611 31.5735 22.1353 31.2576 22.2259 30.8535C22.4164 29.9941 22.5012 29.2798 22.4803 28.7108C22.4756 28.6016 22.5128 28.5075 22.5918 28.4285L23.0551 27.9652ZM17.6548 27.5784C17.6595 27.6853 17.7117 27.7654 17.8116 27.8188C17.8506 27.839 17.8943 27.8483 17.9384 27.8458C17.9825 27.8434 18.0253 27.8293 18.0624 27.8049C18.4968 27.5076 18.7802 27.2335 18.9126 26.9826C18.9637 26.8828 18.9346 26.8468 18.8255 26.8746L16.7629 27.3903C16.7559 27.3926 16.7513 27.3973 16.7489 27.4042C16.735 27.4484 16.7292 27.4786 16.7315 27.4948C16.7356 27.515 16.7452 27.5335 16.7595 27.5486C16.7738 27.5638 16.7925 27.5753 16.814 27.5821C16.8354 27.5889 16.8591 27.5909 16.8829 27.5878C16.9067 27.5847 16.9301 27.5768 16.951 27.5645C17.1159 27.4669 17.2669 27.4054 17.4039 27.3798C17.4337 27.3743 17.4644 27.3753 17.4938 27.3826C17.5232 27.3899 17.5507 27.4034 17.5744 27.4222C17.5982 27.441 17.6177 27.4647 17.6315 27.4916C17.6454 27.5186 17.6533 27.5482 17.6548 27.5784ZM14.0299 31.3315C14.0479 31.3471 14.0702 31.3572 14.0957 31.3614C14.1211 31.3657 14.1491 31.3638 14.1782 31.356C14.2072 31.3482 14.2366 31.3345 14.2648 31.3159C14.293 31.2973 14.3194 31.274 14.3425 31.2473C14.3656 31.2207 14.3849 31.1913 14.3993 31.1607C14.4137 31.1302 14.423 31.0991 14.4266 31.0692C14.4302 31.0394 14.428 31.0114 14.4203 30.9868C14.4125 30.9622 14.3992 30.9415 14.3812 30.9259C14.3632 30.9104 14.3409 30.9002 14.3155 30.896C14.29 30.8918 14.262 30.8936 14.233 30.9014C14.2039 30.9093 14.1745 30.9229 14.1463 30.9415C14.1181 30.9601 14.0917 30.9834 14.0686 31.0101C14.0456 31.0367 14.0263 31.0661 14.0118 31.0967C13.9974 31.1273 13.9881 31.1584 13.9845 31.1882C13.9809 31.218 13.9831 31.2461 13.9909 31.2706C13.9987 31.2952 14.0119 31.3159 14.0299 31.3315ZM12.366 32.6269C12.3706 32.5316 12.3253 32.4945 12.2301 32.5154C12.0838 32.5502 11.9548 32.6559 11.8434 32.8324C11.7737 32.9416 11.7911 33.0333 11.8956 33.1077C11.9437 33.1436 12.0035 33.1606 12.0637 33.1555C12.124 33.1504 12.1807 33.1234 12.2231 33.0798C12.3114 32.9915 12.359 32.8406 12.366 32.6269Z" fill="white"/>
<path d="M20.679 11.2764C20.5721 11.274 20.5106 11.2705 20.4943 11.2659C20.1459 11.1869 20.1552 11.1045 20.5222 11.0185C20.7452 10.9651 20.9055 11.0336 21.003 11.2241C21.068 11.3472 21.0344 11.3867 20.902 11.3425C20.8671 11.3309 20.8393 11.3205 20.8183 11.3112C20.7742 11.288 20.7278 11.2764 20.679 11.2764Z" fill="white"/>
<path d="M21.2086 11.6143L21.7347 11.9801C21.9275 12.1149 21.9054 12.1706 21.6685 12.1474C21.3921 12.1172 21.2028 11.9662 21.1006 11.6944C21.0518 11.5574 21.0878 11.5307 21.2086 11.6143Z" fill="white"/>
<path d="M18.7175 12.1682C18.613 12.2519 18.548 12.3053 18.5224 12.3285C18.2414 12.6003 18.174 12.555 18.3203 12.1926C18.3412 12.1392 18.4167 12.0602 18.5468 11.9557C18.6745 11.8512 18.7675 11.7943 18.8255 11.785C19.2088 11.7176 19.239 11.7931 18.9161 12.0115C18.8882 12.03 18.822 12.0823 18.7175 12.1682Z" fill="white"/>
<path d="M19.6652 11.9209C19.8278 11.8001 19.9602 11.7339 20.0624 11.7223C20.0799 11.7203 20.0976 11.723 20.1138 11.73C20.1299 11.7369 20.144 11.748 20.1545 11.7621C20.1651 11.7762 20.1718 11.7928 20.174 11.8102C20.1761 11.8277 20.1737 11.8454 20.1669 11.8617C20.0787 12.08 19.8685 12.1822 19.5363 12.1683C19.5171 12.1674 19.4987 12.1611 19.4828 12.1502C19.467 12.1392 19.4542 12.1239 19.4458 12.1057C19.4374 12.0875 19.4336 12.067 19.4348 12.0462C19.4361 12.0255 19.4422 12.0051 19.4527 11.9871C19.462 11.9732 19.4922 11.965 19.5433 11.9627C19.5897 11.9604 19.6304 11.9465 19.6652 11.9209Z" fill="white"/>
<path d="M22.8078 12.332L22.3758 11.9139C22.3592 11.9019 22.348 11.8838 22.3447 11.8635C22.3415 11.8433 22.3464 11.8226 22.3584 11.8059C22.3704 11.7893 22.3885 11.7781 22.4088 11.7749C22.429 11.7716 22.4498 11.7765 22.4664 11.7885C22.7707 11.9441 22.9391 12.0881 22.9716 12.2205C23.0297 12.4551 22.9751 12.4923 22.8078 12.332Z" fill="white"/>
<path d="M21.8985 14.0844C21.8985 14.2464 21.8666 14.4068 21.8046 14.5564C21.7426 14.7061 21.6518 14.842 21.5373 14.9566C21.4227 15.0711 21.2868 15.1619 21.1371 15.2239C20.9875 15.2859 20.8271 15.3178 20.6651 15.3178C20.338 15.3178 20.0243 15.1879 19.793 14.9566C19.5617 14.7253 19.4318 14.4115 19.4318 14.0844C19.4318 13.7573 19.5617 13.4436 19.793 13.2123C20.0243 12.981 20.338 12.8511 20.6651 12.8511C20.8271 12.8511 20.9875 12.883 21.1371 12.945C21.2868 13.0069 21.4227 13.0978 21.5373 13.2123C21.6518 13.3268 21.7426 13.4628 21.8046 13.6124C21.8666 13.7621 21.8985 13.9225 21.8985 14.0844ZM21.7173 14.067C21.7173 13.9339 21.6911 13.802 21.6401 13.679C21.5892 13.556 21.5145 13.4443 21.4204 13.3501C21.3262 13.256 21.2145 13.1813 21.0914 13.1303C20.9684 13.0794 20.8366 13.0531 20.7035 13.0531C20.5703 13.0531 20.4385 13.0794 20.3155 13.1303C20.1925 13.1813 20.0807 13.256 19.9865 13.3501C19.8924 13.4443 19.8177 13.556 19.7668 13.679C19.7158 13.802 19.6896 13.9339 19.6896 14.067C19.6896 14.3359 19.7964 14.5938 19.9865 14.7839C20.1767 14.9741 20.4346 15.0809 20.7035 15.0809C20.9723 15.0809 21.2302 14.9741 21.4204 14.7839C21.6105 14.5938 21.7173 14.3359 21.7173 14.067Z" fill="white"/>
<path d="M22.7243 12.994L23.111 13.5131C23.1993 13.6315 23.1737 13.6687 23.0344 13.6246C22.7696 13.5433 22.6383 13.3424 22.6407 13.0218C22.6407 12.9266 22.6685 12.9173 22.7243 12.994Z" fill="white"/>
<path d="M18.1984 14.4817C18.6049 14.6094 18.829 14.8661 18.8708 15.2517C18.8824 15.3794 18.8302 15.4177 18.714 15.3666C18.5143 15.2807 18.3831 15.1228 18.3203 14.8928C18.2878 14.772 18.2181 14.6803 18.1113 14.6176C18.0161 14.5618 17.9348 14.5386 17.8674 14.5479C17.7234 14.5711 17.6456 14.5096 17.634 14.3632C17.6154 14.0961 17.6409 13.8859 17.7106 13.7326C17.8291 13.4748 17.9034 13.4841 17.9336 13.7605L17.9928 14.2935C18.0021 14.3772 18.0707 14.4399 18.1984 14.4817Z" fill="white"/>
<path d="M23.4419 13.9974C23.421 13.9301 23.4094 13.8906 23.4071 13.879C23.3583 13.591 23.4303 13.5561 23.6231 13.7745C23.7183 13.8813 23.7485 14.0334 23.7137 14.2309C23.6928 14.347 23.6278 14.4283 23.5186 14.4748C23.1655 14.6234 22.8961 14.8708 22.7103 15.2169C22.7025 15.2327 22.6894 15.2449 22.6734 15.2514C22.6574 15.2579 22.6394 15.2583 22.6227 15.2524C22.606 15.2466 22.5916 15.2349 22.5821 15.2194C22.5727 15.204 22.5687 15.1858 22.5709 15.1681C22.5918 15.0427 22.6383 14.9265 22.7103 14.8197C22.7428 14.7686 22.8264 14.7082 22.9611 14.6385C23.1586 14.5363 23.313 14.39 23.4245 14.1995C23.4617 14.1345 23.4675 14.0671 23.4419 13.9974Z" fill="white"/>
<path d="M18.5354 16.1998C18.7506 16.4091 18.9707 16.5317 19.0271 16.4738C19.0834 16.4159 18.9546 16.1992 18.7394 15.99C18.5242 15.7807 18.3041 15.658 18.2478 15.716C18.1914 15.7739 18.3202 15.9905 18.5354 16.1998Z" fill="white"/>
<path d="M22.7591 16.1819C22.7173 16.2214 22.6847 16.2574 22.6615 16.2899C22.5733 16.4084 22.4792 16.4618 22.3793 16.4502C22.2516 16.4386 22.2341 16.3886 22.3271 16.3004C22.4176 16.2098 22.5082 16.118 22.5988 16.0251C22.6894 15.9345 22.7788 15.8416 22.8671 15.7464C22.9553 15.6535 23.0064 15.6709 23.0204 15.7987C23.0343 15.8985 22.9832 15.9926 22.8671 16.0809C22.8346 16.1064 22.7986 16.1401 22.7591 16.1819Z" fill="white"/>
<path d="M20.6582 16.7568C20.7465 16.7591 20.8173 16.7487 20.8707 16.7254C20.9172 16.7045 20.959 16.6592 20.9962 16.5895C21.1564 16.2922 21.3968 16.0727 21.7174 15.9311C21.7377 15.9214 21.7602 15.917 21.7827 15.9183C21.8052 15.9195 21.827 15.9263 21.8463 15.938L21.9717 16.0077C21.9854 16.0153 21.9965 16.0266 22.0038 16.0404C22.0111 16.0543 22.0142 16.0699 22.0127 16.0854C22.0112 16.101 22.0052 16.1158 21.9955 16.1279C21.9857 16.1401 21.9726 16.1492 21.9578 16.154C21.4561 16.3352 21.1285 16.6325 20.9753 17.046C20.9427 17.1342 20.88 17.1795 20.7871 17.1818C20.7639 17.1842 20.7198 17.1842 20.6547 17.1818C20.5897 17.1818 20.5455 17.1818 20.5223 17.1818C20.4294 17.1749 20.3679 17.1273 20.3377 17.039C20.1937 16.6209 19.8731 16.3155 19.3761 16.1227C19.3614 16.1174 19.3486 16.1081 19.3392 16.0957C19.3298 16.0833 19.3242 16.0684 19.3231 16.0529C19.322 16.0374 19.3254 16.0219 19.333 16.0083C19.3405 15.9947 19.3518 15.9836 19.3656 15.9763L19.491 15.9101C19.5105 15.8989 19.5325 15.8927 19.555 15.8921C19.5775 15.8915 19.5998 15.8965 19.6199 15.9067C19.9382 16.0553 20.1739 16.2806 20.3272 16.5826C20.3621 16.6523 20.4027 16.6987 20.4492 16.7219C20.5003 16.7452 20.5699 16.7568 20.6582 16.7568Z" fill="white"/>
<path d="M15.6724 18.7114C14.4112 18.0982 13.3764 18.0007 12.0385 18.3351C12.016 18.3409 11.9925 18.3416 11.9697 18.337C11.947 18.3323 11.9256 18.3226 11.9071 18.3085C11.8887 18.2944 11.8736 18.2763 11.8632 18.2556C11.8528 18.2349 11.8472 18.212 11.8469 18.1888V18.0843C11.8469 17.924 11.9247 17.8265 12.0803 17.7916C13.4205 17.4827 14.6423 17.7243 15.7456 18.5163C15.785 18.5442 15.792 18.5802 15.7665 18.6243L15.7212 18.7044C15.7119 18.7207 15.6956 18.723 15.6724 18.7114Z" fill="white"/>
<path d="M27.7107 26.3317C27.8218 26.9197 28.0207 27.3759 28.155 27.3505C28.2892 27.3251 28.308 26.8279 28.1968 26.2399C28.0857 25.6518 27.8868 25.1957 27.7526 25.2211C27.6184 25.2464 27.5996 25.7437 27.7107 26.3317Z" fill="white"/>
<path d="M22.6092 27.8536C22.5976 27.8568 22.5854 27.8575 22.5734 27.8559C22.5614 27.8542 22.5499 27.8502 22.5395 27.844C22.5291 27.8378 22.5201 27.8297 22.5129 27.8199C22.5057 27.8102 22.5006 27.7992 22.4977 27.7874L22.4873 27.7317C22.3808 27.2557 22.3042 26.7933 22.2741 26.4464C22.2441 26.0995 22.2631 25.8963 22.327 25.8816L22.4037 25.8642C22.4682 25.8533 22.5717 26.0304 22.6918 26.3567C22.8119 26.6831 22.9388 27.1322 23.0447 27.6063L23.0587 27.662C23.0612 27.6737 23.0615 27.6857 23.0593 27.6975C23.0572 27.7092 23.0528 27.7205 23.0463 27.7305C23.0398 27.7405 23.0314 27.7492 23.0216 27.756C23.0118 27.7628 23.0007 27.7675 22.989 27.77L22.6092 27.8536Z" fill="white"/>
<path d="M25.5307 27.2424C25.6886 27.905 25.9577 28.4085 26.1318 28.3671C26.3058 28.3256 26.319 27.7548 26.1611 27.0922C26.0033 26.4296 25.7342 25.926 25.5601 25.9675C25.386 26.009 25.3729 26.5797 25.5307 27.2424Z" fill="white"/>
<path d="M21.4212 29.7838C21.6233 29.5724 21.7591 29.3169 21.8288 29.0173C21.8474 28.936 21.8927 28.8745 21.9647 28.8327L22.0762 28.7699C22.0903 28.7622 22.1063 28.7582 22.1224 28.7583C22.1386 28.7585 22.1544 28.7628 22.1684 28.7708C22.1824 28.7789 22.1941 28.7904 22.2023 28.8043C22.2106 28.8182 22.2152 28.8339 22.2155 28.8501C22.2086 29.7025 22.0599 30.5213 21.7696 31.3064C21.7431 31.3779 21.6966 31.4402 21.6357 31.486C21.5747 31.5318 21.5019 31.5591 21.4258 31.5646C21.3498 31.5701 21.2737 31.5536 21.2068 31.5171C21.1399 31.4806 21.0849 31.4256 21.0484 31.3586C20.6071 30.5387 20.4631 29.7966 20.6164 29.1323C20.7697 28.4726 20.9497 28.4657 21.1564 29.1114C21.1866 29.2066 21.2203 29.4122 21.2574 29.7281C21.2737 29.8628 21.3283 29.8814 21.4212 29.7838Z" fill="white"/>
<path d="M44.1553 21.8553C44.1553 21.0199 44.2463 20.1927 44.4283 19.3737C44.6103 18.5465 44.8791 17.7607 45.2348 17.0162C45.5905 16.2635 46.0331 15.5686 46.5625 14.9317C47.0919 14.2947 47.7082 13.7447 48.4113 13.2814C49.1144 12.8099 49.8961 12.4418 50.7564 12.1771C51.6249 11.9124 52.5762 11.7801 53.6102 11.7801C54.487 11.7801 55.3184 11.8421 56.1042 11.9662C56.8983 12.0903 57.6014 12.2226 58.2136 12.3632C58.925 12.5287 59.5908 12.7189 60.2112 12.934L59.6157 17.5994H58.2136L57.6304 14.8945C57.3078 14.6463 56.9562 14.4436 56.5757 14.2865C56.1952 14.1293 55.794 14.0052 55.3721 13.9142C54.9503 13.815 54.5119 13.7488 54.0569 13.7157C53.6019 13.6744 53.1387 13.6537 52.6672 13.6537C51.9475 13.6537 51.2444 13.7529 50.5579 13.9515C49.8796 14.15 49.2798 14.4271 48.7587 14.7828C48.4278 15.1716 48.1383 15.6017 47.8901 16.0732C47.6503 16.5447 47.4517 17.0328 47.2946 17.5374C47.1374 18.042 47.0174 18.5548 46.9347 19.076C46.8603 19.5888 46.8231 20.0851 46.8231 20.5649C46.8231 21.7809 46.972 22.91 47.2697 23.9523C47.5758 24.9863 48.0514 25.8879 48.6967 26.6572C49.3501 27.4182 50.1898 28.018 51.2155 28.4564C52.2412 28.8865 53.4779 29.1016 54.9255 29.1016C55.0495 29.1016 55.2977 29.0437 55.6699 28.9279C56.0422 28.8121 56.4682 28.6673 56.948 28.4936C57.436 28.3199 57.9365 28.1338 58.4493 27.9352C58.9705 27.7367 59.4337 27.5547 59.839 27.3893L60.3229 28.4067C59.1979 29.1429 58.2301 29.7054 57.4195 30.0942C56.6171 30.483 55.947 30.7642 55.4094 30.938C54.88 31.1117 54.4664 31.2068 54.1686 31.2233C53.8708 31.2482 53.6681 31.2606 53.5606 31.2606C52.5018 31.2606 51.5339 31.1406 50.6571 30.9007C49.7886 30.6526 49.0027 30.3134 48.2996 29.8833C47.6048 29.4531 46.9968 28.9403 46.4756 28.3447C45.9628 27.7491 45.5326 27.1039 45.1852 26.4091C44.8378 25.7142 44.5772 24.9821 44.4035 24.2128C44.2381 23.4353 44.1553 22.6494 44.1553 21.8553ZM61.1543 29.9825C61.5761 29.8667 61.9525 29.7633 62.2834 29.6723C62.6225 29.5814 62.912 29.4531 63.1519 29.2877L69.4924 13.3311L68.4129 12.934L68.4005 12.3136C68.7562 12.2309 69.054 12.1606 69.2939 12.1027C69.542 12.0448 69.7819 11.9869 70.0135 11.929C70.2452 11.8628 70.4974 11.7925 70.7704 11.718C71.0434 11.6436 71.3908 11.5443 71.8127 11.4202C71.9202 11.7098 72.0195 11.9662 72.1105 12.1895C72.2097 12.4129 72.3173 12.6569 72.4331 12.9216C72.5489 13.178 72.6854 13.4841 72.8426 13.8398C72.9997 14.1872 73.1941 14.6298 73.4257 15.1674C73.6573 15.7051 73.9345 16.3627 74.2571 17.1403C74.5879 17.9179 74.985 18.8692 75.4482 19.9941C75.9115 21.1191 76.4491 22.4426 77.0613 23.9647C77.6817 25.4785 78.3972 27.2404 79.2078 29.2505L79.0713 29.3001L81.1311 29.9825V31H73.7359V29.9825C74.0254 29.9081 74.2901 29.8378 74.53 29.7716C74.7699 29.7054 74.9809 29.631 75.1628 29.5483C75.3531 29.4655 75.5185 29.3704 75.6592 29.2629C75.7998 29.1471 75.9156 29.0065 76.0066 28.841C75.866 28.4688 75.6674 27.9518 75.411 27.29C75.1546 26.62 74.8154 25.7473 74.3935 24.6719H66.9488L65.2365 29.3994L67.7553 29.9825V31H61.1543V29.9825ZM73.8104 23.1706L70.5223 14.9069C70.423 15.0971 70.3196 15.3536 70.2121 15.6762L67.4947 23.1706H73.8104ZM83.2528 24.8084L84.6673 24.8332L85.1885 27.6871C85.2381 27.8691 85.2877 28.018 85.3374 28.1338C85.387 28.2413 85.4366 28.3282 85.4863 28.3943C85.5442 28.4605 85.5979 28.5143 85.6476 28.5556C85.6972 28.5887 85.7427 28.6177 85.7841 28.6425C85.966 28.7335 86.2183 28.8369 86.5409 28.9527C86.8635 29.0602 87.2234 29.1636 87.6204 29.2629C88.0175 29.3621 88.4311 29.4449 88.8612 29.511C89.2914 29.5772 89.7132 29.6103 90.1268 29.6103C90.4825 29.6103 90.8051 29.5689 91.0947 29.4862C91.3842 29.4035 91.6447 29.3001 91.8764 29.176C92.108 29.052 92.3106 28.9155 92.4844 28.7666C92.6663 28.6094 92.8276 28.4605 92.9683 28.3199C93.0096 28.2454 93.0551 28.1503 93.1048 28.0345C93.1544 27.9104 93.1999 27.7781 93.2412 27.6374C93.2909 27.4885 93.3322 27.3314 93.3653 27.1659C93.3984 27.0005 93.415 26.8392 93.415 26.682C93.415 26.0368 93.2661 25.4991 92.9683 25.069C92.6705 24.6306 92.2734 24.2583 91.7771 23.9523C91.2891 23.6462 90.7307 23.3815 90.102 23.1582C89.4816 22.9266 88.8447 22.6949 88.1912 22.4633C87.5377 22.2317 86.8966 21.9753 86.268 21.694C85.6476 21.4045 85.0892 21.0488 84.5929 20.6269C84.1048 20.2051 83.7119 19.6963 83.4141 19.1008C83.1163 18.4969 82.9674 17.7566 82.9674 16.8797C82.9674 16.2676 83.0667 15.7175 83.2652 15.2295C83.4638 14.7414 83.7367 14.3072 84.0842 13.9266C84.4316 13.5461 84.8369 13.2194 85.3001 12.9464C85.7716 12.6734 86.2762 12.4501 86.8139 12.2764C87.3599 12.1027 87.9265 11.9745 88.5138 11.8917C89.1011 11.809 89.6884 11.7677 90.2757 11.7677C90.7555 11.7677 91.1815 11.7883 91.5538 11.8297C91.926 11.8628 92.2858 11.9124 92.6333 11.9786C92.9807 12.0365 93.3405 12.1027 93.7127 12.1771C94.085 12.2516 94.5069 12.3219 94.9784 12.3881L94.6185 17.3016H93.2909L92.7946 15.2295C92.7532 15.0392 92.7036 14.8821 92.6457 14.758C92.596 14.6256 92.534 14.514 92.4595 14.423C92.3851 14.3237 92.3024 14.2451 92.2114 14.1872C92.1204 14.121 92.017 14.059 91.9012 14.0011C91.5538 13.8605 91.136 13.7364 90.648 13.6289C90.1682 13.5213 89.6305 13.4676 89.0349 13.4676C88.5386 13.4676 88.0837 13.5006 87.6701 13.5668C87.2647 13.6247 86.9173 13.7364 86.6278 13.9018C86.5368 14.0176 86.4251 14.1334 86.2928 14.2493C86.1687 14.3651 86.0488 14.5057 85.933 14.6711C85.8254 14.8366 85.7303 15.0392 85.6476 15.2791C85.5731 15.5107 85.5359 15.8002 85.5359 16.1477C85.5359 16.826 85.6848 17.3926 85.9826 17.8476C86.2804 18.2942 86.6733 18.6748 87.1613 18.9891C87.6494 19.2952 88.2036 19.5557 88.824 19.7708C89.4444 19.9859 90.0772 20.2009 90.7224 20.416C91.3759 20.6311 92.0129 20.871 92.6333 21.1357C93.2536 21.3921 93.8079 21.7147 94.2959 22.1035C94.784 22.4923 95.1769 22.972 95.4747 23.5428C95.7725 24.1136 95.9214 24.8167 95.9214 25.6522C95.9214 26.711 95.7104 27.6044 95.2886 28.3323C94.8667 29.052 94.2959 29.631 93.5763 30.0694C92.8566 30.5078 92.0211 30.8222 91.0698 31.0124C90.1268 31.2027 89.1301 31.2978 88.0795 31.2978C87.6577 31.2978 87.211 31.2564 86.7395 31.1737C86.2762 31.091 85.8089 30.9793 85.3374 30.8387C84.8741 30.6981 84.4192 30.5368 83.9725 30.3548C83.5258 30.1645 83.1039 29.966 82.7069 29.7592L83.2528 24.8084ZM98.5767 29.9825C99.0068 29.8667 99.346 29.7592 99.5941 29.6599C99.8423 29.5607 100.028 29.4242 100.152 29.2505C100.277 29.0768 100.351 28.8452 100.376 28.5556C100.409 28.2661 100.425 27.8732 100.425 27.3769V13.7529L98.6387 13.0581V12.0406H105.054V13.0581C104.615 13.1739 104.268 13.2814 104.011 13.3807C103.755 13.48 103.561 13.6164 103.428 13.7902C103.296 13.9639 103.209 14.1955 103.168 14.485C103.126 14.7745 103.106 15.1674 103.106 15.6638V29.3001L105.054 29.9825V31H98.5767V29.9825Z" fill="white"/>
</svg>
