<svg width="163" height="54" viewBox="0 0 163 54" fill="none" xmlns="http://www.w3.org/2000/svg">
<path d="M7.0732 12.9872C10.4679 12.9872 13.2198 10.2353 13.2198 6.84065C13.2198 3.446 10.4679 0.694092 7.0732 0.694092C3.67855 0.694092 0.926636 3.446 0.926636 6.84065C0.926636 10.2353 3.67855 12.9872 7.0732 12.9872Z" fill="white"/>
<path d="M25.8168 1.82379L16.2009 1.84057C15.7741 1.84132 15.4287 2.1879 15.4294 2.61468L15.4462 12.2306C15.447 12.6574 15.7935 13.0028 16.2203 13.002L25.8362 12.9852C26.263 12.9845 26.6084 12.6379 26.6077 12.2111L26.5909 2.5952C26.5901 2.16842 26.2435 1.82304 25.8168 1.82379Z" fill="white"/>
<path d="M39.1122 1.87573L29.6062 1.89233C29.1402 1.89314 28.763 2.27162 28.7638 2.7377L28.7804 12.2437C28.7812 12.7097 29.1597 13.0869 29.6258 13.0861L39.1318 13.0695C39.5978 13.0687 39.975 12.6902 39.9742 12.2241L39.9576 2.71816C39.9568 2.25209 39.5783 1.87492 39.1122 1.87573Z" fill="white"/>
<path d="M12.392 15.294L2.86014 15.3106C2.40479 15.3114 2.03629 15.6812 2.03708 16.1366L2.05372 25.6684C2.05451 26.1238 2.4243 26.4923 2.87966 26.4915L12.4115 26.4748C12.8669 26.474 13.2354 26.1043 13.2346 25.6489L13.2179 16.1171C13.2171 15.6617 12.8473 15.2932 12.392 15.294Z" fill="white"/>
<path d="M25.7683 15.3073L16.2559 15.2907C15.7934 15.2899 15.4178 15.6642 15.417 16.1267L15.4004 25.6391C15.3996 26.1016 15.7738 26.4772 16.2363 26.478L25.7488 26.4946C26.2113 26.4954 26.5869 26.1211 26.5877 25.6586L26.6043 16.1462C26.6051 15.6837 26.2308 15.3081 25.7683 15.3073Z" fill="white"/>
<path d="M12.4245 28.7096L2.86677 28.6929C2.42034 28.6921 2.05781 29.0534 2.05703 29.4998L2.04035 39.0575C2.03957 39.504 2.40084 39.8665 2.84727 39.8673L12.405 39.884C12.8514 39.8847 13.2139 39.5235 13.2147 39.077L13.2314 29.5193C13.2322 29.0729 12.8709 28.7104 12.4245 28.7096Z" fill="white"/>
<path d="M25.7911 28.7063L16.2204 28.6896C15.7758 28.6888 15.4147 29.0486 15.4139 29.4933L15.3972 39.0639C15.3964 39.5086 15.7563 39.8696 16.2009 39.8704L25.7716 39.8871C26.2162 39.8879 26.5773 39.5281 26.5781 39.0834L26.5948 29.5128C26.5955 29.0681 26.2357 28.7071 25.7911 28.7063Z" fill="white"/>
<path d="M39.1122 28.6864L29.6062 28.703C29.1419 28.7038 28.7662 29.0809 28.767 29.5452L28.7836 39.0511C28.7844 39.5154 29.1615 39.8911 29.6258 39.8903L39.1317 39.8737C39.596 39.8729 39.9717 39.4959 39.9709 39.0316L39.9543 29.5256C39.9535 29.0614 39.5765 28.6856 39.1122 28.6864Z" fill="white"/>
<path d="M65.4735 33.2796C64.5779 32.911 62.7511 32.3064 62.5732 33.5124C62.5484 33.6822 62.5763 33.8556 62.6532 34.0093C62.7301 34.163 62.8522 34.2898 63.0033 34.3725C64.4421 35.1549 66.5955 35.7563 66.0911 38.0552C65.5932 40.3153 62.4601 40.1989 60.7981 39.4811C60.7335 39.4531 60.7011 39.4035 60.7011 39.3324V37.7933C60.7011 37.7394 60.7248 37.7254 60.7723 37.7513C61.6259 38.191 62.8739 38.5952 63.7825 38.3559C64.3451 38.2039 64.6005 37.6122 64.2707 37.124C64.1586 36.9602 63.9808 36.8136 63.7372 36.6843C62.6961 36.1346 62.1604 35.8512 62.1303 35.8339C60.2808 34.8316 60.3228 32.1673 62.4342 31.4657C63.5163 31.1079 64.7299 31.2512 66.0749 31.8957C66.1051 31.9108 66.1137 31.9345 66.1008 31.9669L65.577 33.2376C65.5576 33.2871 65.5231 33.3011 65.4735 33.2796Z" fill="white"/>
<path d="M108.351 36.2995C108.351 37.2591 107.97 38.1793 107.291 38.8579C106.613 39.5364 105.692 39.9176 104.733 39.9176H104.041C103.081 39.9176 102.161 39.5364 101.482 38.8579C100.804 38.1793 100.423 37.2591 100.423 36.2995V34.9221C100.423 33.9625 100.804 33.0422 101.482 32.3637C102.161 31.6852 103.081 31.304 104.041 31.304H104.733C105.692 31.304 106.613 31.6852 107.291 32.3637C107.97 33.0422 108.351 33.9625 108.351 34.9221V36.2995ZM106.46 34.7648C106.463 34.2571 106.264 33.7692 105.907 33.4084C105.55 33.0475 105.064 32.8433 104.556 32.8407L104.246 32.839C103.738 32.8364 103.25 33.0355 102.89 33.3926C102.529 33.7497 102.325 34.2355 102.322 34.7431L102.313 36.4632C102.31 36.9709 102.509 37.4588 102.866 37.8197C103.224 38.1805 103.709 38.3847 104.217 38.3874L104.527 38.389C105.035 38.3916 105.523 38.1925 105.884 37.8354C106.245 37.4784 106.449 36.9926 106.452 36.4849L106.46 34.7648Z" fill="white"/>
<path d="M49.5301 31.4139H47.9522C47.8915 31.4139 47.8423 31.4631 47.8423 31.5238V39.7042C47.8423 39.7649 47.8915 39.8141 47.9522 39.8141H49.5301C49.5908 39.8141 49.64 39.7649 49.64 39.7042V31.5238C49.64 31.4631 49.5908 31.4139 49.5301 31.4139Z" fill="white"/>
<path d="M56.1196 35.1938C56.1303 35.211 56.1401 35.2293 56.1487 35.2487C56.5539 35.9967 56.9926 36.7339 57.4646 37.4603C57.497 37.5099 57.5131 37.5056 57.5131 37.4474V31.4916C57.5131 31.4334 57.5379 31.4043 57.5875 31.4043H58.952C59.0511 31.4043 59.1007 31.455 59.1007 31.5563V39.6493C59.1007 39.7549 59.0479 39.8077 58.9423 39.8077H57.0411C56.9117 39.8077 56.8147 39.7506 56.7501 39.6364C56.694 39.5372 55.9999 38.3312 54.6678 36.0183C54.657 36.001 54.6473 35.9827 54.6387 35.9633C54.2335 35.2153 53.7948 34.4781 53.3227 33.7517C53.2904 33.7021 53.2742 33.7064 53.2742 33.7646V39.7204C53.2742 39.7786 53.2495 39.8077 53.1999 39.8077H51.8354C51.7363 39.8077 51.6867 39.7571 51.6867 39.6558V31.5627C51.6867 31.4571 51.7395 31.4043 51.8451 31.4043H53.7463C53.8756 31.4043 53.9726 31.4614 54.0373 31.5757C54.0933 31.6748 54.7874 32.8809 56.1196 35.1938Z" fill="white"/>
<path d="M70.0682 31.414C71.7323 31.414 72.7185 31.414 73.0267 31.414C73.1604 31.4118 73.2272 31.4776 73.2272 31.6112V32.7558C73.2272 32.8636 73.1733 32.9175 73.0655 32.9175H71.1708C71.0372 32.9175 70.9703 32.9843 70.9703 33.1179V39.6105C70.9703 39.7096 70.9208 39.7657 70.8216 39.7786C70.6427 39.8001 70.3916 39.8109 70.0682 39.8109C69.7471 39.8109 69.4959 39.8001 69.3149 39.7786C69.2157 39.7657 69.1661 39.7096 69.1661 39.6105V33.1179C69.1661 32.9843 69.0993 32.9175 68.9657 32.9175H67.0709C66.9632 32.9175 66.9093 32.8636 66.9093 32.7558V31.6112C66.9093 31.4776 66.9761 31.4118 67.1097 31.414C67.4158 31.414 68.402 31.414 70.0682 31.414Z" fill="white"/>
<path d="M76.1437 31.4172H74.5787C74.5109 31.4172 74.4559 31.4722 74.4559 31.5401V39.6946C74.4559 39.7624 74.5109 39.8174 74.5787 39.8174H76.1437C76.2115 39.8174 76.2665 39.7624 76.2665 39.6946V31.5401C76.2665 31.4722 76.2115 31.4172 76.1437 31.4172Z" fill="white"/>
<path d="M80.7155 39.8142C80.3922 39.8142 80.1411 39.8024 79.9621 39.7787C79.863 39.7657 79.8134 39.7097 79.8134 39.6105L79.8166 33.118C79.8166 32.9844 79.7498 32.9175 79.6162 32.9175H77.7182C77.6104 32.9175 77.5565 32.8636 77.5565 32.7559L77.5598 31.6113C77.5598 31.4776 77.6266 31.4108 77.7602 31.4108C78.0663 31.4108 79.0525 31.4119 80.7187 31.414C82.3828 31.414 83.369 31.414 83.6772 31.414C83.8109 31.414 83.8777 31.4809 83.8777 31.6145V32.7591C83.8777 32.8669 83.8238 32.9208 83.716 32.9208L81.8213 32.9175C81.6877 32.9175 81.6208 32.9844 81.6208 33.118L81.6144 39.6138C81.6144 39.7129 81.5648 39.7679 81.4656 39.7787C81.2867 39.8024 81.0367 39.8142 80.7155 39.8142Z" fill="white"/>
<path d="M88.5499 38.4109C89.6621 38.4142 90.2021 37.858 90.2086 36.7199C90.2129 35.0968 90.2172 33.3605 90.2215 31.511C90.2215 31.4485 90.2528 31.4172 90.3153 31.4172H91.8479C91.947 31.4172 91.9966 31.4679 91.9966 31.5692C91.9988 32.7246 91.9955 33.8983 91.9869 35.0903C91.974 36.6574 91.9481 37.5261 91.9093 37.6964C91.5342 39.2839 90.118 39.9338 88.5466 39.9306C86.9752 39.9306 85.5623 39.2742 85.1937 37.6834C85.1549 37.5131 85.1312 36.6444 85.1225 35.0774C85.1182 33.8853 85.1193 32.7116 85.1258 31.5563C85.1258 31.455 85.1754 31.4043 85.2745 31.4043L86.8071 31.4108C86.8696 31.4108 86.9009 31.442 86.9009 31.5045C86.8987 33.354 86.8976 35.0903 86.8976 36.7134C86.8976 37.8516 87.4344 38.4077 88.5499 38.4109Z" fill="white"/>
<path d="M96.3778 39.8175C96.0544 39.8175 95.8033 39.8056 95.6244 39.7819C95.5252 39.7711 95.4757 39.7161 95.4757 39.617L95.4692 33.1212C95.4692 32.9876 95.4024 32.9208 95.2687 32.9208H93.374C93.2662 32.9208 93.2123 32.8669 93.2123 32.7591L93.2091 31.6145C93.2091 31.4809 93.277 31.414 93.4128 31.414C93.7189 31.4162 94.705 31.4162 96.3713 31.414C98.0375 31.4119 99.0248 31.4108 99.333 31.4108C99.4667 31.4108 99.5335 31.4776 99.5335 31.6113V32.7559C99.5335 32.8636 99.4796 32.9175 99.3718 32.9175H97.4771C97.3434 32.9175 97.2766 32.9844 97.2766 33.118L97.2799 39.6138C97.2799 39.7129 97.2303 39.769 97.1311 39.7819C96.9501 39.8056 96.6989 39.8175 96.3778 39.8175Z" fill="white"/>
<path d="M115.028 35.0224H117.627C117.643 35.0224 117.658 35.0254 117.672 35.0313C117.686 35.0371 117.699 35.0457 117.71 35.0565C117.72 35.0673 117.729 35.0802 117.735 35.0943C117.741 35.1084 117.744 35.1235 117.744 35.1388V36.3384C117.744 36.3537 117.741 36.3688 117.735 36.3829C117.729 36.3971 117.72 36.4099 117.71 36.4207C117.699 36.4315 117.686 36.4401 117.672 36.4459C117.658 36.4518 117.643 36.4548 117.627 36.4548H115.034C115.003 36.4548 114.974 36.4671 114.952 36.4889C114.93 36.5107 114.918 36.5403 114.918 36.5712V39.6946C114.918 39.7255 114.906 39.7551 114.884 39.7769C114.862 39.7987 114.832 39.811 114.801 39.811H113.262C113.231 39.811 113.202 39.7987 113.18 39.7769C113.158 39.7551 113.146 39.7255 113.146 39.6946V31.5272C113.146 31.4963 113.158 31.4667 113.18 31.4449C113.202 31.4231 113.231 31.4108 113.262 31.4108H117.841C117.872 31.4108 117.901 31.4231 117.923 31.4449C117.945 31.4667 117.957 31.4963 117.957 31.5272V32.7397C117.957 32.7706 117.945 32.8002 117.923 32.822C117.901 32.8438 117.872 32.8561 117.841 32.8561H115.028C114.997 32.8561 114.967 32.8684 114.945 32.8902C114.924 32.912 114.911 32.9416 114.911 32.9725V34.906C114.911 34.9369 114.924 34.9665 114.945 34.9883C114.967 35.0102 114.997 35.0224 115.028 35.0224Z" fill="white"/>
<path d="M121.488 32.856C121.417 32.856 121.381 32.8894 121.381 32.9562V34.6052C121.381 34.6785 121.418 34.7151 121.491 34.7151L124.068 34.7184C124.167 34.7184 124.217 34.768 124.217 34.8671L124.214 36.002C124.211 36.1012 124.162 36.1497 124.065 36.1475L121.485 36.1346C121.418 36.1346 121.384 36.168 121.384 36.2348L121.381 38.233C121.381 38.2544 121.39 38.275 121.405 38.2902C121.42 38.3053 121.441 38.3138 121.462 38.3138L124.32 38.3203C124.345 38.3203 124.369 38.3305 124.387 38.3487C124.404 38.3669 124.414 38.3916 124.414 38.4173V39.7171C124.414 39.742 124.404 39.7658 124.387 39.7834C124.369 39.801 124.345 39.8109 124.32 39.8109L119.781 39.8141C119.654 39.8141 119.59 39.7505 119.59 39.6233V31.5271C119.59 31.5126 119.593 31.4983 119.598 31.485C119.604 31.4717 119.612 31.4595 119.622 31.4493C119.632 31.4391 119.644 31.431 119.658 31.4255C119.671 31.42 119.685 31.4171 119.7 31.4171L124.256 31.4139C124.361 31.4139 124.414 31.457 124.414 31.5432L124.411 32.7202C124.411 32.8129 124.354 32.8592 124.239 32.8592L121.488 32.856Z" fill="white"/>
<path d="M126.15 31.5239C126.15 31.4913 126.163 31.4601 126.186 31.437C126.209 31.414 126.241 31.4011 126.273 31.4011L129.151 31.4075C130.2 31.4093 131.206 31.8174 131.947 32.542C132.688 33.2666 133.104 34.2484 133.102 35.2714V35.9504C133.101 36.4569 132.998 36.9584 132.798 37.4261C132.599 37.8937 132.306 38.3185 131.938 38.6761C131.57 39.0337 131.133 39.3171 130.653 39.5102C130.172 39.7032 129.658 39.8021 129.138 39.8013L126.26 39.7948C126.244 39.7948 126.228 39.7916 126.213 39.7854C126.198 39.7793 126.185 39.7702 126.173 39.7588C126.162 39.7474 126.153 39.7338 126.147 39.7189C126.141 39.704 126.137 39.6881 126.137 39.6719L126.15 31.5239ZM127.948 32.966L127.954 38.1781C127.954 38.2116 127.968 38.2436 127.991 38.2673C128.015 38.2909 128.047 38.3042 128.081 38.3042L128.947 38.301C129.247 38.3006 129.544 38.2409 129.822 38.1255C130.099 38.0101 130.351 37.8411 130.563 37.6282C130.775 37.4153 130.943 37.1627 131.057 36.8848C131.172 36.6069 131.23 36.3092 131.23 36.0086V35.1226C131.229 34.5155 130.987 33.9336 130.558 33.5049C130.129 33.0762 129.547 32.8358 128.941 32.8367L128.074 32.8399C128.041 32.8399 128.009 32.8532 127.985 32.8768C127.961 32.9005 127.948 32.9326 127.948 32.966Z" fill="white"/>
<path d="M136.723 34.7185H139.323C139.354 34.7185 139.383 34.7308 139.405 34.7526C139.427 34.7744 139.439 34.804 139.439 34.8349V36.0248C139.439 36.0556 139.427 36.0852 139.405 36.1071C139.383 36.1289 139.354 36.1412 139.323 36.1412H136.723C136.692 36.1412 136.663 36.1534 136.641 36.1753C136.619 36.1971 136.607 36.2267 136.607 36.2576V38.204C136.607 38.2349 136.619 38.2645 136.641 38.2863C136.663 38.3082 136.692 38.3204 136.723 38.3204H139.523C139.554 38.3204 139.584 38.3327 139.606 38.3545C139.628 38.3763 139.64 38.406 139.64 38.4368V39.6978C139.64 39.7287 139.628 39.7583 139.606 39.7801C139.584 39.802 139.554 39.8142 139.523 39.8142H134.932C134.901 39.8142 134.872 39.802 134.85 39.7801C134.828 39.7583 134.816 39.7287 134.816 39.6978V31.5272C134.816 31.4963 134.828 31.4667 134.85 31.4449C134.872 31.4231 134.901 31.4108 134.932 31.4108H139.523C139.554 31.4108 139.584 31.4231 139.606 31.4449C139.628 31.4667 139.64 31.4963 139.64 31.5272V32.7397C139.64 32.7706 139.628 32.8002 139.606 32.822C139.584 32.8438 139.554 32.8561 139.523 32.8561H136.723C136.692 32.8561 136.663 32.8684 136.641 32.8902C136.619 32.912 136.607 32.9416 136.607 32.9725V34.6021C136.607 34.633 136.619 34.6626 136.641 34.6844C136.663 34.7062 136.692 34.7185 136.723 34.7185Z" fill="white"/>
<path d="M145.728 36.0765C145.713 36.0828 145.7 36.0923 145.689 36.1043C145.679 36.1163 145.671 36.1306 145.666 36.146C145.662 36.1614 145.66 36.1777 145.663 36.1936C145.665 36.2095 145.671 36.2247 145.68 36.2382L147.924 39.5944C147.937 39.6136 147.955 39.6289 147.976 39.6384C147.998 39.6479 148.021 39.6514 148.044 39.6484C148.067 39.6453 148.089 39.636 148.107 39.6213C148.125 39.6066 148.139 39.5872 148.147 39.5653L150.957 31.566C150.993 31.4625 151.066 31.4108 151.176 31.4108H153.036C153.139 31.4108 153.208 31.4582 153.242 31.5531L156.127 39.7075C156.15 39.7765 156.126 39.811 156.052 39.811H154.361C154.303 39.811 154.264 39.784 154.245 39.7302L153.624 37.9745C153.587 37.8667 153.512 37.8128 153.398 37.8128H150.811C150.701 37.8128 150.628 37.8645 150.591 37.968L149.99 39.6849C149.957 39.7797 149.891 39.8272 149.789 39.8272H146.246C146.224 39.8271 146.202 39.8215 146.183 39.8107C146.164 39.8 146.148 39.7845 146.136 39.7657L144.073 36.6779C144.053 36.648 144.026 36.6235 143.994 36.6066C143.963 36.5896 143.928 36.5808 143.892 36.5809H143.329C143.221 36.5809 143.167 36.6348 143.167 36.7426V39.7334C143.167 39.7873 143.14 39.8142 143.087 39.8142H141.476C141.405 39.8142 141.37 39.7787 141.37 39.7075V31.6145C141.37 31.511 141.423 31.4561 141.528 31.4496C142.009 31.4194 142.857 31.4086 144.073 31.4173C145.803 31.427 147.329 32.1383 147.138 34.1494C147.05 35.0655 146.58 35.7079 145.728 36.0765ZM143.158 33.0081L143.171 34.9998C143.171 35.0375 143.186 35.0737 143.212 35.1004C143.239 35.1271 143.275 35.1421 143.313 35.1421L144.076 35.1356C144.414 35.1336 144.737 35.0269 144.974 34.8389C145.212 34.651 145.345 34.3972 145.343 34.1333V33.8487C145.343 33.7178 145.309 33.5884 145.244 33.4678C145.18 33.3473 145.085 33.2379 144.966 33.146C144.847 33.0541 144.706 32.9815 144.551 32.9323C144.396 32.8831 144.23 32.8583 144.063 32.8593L143.3 32.8658C143.262 32.8658 143.226 32.8808 143.199 32.9075C143.173 32.9341 143.158 32.9703 143.158 33.0081ZM152.121 36.3319C152.575 36.3298 152.875 36.3211 153.019 36.3061C153.127 36.2953 153.166 36.2371 153.136 36.1315C152.912 35.3598 152.58 34.2863 152.14 32.9111C152.133 32.8938 152.125 32.8852 152.114 32.8852C152.103 32.8852 152.096 32.8938 152.091 32.9111C151.656 34.2885 151.328 35.363 151.108 36.1347C151.078 36.2403 151.117 36.2985 151.225 36.3093C151.367 36.3244 151.666 36.3319 152.121 36.3319Z" fill="white"/>
<path d="M162.402 38.4368V39.6946C162.402 39.7263 162.39 39.7568 162.367 39.7792C162.345 39.8016 162.314 39.8142 162.283 39.8142H157.345C157.314 39.8142 157.283 39.8016 157.261 39.7792C157.238 39.7568 157.226 39.7263 157.226 39.6946V31.5304C157.226 31.4987 157.238 31.4683 157.261 31.4458C157.283 31.4234 157.314 31.4108 157.345 31.4108H158.894C158.926 31.4108 158.956 31.4234 158.979 31.4458C159.001 31.4683 159.014 31.4987 159.014 31.5304V38.1976C159.014 38.2293 159.026 38.2597 159.049 38.2822C159.071 38.3046 159.102 38.3172 159.133 38.3172H162.283C162.314 38.3172 162.345 38.3298 162.367 38.3522C162.39 38.3747 162.402 38.4051 162.402 38.4368Z" fill="white"/>
<path d="M72.8942 44.6415V41.767C72.8942 41.6937 72.9308 41.6571 73.0041 41.6571H73.9256C73.9924 41.6571 74.0258 41.6916 74.0258 41.7606V50.4938C74.0258 50.5495 74.004 50.603 73.9652 50.6424C73.9264 50.6818 73.8738 50.704 73.8189 50.704H73.0946C72.989 50.704 72.9405 50.6512 72.9491 50.5455L72.9847 50.1802C73.0192 49.7965 72.9157 49.7566 72.6743 50.0605C72.5191 50.2588 72.3025 50.4108 72.0244 50.5164C70.7408 51.0144 69.3181 50.4582 68.665 49.2231C67.7144 47.4254 68.1541 44.4475 70.5274 43.9754C71.3745 43.8073 72.1235 44.0465 72.7745 44.6932C72.7846 44.7026 72.7973 44.7089 72.8109 44.7113C72.8245 44.7136 72.8386 44.7119 72.8513 44.7065C72.864 44.701 72.8748 44.6919 72.8824 44.6804C72.89 44.6688 72.8941 44.6553 72.8942 44.6415ZM71.2415 49.8108C71.4834 49.8049 71.7214 49.7345 71.9419 49.6036C72.1624 49.4728 72.361 49.284 72.5264 49.0481C72.6919 48.8122 72.8208 48.5338 72.906 48.2288C72.9912 47.9238 73.031 47.5981 73.0229 47.2704C73.0068 46.6086 72.7971 45.9786 72.4402 45.5191C72.0832 45.0596 71.6082 44.8081 71.1195 44.82C70.8776 44.826 70.6395 44.8964 70.4191 45.0272C70.1986 45.1581 70 45.3469 69.8346 45.5828C69.6691 45.8187 69.5401 46.0971 69.4549 46.4021C69.3698 46.7071 69.33 47.0328 69.338 47.3605C69.3542 48.0223 69.5638 48.6523 69.9208 49.1118C70.2778 49.5713 70.7528 49.8228 71.2415 49.8108Z" fill="white"/>
<path d="M89.106 41.6572C89.2935 41.655 89.4703 41.6636 89.6363 41.683C89.7333 41.6938 89.8012 41.7445 89.84 41.835L93.4354 50.4874C93.4872 50.6124 93.4462 50.6749 93.3126 50.6749H92.3361C92.2812 50.6748 92.2276 50.6577 92.1826 50.6259C92.1375 50.5941 92.103 50.5492 92.0839 50.4971L91.1818 48.0333C91.1408 47.9255 91.06 47.8619 90.9393 47.8425C90.8057 47.821 90.2107 47.8145 89.1545 47.8231C88.1004 47.8317 87.5055 47.8479 87.3697 47.8716C87.2511 47.8932 87.1725 47.9578 87.1337 48.0656L86.2704 50.5456C86.252 50.5978 86.2182 50.6431 86.1737 50.6754C86.1293 50.7078 86.0761 50.7257 86.0214 50.7266L85.0449 50.7428C84.9113 50.745 84.8692 50.6835 84.9188 50.5585L88.372 41.8479C88.4087 41.7552 88.4755 41.7024 88.5725 41.6895C88.7385 41.6679 88.9163 41.6572 89.106 41.6572ZM89.1286 46.8305C89.6352 46.8262 90.0857 46.81 90.4802 46.782C90.5858 46.7755 90.6192 46.7227 90.5804 46.6236L89.1383 42.7856C89.1319 42.7683 89.1222 42.7586 89.1092 42.7565C89.1049 42.7565 89.1006 42.7565 89.0963 42.7565C89.092 42.7565 89.0877 42.7565 89.0834 42.7565C89.0704 42.7586 89.0607 42.7683 89.0543 42.7856L87.6704 46.6462C87.6338 46.7453 87.6682 46.7981 87.7739 46.8046C88.1705 46.8262 88.6221 46.8348 89.1286 46.8305Z" fill="white"/>
<path d="M95.4661 41.6539H94.593C94.5198 41.6539 94.4605 41.7133 94.4605 41.7865V50.5682C94.4605 50.6414 94.5198 50.7008 94.593 50.7008H95.4661C95.5393 50.7008 95.5986 50.6414 95.5986 50.5682V41.7865C95.5986 41.7133 95.5393 41.6539 95.4661 41.6539Z" fill="white"/>
<path d="M12.4115 42.095L2.84081 42.1117C2.39973 42.1125 2.0428 42.4707 2.04357 42.9118L2.06027 52.4824C2.06104 52.9235 2.41923 53.2804 2.8603 53.2796L12.4309 53.2629C12.872 53.2622 13.229 52.904 13.2282 52.4629L13.2115 42.8923C13.2107 42.4512 12.8525 42.0943 12.4115 42.095Z" fill="white"/>
<path d="M25.7713 42.0917L16.2136 42.1084C15.7654 42.1092 15.4027 42.4732 15.4035 42.9214L15.4202 52.4791C15.4209 52.9273 15.7849 53.29 16.2331 53.2893L25.7908 53.2726C26.2391 53.2718 26.6018 52.9078 26.601 52.4596L26.5843 42.9019C26.5835 42.4537 26.2195 42.091 25.7713 42.0917Z" fill="white"/>
<path d="M77.1588 47.4544C76.5639 47.3725 76.3979 47.6495 76.6609 48.2854L76.8517 48.7445C76.9532 48.9895 77.1133 49.2059 77.3178 49.375C77.5224 49.544 77.7653 49.6606 78.0254 49.7145C79.1355 49.943 79.8899 49.5259 80.2887 48.4632C80.3081 48.4158 80.3426 48.3953 80.3922 48.4018L81.4107 48.5376C81.4559 48.5441 81.4721 48.5689 81.4592 48.612C81.1013 49.8062 80.3221 50.4884 79.1215 50.6587C76.3343 51.0531 74.9375 48.8933 75.471 46.3616C75.8881 44.3957 77.7117 43.5227 79.5515 44.1015C80.2197 44.3106 80.722 44.7093 81.0582 45.2978C81.4161 45.9208 81.5713 46.6062 81.5238 47.3542C81.5222 47.3925 81.5054 47.4288 81.4771 47.4553C81.4488 47.4818 81.4111 47.4965 81.3719 47.4965C78.5912 47.4706 77.1869 47.4566 77.1588 47.4544ZM76.6738 46.5491L80.2758 46.5556C80.2869 46.5556 80.2976 46.5511 80.3055 46.5433C80.3134 46.5354 80.3178 46.5247 80.3178 46.5135V46.4877C80.3182 46.2739 80.2721 46.0621 80.182 45.8644C80.092 45.6668 79.9599 45.4871 79.7932 45.3358C79.6266 45.1844 79.4286 45.0643 79.2107 44.9823C78.9928 44.9004 78.7592 44.8582 78.5233 44.8581H78.4263C77.9509 44.8579 77.4949 45.0288 77.1584 45.3331C76.822 45.6374 76.6326 46.0503 76.6318 46.4812V46.5071C76.6318 46.5182 76.6362 46.5289 76.6441 46.5368C76.652 46.5447 76.6627 46.5491 76.6738 46.5491Z" fill="white"/>
<path d="M101.661 50.0606C100.693 50.6254 99.6876 50.8183 98.6443 50.6394C97.961 50.523 97.4803 50.191 97.2023 49.6435C96.63 48.5151 97.4803 47.1732 98.6573 46.9954C100.02 46.7906 100.951 46.6419 101.451 46.5492C101.516 46.5361 101.575 46.5014 101.618 46.4509C101.661 46.4004 101.685 46.337 101.687 46.2711C101.732 44.9099 100.639 44.7773 99.5982 44.884C98.9882 44.9487 98.5818 45.2796 98.3792 45.8767C98.349 45.9629 98.2887 46.006 98.1981 46.006H97.4351C97.2842 46.006 97.226 45.9316 97.2605 45.7829C97.4523 44.9487 97.961 44.4012 98.7866 44.1404C99.9053 43.7847 102.059 43.7362 102.663 45.0166C102.771 45.2472 102.823 45.7872 102.819 46.6365C102.812 47.6755 102.833 48.7123 102.88 49.747C102.893 50.0315 103.026 50.2772 103.1 50.51C103.143 50.6394 103.113 50.704 103.009 50.704H102.153C102.045 50.704 101.968 50.6545 101.923 50.5553C101.871 50.4475 101.844 50.3171 101.842 50.1641C101.842 50.0261 101.782 49.9916 101.661 50.0606ZM101.68 47.4804C101.68 47.4624 101.675 47.4448 101.666 47.4289C101.658 47.4131 101.646 47.3993 101.632 47.3888C101.617 47.3782 101.601 47.371 101.584 47.3679C101.566 47.3647 101.549 47.3656 101.532 47.3705C101.036 47.4976 100.321 47.6399 99.388 47.7973C98.7252 47.9104 98.1464 48.2208 98.2369 48.9354C98.3081 49.4721 98.8836 49.7955 99.3718 49.8019C100.98 49.83 101.749 49.0561 101.68 47.4804Z" fill="white"/>
<path d="M108.936 44.6448V44.0628C108.936 44.0268 108.95 43.9923 108.976 43.9668C109.001 43.9413 109.036 43.927 109.072 43.927H109.854C109.943 43.927 109.988 43.9723 109.99 44.0628C110.001 46.5503 109.999 48.5 109.984 49.9119C109.967 51.3055 109.761 52.476 108.38 53.0386C107.025 53.5882 104.468 53.3975 104.319 51.4478C104.31 51.3378 104.361 51.2785 104.471 51.2699C105.094 51.2182 105.471 51.4046 105.602 51.8293C105.641 51.9522 105.719 52.0395 105.835 52.0912C107.462 52.8155 109.069 52.13 108.794 50.1156C108.774 49.982 108.714 49.9593 108.613 50.0477C107.953 50.6168 107.205 50.8173 106.369 50.6491C103.317 50.0316 103.31 44.6901 106.307 43.9982C107.215 43.7891 108.046 44.0251 108.8 44.7063C108.891 44.7882 108.936 44.7677 108.936 44.6448ZM107.102 49.8181C107.6 49.8137 108.076 49.5466 108.424 49.0754C108.772 48.6042 108.964 47.9676 108.959 47.3056C108.956 46.9778 108.904 46.6537 108.807 46.3517C108.71 46.0497 108.569 45.7757 108.393 45.5455C108.217 45.3152 108.008 45.1332 107.779 45.0097C107.55 44.8863 107.305 44.8238 107.058 44.826C106.56 44.8303 106.085 45.0975 105.736 45.5687C105.388 46.0398 105.196 46.6764 105.202 47.3384C105.204 47.6662 105.256 47.9904 105.353 48.2924C105.45 48.5944 105.591 48.8683 105.767 49.0986C105.944 49.3288 106.152 49.5109 106.381 49.6343C106.61 49.7578 106.855 49.8202 107.102 49.8181Z" fill="white"/>
<path d="M117.447 47.8025C117.454 48.5554 117.161 49.28 116.633 49.817C116.106 50.354 115.386 50.6594 114.633 50.666L114.11 50.6706C113.357 50.6771 112.632 50.3844 112.095 49.8566C111.558 49.3289 111.253 48.6095 111.246 47.8566L111.237 46.8349C111.231 46.082 111.523 45.3574 112.051 44.8203C112.579 44.2833 113.298 43.978 114.051 43.9714L114.575 43.9668C115.328 43.9602 116.052 44.253 116.589 44.7807C117.126 45.3085 117.432 46.0279 117.438 46.7808L117.447 47.8025ZM114.335 49.818C114.599 49.8185 114.861 49.7543 115.106 49.6291C115.35 49.504 115.573 49.3203 115.76 49.0885C115.948 48.8567 116.097 48.5815 116.198 48.2784C116.3 47.9753 116.353 47.6504 116.353 47.3222C116.354 46.994 116.302 46.6689 116.202 46.3655C116.101 46.0621 115.953 45.7863 115.766 45.5539C115.58 45.3214 115.358 45.1369 115.114 45.0109C114.87 44.8849 114.608 44.8198 114.343 44.8193C114.079 44.8189 113.817 44.883 113.572 45.0082C113.328 45.1334 113.105 45.3171 112.918 45.5489C112.73 45.7806 112.581 46.0559 112.48 46.359C112.378 46.662 112.325 46.9869 112.325 47.3152C112.324 47.6434 112.376 47.9685 112.476 48.2719C112.577 48.5753 112.725 48.8511 112.912 49.0835C113.098 49.3159 113.32 49.5004 113.564 49.6264C113.808 49.7525 114.07 49.8176 114.335 49.818Z" fill="white"/>
<path d="M123.182 50.164C123.182 50.0261 123.122 49.9916 123.001 50.0606C122.035 50.6253 121.031 50.8193 119.988 50.6426C119.304 50.5262 118.823 50.1953 118.542 49.6499C117.97 48.5215 118.817 47.1797 119.994 46.9986C121.356 46.7917 122.288 46.6419 122.788 46.5492C122.853 46.536 122.912 46.5014 122.955 46.4509C122.998 46.4004 123.022 46.337 123.024 46.2711C123.066 44.9099 121.973 44.7773 120.932 44.8872C120.322 44.9519 119.917 45.2828 119.716 45.8799C119.686 45.9661 119.625 46.0092 119.535 46.0092L118.772 46.0124C118.621 46.0124 118.563 45.9381 118.597 45.7893C118.787 44.9551 119.295 44.4066 120.12 44.1436C121.239 43.7847 123.392 43.7329 123.997 45.0133C124.105 45.244 124.158 45.784 124.155 46.6332C124.151 47.6722 124.173 48.709 124.22 49.7437C124.233 50.0282 124.369 50.274 124.443 50.5068C124.486 50.6361 124.456 50.7008 124.353 50.7008H123.496C123.388 50.7008 123.311 50.6523 123.266 50.5553C123.214 50.4475 123.186 50.3171 123.182 50.164ZM123.017 47.4836C123.016 47.466 123.011 47.4487 123.003 47.4332C122.995 47.4176 122.983 47.4041 122.97 47.3936C122.956 47.3831 122.94 47.3758 122.923 47.3724C122.906 47.3689 122.888 47.3694 122.872 47.3737C122.376 47.5009 121.661 47.642 120.728 47.7972C120.068 47.9104 119.49 48.2176 119.58 48.9321C119.648 49.4689 120.224 49.7922 120.712 49.7987C122.316 49.8288 123.084 49.0572 123.017 47.4836Z" fill="white"/>
<path d="M126.697 45.5856C126.682 45.9995 126.913 46.2689 127.392 46.3939C128.222 46.6116 129.01 46.8391 129.755 47.0762C130.936 47.448 131.301 48.764 130.583 49.7372C129.846 50.7363 128.207 50.8592 127.098 50.5617C126.151 50.3073 125.596 49.679 125.432 48.6767C125.424 48.6292 125.445 48.6012 125.497 48.5926L126.38 48.4665C126.462 48.4536 126.513 48.487 126.535 48.5667C126.785 49.5195 127.51 49.9118 128.711 49.7437C129.289 49.6617 129.641 49.3772 129.768 48.8901C129.811 48.7251 129.789 48.5498 129.705 48.4013C129.621 48.2529 129.482 48.1429 129.319 48.0947C128.644 47.8985 127.83 47.6646 126.878 47.393C125.297 46.9404 125.148 44.8484 126.616 44.2405C127.987 43.6715 130.441 43.7782 130.677 45.6923C130.688 45.7828 130.648 45.8281 130.557 45.8281H129.623C129.605 45.8283 129.587 45.822 129.573 45.8102C129.559 45.7984 129.549 45.7819 129.545 45.7634C129.461 45.3431 129.202 45.0747 128.769 44.9583C127.924 44.7298 127.277 44.8387 126.826 45.2849C126.745 45.3657 126.699 45.4735 126.697 45.5856Z" fill="white"/>
</svg>
