<svg width="27" height="21" viewBox="0 0 27 21" fill="none" xmlns="http://www.w3.org/2000/svg">
<path d="M1.61227 14.1114C3.02602 15.7665 5.28188 16.1603 6.65086 14.991C8.01985 13.8216 7.98356 11.5319 6.56981 9.87683C5.15606 8.22172 2.90021 7.82794 1.53122 8.9973C0.162236 10.1667 0.198523 12.4563 1.61227 14.1114Z" fill="white"/>
<path d="M5.82045 5.12106C6.56822 7.1653 8.54511 8.32108 10.236 7.70258C11.9268 7.08408 12.6913 4.9255 11.9436 2.88127C11.1958 0.837034 9.2189 -0.318751 7.52805 0.299751C5.8372 0.918252 5.07269 3.07683 5.82045 5.12106Z" fill="white"/>
<path d="M14.5795 3.1769C14.0904 5.29794 15.1161 7.34536 16.8705 7.74994C18.6248 8.15452 20.4436 6.76306 20.9327 4.64202C21.4218 2.52099 20.3962 0.473567 18.6418 0.0689849C16.8874 -0.335597 15.0687 1.05586 14.5795 3.1769Z" fill="white"/>
<path d="M20.2365 9.69201C19.0564 11.5211 19.3261 13.7951 20.839 14.7712C22.3518 15.7473 24.5349 15.0559 25.715 13.2268C26.8952 11.3978 26.6254 9.12375 25.1126 8.14764C23.5997 7.17154 21.4166 7.86297 20.2365 9.69201Z" fill="white"/>
<path d="M6.81659 18.2299C6.8861 20.7842 11.6411 20.1235 13.6527 19.6348C15.684 19.8688 20.6203 20.555 20.5508 18.0008C21.2066 15.5241 15.3615 8.01744 13.3499 8.5061C11.2366 8.41519 6.81859 15.8347 6.81659 18.2299Z" fill="white"/>
</svg>
