<svg width="57" height="32" viewBox="0 0 57 32" fill="none" xmlns="http://www.w3.org/2000/svg">
<path d="M33.0274 6.64495C32.9344 6.64293 32.8427 6.6226 32.7575 6.58513C32.6723 6.54765 32.5954 6.49377 32.5311 6.42656C32.4668 6.35934 32.4163 6.28011 32.3826 6.19339C32.3489 6.10668 32.3326 6.01417 32.3347 5.92116L32.4437 1.64068C32.4522 1.27971 32.5972 0.936761 32.8468 0.687205C33.0964 0.437649 33.43 0.301914 33.7745 0.309838L37.5258 0.403229C37.6966 0.407056 37.8649 0.446144 38.0212 0.518255C38.1774 0.590366 38.3185 0.694086 38.4363 0.823479C38.5542 0.952872 38.6464 1.1054 38.7079 1.27233C38.7693 1.43927 38.7987 1.61733 38.7943 1.79633L38.6854 6.07681C38.6834 6.16982 38.663 6.26152 38.6256 6.34668C38.5881 6.43183 38.5342 6.50877 38.467 6.57309C38.3998 6.63742 38.3205 6.68787 38.2338 6.72156C38.1471 6.75526 38.0546 6.77154 37.9616 6.76947L33.0274 6.64495Z" fill="white"/>
<path d="M45.184 24.2729C45.2463 24.3455 45.2956 24.3714 45.3319 24.3507H45.3397C45.4383 24.2988 45.4538 24.221 45.3864 24.1172C44.3331 22.4932 43.2046 21.0716 42.0009 19.8523C41.2538 19.0896 41.2616 18.5837 41.2382 17.6731C41.1915 16.0284 41.2123 13.608 41.3005 10.4119C41.4561 4.83949 40.9814 0.675751 47.4488 0.278833C49.161 0.169876 51.7293 0.203602 55.1537 0.380009C55.4592 0.395114 55.7493 0.519436 55.9719 0.730597C56.1945 0.941759 56.3349 1.22589 56.3678 1.53185L56.8191 5.85124C56.8762 6.42716 56.6168 6.71512 56.0409 6.71512H47.6667C47.6053 6.71377 47.5452 6.73323 47.4962 6.77033C47.4473 6.80744 47.4123 6.86 47.3969 6.9195C47.3816 6.979 47.3869 7.04193 47.4118 7.09808C47.4368 7.15422 47.48 7.20028 47.5344 7.22878L48.2971 7.64126C48.2934 7.64507 48.3059 7.64961 48.332 7.65396C48.3581 7.6583 48.3957 7.66212 48.4372 7.66461L55.9631 8.07709C56.0301 8.08196 56.0933 8.10954 56.1417 8.15503C56.19 8.20052 56.2204 8.26106 56.2277 8.32614L56.8347 14.1476C56.8451 14.2773 56.7854 14.3422 56.6557 14.3422H48.4528C48.3289 14.3422 48.2101 14.3914 48.1226 14.4789C48.035 14.5665 47.9858 14.6853 47.9858 14.8091V31.6275C47.9858 31.7365 47.9287 31.7883 47.8146 31.7832L41.6351 31.3318C41.5354 31.3239 41.4424 31.2795 41.3746 31.2073C41.3068 31.1352 41.2692 31.0407 41.2693 30.9426V20.5917C41.2697 20.5167 41.293 20.4437 41.3362 20.3825C41.3794 20.3213 41.4403 20.2748 41.5108 20.2493C41.5812 20.2239 41.6578 20.2206 41.7302 20.2401C41.8025 20.2596 41.8671 20.3008 41.9153 20.3582L45.184 24.2729Z" fill="white"/>
<path d="M27.027 24.7553C27.027 24.9253 27.094 25.0885 27.2134 25.2094C27.3329 25.3303 27.4952 25.3993 27.6652 25.4013C28.3449 25.4065 28.9467 25.6114 29.4708 26.0161C29.5669 26.0899 29.6475 26.183 29.7076 26.2899C29.7678 26.3968 29.8063 26.5154 29.821 26.6388L30.2646 30.9504C30.3113 31.4018 30.1063 31.6326 29.6498 31.643C20.4454 31.7675 13.3762 31.739 8.44194 31.5574C5.65573 31.4588 3.71784 31.0645 2.62827 30.3744C-0.430332 28.4443 0.0521951 25.806 0.0677605 21.868C0.0937028 16.4927 0.0755434 13.0165 0.0132819 11.4392C-0.074922 9.10436 0.563259 7.25467 1.92782 5.89011C2.63864 5.17929 3.6011 4.80831 4.8152 4.77718C11.1659 4.62672 16.5152 4.62412 20.8631 4.7694C22.5027 4.82128 23.7012 5.2182 24.4587 5.96015C26.2799 7.73461 26.8169 9.18997 26.8636 11.9295C26.9725 18.3476 27.027 22.6229 27.027 24.7553ZM20.7888 11.1382C20.7885 10.9896 20.7292 10.8472 20.624 10.7423C20.5187 10.6374 20.3761 10.5786 20.2275 10.5789L6.45213 10.6029C6.30353 10.6032 6.16112 10.6625 6.05623 10.7677C5.95133 10.873 5.89255 11.0156 5.89279 11.1642L5.91684 24.9396C5.91711 25.0882 5.97639 25.2306 6.08165 25.3355C6.18691 25.4404 6.32953 25.4992 6.47813 25.4989L20.2535 25.4749C20.4021 25.4746 20.5445 25.4153 20.6494 25.31C20.7543 25.2048 20.8131 25.0622 20.8128 24.9136L20.7888 11.1382Z" fill="white"/>
<path d="M33.5643 8.01465H37.7125C38.0654 8.01465 38.4039 8.15486 38.6535 8.40444C38.9031 8.65402 39.0433 8.99253 39.0433 9.34549V30.4288C39.0433 30.7818 38.9031 31.1203 38.6535 31.3698C38.4039 31.6194 38.0654 31.7596 37.7125 31.7596H33.5643C33.2113 31.7596 32.8728 31.6194 32.6233 31.3698C32.3737 31.1203 32.2335 30.7818 32.2335 30.4288V9.34549C32.2335 8.99253 32.3737 8.65402 32.6233 8.40444C32.8728 8.15486 33.2113 8.01465 33.5643 8.01465Z" fill="white"/>
</svg>
