<svg width="97" height="68" viewBox="0 0 97 68" fill="none" xmlns="http://www.w3.org/2000/svg">
<path fill-rule="evenodd" clip-rule="evenodd" d="M25.8147 12.9164C26.5953 14.8567 27.9792 17.5155 29.8476 17.9297C31.5695 18.3115 33.6881 18.1272 35.4853 17.9212C36.5256 17.802 37.6373 18.183 38.1113 19.1167C38.9417 20.7523 38.3665 22.6183 32.1776 26.9873C31.6177 27.3825 31.0795 27.76 30.5606 28.1239C23.7143 32.9253 20.2243 35.3729 14.6057 45.2464C13.1036 48.3243 11.6895 53.8443 13.6816 60.4777L13.6827 60.4815C13.7722 60.7792 13.8842 61.1522 13.6447 61.3494C12.083 62.6353 0.730747 55.634 1.93128 47.9446C2.0689 47.0632 1.33342 46.2615 0.882485 47.0313C0.359695 47.9237 -0.194556 50.6011 0.0668386 52.7684C0.328233 54.9358 3.59567 65.1352 19.8021 67.43C25.9014 67.6425 37.3993 67.838 38.1312 66.92C39.0461 65.7726 39.3075 64.8801 36.0401 64.4977C34.8356 64.3567 34.0474 63.9757 33.5476 63.5393C32.7515 62.8442 33.3589 61.7674 34.1035 61.0175C34.7106 60.4061 35.2696 59.6166 35.3866 58.7605C35.648 56.8482 38.7847 52.7684 39.5689 52.7684C40.3531 52.7684 41.13 55.2108 41.2607 55.9757C41.2695 56.0275 41.2835 56.1075 41.3017 56.2119C41.4987 57.3414 42.1939 61.3274 42.3135 63.3502C42.4442 64.4127 43.2546 66.5375 45.4503 66.5375C45.882 66.5375 46.3137 66.5439 46.7357 66.55C48.9969 66.5831 50.9807 66.612 51.201 65.6451C51.4624 64.4977 50.9396 63.9877 48.1949 62.4578C46.0734 61.2752 45.1931 53.9177 45.8041 49.4352C45.8457 49.1298 45.9452 48.8364 46.0858 48.5621L46.7396 47.2866C46.8452 47.0806 46.9681 46.8752 47.0921 46.668C47.1001 46.6547 47.1081 46.6413 47.1161 46.6279C47.4851 47.5208 47.7162 49.3393 47.8494 50.3876C47.8886 50.6962 47.9193 50.9381 47.9426 51.0699C48.0473 51.6631 48.3353 56.0955 48.4663 58.2376C48.5972 59.2674 49.4089 61.3271 51.6083 61.3271C52.0407 61.3271 52.4731 61.3332 52.8959 61.3392C55.1608 61.3712 57.1479 61.3993 57.3686 60.4621C57.6121 59.4277 56.6808 58.9277 54.3378 57.67C54.1615 57.5753 53.9772 57.4763 53.7847 57.3725C51.6493 56.2207 52.7248 39.6105 53.3765 30.5226C53.414 30 53.3142 29.4781 53.0869 29.0061L50.6167 23.8766C50.595 23.8315 50.5745 23.786 50.5551 23.74C50.9203 22.6982 51.2311 21.8251 51.4975 21.0769C52.4755 18.3293 52.8536 17.2669 53.123 15.7269C53.3456 13.4597 53.4109 10.8135 52.8136 8.37969C53.8118 6.95901 55.0721 4.98992 55.0721 4.07313C55.0721 2.86363 52.289 1.41369 48.9294 0.503353C46.5768 -0.134108 44.2462 0.00672538 43.4077 0.798345C43.3555 0.798345 43.2784 0.793531 43.1775 0.787244C42.2882 0.731783 39.5597 0.561626 35.9471 2.56879C35.7806 2.66131 35.6222 2.76957 35.4965 2.91275C34.9783 3.50316 34.3471 4.69155 33.7144 5.88289C32.8595 7.49239 32.0018 9.10728 31.4159 9.2603C31.2457 9.30476 30.9979 9.35846 30.6981 9.42341C29.5083 9.68122 27.5006 10.1163 26.2814 10.8542C25.5851 11.2757 25.5109 12.1613 25.8147 12.9164Z" fill="white"/>
<path d="M59.5579 64.8632C60.3738 64.851 61.2343 64.6989 62.0406 64.4975C64.1739 63.9649 66.3721 63.7929 68.4883 64.3898C69.5719 64.6954 70.6944 64.8405 71.82 64.8205L82.3535 64.6327C84.5217 64.5941 86.6931 64.156 88.4696 62.9123C91.2299 60.98 94.4384 57.8906 95.5728 54.497C97.5332 48.6324 96.8798 42.1303 95.5728 40.6004C94.2658 39.0705 93.4389 41.2417 93.3834 41.6204C93.2527 42.5128 93.4816 43.283 93.0895 49.2751C92.7759 54.0688 87.7745 58.1093 85.6398 59.2142C85.6398 59.1717 86.3194 58.327 86.424 57.8171C86.5547 57.1796 87.8616 53.3548 85.117 44.0479C82.8814 36.4673 73.9693 30.4092 70.8107 28.3537C70.0577 27.8637 70.0713 27.3512 70.7937 26.8171C73.367 24.9146 75.1998 23.0359 75.3147 21.3544C75.4454 19.442 73.4849 18.6771 73.4849 18.5496C73.4849 16.478 71.1212 14.955 69.823 14.3959C69.7628 14.3699 69.7474 14.2909 69.7944 14.2451C69.814 14.226 69.824 14.1991 69.8214 14.1718C69.7736 13.6718 69.6363 12.4138 69.4333 11.0276C69.1719 9.24268 68.5671 8.64862 68.3877 8.6052C68.0944 8.5342 67.4827 9.90051 67.0902 10.6276C67.0838 10.6395 67.0787 10.6515 67.0746 10.6643L67.0489 10.7445C66.9785 10.9641 66.6544 10.9135 66.6544 10.6828C66.6544 10.6579 66.6502 10.6342 66.6409 10.611C66.5414 10.362 65.9127 8.83561 65.5124 8.98767C64.6939 9.29858 62.2881 13.0674 61.2425 14.3423C60.1969 15.6173 57.0533 22.4857 55.4812 28.1088C53.9128 33.7184 57.6706 46.9802 57.932 47.8727C58.1254 48.5333 59.0798 51.9373 59.6355 53.9235C59.7199 54.225 59.7949 54.5256 59.855 54.8329C60.1426 56.3045 60.9282 60.8265 59.7617 61.0043C59.1635 61.0955 58.3566 61.3151 57.713 61.6891C56.0815 62.6374 57.671 64.8914 59.5579 64.8632Z" fill="white"/>
</svg>
