<svg width="131" height="121" viewBox="0 0 131 121" fill="none" xmlns="http://www.w3.org/2000/svg">
<path d="M119.026 68.3065C116.907 81.2926 110.004 93.0123 98.7649 100.696C87.5321 108.375 71.8407 112.106 52.0029 108.869C29.8668 105.257 19.2654 98.1458 14.0881 90.1735C8.90544 82.1928 8.90578 73.0237 8.90611 64.4045L8.90611 64.2032C8.90612 55.7699 11.0482 40.1798 18.4903 27.6446C22.1981 21.3994 27.1875 15.9681 33.8304 12.5171C40.4583 9.0739 48.8497 7.54058 59.4835 9.27587C102.702 16.3285 123.197 42.747 119.026 68.3065Z" fill="#10B981" stroke="#10B981" stroke-width="3.02384"/>
<path d="M60.7476 87.5387C62.8093 89.9524 66.0991 90.5267 68.0956 88.8214C70.092 87.116 70.0391 83.7769 67.9774 81.3632C65.9157 78.9495 62.6258 78.3752 60.6294 80.0806C58.6329 81.7859 58.6859 85.125 60.7476 87.5387Z" fill="white"/>
<path d="M66.8846 74.4277C67.9751 77.4089 70.8581 79.0944 73.3239 78.1924C75.7897 77.2904 76.9047 74.1425 75.8142 71.1613C74.7237 68.1801 71.8407 66.4946 69.3748 67.3965C66.909 68.2985 65.7941 71.4465 66.8846 74.4277Z" fill="white"/>
<path d="M79.6583 71.5924C78.945 74.6856 80.4408 77.6715 82.9993 78.2615C85.5577 78.8515 88.2101 76.8223 88.9234 73.7291C89.6367 70.6359 88.141 67.65 85.5825 67.06C83.024 66.47 80.3717 68.4992 79.6583 71.5924Z" fill="white"/>
<path d="M87.9081 81.0937C86.1871 83.7611 86.5805 87.0774 88.7868 88.5009C90.993 89.9244 94.1767 88.916 95.8977 86.2486C97.6187 83.5813 97.2253 80.265 95.0191 78.8415C92.8128 77.418 89.6291 78.4263 87.9081 81.0937Z" fill="white"/>
<path d="M68.3373 93.5448C68.4386 97.2699 75.3731 96.3064 78.3067 95.5937C81.269 95.935 88.4678 96.9357 88.3665 93.2107C89.3228 89.5989 80.7986 78.6516 77.865 79.3642C74.7832 79.2316 68.3402 90.0519 68.3373 93.5448Z" fill="white"/>
<path d="M44.5041 60.9202C43.1047 61.2701 41.3678 61.445 39.2936 61.445C37.2194 61.445 35.47 61.2701 34.0456 60.9202C32.6461 60.5454 31.3716 59.8706 30.222 58.896C27.9479 56.9717 26.8108 53.2106 26.8108 47.6128C26.8108 42.2148 27.9979 38.5537 30.372 36.6294C31.5465 35.6798 32.8335 35.0175 34.233 34.6427C35.6325 34.2678 37.3068 34.0804 39.2561 34.0804C41.2304 34.0804 42.9172 34.2678 44.3167 34.6427C45.7412 35.0175 47.0407 35.6798 48.2152 36.6294C50.5893 38.5537 51.7764 42.2148 51.7764 47.6128C51.7764 53.2106 50.6393 56.9717 48.3652 58.896C47.2156 59.8706 45.9286 60.5454 44.5041 60.9202ZM38.5064 55.0724C38.7063 55.3973 38.9687 55.5598 39.2936 55.5598C39.6435 55.5598 39.9184 55.3973 40.1183 55.0724C40.3182 54.7226 40.4806 53.9729 40.6056 52.8233C40.7306 51.6737 40.793 50.0368 40.793 47.9126C40.793 45.7885 40.7306 44.1391 40.6056 42.9645C40.4806 41.765 40.3182 40.9778 40.1183 40.6029C39.9184 40.2031 39.6435 40.0031 39.2936 40.0031C38.9687 40.0031 38.7063 40.1906 38.5064 40.5654C38.0066 41.4151 37.7567 43.8642 37.7567 47.9126C37.7567 51.9361 38.0066 54.3227 38.5064 55.0724ZM68.3671 60.208C68.3671 60.4829 67.6049 60.7078 66.0804 60.8828C64.556 61.0327 63.0316 61.1077 61.5072 61.1077C59.9828 61.1077 58.9956 61.0452 58.5458 60.9202C58.121 60.7703 57.9085 60.5329 57.9085 60.208V44.0141H54.085C53.6601 44.0141 53.4477 43.102 53.4477 41.2777C53.4477 39.4533 53.6601 37.804 54.085 36.3295C54.2099 35.8547 55.5344 35.4174 58.0585 35.0175C60.5825 34.6177 62.5193 34.4177 63.8688 34.4177C65.2183 34.4177 66.1179 34.4677 66.5678 34.5677C67.0176 34.6677 67.355 34.7926 67.5799 34.9425C67.8048 35.0675 67.9797 35.2174 68.1047 35.3924C68.2796 35.6673 68.3671 35.9297 68.3671 36.1796V60.208Z" fill="white"/>
</svg>
